<svg width="305" height="360" viewBox="0 0 305 360" fill="none" xmlns="http://www.w3.org/2000/svg">
<path d="M245.784 4.17078C252.775 4.46751 259.648 6.86818 266.578 7.72078C277.016 9.00509 287.528 11.4319 297.905 13.29C300.818 13.8117 307.597 14.4371 301.208 15.414C293.869 16.5362 286.743 17.6384 279.339 18.391C269.84 19.3564 260.217 19.4884 250.741 20.7528C249.765 20.8832 245.247 20.9347 244.411 21.7357C244.21 21.9282 248.426 22.7059 248.818 22.7677C263.246 25.044 277.737 27.8333 292.005 30.8598C296.694 31.8544 289.36 32.3659 287.556 32.8041C279.939 34.6538 271.133 35.3224 263.304 35.5394C259.626 35.6413 255.952 35.9931 252.278 36.04C249.294 36.0782 246.513 37.1378 243.56 37.162C241.111 37.182 236.995 37.6916 242.218 37.7659C249.441 37.8688 256.815 39.3686 263.974 40.2566C268.248 40.7868 272.556 40.7236 276.838 41.236C277.133 41.2713 283.011 41.646 280.469 42.5338C275.368 44.3154 269.653 44.8768 264.384 45.9393C260.131 46.7971 253.111 47.7735 249.548 50.3318" stroke="#8A9ACE" stroke-linecap="round"/>
<path d="M261.842 310.415C265.751 313.194 268.785 317.14 272.445 320.216C277.959 324.85 283.076 330.169 288.334 335.11C289.81 336.497 293.471 339.387 289.42 337.564C284.767 335.471 280.245 333.445 275.696 331.115C269.86 328.125 264.272 324.61 258.335 321.801C257.723 321.511 255.104 319.855 254.316 320.004C254.127 320.04 256.254 322.06 256.456 322.242C263.885 328.935 271.153 335.947 278.201 343.012C280.518 345.334 276.102 342.891 274.896 342.47C269.804 340.691 264.481 337.79 259.893 334.993C257.737 333.679 255.489 332.51 253.357 331.166C251.625 330.074 249.619 329.646 247.91 328.558C246.493 327.655 243.93 326.412 246.906 328.404C251.023 331.159 254.691 334.773 258.469 337.955C260.725 339.856 263.228 341.427 265.495 343.319C265.652 343.45 268.89 345.859 267.087 345.421C263.469 344.542 259.965 342.732 256.526 341.377C253.75 340.283 249.336 338.225 246.305 338.366" stroke="#8A9ACE" stroke-linecap="round"/>
<path d="M3.74386 272.156C6.35246 269.314 9.83081 267.268 12.6586 264.649C16.9182 260.703 21.6989 257.132 26.1852 253.416C27.4447 252.373 30.1207 249.736 28.2775 252.777C26.1602 256.271 24.1101 259.667 21.8096 263.056C18.8583 267.404 15.5018 271.509 12.6883 275.954C12.3983 276.412 10.8178 278.335 10.8685 278.972C10.8807 279.125 12.7132 277.624 12.879 277.48C18.9839 272.204 25.3333 267.084 31.7061 262.142C33.8005 260.518 31.4205 263.793 30.9703 264.709C29.0699 268.578 26.2358 272.528 23.5525 275.907C22.2918 277.494 21.1411 279.168 19.8582 280.734C18.816 282.006 18.2887 283.555 17.2515 284.809C16.3915 285.848 15.1521 287.765 17.0371 285.589C19.6441 282.58 22.91 280.003 25.8343 277.299C27.5805 275.685 29.0812 273.846 30.8223 272.222C30.9422 272.11 33.1897 269.765 32.6728 271.152C31.6354 273.936 29.8511 276.545 28.4425 279.144C27.3054 281.242 25.2383 284.549 25.083 286.96" stroke="#8A9ACE" stroke-linecap="round"/>
</svg>
