<svg width="307" height="311" viewBox="0 0 307 311" fill="none" xmlns="http://www.w3.org/2000/svg">
<path d="M42.7288 87.1491C38.3498 86.8522 33.8793 86.31 29.4906 86.2499C28.1551 86.2316 24.8117 86.8875 23.6708 86.0001C20.9594 83.8913 25.1697 77.2028 22.0472 75.5594C18.3602 73.6189 13.4622 74.5921 9.5334 74.9849C7.64369 75.1739 6.76087 74.2442 6.76087 72.3123" stroke="#8A9ACE" stroke-linecap="round"/>
<path d="M118.262 28.7016C117.636 27.4402 108.837 13.732 113.067 11.6168C115.107 10.5966 118.262 9.27117 118.262 6.57129C118.262 4.65633 118.262 2.74137 118.262 0.826414" stroke="#8A9ACE" stroke-linecap="round"/>
<path d="M192.895 23.3069C194.536 18.7319 195.208 14.4246 196.392 9.81896C197.147 6.88178 199.254 7.57097 201.887 7.57097C203.414 7.57097 205.453 7.93018 206.933 7.47106C208.433 7.00556 209.627 6.13502 211.229 5.87248C213.811 5.44915 217.346 4.63302 218.073 1.72618" stroke="#8A9ACE" stroke-linecap="round"/>
<path d="M288 262.503C291.079 263.855 292.268 267.387 295.418 268.548C298.069 269.524 298.608 270.968 296.492 273.318C294.12 275.955 292.046 277.406 292.046 281.036C292.046 282.882 292.627 283.983 293.745 285.432C294.405 286.289 295.66 286.814 296.093 287.68" stroke="#8A9ACE" stroke-linecap="round"/>
<path d="M238.754 280.477C240 283.225 241.114 285.583 243.15 287.771C243.98 288.661 244.15 289.669 244.15 290.818C244.15 293.264 243.016 295.412 242.451 297.812C241.616 301.36 242.588 306.814 243.7 310.151" stroke="#8A9ACE" stroke-linecap="round"/>
<path d="M122.308 287.671C119.053 291.198 112.884 290.606 108.92 293.066C103.786 296.253 98.9956 296.347 93.0845 297.013C91.1017 297.236 88.2571 296.873 86.5903 298.237C85.4696 299.154 85.5593 300.823 84.9917 302.058C84.3891 303.37 82.1768 310.581 80.9453 305.655" stroke="#8A9ACE" stroke-linecap="round"/>
<path d="M42.2806 260.245C39.3532 263.172 36.0417 264.713 32.3894 266.539C29.3701 268.049 30.1443 271.28 28.5678 273.733C26.1731 277.458 19.146 273.733 15.7542 273.733" stroke="#8A9ACE" stroke-linecap="round"/>
<path d="M32.3885 217.983C27.6079 217.152 22.9404 216.634 18.1013 216.634C15.5735 216.634 13.3414 217.534 10.8078 217.534C8.35001 217.534 6.36018 217.479 4.5134 215.735C3.50591 214.784 2.70707 214.836 1.36621 214.836" stroke="#8A9ACE" stroke-linecap="round"/>
<path d="M37.3342 35.8952C34.3203 33.2478 31.582 31.3608 28.4421 29.1512C26.9132 28.0753 24.637 26.7151 24.7454 24.6552C24.8706 22.278 27.0018 21.0503 26.4439 18.2609C25.857 15.3264 23.3686 12.9096 22.0479 10.2681" stroke="#8A9ACE" stroke-linecap="round"/>
<path d="M271.126 19.2605C273.341 16.0412 275.378 11.6686 278.32 8.9947C280.32 7.17636 282.748 7.76749 285.213 8.07052C288.824 8.51439 297.245 11.4018 299.676 7.62092C300.035 7.06203 300.771 6.69996 301.249 6.22217" stroke="#8A9ACE" stroke-linecap="round"/>
<path d="M290 78C292.692 76.9349 294.559 74.8889 297.173 74.8889C297.982 74.8889 298.817 74.6997 299.553 75.2346C300.682 76.056 301 75.8401 301 74" stroke="#8A9ACE" stroke-linecap="round"/>
<path d="M294 142.99C294.88 142.99 295.76 142.99 296.64 142.99C298.061 142.99 298.922 144.089 300.343 143.98C301.779 143.869 301.333 142 302.909 142C303.839 142 304.6 142.33 305.549 142.33" stroke="#8A9ACE" stroke-linecap="round"/>
<path d="M294.215 199.145C296.224 200.09 297.257 201.274 298.505 203.178C299.416 204.569 299.249 206.266 300.154 207.651C300.963 208.888 302.055 210.506 302.134 212.014C302.226 213.76 300.207 216.095 301.804 217.293" stroke="#8A9ACE" stroke-linecap="round"/>
</svg>
