<svg width="218" height="209" viewBox="0 0 218 209" fill="none" xmlns="http://www.w3.org/2000/svg">
<path d="M116.747 74.6702C108.386 71.1498 92.4781 73.3784 85.2922 78.2312C79.3836 82.2214 76.2987 97.7417 80.2476 104.246C85.5992 113.06 98.823 113.84 108.24 113.84C113.422 113.84 117.529 114.491 120.753 109.834C125.001 103.699 124.759 97.3532 124.759 90.1998C124.759 79.3583 117.268 74.6702 106.955 74.6702" stroke="#8A9ACE" stroke-linecap="round"/>
<path d="M82.9183 118.292C68.5212 118.292 81.0246 157.513 68.6746 163.001C62.3774 165.8 53.9619 162.804 47.7542 162.804C41.0912 162.804 38.4067 164.629 38.4067 171.261C38.4067 179.622 73.1353 177.938 78.9123 177.938C82.5973 177.938 83.7999 177.546 86.9244 176.157C91.767 174.005 91.6062 168.628 93.4033 164.584C95.6195 159.598 93.9922 154.068 99.8328 152.121" stroke="#8A9ACE" stroke-linecap="round"/>
<path d="M130.991 119.182C136.598 119.182 139.14 125.841 140.783 130.359C141.863 133.327 142.347 136.01 143.256 138.965C144.211 142.068 142.698 145.658 143.652 148.758C145.171 153.694 145.647 159.216 150.131 162.804C151.668 164.033 152.976 164.584 155.027 164.584C157.917 164.584 160.153 166.364 163.039 166.364C166.232 166.364 172.643 168.596 173.672 172.2C174.478 175.021 175.62 177.355 175.502 180.41C175.382 183.54 166.543 183.279 164.127 183.279C156.596 183.279 150.119 181.347 143.009 179.767C138.799 178.832 135.696 178.955 131.881 177.047" stroke="#8A9ACE" stroke-linecap="round"/>
<path d="M98.0522 187.73C93.5779 187.233 92.2841 181.498 86.9243 181.498C82.8281 181.498 76.8206 178.907 72.6806 177.987C67.2665 176.784 61.1843 177.2 55.7168 176.206C50.7085 175.296 41.6289 176.495 37.9616 180.163C35.6944 182.43 32.7111 182.598 31.4827 186.147C31.0872 187.29 30.6976 192.245 31.73 193.071C33.2754 194.307 33.4817 196.381 35.9338 197.325C39.7017 198.774 42.4549 199.676 46.4188 200.242C53.1648 201.206 59.545 203.754 66.449 203.754C73.1566 203.754 79.9724 206.425 86.4792 206.425C101.408 206.425 116.871 207.635 131.683 208.205C137.599 208.433 143.566 208.205 149.488 208.205C156.546 208.205 164.264 209.918 168.183 202.864C174.615 191.285 165.504 183.279 153.939 183.279C149.953 183.279 117.637 180.697 117.637 187.73" stroke="#8A9ACE" stroke-linecap="round"/>
<path d="M56.2113 122.743C43.1506 115.327 29.7185 110.969 16.1509 104.938" stroke="#8A9ACE" stroke-linecap="round"/>
<path d="M1.01685 80.902C1.7633 82.0791 8.01945 90.1641 8.1387 85.1554C8.22514 81.5251 8.29733 79.1216 4.37994 79.1216C-0.216787 79.1216 0.64423 84.7525 4.37994 86.0456C6.23128 86.6865 5.46801 80.3505 5.46801 79.1216" stroke="#8A9ACE" stroke-linecap="round"/>
<path d="M73.1258 62.2072C69.2687 51.2073 63.3744 40.0162 57.1016 30.1589C55.1128 27.0336 53.7278 20.7254 49.9797 19.4761" stroke="#8A9ACE" stroke-linecap="round"/>
<path d="M42.8579 6.12265C43.2769 9.89331 50.4914 12.2298 52.6505 8.99117C57.1798 2.19718 49.3049 -1.21455 44.6384 3.45195" stroke="#8A9ACE" stroke-linecap="round"/>
<path d="M114.967 60.4267C116.05 48.5052 122.979 36.9389 122.979 24.8174" stroke="#8A9ACE" stroke-linecap="round"/>
<path d="M120.308 4.34238C124.303 14.3286 128.607 3.45215 124.759 3.45215" stroke="#8A9ACE" stroke-linecap="round"/>
<path d="M136.332 82.6824C149.746 82.6824 163.084 76.7285 175.502 72.1974C180.471 70.3847 191.28 70.4657 195.088 66.6582" stroke="#8A9ACE" stroke-linecap="round"/>
<path d="M210.221 59.5365C210.221 62.9574 209.998 66.4926 214.475 66.6583C218.419 66.8044 217.343 63.7213 217.343 60.4762C217.343 51.7403 202.551 63.0974 211.112 63.0974" stroke="#8A9ACE" stroke-linecap="round"/>
<path d="M150.576 115.621C160.55 115.621 170.756 114.923 180.646 116.314C185.531 117.001 190.158 117.402 195.088 117.402" stroke="#8A9ACE" stroke-linecap="round"/>
<path d="M209.331 116.511C206.424 122.691 215.637 123.2 216.354 119.973C218.371 110.898 201.306 115.082 209.331 118.292" stroke="#8A9ACE" stroke-linecap="round"/>
</svg>
