<svg width="118" height="55" viewBox="0 0 118 55" fill="none" xmlns="http://www.w3.org/2000/svg">
<path d="M35.7954 39.1273C35.7954 35.1381 44.9088 35.5243 47.5868 35.5243C52.3832 35.5243 56.4053 35.7599 60.6884 37.9627C63.0669 39.1859 65.0898 43.1724 65.2739 45.7508C65.4778 48.6047 65.929 51.2765 65.929 54.1941" stroke="#8A9ACE" stroke-linecap="round"/>
<path d="M34.4854 30.2833C36.784 30.0534 39.0698 29.5137 41.3819 29.2825C44.1413 29.0065 46.8384 28.9731 49.6249 28.9731C55.3566 28.9731 62.1461 29.8112 67.2393 32.5761C70.2536 34.2124 71.7516 39.1622 73.0622 42.0747C74.146 44.4832 74.1176 47.9946 74.1176 50.5907" stroke="#8A9ACE" stroke-linecap="round"/>
<path d="M35.4673 23.0775C35.6613 21.525 42.2995 21.0863 43.3464 20.9485C46.4832 20.5358 49.8027 20.4572 52.9724 20.4572C56.7055 20.4572 60.3901 20.4388 64.1088 20.7847C67.3948 21.0904 70.3997 22.7858 73.1161 24.5514C76.9516 27.0446 78.6912 32.3391 79.8488 36.5066C80.8921 40.2626 81.6503 44.037 81.6503 47.9705" stroke="#8A9ACE" stroke-linecap="round"/>
<path d="M42.2432 43.1443C43.405 43.0152 44.6359 42.8096 45.8181 42.6546C47.8894 42.3829 49.6167 42.644 51.6458 42.9239C54.4899 43.3162 58.5509 46.3136 58.5509 49.5351" stroke="#8A9ACE" stroke-linecap="round"/>
<path d="M45.99 48.8735C45.1191 50.9782 44.9435 52.626 47.4347 53.232C49.5561 53.748 51.6117 52.7741 51.4994 50.4161C51.4255 48.8648 49.8349 48.4496 48.6345 48.2613C47.8906 48.1446 46.9003 48.0779 46.2104 48.4327C45.2932 48.9044 44.9842 49.8104 44.2271 50.4161" stroke="#8A9ACE" stroke-linecap="round"/>
<path d="M109.104 35.7222C109.376 35.3147 110.569 33.0049 111.054 32.8663C111.287 32.7996 111.581 34.9212 111.581 35.2061C111.581 35.9229 112.07 35.641 112.614 35.8828C112.872 35.9976 114.717 36.3533 114.632 36.548C114.325 37.2509 111.041 36.3603 111.891 37.8899C112.126 38.3128 112.381 39.1716 112.407 39.6448C112.464 40.6679 112.219 40.0754 111.581 39.4383C111.169 39.0258 110.78 38.7521 110.251 38.6011C109.706 38.4453 109.702 37.5803 108.978 37.5803C108.04 37.5803 107.293 38.1996 106.42 38.1996C105.816 38.1996 105.302 38.5331 106.007 37.7867C106.733 37.0185 106.627 36.0301 106.627 34.9996C106.627 33.2685 109.723 36.8142 109.723 35.7222" stroke="#8A9ACE" stroke-linecap="round"/>
<path d="M3.44752 13.4846C4.13283 12.7993 4.65189 12.0444 5.28609 11.3356C5.38658 11.2233 5.40523 10.6174 5.69201 10.8222C5.90172 10.972 6.22788 11.7435 6.33671 11.9922C6.58643 12.563 6.45149 13.4846 7.14855 13.4846C8.11759 13.4846 9.04305 13.9144 9.98999 13.9144C10.8084 13.9144 9.88715 14.4771 9.57213 14.5471C8.841 14.7096 7.75612 14.709 7.1008 15.0366C6.7227 15.2257 9.13073 18.1832 8.60509 18.2124C6.76179 18.3148 5.63435 16.2783 3.97282 16.2783C3.22897 16.2783 2.47078 16.3219 1.72833 16.2783C1.31877 16.2542 2.27287 15.4933 2.49241 15.4306C4.27838 14.9203 2.40194 13.3948 1.77608 12.7921C1.49108 12.5177 0.3399 11.581 1.52537 12.0997C2.53696 12.5423 3.442 12.7848 4.52201 13.0548" stroke="#8A9ACE" stroke-linecap="round"/>
<path d="M65.5534 3.38401C66.1913 2.7461 66.3989 2.00431 66.9502 1.33053C67.6966 0.418241 67.7588 1.59902 67.9053 2.40502C68.1301 3.64117 69.7795 4.0287 70.8781 4.0287C72.0469 4.0287 70.202 4.2436 69.8513 4.2436C69.1539 4.2436 67.4875 4.15252 67.4875 4.99575C67.4875 5.62372 67.7266 6.21519 67.8695 6.82239C68.0336 7.5199 68.4451 8.47694 67.4397 7.68198C66.7055 7.10147 65.6519 6.48516 65.3385 5.54493C65.1598 5.00902 62.911 5.3181 62.4493 5.3181C61.8322 5.3181 59.9937 5.533 60.6107 5.533C61.2648 5.533 61.9762 5.34061 62.5925 5.15095C64.5468 4.54964 62.3408 2.98142 61.9001 1.87972C61.5629 1.03666 62.5121 1.8634 62.9746 2.09461C63.6511 2.43288 64.3649 2.73931 65.1236 2.73931" stroke="#8A9ACE" stroke-linecap="round"/>
<path d="M110.033 7.46363C110.075 7.12738 112.256 5.03128 112.753 5.29307C113.406 5.63635 113.429 6.61719 113.99 6.91412C114.354 7.10673 115.068 6.96907 115.473 6.96907C118.211 6.96907 115.074 8.33593 114.787 8.94731C114.336 9.90506 116.748 11.1892 114.182 10.2387C113.112 9.8425 112.431 8.38821 111.27 8.45275C110.833 8.477 109.063 9.25943 109.099 9.19459C109.343 8.7603 109.671 8.28711 109.978 7.90324C110.33 7.46332 108.752 6.92453 108.495 6.66684C106.736 4.90768 109.75 6.47451 110.528 6.47451" stroke="#8A9ACE" stroke-linecap="round"/>
</svg>
