<svg width="738" height="731" viewBox="0 0 738 731" fill="none" xmlns="http://www.w3.org/2000/svg">
<path d="M24.3123 328.862C21.6596 312.945 17.5006 296.696 16.2663 280.649C14.4816 257.449 7.6512 227.702 18.0543 206.064C23.3612 195.025 33.3667 188.372 44.8744 185.757C51.9647 184.146 57.3506 187.996 63.9039 190.355C82.1485 196.923 91.3562 175.836 97.8761 161.938C106.539 143.472 112.921 125.189 115.118 104.722C117.521 82.3349 116.965 59.6933 121.503 37.5439C123.734 26.6579 128.177 16.4834 131.21 5.87061" stroke="#8A9ACE" stroke-linecap="round"/>
<path d="M354.2 2.42225C361.029 -0.613011 373.35 0.569219 380.637 1.78368C386.492 2.75953 392.292 5.30996 396.665 9.31886C405.535 17.4493 413.087 27.3764 423.166 34.0956C439.129 44.7375 460.364 46.6469 478.977 47.8249C504.269 49.4256 529.691 51.0756 554.84 46.9948C581.736 42.6306 607.837 35.7558 635.237 35.7558C646.295 35.7558 660.965 34.7882 669.656 43.1633C683.938 56.9259 698.416 74.8366 719.72 74.8366" stroke="#8A9ACE" stroke-linecap="round"/>
<path d="M736.962 248.401C727.08 255.603 722.414 262.683 716.016 272.795C703.629 292.375 693.506 308.816 692.389 332.949C691.304 356.405 697.926 377.947 699.924 401.021C700.821 411.367 701.638 424.16 696.221 433.46C688.601 446.544 675.765 452.778 664.547 462.196C655.939 469.424 647.775 478.5 642.708 488.633C634.689 504.671 635.811 525.173 635.811 542.657" stroke="#8A9ACE" stroke-linecap="round"/>
<path d="M77.1862 730.015C77.1862 718.562 77.5311 707.042 77.1223 695.595C76.7191 684.306 72.4287 673.907 71.439 662.773C70.4458 651.599 68.0779 640.444 66.2665 629.375C64.2679 617.161 62.6569 604.203 57.5819 592.785C48.6595 572.709 27.3743 571.468 12.307 558.493C9.58385 556.149 -6.84512 544.23 4.7718 540.358" stroke="#8A9ACE" stroke-linecap="round"/>
</svg>
