<svg width="68" height="65" viewBox="0 0 68 65" fill="none" xmlns="http://www.w3.org/2000/svg">
<path d="M36.3934 23.4391C33.8363 22.3625 28.9712 23.044 26.7736 24.5282C24.9666 25.7485 24.0231 30.495 25.2308 32.4841C26.8675 35.1799 30.9117 35.4185 33.7918 35.4185C35.3765 35.4185 36.6325 35.6175 37.6185 34.1933C38.9176 32.3169 38.8437 30.3762 38.8437 28.1885C38.8437 24.8728 36.5526 23.4391 33.3985 23.4391" stroke="#8A9ACE" stroke-linecap="round"/>
<path d="M26.048 36.7798C21.6449 36.7798 25.4688 48.7745 21.6918 50.4532C19.766 51.3091 17.1923 50.3927 15.2938 50.3927C13.256 50.3927 12.4351 50.9509 12.4351 52.9791C12.4351 55.5362 23.056 55.0211 24.8228 55.0211C25.9498 55.0211 26.3176 54.9012 27.2731 54.4766C28.7541 53.8183 28.7049 52.1738 29.2546 50.9372C29.9323 49.4122 29.4347 47.721 31.2209 47.1256" stroke="#8A9ACE" stroke-linecap="round"/>
<path d="M40.75 37.0518C42.4649 37.0518 43.2423 39.0882 43.7448 40.4701C44.0749 41.3778 44.2231 42.1982 44.5011 43.1019C44.7931 44.051 44.3305 45.149 44.6221 46.0968C45.0867 47.6066 45.2323 49.2954 46.6035 50.3924C47.0736 50.7685 47.4738 50.9369 48.101 50.9369C48.9847 50.9369 49.6685 51.4814 50.5513 51.4814C51.5278 51.4814 53.4883 52.1639 53.8033 53.2662C54.0497 54.1289 54.3988 54.8428 54.3629 55.7771C54.3261 56.7342 51.623 56.6543 50.884 56.6543C48.5807 56.6543 46.6001 56.0637 44.4255 55.5804C43.1379 55.2943 42.1891 55.3319 41.0223 54.7485" stroke="#8A9ACE" stroke-linecap="round"/>
<path d="M30.6761 58.0156C29.3077 57.8636 28.912 56.1098 27.2729 56.1098C26.0201 56.1098 24.1829 55.3173 22.9167 55.0359C21.2609 54.668 19.4008 54.7954 17.7287 54.4914C16.1971 54.2129 13.4203 54.5799 12.2987 55.7014C11.6053 56.3948 10.6929 56.4463 10.3173 57.5316C10.1963 57.881 10.0772 59.3966 10.3929 59.6492C10.8655 60.0273 10.9286 60.6615 11.6785 60.95C12.8309 61.3932 13.6729 61.6692 14.8851 61.8424C16.9483 62.1371 18.8995 62.9163 21.0109 62.9163C23.0623 62.9163 25.1468 63.733 27.1367 63.733C31.7025 63.733 36.4315 64.1033 40.9614 64.2776C42.7708 64.3471 44.5956 64.2776 46.4066 64.2776C48.5652 64.2776 50.9254 64.8015 52.124 62.644C54.0913 59.1028 51.3046 56.6543 47.7679 56.6543C46.5487 56.6543 36.6658 55.8647 36.6658 58.0156" stroke="#8A9ACE" stroke-linecap="round"/>
<path d="M17.8805 38.1405C13.8862 35.8725 9.77828 34.5395 5.62891 32.6953" stroke="#8A9ACE" stroke-linecap="round"/>
<path d="M1 25.3448C1.22829 25.7048 3.14159 28.1774 3.17806 26.6456C3.2045 25.5354 3.22658 24.8003 2.02853 24.8003C0.62272 24.8003 0.886044 26.5224 2.02853 26.9179C2.59472 27.1138 2.36129 25.1761 2.36129 24.8003" stroke="#8A9ACE" stroke-linecap="round"/>
<path d="M23.0528 19.6265C21.8732 16.2624 20.0706 12.8399 18.1522 9.8252C17.544 8.86942 17.1204 6.94019 15.9741 6.55811" stroke="#8A9ACE" stroke-linecap="round"/>
<path d="M13.7964 2.47496C13.9245 3.62813 16.1309 4.34269 16.7912 3.35224C18.1764 1.27444 15.7681 0.231038 14.3409 1.65819" stroke="#8A9ACE" stroke-linecap="round"/>
<path d="M35.8486 19.0832C36.1801 15.4373 38.299 11.9 38.299 8.19287" stroke="#8A9ACE" stroke-linecap="round"/>
<path d="M37.4824 1.93095C38.7041 4.98503 40.0205 1.65869 38.8437 1.65869" stroke="#8A9ACE" stroke-linecap="round"/>
<path d="M42.3833 25.8889C46.4857 25.8889 50.5648 24.0681 54.3627 22.6823C55.8821 22.128 59.1879 22.1527 60.3523 20.9883" stroke="#8A9ACE" stroke-linecap="round"/>
<path d="M64.9807 18.8106C64.9807 19.8568 64.9125 20.938 66.2815 20.9887C67.4876 21.0333 67.1587 20.0904 67.1587 19.098C67.1587 16.4263 62.6348 19.8996 65.2529 19.8996" stroke="#8A9ACE" stroke-linecap="round"/>
<path d="M46.7397 35.9623C49.7901 35.9623 52.9114 35.7487 55.936 36.1741C57.43 36.3842 58.8452 36.5068 60.3526 36.5068" stroke="#8A9ACE" stroke-linecap="round"/>
<path d="M64.7086 36.2347C63.8193 38.1245 66.6371 38.2803 66.8564 37.2935C67.4732 34.5179 62.2542 35.7975 64.7086 36.7792" stroke="#8A9ACE" stroke-linecap="round"/>
</svg>
