<svg width="822" height="827" viewBox="0 0 822 827" fill="none" xmlns="http://www.w3.org/2000/svg">
<path d="M6.77311 310.054C15.2699 300.395 26.6818 293.368 35.9143 284.447C49.8215 271.009 65.4702 258.804 80.1383 246.126C84.2563 242.567 92.9856 233.595 87.0306 243.883C80.19 255.702 73.5673 267.19 66.1158 278.668C56.5561 293.394 45.6444 307.321 36.5451 322.364C35.6072 323.914 30.4689 330.441 30.6667 332.574C30.7143 333.087 36.7062 327.963 37.2482 327.475C57.1979 309.487 77.9638 292.01 98.8157 275.131C105.669 269.584 97.9486 280.679 96.5024 283.775C90.3971 296.841 81.2065 310.227 72.4878 321.687C68.3915 327.071 64.6632 332.74 60.4923 338.054C57.1042 342.37 55.4328 347.59 52.0601 351.845C49.2637 355.374 45.2535 361.861 51.3877 354.473C59.8712 344.255 70.5549 335.455 80.1029 326.248C85.8042 320.751 90.6826 314.511 96.3667 308.982C96.7583 308.601 104.084 300.627 102.439 305.304C99.1377 314.689 93.357 323.527 88.8191 332.311C85.1559 339.402 78.4727 350.592 78.0725 358.686" stroke="#8A9ACE" stroke-linecap="round"/>
<path d="M657.506 1.63629C677.174 4.24054 695.969 12.8607 715.323 17.0469C744.476 23.3527 773.542 32.9597 802.373 40.8989C810.467 43.1278 829.454 46.6234 811.158 47.8296C790.142 49.2153 769.735 50.5971 748.63 50.9044C721.554 51.2986 694.342 49.2667 667.256 50.5259C664.464 50.6557 651.69 49.6717 649.125 51.7641C648.509 52.2668 660.215 55.5576 661.306 55.8336C701.474 65.9893 741.686 77.6349 781.206 89.9061C794.194 93.9392 773.35 93.5712 768.142 94.3782C746.155 97.785 721.113 97.4998 698.946 96.1617C688.531 95.533 678.066 95.6233 667.678 94.8377C659.239 94.1995 651.113 96.5478 642.766 95.8772C635.845 95.3211 624.089 95.754 638.821 97.2763C659.195 99.3818 679.637 105.539 699.628 109.884C711.565 112.479 723.747 113.376 735.71 115.921C736.534 116.097 753.039 118.646 745.633 120.561C730.77 124.402 714.483 124.583 699.33 126.316C687.098 127.715 667.022 128.762 656.303 135.22" stroke="#8A9ACE" stroke-linecap="round"/>
<path d="M697.072 763.661C706.036 758.547 716.526 756.19 725.856 751.828C739.911 745.258 754.965 740.076 769.398 734.281C773.45 732.654 782.412 728.122 775.212 734.376C766.941 741.559 758.922 748.549 750.277 755.316C739.186 763.996 727.277 771.719 716.452 780.76C715.336 781.692 709.736 785.305 709.331 786.975C709.233 787.376 715.115 785.051 715.653 784.821C735.478 776.374 755.788 768.527 776.009 761.156C782.654 758.733 773.905 765.139 772.001 767.11C763.963 775.433 753.5 783.193 743.899 789.615C739.387 792.633 735.081 795.962 730.531 798.906C726.836 801.298 724.207 804.823 720.539 807.172C717.498 809.12 712.764 812.997 719.344 808.991C728.444 803.449 738.843 799.558 748.487 795.061C754.246 792.376 759.573 788.914 765.327 786.2C765.724 786.013 773.36 781.872 770.893 784.992C765.942 791.252 759.253 796.451 753.52 801.933C748.892 806.358 740.905 813.106 738.492 819.143" stroke="#8A9ACE" stroke-linecap="round"/>
</svg>
