<svg width="293" height="136" viewBox="0 0 293 136" fill="none" xmlns="http://www.w3.org/2000/svg">
<path d="M88.3118 97.4057C88.3118 87.3476 111.289 88.3215 118.042 88.3215C130.135 88.3215 140.276 88.9156 151.075 94.4694C157.072 97.5536 162.172 107.605 162.637 114.106C163.151 121.301 164.288 128.038 164.288 135.394" stroke="#8A9ACE" stroke-linecap="round"/>
<path d="M85.0085 75.1083C90.8043 74.5287 96.5675 73.1678 102.397 72.5849C109.354 71.8892 116.155 71.8049 123.18 71.8049C137.632 71.8049 154.75 73.9179 167.592 80.8891C175.192 85.0148 178.969 97.4949 182.273 104.838C185.006 110.911 184.934 119.764 184.934 126.31" stroke="#8A9ACE" stroke-linecap="round"/>
<path d="M87.4861 56.9401C87.9754 53.0258 104.712 51.9195 107.352 51.5722C115.261 50.5316 123.63 50.3334 131.622 50.3334C141.034 50.3334 150.324 50.2871 159.7 51.1593C167.986 51.93 175.562 56.2046 182.411 60.6563C192.082 66.9423 196.467 80.2915 199.386 90.7992C202.017 100.269 203.928 109.786 203.928 119.703" stroke="#8A9ACE" stroke-linecap="round"/>
<path d="M104.57 107.534C107.499 107.209 110.603 106.69 113.583 106.299C118.806 105.615 123.161 106.273 128.277 106.979C135.448 107.968 145.687 115.525 145.687 123.648" stroke="#8A9ACE" stroke-linecap="round"/>
<path d="M114.015 121.981C111.82 127.287 111.377 131.442 117.658 132.97C123.007 134.271 128.189 131.815 127.906 125.87C127.72 121.959 123.709 120.912 120.683 120.437C118.807 120.143 116.31 119.975 114.571 120.869C112.258 122.059 111.479 124.343 109.57 125.87" stroke="#8A9ACE" stroke-linecap="round"/>
<path d="M273.148 88.8222C273.833 87.7948 276.841 81.9711 278.064 81.6216C278.652 81.4535 279.395 86.8027 279.395 87.5209C279.395 89.3283 280.626 88.6176 281.997 89.2271C282.649 89.5166 287.302 90.4133 287.087 90.9044C286.311 92.6765 278.033 90.4312 280.175 94.2878C280.768 95.3541 281.41 97.5194 281.477 98.7123C281.62 101.292 281.001 99.7982 279.395 98.1918C278.354 97.1517 277.373 96.4617 276.04 96.0808C274.665 95.688 274.656 93.507 272.83 93.507C270.466 93.507 268.581 95.0686 266.381 95.0686C264.859 95.0686 263.563 95.9093 265.34 94.0276C267.169 92.0908 266.902 89.5986 266.902 87.0004C266.902 82.6355 274.71 91.5756 274.71 88.8222" stroke="#8A9ACE" stroke-linecap="round"/>
<path d="M6.75228 32.7528C8.48018 31.0249 9.78889 29.1216 11.3879 27.3345C11.6413 27.0513 11.6883 25.5236 12.4114 26.0401C12.9401 26.4178 13.7625 28.3629 14.0369 28.9901C14.6665 30.4292 14.3263 32.7528 16.0838 32.7528C18.527 32.7528 20.8604 33.8364 23.248 33.8364C25.3115 33.8364 22.9887 35.2553 22.1944 35.4318C20.351 35.8415 17.6157 35.8398 15.9634 36.666C15.0101 37.1426 21.0815 44.5994 19.7562 44.673C15.1086 44.9312 12.266 39.7966 8.07675 39.7966C6.20124 39.7966 4.28961 39.9067 2.41764 39.7966C1.38503 39.7358 3.79061 37.8175 4.34415 37.6593C8.84714 36.3728 4.11603 32.5264 2.53805 31.0069C1.81947 30.3149 -1.08303 27.9533 1.90592 29.261C4.45648 30.3769 6.73838 30.9884 9.46142 31.6691" stroke="#8A9ACE" stroke-linecap="round"/>
<path d="M163.341 7.28673C164.949 5.67836 165.473 3.80807 166.863 2.10925C168.745 -0.190923 168.901 2.78621 169.271 4.8184C169.838 7.93511 173.996 8.91222 176.766 8.91222C179.713 8.91222 175.062 9.45405 174.177 9.45405C172.419 9.45405 168.217 9.22441 168.217 11.3504C168.217 12.9338 168.82 14.4251 169.181 15.956C169.594 17.7146 170.632 20.1277 168.097 18.1233C166.246 16.6596 163.589 15.1057 162.799 12.7351C162.349 11.3839 156.678 12.1632 155.514 12.1632C153.959 12.1632 149.323 12.705 150.879 12.705C152.528 12.705 154.322 12.2199 155.876 11.7418C160.803 10.2257 155.241 6.27167 154.13 3.49393C153.279 1.3683 155.673 3.45278 156.839 4.03575C158.545 4.88863 160.344 5.66124 162.257 5.66124" stroke="#8A9ACE" stroke-linecap="round"/>
<path d="M275.49 17.5706C275.596 16.7228 281.094 11.4378 282.348 12.0979C283.993 12.9634 284.052 15.4364 285.466 16.1851C286.383 16.6707 288.185 16.3236 289.207 16.3236C296.108 16.3236 288.2 19.7699 287.475 21.3114C286.338 23.7262 292.421 26.9638 285.951 24.5673C283.254 23.5685 281.536 19.9018 278.608 20.0645C277.507 20.1256 273.043 22.0984 273.135 21.9349C273.751 20.8399 274.577 19.6469 275.352 18.679C276.239 17.5698 272.261 16.2113 271.611 15.5616C267.175 11.1262 274.776 15.0767 276.737 15.0767" stroke="#8A9ACE" stroke-linecap="round"/>
</svg>
