<svg width="762" height="693" viewBox="0 0 762 693" fill="none" xmlns="http://www.w3.org/2000/svg">
<path d="M586.794 583.072C587.054 596.057 594.915 597.28 604.282 604.675C608.903 608.323 605.259 613.14 603.401 617.387C602.305 619.89 602.666 622.721 602.666 625.396C602.666 630.127 601.443 633.032 600.02 637.3" stroke="#8A9ACE" stroke-linecap="round"/>
<path d="M44.5165 178.348C38.5626 178.348 31.1282 177.135 25.3384 178.421C18.843 179.865 13.5732 183.059 6.23372 183.565C4.42702 183.69 0.869724 181.634 0.869724 182.316" stroke="#8A9ACE" stroke-linecap="round"/>
<path d="M64.356 255.061C56.2951 250.454 51.0914 231.557 41.5774 247.125C38.788 251.689 24.0508 247.125 19.3866 247.125" stroke="#8A9ACE" stroke-linecap="round"/>
<path d="M101.39 497.102C93.3382 497.263 74.9126 496.782 73.5409 507.756C72.2706 517.919 56.6343 518.871 48.4844 520.909" stroke="#8A9ACE" stroke-linecap="round"/>
<path d="M111.971 581.75C107.594 590.118 103.065 592.636 97.4217 598.944C93.8781 602.904 97.398 607.559 99.773 610.847C101.706 613.524 105.843 619.121 103.741 622.751C100.715 627.978 90.365 625.4 86.8406 630.687" stroke="#8A9ACE" stroke-linecap="round"/>
<path d="M250.846 649.204C226.472 659.895 256.852 662.306 245.85 674.628C241.457 679.548 233.652 684.46 233.652 691.528" stroke="#8A9ACE" stroke-linecap="round"/>
<path d="M615.892 142.637C615.809 138.484 611.77 125.489 616.48 122.798C624.952 117.957 634.02 132.204 640.728 121.769C644.429 116.011 644.434 114.941 650.868 116.111C655.694 116.989 657.254 112.095 658.216 108.249" stroke="#8A9ACE" stroke-linecap="round"/>
<path d="M644.99 214.059C656.764 214.059 661.628 216.34 671.369 222.509C676.952 226.045 678.383 226.86 683.346 221.995C686.857 218.553 690.371 212.942 695.397 216.851C702.856 222.653 712.532 222.789 716.412 214.059" stroke="#8A9ACE" stroke-linecap="round"/>
<path d="M678.056 313.256C680.041 296.715 700.573 317.224 705.17 317.224C709.801 317.224 714.217 314.754 718.763 314.579C723.054 314.414 723.009 313.304 724.348 309.288" stroke="#8A9ACE" stroke-linecap="round"/>
<path d="M696.572 427.002C706.546 429.52 716.542 431.715 725.891 436.114C729.847 437.976 731.558 440.067 732.357 435.673C733.301 430.48 737.607 432.559 740.366 435.012C744.974 439.108 752.218 441.551 758.442 441.551C762.086 441.551 760.058 450.401 760.058 454.778" stroke="#8A9ACE" stroke-linecap="round"/>
<path d="M684.669 532.812C693.671 538.522 706.958 547.612 697.895 559.265C694.305 563.88 690.756 569.725 691.282 575.724C692.347 587.87 707.153 591.798 707.153 603.647C707.153 610.079 704.691 617.095 701.863 622.751" stroke="#8A9ACE" stroke-linecap="round"/>
<path d="M208.522 76.5055C201.863 76.5055 190.325 69.7994 186.332 64.308C184.588 61.9111 184.733 56.3751 183.392 53.3595C181.753 49.6719 180.222 46.1022 179.425 42.1172" stroke="#8A9ACE" stroke-linecap="round"/>
<path d="M286.558 48.7303C283.792 42.2032 281.267 36.6975 281.267 29.6256C281.267 26.6706 290.395 31.4258 292.877 31.5361C300.862 31.891 302.429 22.6467 302.429 15.6646" stroke="#8A9ACE" stroke-linecap="round"/>
<path d="M410.885 35.5041C410.885 30.588 408.884 19.1051 411.619 14.4155C414.047 10.253 428.542 14.7465 433.516 11.4028C436.47 9.4176 439.142 4.47646 439.982 1.11572" stroke="#8A9ACE" stroke-linecap="round"/>
<path d="M555.051 26.246C559.284 11.9582 557.649 10.3745 570.923 10.3745C573.318 10.3745 576.52 10.8958 578.858 10.2275C581.52 9.46697 581.954 6.18116 584.149 5.08398" stroke="#8A9ACE" stroke-linecap="round"/>
</svg>
