<svg width="295" height="346" viewBox="0 0 295 346" fill="none" xmlns="http://www.w3.org/2000/svg">
<path d="M72.6069 296.605C66.5555 291.294 63.7866 282.109 56.9744 277.724C47.9128 271.891 36.6522 271.936 26.7246 268.52C19.6451 266.084 11.3975 262.851 13.5621 254.106C15.5788 245.958 22.9405 235.344 16.5736 227.916C13.9492 224.855 9.90664 223.236 7.50539 220.168C5.80477 217.995 4.56359 213.82 6.2196 211.336" stroke="#8A9ACE" stroke-linecap="round"/>
<path d="M20.228 56.0266C27.6712 51.0645 33.9748 45.0427 37.8907 36.8751C39.8111 32.8698 40.4463 28.3523 42.7632 24.4909C44.8287 21.0485 48.9187 21.7831 52.2036 20.4305C57.6624 18.1828 64.1064 17.8265 69.2572 14.9152C74.0166 12.2251 75.6481 7.9152 79.3067 4.25666" stroke="#8A9ACE" stroke-linecap="round"/>
<path d="M211.472 330.103C205.352 331.175 201.904 333.08 196.72 336.058C193.897 337.68 190.609 337.954 187.719 339.239C184.983 340.455 180.808 341.018 177.839 341.066C174.688 341.117 174.573 340.686 173.102 342.893" stroke="#8A9ACE" stroke-linecap="round"/>
<path d="M160.312 5.4751C171.779 7.94648 182.787 12.7838 194.656 12.7838C206.711 12.7838 218.61 8.55864 230.692 11.092C241.444 13.3465 248.944 21.3106 260.197 21.3106" stroke="#8A9ACE" stroke-linecap="round"/>
<path d="M294.304 225.345C285.823 230.228 289.198 242.158 290.92 249.673C292.607 257.033 294.048 264.258 287.571 269.738C284.348 272.466 280.798 274.759 278.536 278.434C276.309 282.054 274.908 286.595 273.968 290.717C272.011 299.3 273.452 307.925 263.242 310.478C260.646 311.127 257.248 311.831 254.715 311.831" stroke="#8A9ACE" stroke-linecap="round"/>
</svg>
