<!-- Generated by IcoMoon.io -->
<svg version="1.1" xmlns="http://www.w3.org/2000/svg" width="32" height="32" viewBox="0 0 32 32">
<path d="M21.879 31.573c-1.328 0.256-2.825-0.364-3.329-2.076-0.212-0.781-0.064-1.627 0.346-2.269 0.13-0.295 0.271-0.584 0.399-0.861 0.497-1.085-0.243-1.467-0.909-1.489l-8.921 1.682-1.682-8.921c-0.263-0.611-0.888-1.162-1.718-0.304-0.212 0.22-0.429 0.457-0.657 0.685-0.449 0.616-1.184 1.061-1.988 1.148-1.779 0.154-2.902-1.014-3.146-2.344l-0-0c-0.256-1.328 0.364-2.824 2.077-3.329 0.781-0.212 1.627-0.064 2.269 0.346 0.295 0.13 0.584 0.271 0.861 0.399 1.085 0.497 1.467-0.243 1.489-0.909l-1.682-8.92 8.92-1.682c0.665 0.023 1.406 0.404 0.909 1.489-0.128 0.278-0.269 0.566-0.399 0.861-0.41 0.642-0.557 1.489-0.346 2.269 0.505 1.712 2.002 2.333 3.329 2.076 1.33-0.245 2.498-1.368 2.344-3.146-0.087-0.804-0.533-1.539-1.148-1.988-0.228-0.228-0.465-0.445-0.685-0.657-0.858-0.829-0.308-1.455 0.304-1.718l8.92-1.682 4.177 22.149-8.92 1.682c-0.611 0.263-1.162 0.889-0.304 1.718 0.22 0.212 0.457 0.429 0.685 0.657 0.616 0.449 1.061 1.184 1.148 1.988 0.154 1.779-1.014 2.902-2.344 3.146l-0 0-0 0z"></path>
<path fill="none" stroke="#fff" stroke-linejoin="miter" stroke-linecap="butt" stroke-miterlimit="10" stroke-width="0.3721" d="M21.879 31.573c-1.328 0.256-2.825-0.364-3.329-2.076-0.212-0.781-0.064-1.627 0.346-2.269 0.13-0.295 0.271-0.584 0.399-0.861 0.497-1.085-0.243-1.467-0.909-1.489l-8.921 1.682-1.682-8.921c-0.263-0.611-0.888-1.162-1.718-0.304-0.212 0.22-0.429 0.457-0.657 0.685-0.449 0.616-1.184 1.061-1.988 1.148-1.779 0.154-2.902-1.014-3.146-2.344l-0-0c-0.256-1.328 0.364-2.824 2.077-3.329 0.781-0.212 1.627-0.064 2.269 0.346 0.295 0.13 0.584 0.271 0.861 0.399 1.085 0.497 1.467-0.243 1.489-0.909l-1.682-8.92 8.92-1.682c0.665 0.023 1.406 0.404 0.909 1.489-0.128 0.278-0.269 0.566-0.399 0.861-0.41 0.642-0.557 1.489-0.346 2.269 0.505 1.712 2.002 2.333 3.329 2.076 1.33-0.245 2.498-1.368 2.344-3.146-0.087-0.804-0.533-1.539-1.148-1.988-0.228-0.228-0.465-0.445-0.685-0.657-0.858-0.829-0.308-1.455 0.304-1.718l8.92-1.682 4.177 22.149-8.92 1.682c-0.611 0.263-1.162 0.889-0.304 1.718 0.22 0.212 0.457 0.429 0.685 0.657 0.616 0.449 1.061 1.184 1.148 1.988 0.154 1.779-1.014 2.902-2.344 3.146l-0 0-0 0z"></path>
</svg>
