<!-- Generated by IcoMoon.io -->
<svg version="1.1" xmlns="http://www.w3.org/2000/svg" width="29" height="32" viewBox="0 0 29 32">
<path d="M7.981 31.407c1.233 0.486 2.786 0.16 3.579-1.396 0.344-0.712 0.354-1.553 0.075-2.245-0.072-0.308-0.156-0.61-0.229-0.9-0.284-1.133 0.498-1.367 1.143-1.268l8.289 3.228 8.001-20.548-8.289-3.228c-0.645-0.098-1.426 0.135-1.143 1.269 0.073 0.29 0.157 0.593 0.229 0.9 0.279 0.692 0.269 1.532-0.075 2.245-0.794 1.556-2.347 1.883-3.58 1.396-1.237-0.475-2.16-1.767-1.693-3.449 0.228-0.758 0.789-1.384 1.463-1.704 0.261-0.178 0.528-0.344 0.778-0.508 0.975-0.643 0.557-1.344 0.016-1.707l-8.289-3.228-3.222 8.276c-0.098 0.644 0.137 1.425 1.271 1.143 0.29-0.073 0.593-0.157 0.901-0.228 0.692-0.278 1.534-0.267 2.248 0.077 1.559 0.794 1.887 2.346 1.402 3.577-0.475 1.235-1.766 2.156-3.452 1.687-0.759-0.229-1.386-0.79-1.708-1.463-0.179-0.261-0.345-0.527-0.51-0.777-0.645-0.975-1.346-0.558-1.709-0.018l-3.222 8.276 8.29 3.228c0.541 0.364 0.959 1.064-0.016 1.707-0.25 0.164-0.517 0.33-0.778 0.508-0.674 0.321-1.235 0.947-1.463 1.704-0.468 1.683 0.456 2.974 1.693 3.449l0 0 0 0z"></path>
<path fill="none" stroke="#fff" stroke-linejoin="miter" stroke-linecap="butt" stroke-miterlimit="10" stroke-width="0.3488" d="M7.981 31.407c1.233 0.486 2.786 0.16 3.579-1.396 0.344-0.712 0.354-1.553 0.075-2.245-0.072-0.308-0.156-0.61-0.229-0.9-0.284-1.133 0.498-1.367 1.143-1.268l8.289 3.228 8.001-20.548-8.289-3.228c-0.645-0.098-1.426 0.135-1.143 1.269 0.073 0.29 0.157 0.593 0.229 0.9 0.279 0.692 0.269 1.532-0.075 2.245-0.794 1.556-2.347 1.883-3.58 1.396-1.237-0.475-2.16-1.767-1.693-3.449 0.228-0.758 0.789-1.384 1.463-1.704 0.261-0.178 0.528-0.344 0.778-0.508 0.975-0.643 0.557-1.344 0.016-1.707l-8.289-3.228-3.222 8.276c-0.098 0.644 0.137 1.425 1.271 1.143 0.29-0.073 0.593-0.157 0.901-0.228 0.692-0.278 1.534-0.267 2.248 0.077 1.559 0.794 1.887 2.346 1.402 3.577-0.475 1.235-1.766 2.156-3.452 1.687-0.759-0.229-1.386-0.79-1.708-1.463-0.179-0.261-0.345-0.527-0.51-0.777-0.645-0.975-1.346-0.558-1.709-0.018l-3.222 8.276 8.29 3.228c0.541 0.364 0.959 1.064-0.016 1.707-0.25 0.164-0.517 0.33-0.778 0.508-0.674 0.321-1.235 0.947-1.463 1.704-0.468 1.683 0.456 2.974 1.693 3.449l0 0 0 0z"></path>
</svg>
