<!-- Generated by IcoMoon.io -->
<svg version="1.1" xmlns="http://www.w3.org/2000/svg" width="31" height="32" viewBox="0 0 31 32">
<path fill="#b8e2c8" d="M5.75 0.788c1.045-0.629 2.539-0.511 3.565 0.897 0.452 0.647 0.621 1.461 0.494 2.168-0.008 0.307-0.028 0.612-0.041 0.903-0.047 1.136 0.718 1.262 1.294 1.084l7.033-4.191 4.539 7.616c0.437 0.478 1.163 0.792 1.573-0.236 0.105-0.264 0.208-0.544 0.323-0.819 0.169-0.694 0.642-1.319 1.298-1.638 1.465-0.67 2.831 0.058 3.502 1.195l0 0 0 0c0.681 1.132 0.671 2.679-0.616 3.649-0.593 0.425-1.367 0.544-2.058 0.362-0.297-0.030-0.593-0.072-0.874-0.106-1.099-0.129-1.168 0.659-0.956 1.271l4.539 7.616-7.033 4.191c-0.576 0.178-1.341 0.051-1.294-1.085 0.013-0.291 0.033-0.595 0.041-0.903 0.127-0.707-0.042-1.521-0.494-2.168-1.026-1.408-2.521-1.526-3.565-0.897-1.051 0.619-1.658 1.99-0.908 3.562 0.354 0.706 0.99 1.241 1.672 1.466 0.274 0.139 0.552 0.266 0.813 0.394 1.021 0.499 0.768 1.232 0.338 1.654l-7.033 4.191-11.269-18.91 7.033-4.191c0.43-0.422 0.683-1.155-0.338-1.654-0.262-0.127-0.539-0.254-0.813-0.394-0.682-0.225-1.318-0.761-1.672-1.466-0.75-1.573-0.143-2.943 0.908-3.562l0-0 0-0z"></path>
<path fill="none" stroke="#fff" stroke-linejoin="miter" stroke-linecap="butt" stroke-miterlimit="10" stroke-width="0.795" d="M5.75 0.788c1.045-0.629 2.539-0.511 3.565 0.897 0.452 0.647 0.621 1.461 0.494 2.168-0.008 0.307-0.028 0.612-0.041 0.903-0.047 1.136 0.718 1.262 1.294 1.084l7.033-4.191 4.539 7.616c0.437 0.478 1.163 0.792 1.573-0.236 0.105-0.264 0.208-0.544 0.323-0.819 0.169-0.694 0.642-1.319 1.298-1.638 1.465-0.67 2.831 0.058 3.502 1.195l0 0 0 0c0.681 1.132 0.671 2.679-0.616 3.649-0.593 0.425-1.367 0.544-2.058 0.362-0.297-0.030-0.593-0.072-0.874-0.106-1.099-0.129-1.168 0.659-0.956 1.271l4.539 7.616-7.033 4.191c-0.576 0.178-1.341 0.051-1.294-1.085 0.013-0.291 0.033-0.595 0.041-0.903 0.127-0.707-0.042-1.521-0.494-2.168-1.026-1.408-2.521-1.526-3.565-0.897-1.051 0.619-1.658 1.99-0.908 3.562 0.354 0.706 0.99 1.241 1.672 1.466 0.274 0.139 0.552 0.266 0.813 0.394 1.021 0.499 0.768 1.232 0.338 1.654l-7.033 4.191-11.269-18.91 7.033-4.191c0.43-0.422 0.683-1.155-0.338-1.654-0.262-0.127-0.539-0.254-0.813-0.394-0.682-0.225-1.318-0.761-1.672-1.466-0.75-1.573-0.143-2.943 0.908-3.562l0-0 0-0z"></path>
</svg>
