<!-- Generated by IcoMoon.io -->
<svg version="1.1" xmlns="http://www.w3.org/2000/svg" width="32" height="32" viewBox="0 0 32 32">
<path fill="#b8e2c8" d="M0.21 20.926c-0.146-1.372 0.613-2.841 2.398-3.207 0.812-0.148 1.66 0.075 2.278 0.547 0.289 0.157 0.57 0.326 0.842 0.479 1.061 0.599 1.512-0.121 1.593-0.796l-0.944-9.216 9.216-0.944c0.644-0.215 1.258-0.804 0.457-1.721-0.206-0.235-0.428-0.476-0.64-0.727-0.588-0.509-0.977-1.295-0.997-2.12-0.003-1.822 1.281-2.863 2.654-2.998h0c1.372-0.146 2.841 0.613 3.207 2.398 0.148 0.812-0.075 1.66-0.547 2.278-0.157 0.289-0.326 0.57-0.479 0.842-0.599 1.061 0.121 1.512 0.796 1.593l9.216-0.944 0.944 9.215c-0.080 0.674-0.532 1.395-1.593 0.796-0.271-0.154-0.552-0.322-0.842-0.479-0.618-0.472-1.466-0.695-2.278-0.547-1.784 0.366-2.544 1.835-2.398 3.207 0.134 1.373 1.176 2.658 2.998 2.654 0.825-0.019 1.61-0.409 2.12-0.997 0.251-0.212 0.492-0.434 0.727-0.64 0.917-0.801 1.506-0.188 1.721 0.457l0.944 9.215-22.882 2.343-0.944-9.215c-0.215-0.644-0.804-1.258-1.721-0.457-0.235 0.206-0.476 0.428-0.727 0.64-0.509 0.588-1.295 0.977-2.12 0.997-1.822 0.003-2.863-1.281-2.998-2.654v-0l-0-0z"></path>
<path fill="none" stroke="#fff" stroke-linejoin="miter" stroke-linecap="butt" stroke-miterlimit="10" stroke-width="0.3606" d="M0.21 20.926c-0.146-1.372 0.613-2.841 2.398-3.207 0.812-0.148 1.66 0.075 2.278 0.547 0.289 0.157 0.57 0.326 0.842 0.479 1.061 0.599 1.512-0.121 1.593-0.796l-0.944-9.216 9.216-0.944c0.644-0.215 1.258-0.804 0.457-1.721-0.206-0.235-0.428-0.476-0.64-0.727-0.588-0.509-0.977-1.295-0.997-2.12-0.003-1.822 1.281-2.863 2.654-2.998h0c1.372-0.146 2.841 0.613 3.207 2.398 0.148 0.812-0.075 1.66-0.547 2.278-0.157 0.289-0.326 0.57-0.479 0.842-0.599 1.061 0.121 1.512 0.796 1.593l9.216-0.944 0.944 9.215c-0.080 0.674-0.532 1.395-1.593 0.796-0.271-0.154-0.552-0.322-0.842-0.479-0.618-0.472-1.466-0.695-2.278-0.547-1.784 0.366-2.544 1.835-2.398 3.207 0.134 1.373 1.176 2.658 2.998 2.654 0.825-0.019 1.61-0.409 2.12-0.997 0.251-0.212 0.492-0.434 0.727-0.64 0.917-0.801 1.506-0.188 1.721 0.457l0.944 9.215-22.882 2.343-0.944-9.215c-0.215-0.644-0.804-1.258-1.721-0.457-0.235 0.206-0.476 0.428-0.727 0.64-0.509 0.588-1.295 0.977-2.12 0.997-1.822 0.003-2.863-1.281-2.998-2.654v-0l-0-0z"></path>
</svg>
