<!-- Generated by IcoMoon.io -->
<svg version="1.1" xmlns="http://www.w3.org/2000/svg" width="29" height="32" viewBox="0 0 29 32">
<path fill="#b1c7ef" d="M12.79 0.481c-1.546 0.11-3.028 1.112-3.099 2.9-0.012 0.81 0.393 1.587 1.031 2.096 0.228 0.25 0.467 0.49 0.688 0.724 0.861 0.913 0.149 1.481-0.582 1.682l-10.372 0.781 1.693 22.492 10.372-0.781c0.731-0.201 1.443-0.769 0.582-1.682-0.221-0.233-0.46-0.474-0.688-0.724-0.638-0.509-1.043-1.286-1.031-2.096 0.071-1.788 1.553-2.79 3.099-2.9 1.545-0.122 3.161 0.646 3.498 2.404 0.133 0.799-0.151 1.628-0.706 2.227-0.188 0.281-0.388 0.554-0.572 0.818-0.715 1.031 0.074 1.486 0.827 1.576l10.372-0.781-0.682-9.058c-0.215-0.635-0.85-1.247-1.911-0.475-0.272 0.198-0.551 0.412-0.841 0.617-0.595 0.569-1.492 0.939-2.418 0.945-2.043-0.025-3.159-1.302-3.253-2.652-0.109-1.349 0.804-2.779 2.819-3.109 0.917-0.133 1.858 0.099 2.532 0.572 0.318 0.159 0.626 0.328 0.924 0.484 1.165 0.604 1.701-0.095 1.818-0.756l-0.682-9.058-10.372 0.781c-0.753-0.089-1.542-0.544-0.827-1.575 0.184-0.264 0.384-0.537 0.572-0.818 0.555-0.599 0.839-1.428 0.706-2.227-0.337-1.757-1.953-2.526-3.498-2.404h-0l-0-0z"></path>
<path fill="none" stroke="#fff" stroke-linejoin="miter" stroke-linecap="butt" stroke-miterlimit="10" stroke-width="0.7529" d="M12.79 0.481c-1.546 0.11-3.028 1.112-3.099 2.9-0.012 0.81 0.393 1.587 1.031 2.096 0.228 0.25 0.467 0.49 0.688 0.724 0.861 0.913 0.149 1.481-0.582 1.682l-10.372 0.781 1.693 22.492 10.372-0.781c0.731-0.201 1.443-0.769 0.582-1.682-0.221-0.233-0.46-0.474-0.688-0.724-0.638-0.509-1.043-1.286-1.031-2.096 0.071-1.788 1.553-2.79 3.099-2.9 1.545-0.122 3.161 0.646 3.498 2.404 0.133 0.799-0.151 1.628-0.706 2.227-0.188 0.281-0.388 0.554-0.572 0.818-0.715 1.031 0.074 1.486 0.827 1.576l10.372-0.781-0.682-9.058c-0.215-0.635-0.85-1.247-1.911-0.475-0.272 0.198-0.551 0.412-0.841 0.617-0.595 0.569-1.492 0.939-2.418 0.945-2.043-0.025-3.159-1.302-3.253-2.652-0.109-1.349 0.804-2.779 2.819-3.109 0.917-0.133 1.858 0.099 2.532 0.572 0.318 0.159 0.626 0.328 0.924 0.484 1.165 0.604 1.701-0.095 1.818-0.756l-0.682-9.058-10.372 0.781c-0.753-0.089-1.542-0.544-0.827-1.575 0.184-0.264 0.384-0.537 0.572-0.818 0.555-0.599 0.839-1.428 0.706-2.227-0.337-1.757-1.953-2.526-3.498-2.404h-0l-0-0z"></path>
</svg>
