<!-- Generated by IcoMoon.io -->
<svg version="1.1" xmlns="http://www.w3.org/2000/svg" width="32" height="32" viewBox="0 0 32 32">
<path fill="#b1c7ef" d="M28.954 28.554c0.929-0.95 1.232-2.514 0.101-3.854-0.525-0.596-1.299-0.933-2.048-0.944-0.312-0.054-0.625-0.094-0.922-0.139-1.159-0.179-1.071-0.993-0.729-1.551l6.211-6.407-15.895-15.408-6.211 6.407c-0.342 0.558-0.43 1.372 0.729 1.551 0.297 0.045 0.61 0.085 0.922 0.139 0.749 0.011 1.522 0.348 2.048 0.944 1.13 1.34 0.828 2.904-0.101 3.854-0.921 0.959-2.475 1.309-3.849 0.221-0.612-0.506-0.973-1.269-1.007-2.017-0.063-0.31-0.113-0.622-0.168-0.917-0.215-1.152-1.026-1.039-1.573-0.68l-6.211 6.407 6.401 6.205c0.558 0.341 1.371 0.429 1.552-0.73 0.046-0.297 0.086-0.61 0.14-0.922 0.012-0.749 0.35-1.523 0.946-2.049 1.341-1.132 2.905-0.831 3.854 0.098 0.958 0.92 1.307 2.474 0.218 3.849-0.507 0.612-1.27 0.974-2.018 1.009-0.311 0.064-0.622 0.114-0.917 0.169-1.153 0.216-1.040 1.027-0.682 1.574l6.401 6.205 6.211-6.407c0.547-0.359 1.358-0.472 1.573 0.68 0.055 0.295 0.104 0.607 0.168 0.917 0.034 0.748 0.395 1.511 1.007 2.017 1.375 1.088 2.928 0.738 3.849-0.221l0-0 0-0z"></path>
<path fill="none" stroke="#fff" stroke-linejoin="miter" stroke-linecap="butt" stroke-miterlimit="10" stroke-width="0.3351" d="M28.954 28.554c0.929-0.95 1.232-2.514 0.101-3.854-0.525-0.596-1.299-0.933-2.048-0.944-0.312-0.054-0.625-0.094-0.922-0.139-1.159-0.179-1.071-0.993-0.729-1.551l6.211-6.407-15.895-15.408-6.211 6.407c-0.342 0.558-0.43 1.372 0.729 1.551 0.297 0.045 0.61 0.085 0.922 0.139 0.749 0.011 1.522 0.348 2.048 0.944 1.13 1.34 0.828 2.904-0.101 3.854-0.921 0.959-2.475 1.309-3.849 0.221-0.612-0.506-0.973-1.269-1.007-2.017-0.063-0.31-0.113-0.622-0.168-0.917-0.215-1.152-1.026-1.039-1.573-0.68l-6.211 6.407 6.401 6.205c0.558 0.341 1.371 0.429 1.552-0.73 0.046-0.297 0.086-0.61 0.14-0.922 0.012-0.749 0.35-1.523 0.946-2.049 1.341-1.132 2.905-0.831 3.854 0.098 0.958 0.92 1.307 2.474 0.218 3.849-0.507 0.612-1.27 0.974-2.018 1.009-0.311 0.064-0.622 0.114-0.917 0.169-1.153 0.216-1.040 1.027-0.682 1.574l6.401 6.205 6.211-6.407c0.547-0.359 1.358-0.472 1.573 0.68 0.055 0.295 0.104 0.607 0.168 0.917 0.034 0.748 0.395 1.511 1.007 2.017 1.375 1.088 2.928 0.738 3.849-0.221l0-0 0-0z"></path>
</svg>
