<!-- Generated by IcoMoon.io -->
<svg version="1.1" xmlns="http://www.w3.org/2000/svg" width="32" height="32" viewBox="0 0 32 32">
<path fill="#ffaaea" d="M19.63 31.598l-19.387-11.877 4.806-7.845c0.469-0.485 1.257-0.782 1.73 0.327 0.121 0.284 0.24 0.586 0.373 0.884 0.201 0.744 0.733 1.428 1.461 1.798 1.622 0.782 3.103 0.077 3.814-1.094 0.721-1.165 0.676-2.805-0.757-3.895-0.66-0.48-1.512-0.643-2.266-0.484-0.325 0.017-0.648 0.048-0.956 0.069-1.203 0.082-1.296-0.755-1.077-1.393l4.806-7.844 7.808 4.783c0.482 0.468 0.775 1.257-0.333 1.735-0.284 0.122-0.586 0.243-0.883 0.377-0.743 0.205-1.428 0.741-1.801 1.471-0.787 1.629-0.090 3.11 1.076 3.818 1.16 0.718 2.796 0.666 3.89-0.775 0.481-0.663 0.648-1.518 0.493-2.272-0.016-0.326-0.045-0.649-0.065-0.958-0.077-1.205 0.759-1.302 1.395-1.085l7.808 4.783-11.932 19.478z"></path>
<path fill="none" stroke="#fff" stroke-linejoin="miter" stroke-linecap="butt" stroke-miterlimit="10" stroke-width="0.3241" d="M19.63 31.598l-19.387-11.877 4.806-7.845c0.469-0.485 1.257-0.782 1.73 0.327 0.121 0.284 0.24 0.586 0.373 0.884 0.201 0.744 0.733 1.428 1.461 1.798 1.622 0.782 3.103 0.077 3.814-1.094 0.721-1.165 0.676-2.805-0.757-3.895-0.66-0.48-1.512-0.643-2.266-0.484-0.325 0.017-0.648 0.048-0.956 0.069-1.203 0.082-1.296-0.755-1.077-1.393l4.806-7.844 7.808 4.783c0.482 0.468 0.775 1.257-0.333 1.735-0.284 0.122-0.586 0.243-0.883 0.377-0.743 0.205-1.428 0.741-1.801 1.471-0.787 1.629-0.090 3.11 1.076 3.818 1.16 0.718 2.796 0.666 3.89-0.775 0.481-0.663 0.648-1.518 0.493-2.272-0.016-0.326-0.045-0.649-0.065-0.958-0.077-1.205 0.759-1.302 1.395-1.085l7.808 4.783-11.932 19.478z"></path>
</svg>
