<!-- Generated by IcoMoon.io -->
<svg version="1.1" xmlns="http://www.w3.org/2000/svg" width="34" height="32" viewBox="0 0 34 32">
<path fill="#ffaaea" d="M0.557 29.47l1.503-28.961 12.559 0.645c0.889 0.233 1.763 0.938 0.745 2.141-0.262 0.308-0.545 0.624-0.814 0.954-0.759 0.676-1.23 1.689-1.196 2.729 0.128 2.295 1.946 3.531 3.817 3.62 1.87 0.104 3.806-0.94 4.171-3.21 0.142-1.031-0.222-2.087-0.907-2.837-0.234-0.355-0.483-0.699-0.711-1.032-0.889-1.301 0.054-1.912 0.962-2.053l12.559 0.645-0.605 11.664c-0.245 0.824-0.997 1.632-2.299 0.677-0.333-0.245-0.676-0.51-1.032-0.763-0.733-0.71-1.826-1.155-2.946-1.131-2.469 0.103-3.787 1.783-3.869 3.521-0.099 1.737 1.039 3.543 3.484 3.898 1.111 0.139 2.245-0.192 3.047-0.823 0.381-0.215 0.749-0.444 1.106-0.654 1.394-0.817 2.059 0.064 2.217 0.909l-0.605 11.664-31.184-1.601z"></path>
<path fill="none" stroke="#fff" stroke-linejoin="miter" stroke-linecap="butt" stroke-miterlimit="10" stroke-width="0.8889" d="M0.557 29.47l1.503-28.961 12.559 0.645c0.889 0.233 1.763 0.938 0.745 2.141-0.262 0.308-0.545 0.624-0.814 0.954-0.759 0.676-1.23 1.689-1.196 2.729 0.128 2.295 1.946 3.531 3.817 3.62 1.87 0.104 3.806-0.94 4.171-3.21 0.142-1.031-0.222-2.087-0.907-2.837-0.234-0.355-0.483-0.699-0.711-1.032-0.889-1.301 0.054-1.912 0.962-2.053l12.559 0.645-0.605 11.664c-0.245 0.824-0.997 1.632-2.299 0.677-0.333-0.245-0.676-0.51-1.032-0.763-0.733-0.71-1.826-1.155-2.946-1.131-2.469 0.103-3.787 1.783-3.869 3.521-0.099 1.737 1.039 3.543 3.484 3.898 1.111 0.139 2.245-0.192 3.047-0.823 0.381-0.215 0.749-0.444 1.106-0.654 1.394-0.817 2.059 0.064 2.217 0.909l-0.605 11.664-31.184-1.601z"></path>
</svg>
