<!-- Generated by IcoMoon.io -->
<svg version="1.1" xmlns="http://www.w3.org/2000/svg" width="31" height="32" viewBox="0 0 31 32">
<path fill="#bdadea" d="M14.156 31.196c-1.249-0.233-2.339-1.33-2.182-3.078 0.088-0.791 0.512-1.515 1.094-1.96 0.216-0.225 0.44-0.44 0.649-0.65 0.813-0.82 0.299-1.431-0.273-1.686l-8.375-1.602 1.645-8.775c-0.017-0.653-0.37-1.379-1.394-0.884-0.262 0.127-0.534 0.268-0.813 0.397-0.607 0.407-1.404 0.556-2.136 0.353-1.607-0.486-2.179-1.953-1.929-3.259l0-0c0.24-1.308 1.304-2.462 2.975-2.322 0.755 0.081 1.443 0.515 1.861 1.117 0.213 0.223 0.415 0.454 0.613 0.669 0.774 0.838 1.366 0.294 1.617-0.308l1.645-8.775 8.375 1.602c0.573 0.255 1.086 0.866 0.273 1.687-0.209 0.21-0.433 0.424-0.649 0.65-0.582 0.445-1.006 1.169-1.094 1.96-0.157 1.748 0.933 2.845 2.182 3.078 1.247 0.244 2.659-0.374 3.145-2.059 0.205-0.768 0.072-1.599-0.309-2.228-0.12-0.29-0.251-0.572-0.369-0.844-0.46-1.063 0.239-1.443 0.865-1.469l8.375 1.602-4.084 21.788-8.375-1.602c-0.626 0.026-1.325 0.405-0.865 1.469 0.118 0.272 0.249 0.555 0.369 0.844 0.381 0.629 0.514 1.46 0.309 2.228-0.486 1.686-1.898 2.304-3.145 2.059h-0z"></path>
<path fill="none" stroke="#fff" stroke-linejoin="miter" stroke-linecap="butt" stroke-miterlimit="10" stroke-width="0.5854" d="M14.156 31.196c-1.249-0.233-2.339-1.33-2.182-3.078 0.088-0.791 0.512-1.515 1.094-1.96 0.216-0.225 0.44-0.44 0.649-0.65 0.813-0.82 0.299-1.431-0.273-1.686l-8.375-1.602 1.645-8.775c-0.017-0.653-0.37-1.379-1.394-0.884-0.262 0.127-0.534 0.268-0.813 0.397-0.607 0.407-1.404 0.556-2.136 0.353-1.607-0.486-2.179-1.953-1.929-3.259l0-0c0.24-1.308 1.304-2.462 2.975-2.322 0.755 0.081 1.443 0.515 1.861 1.117 0.213 0.223 0.415 0.454 0.613 0.669 0.774 0.838 1.366 0.294 1.617-0.308l1.645-8.775 8.375 1.602c0.573 0.255 1.086 0.866 0.273 1.687-0.209 0.21-0.433 0.424-0.649 0.65-0.582 0.445-1.006 1.169-1.094 1.96-0.157 1.748 0.933 2.845 2.182 3.078 1.247 0.244 2.659-0.374 3.145-2.059 0.205-0.768 0.072-1.599-0.309-2.228-0.12-0.29-0.251-0.572-0.369-0.844-0.46-1.063 0.239-1.443 0.865-1.469l8.375 1.602-4.084 21.788-8.375-1.602c-0.626 0.026-1.325 0.405-0.865 1.469 0.118 0.272 0.249 0.555 0.369 0.844 0.381 0.629 0.514 1.46 0.309 2.228-0.486 1.686-1.898 2.304-3.145 2.059h-0z"></path>
</svg>
