<!-- Generated by IcoMoon.io -->
<svg version="1.1" xmlns="http://www.w3.org/2000/svg" width="32" height="32" viewBox="0 0 32 32">
<path fill="#ffd3da" d="M20.283 31.17c-1.362 0.096-2.787-0.708-3.084-2.485-0.117-0.808 0.133-1.638 0.622-2.232 0.166-0.28 0.342-0.552 0.504-0.815 0.63-1.027-0.066-1.5-0.73-1.603l-9.145 0.603-0.602-9.145c-0.19-0.645-0.749-1.272-1.685-0.513-0.239 0.195-0.486 0.406-0.742 0.607-0.525 0.563-1.315 0.92-2.131 0.91-1.801-0.062-2.785-1.369-2.869-2.732v-0c-0.096-1.362 0.708-2.787 2.485-3.084 0.808-0.117 1.638 0.133 2.232 0.622 0.28 0.166 0.552 0.342 0.815 0.504 1.027 0.63 1.5-0.066 1.603-0.73l-0.602-9.145 9.144-0.602c0.664 0.104 1.36 0.576 0.73 1.603-0.162 0.263-0.338 0.535-0.504 0.815-0.489 0.594-0.739 1.424-0.622 2.232 0.298 1.777 1.723 2.581 3.085 2.485 1.363-0.084 2.67-1.068 2.732-2.869 0.010-0.816-0.347-1.607-0.91-2.131-0.201-0.256-0.412-0.502-0.607-0.742-0.759-0.936-0.131-1.495 0.513-1.685l9.144-0.602 1.496 22.705-9.144 0.603c-0.645 0.19-1.272 0.749-0.513 1.685 0.195 0.239 0.406 0.486 0.607 0.742 0.563 0.525 0.92 1.315 0.91 2.131-0.062 1.801-1.369 2.785-2.731 2.869h-0l-0 0z"></path>
<path fill="none" stroke="#fff" stroke-linejoin="miter" stroke-linecap="butt" stroke-miterlimit="10" stroke-width="0.6531" d="M20.283 31.17c-1.362 0.096-2.787-0.708-3.084-2.485-0.117-0.808 0.133-1.638 0.622-2.232 0.166-0.28 0.342-0.552 0.504-0.815 0.63-1.027-0.066-1.5-0.73-1.603l-9.145 0.603-0.602-9.145c-0.19-0.645-0.749-1.272-1.685-0.513-0.239 0.195-0.486 0.406-0.742 0.607-0.525 0.563-1.315 0.92-2.131 0.91-1.801-0.062-2.785-1.369-2.869-2.732v-0c-0.096-1.362 0.708-2.787 2.485-3.084 0.808-0.117 1.638 0.133 2.232 0.622 0.28 0.166 0.552 0.342 0.815 0.504 1.027 0.63 1.5-0.066 1.603-0.73l-0.602-9.145 9.144-0.602c0.664 0.104 1.36 0.576 0.73 1.603-0.162 0.263-0.338 0.535-0.504 0.815-0.489 0.594-0.739 1.424-0.622 2.232 0.298 1.777 1.723 2.581 3.085 2.485 1.363-0.084 2.67-1.068 2.732-2.869 0.010-0.816-0.347-1.607-0.91-2.131-0.201-0.256-0.412-0.502-0.607-0.742-0.759-0.936-0.131-1.495 0.513-1.685l9.144-0.602 1.496 22.705-9.144 0.603c-0.645 0.19-1.272 0.749-0.513 1.685 0.195 0.239 0.406 0.486 0.607 0.742 0.563 0.525 0.92 1.315 0.91 2.131-0.062 1.801-1.369 2.785-2.731 2.869h-0l-0 0z"></path>
</svg>
