<svg width="764" height="764" viewBox="0 0 764 764" fill="none" xmlns="http://www.w3.org/2000/svg">
<g filter="url(#filter0_d_61_2254)">
<path d="M691.28 681.735C713.467 659.043 720.683 621.717 693.692 589.719C681.153 575.492 662.679 567.446 644.806 567.181C637.349 565.902 629.882 564.947 622.792 563.862C595.129 559.583 597.232 540.151 605.391 526.832L753.679 373.855L374.193 6.00004L225.907 158.975C217.749 172.294 215.645 191.725 243.309 196.005C250.398 197.09 257.867 198.046 265.323 199.325C283.198 199.59 301.67 207.636 314.21 221.862C341.197 253.857 333.985 291.193 311.793 313.883C289.805 336.77 252.71 345.142 219.892 319.162C205.282 307.072 196.666 288.858 195.844 271C194.334 263.587 193.147 256.153 191.842 249.1C186.704 221.584 167.347 224.291 154.287 232.859L6 385.835L158.834 533.985C172.146 542.131 191.574 544.217 195.88 516.549C196.97 509.459 197.933 501.989 199.219 494.531C199.501 476.656 207.563 458.175 221.801 445.622C253.82 418.605 291.148 425.783 313.817 447.954C336.683 469.922 345.021 507.01 319.011 539.853C306.908 554.475 288.687 563.108 270.829 563.946C263.415 565.463 255.979 566.657 248.926 567.969C221.406 573.132 224.094 592.487 232.651 605.539L385.485 753.689L533.773 600.712C546.833 592.144 566.188 589.436 571.326 616.952C572.631 624.003 573.819 631.439 575.329 638.852C576.151 656.71 584.768 674.922 599.377 687.014C632.2 712.998 669.284 704.623 691.273 681.739L691.276 681.737L691.28 681.735Z" fill="url(#paint0_linear_61_2254)"/>
<path d="M691.28 681.735C713.467 659.043 720.683 621.717 693.692 589.719C681.153 575.492 662.679 567.446 644.806 567.181C637.349 565.902 629.882 564.947 622.792 563.862C595.129 559.583 597.232 540.151 605.391 526.832L753.679 373.855L374.193 6.00004L225.907 158.975C217.749 172.294 215.645 191.725 243.309 196.005C250.398 197.09 257.867 198.046 265.323 199.325C283.198 199.59 301.67 207.636 314.21 221.862C341.197 253.857 333.985 291.193 311.793 313.883C289.805 336.77 252.71 345.142 219.892 319.162C205.282 307.072 196.666 288.858 195.844 271C194.334 263.587 193.147 256.153 191.842 249.1C186.704 221.584 167.347 224.291 154.287 232.859L6 385.835L158.834 533.985C172.146 542.131 191.574 544.217 195.88 516.549C196.97 509.459 197.933 501.989 199.219 494.531C199.501 476.656 207.563 458.175 221.801 445.622C253.82 418.605 291.148 425.783 313.817 447.954C336.683 469.922 345.021 507.01 319.011 539.853C306.908 554.475 288.687 563.108 270.829 563.946C263.415 565.463 255.979 566.657 248.926 567.969C221.406 573.132 224.094 592.487 232.651 605.539L385.485 753.689L533.773 600.712C546.833 592.144 566.188 589.436 571.326 616.952C572.631 624.003 573.819 631.439 575.329 638.852C576.151 656.71 584.768 674.922 599.377 687.014C632.2 712.998 669.284 704.623 691.273 681.739L691.276 681.737L691.28 681.735Z" stroke="white" stroke-width="8" stroke-miterlimit="10"/>
</g>
<defs>
<filter id="filter0_d_61_2254" x="0.34375" y="0.343872" width="762.992" height="763.001" filterUnits="userSpaceOnUse" color-interpolation-filters="sRGB">
<feFlood flood-opacity="0" result="BackgroundImageFix"/>
<feColorMatrix in="SourceAlpha" type="matrix" values="0 0 0 0 0 0 0 0 0 0 0 0 0 0 0 0 0 0 127 0" result="hardAlpha"/>
<feOffset dx="4" dy="4"/>
<feComposite in2="hardAlpha" operator="out"/>
<feColorMatrix type="matrix" values="0 0 0 0 0.541176 0 0 0 0 0.603922 0 0 0 0 0.807843 0 0 0 1 0"/>
<feBlend mode="normal" in2="BackgroundImageFix" result="effect1_dropShadow_61_2254"/>
<feBlend mode="normal" in="SourceGraphic" in2="effect1_dropShadow_61_2254" result="shape"/>
</filter>
<linearGradient id="paint0_linear_61_2254" x1="735.974" y1="359.261" x2="32.7722" y2="472.628" gradientUnits="userSpaceOnUse">
<stop stop-color="#DEE9FE"/>
<stop offset="0.54" stop-color="#98B9F3"/>
<stop offset="1" stop-color="#3272E4"/>
</linearGradient>
</defs>
</svg>
