<svg width="789" height="790" viewBox="0 0 789 790" fill="none" xmlns="http://www.w3.org/2000/svg">
<g filter="url(#filter0_d_61_2255)">
<path d="M484.614 780.064L5.99994 486.856L124.64 293.195C136.219 281.234 155.682 273.886 167.357 301.267C170.336 308.286 173.283 315.732 176.559 323.079C181.527 341.437 194.666 358.339 212.616 367.475C252.662 386.773 289.23 369.384 306.776 340.456C324.578 311.685 323.459 271.208 288.077 244.297C271.785 232.456 250.757 228.427 232.147 232.34C224.114 232.759 216.143 233.517 208.535 234.051C178.84 236.088 176.544 215.409 181.941 199.66L300.581 6L493.339 124.087C505.227 135.641 512.479 155.115 485.107 166.929C478.089 169.944 470.647 172.927 463.302 176.241C444.962 181.296 428.043 194.535 418.85 212.559C399.427 252.773 416.626 289.346 445.42 306.808C474.056 324.528 514.452 323.239 541.453 287.669C553.337 271.293 557.445 250.204 553.618 231.57C553.234 223.521 552.51 215.537 552.009 207.915C550.1 178.165 570.745 175.778 586.438 181.121L779.195 299.208L484.614 780.064Z" fill="url(#paint0_linear_61_2255)"/>
<path d="M484.614 780.064L5.99994 486.856L124.64 293.195C136.219 281.234 155.682 273.886 167.357 301.267C170.336 308.286 173.283 315.732 176.559 323.079C181.527 341.437 194.666 358.339 212.616 367.475C252.662 386.773 289.23 369.384 306.776 340.456C324.578 311.685 323.459 271.208 288.077 244.297C271.785 232.456 250.757 228.427 232.147 232.34C224.114 232.759 216.143 233.517 208.535 234.051C178.84 236.088 176.544 215.409 181.941 199.66L300.581 6L493.339 124.087C505.227 135.641 512.479 155.115 485.107 166.929C478.089 169.944 470.647 172.927 463.302 176.241C444.962 181.296 428.043 194.535 418.85 212.559C399.427 252.773 416.626 289.346 445.42 306.808C474.056 324.528 514.452 323.239 541.453 287.669C553.337 271.293 557.445 250.204 553.618 231.57C553.234 223.521 552.51 215.537 552.009 207.915C550.1 178.165 570.745 175.778 586.438 181.121L779.195 299.208L484.614 780.064Z" stroke="white" stroke-width="8" stroke-miterlimit="10"/>
</g>
<defs>
<filter id="filter0_d_61_2255" x="0.499512" y="0.499634" width="788.196" height="789.064" filterUnits="userSpaceOnUse" color-interpolation-filters="sRGB">
<feFlood flood-opacity="0" result="BackgroundImageFix"/>
<feColorMatrix in="SourceAlpha" type="matrix" values="0 0 0 0 0 0 0 0 0 0 0 0 0 0 0 0 0 0 127 0" result="hardAlpha"/>
<feOffset dx="4" dy="4"/>
<feComposite in2="hardAlpha" operator="out"/>
<feColorMatrix type="matrix" values="0 0 0 0 0.541176 0 0 0 0 0.603922 0 0 0 0 0.807843 0 0 0 1 0"/>
<feBlend mode="normal" in2="BackgroundImageFix" result="effect1_dropShadow_61_2255"/>
<feBlend mode="normal" in="SourceGraphic" in2="effect1_dropShadow_61_2255" result="shape"/>
</filter>
<linearGradient id="paint0_linear_61_2255" x1="11.69" y1="476.306" x2="760.027" y2="253.354" gradientUnits="userSpaceOnUse">
<stop stop-color="#FFEFFB"/>
<stop offset="0.638315" stop-color="#FF73DC"/>
<stop offset="1" stop-color="#FF12C4"/>
</linearGradient>
</defs>
</svg>
