<svg width="710" height="710" viewBox="0 0 710 710" fill="none" xmlns="http://www.w3.org/2000/svg">
<g filter="url(#filter0_d_61_2253)">
<path d="M4.65817 464.295C1.40821 433.851 18.2601 401.264 57.8586 393.147C75.8729 389.86 94.689 394.801 108.399 405.277C114.817 408.762 121.049 412.5 127.073 415.913C150.604 429.196 160.631 413.219 162.41 398.256L141.476 193.786L345.947 172.852C360.239 168.075 373.853 155.021 356.077 134.67C351.514 129.464 346.591 124.117 341.878 118.538C328.841 107.236 320.191 89.8108 319.758 71.5042C319.681 31.081 348.178 7.97516 378.649 4.99004L378.652 4.98972L378.655 4.98941C409.099 1.73945 441.686 18.5914 449.803 58.19C453.09 76.2043 448.149 95.0204 437.673 108.73C434.188 115.148 430.45 121.381 427.037 127.405C413.754 150.936 429.731 160.962 444.694 162.742L649.164 141.808L670.098 346.274C668.316 361.238 658.292 377.215 634.759 363.932C628.737 360.519 622.503 356.781 616.085 353.296C602.375 342.82 583.559 337.88 565.544 341.166C525.951 349.283 509.09 381.875 512.345 412.32C515.327 442.793 538.442 471.294 578.859 471.217C597.166 470.786 614.591 462.135 625.893 449.098C631.472 444.384 636.817 439.461 642.025 434.898C662.376 417.123 675.432 430.736 680.208 445.028L701.142 649.495L193.456 701.473L172.522 497.005C167.746 482.713 154.691 469.099 134.34 486.875C129.133 491.438 123.787 496.361 118.208 501.074C106.906 514.111 89.4812 522.761 71.1746 523.194C30.7514 523.271 7.6457 494.774 4.66054 464.303L4.66022 464.3L4.65817 464.295Z" fill="url(#paint0_linear_61_2253)"/>
<path d="M4.65817 464.295C1.40821 433.851 18.2601 401.264 57.8586 393.147C75.8729 389.86 94.689 394.801 108.399 405.277C114.817 408.762 121.049 412.5 127.073 415.913C150.604 429.196 160.631 413.219 162.41 398.256L141.476 193.786L345.947 172.852C360.239 168.075 373.853 155.021 356.077 134.67C351.514 129.464 346.591 124.117 341.878 118.538C328.841 107.236 320.191 89.8108 319.758 71.5042C319.681 31.081 348.178 7.97516 378.649 4.99004L378.652 4.98972L378.655 4.98941C409.099 1.73945 441.686 18.5914 449.803 58.19C453.09 76.2043 448.149 95.0204 437.673 108.73C434.188 115.148 430.45 121.381 427.037 127.405C413.754 150.936 429.731 160.962 444.694 162.742L649.164 141.808L670.098 346.274C668.316 361.238 658.292 377.215 634.759 363.932C628.737 360.519 622.503 356.781 616.085 353.296C602.375 342.82 583.559 337.88 565.544 341.166C525.951 349.283 509.09 381.875 512.345 412.32C515.327 442.793 538.442 471.294 578.859 471.217C597.166 470.786 614.591 462.135 625.893 449.098C631.472 444.384 636.817 439.461 642.025 434.898C662.376 417.123 675.432 430.736 680.208 445.028L701.142 649.495L193.456 701.473L172.522 497.005C167.746 482.713 154.691 469.099 134.34 486.875C129.133 491.438 123.787 496.361 118.208 501.074C106.906 514.111 89.4812 522.761 71.1746 523.194C30.7514 523.271 7.6457 494.774 4.66054 464.303L4.66022 464.3L4.65817 464.295Z" stroke="white" stroke-width="8" stroke-miterlimit="10"/>
</g>
<defs>
<filter id="filter0_d_61_2253" x="0.26709" y="0.598267" width="709.262" height="709.261" filterUnits="userSpaceOnUse" color-interpolation-filters="sRGB">
<feFlood flood-opacity="0" result="BackgroundImageFix"/>
<feColorMatrix in="SourceAlpha" type="matrix" values="0 0 0 0 0 0 0 0 0 0 0 0 0 0 0 0 0 0 127 0" result="hardAlpha"/>
<feOffset dx="4" dy="4"/>
<feComposite in2="hardAlpha" operator="out"/>
<feColorMatrix type="matrix" values="0 0 0 0 0.541176 0 0 0 0 0.603922 0 0 0 0 0.807843 0 0 0 1 0"/>
<feBlend mode="normal" in2="BackgroundImageFix" result="effect1_dropShadow_61_2253"/>
<feBlend mode="normal" in="SourceGraphic" in2="effect1_dropShadow_61_2253" result="shape"/>
</filter>
<linearGradient id="paint0_linear_61_2253" x1="177.854" y1="712.325" x2="711.639" y2="196.242" gradientUnits="userSpaceOnUse">
<stop stop-color="#E8FCEF"/>
<stop offset="0.67" stop-color="#83E9AA"/>
<stop offset="1" stop-color="#1DD763"/>
</linearGradient>
</defs>
</svg>
