<svg width="689" height="688" viewBox="0 0 689 688" fill="none" xmlns="http://www.w3.org/2000/svg">
<g filter="url(#filter0_d_61_2236)">
<path d="M470.403 678.814C441.857 684.325 409.676 670.987 398.828 634.169C394.277 617.387 397.446 599.189 406.262 585.379C409.046 579.027 412.084 572.831 414.831 566.858C425.517 543.531 409.598 535.323 395.298 534.836L203.507 571.001L167.342 379.209C161.68 366.069 148.239 354.232 130.405 372.679C125.844 377.413 121.178 382.499 116.277 387.405C106.626 400.644 90.8311 410.222 73.5444 412.096C35.3029 415.404 11.1609 390.289 5.8988 361.696L5.89824 361.693L5.8977 361.69C0.387153 333.145 13.7252 300.964 50.5432 290.116C67.325 285.565 85.5236 288.734 99.3336 297.55C105.685 300.334 111.881 303.372 117.854 306.119C141.181 316.805 149.39 300.886 149.877 286.585L113.712 94.7955L305.499 58.6312C319.8 59.1193 335.718 67.3265 325.033 90.655C322.286 96.6264 319.248 102.824 316.464 109.175C307.648 122.985 304.48 141.184 309.03 157.966C319.877 194.779 352.064 208.125 380.61 202.61C409.205 197.35 434.323 173.199 431.016 134.963C429.144 117.676 419.564 101.882 406.325 92.2307C401.419 87.3295 396.333 82.6652 391.599 78.1031C373.152 60.2694 384.988 46.827 398.129 41.1644L589.917 5.00003L679.712 481.204L487.923 517.368C474.782 523.031 462.946 536.472 481.392 554.306C486.126 558.868 491.212 563.532 496.118 568.433C509.358 578.084 518.936 593.879 520.81 611.166C524.117 649.407 499.002 673.549 470.41 678.811L470.407 678.812L470.403 678.814Z" fill="url(#paint0_linear_61_2236)"/>
<path d="M470.403 678.814C441.857 684.325 409.676 670.987 398.828 634.169C394.277 617.387 397.446 599.189 406.262 585.379C409.046 579.027 412.084 572.831 414.831 566.858C425.517 543.531 409.598 535.323 395.298 534.836L203.507 571.001L167.342 379.209C161.68 366.069 148.239 354.232 130.405 372.679C125.844 377.413 121.178 382.499 116.277 387.405C106.626 400.644 90.8311 410.222 73.5444 412.096C35.3029 415.404 11.1609 390.289 5.8988 361.696L5.89824 361.693L5.8977 361.69C0.387153 333.145 13.7252 300.964 50.5432 290.116C67.325 285.565 85.5236 288.734 99.3336 297.55C105.685 300.334 111.881 303.372 117.854 306.119C141.181 316.805 149.39 300.886 149.877 286.585L113.712 94.7955L305.499 58.6312C319.8 59.1193 335.718 67.3265 325.033 90.655C322.286 96.6264 319.248 102.824 316.464 109.175C307.648 122.985 304.48 141.184 309.03 157.966C319.877 194.779 352.064 208.125 380.61 202.61C409.205 197.35 434.323 173.199 431.016 134.963C429.144 117.676 419.564 101.882 406.325 92.2307C401.419 87.3295 396.333 82.6652 391.599 78.1031C373.152 60.2694 384.988 46.827 398.129 41.1644L589.917 5.00003L679.712 481.204L487.923 517.368C474.782 523.031 462.946 536.472 481.392 554.306C486.126 558.868 491.212 563.532 496.118 568.433C509.358 578.084 518.936 593.879 520.81 611.166C524.117 649.407 499.002 673.549 470.41 678.811L470.407 678.812L470.403 678.814Z" stroke="white" stroke-width="8" stroke-miterlimit="10"/>
</g>
<defs>
<filter id="filter0_d_61_2236" x="0.70752" y="0.328125" width="687.676" height="687.677" filterUnits="userSpaceOnUse" color-interpolation-filters="sRGB">
<feFlood flood-opacity="0" result="BackgroundImageFix"/>
<feColorMatrix in="SourceAlpha" type="matrix" values="0 0 0 0 0 0 0 0 0 0 0 0 0 0 0 0 0 0 127 0" result="hardAlpha"/>
<feOffset dx="4" dy="4"/>
<feComposite in2="hardAlpha" operator="out"/>
<feColorMatrix type="matrix" values="0 0 0 0 0.541176 0 0 0 0 0.603922 0 0 0 0 0.807843 0 0 0 1 0"/>
<feBlend mode="normal" in2="BackgroundImageFix" result="effect1_dropShadow_61_2236"/>
<feBlend mode="normal" in="SourceGraphic" in2="effect1_dropShadow_61_2236" result="shape"/>
</filter>
<linearGradient id="paint0_linear_61_2236" x1="275.458" y1="64.2958" x2="394.05" y2="693.212" gradientUnits="userSpaceOnUse">
<stop stop-color="#FFEBEE"/>
<stop offset="0.424514" stop-color="#FFC9D1"/>
<stop offset="1" stop-color="#F1647B"/>
</linearGradient>
</defs>
</svg>
