<svg width="671" height="734" viewBox="0 0 671 734" fill="none" xmlns="http://www.w3.org/2000/svg">
<g filter="url(#filter0_d_61_2252)">
<path d="M183.058 720.392C211.334 731.543 246.957 724.054 265.159 688.365C273.052 672.022 273.284 652.738 266.872 636.872C265.228 629.819 263.294 622.876 261.615 616.219C255.106 590.226 273.037 584.869 287.824 587.123L477.964 661.162L661.495 189.836L471.358 115.798C456.57 113.545 438.64 118.901 445.149 144.895C446.828 151.551 448.761 158.495 450.405 165.548C456.816 181.415 456.584 200.698 448.693 217.041C430.492 252.726 394.861 260.222 366.586 249.066C338.212 238.163 317.031 208.545 327.756 169.95C332.993 152.573 345.863 138.211 361.317 130.858C367.297 126.774 373.417 122.967 379.156 119.198C401.528 104.451 391.942 88.3792 379.525 80.0385L189.386 6L115.471 195.822C113.232 210.589 118.614 228.503 144.633 222.032C151.295 220.362 158.246 218.439 165.306 216.805C181.185 210.419 200.492 210.672 216.864 218.573C252.612 236.792 260.157 272.388 249.02 300.616C238.135 328.943 208.505 350.065 169.85 339.31C152.446 334.059 138.053 321.189 130.673 305.746C126.577 299.768 122.759 293.651 118.978 287.916C104.189 265.554 88.108 275.11 79.7711 287.503L5.85583 477.325L195.996 551.364C208.413 559.705 218 575.775 195.627 590.522C189.889 594.29 183.769 598.098 177.788 602.182C162.335 609.535 149.466 623.897 144.227 641.274C133.5 679.875 154.68 709.482 183.051 720.388L183.054 720.389L183.058 720.392Z" fill="url(#paint0_linear_61_2252)"/>
<path d="M183.058 720.392C211.334 731.543 246.957 724.054 265.159 688.365C273.052 672.022 273.284 652.738 266.872 636.872C265.228 629.819 263.294 622.876 261.615 616.219C255.106 590.226 273.037 584.869 287.824 587.123L477.964 661.162L661.495 189.836L471.358 115.798C456.57 113.545 438.64 118.901 445.149 144.895C446.828 151.551 448.761 158.495 450.405 165.548C456.816 181.415 456.584 200.698 448.693 217.041C430.492 252.726 394.861 260.222 366.586 249.066C338.212 238.163 317.031 208.545 327.756 169.95C332.993 152.573 345.863 138.211 361.317 130.858C367.297 126.774 373.417 122.967 379.156 119.198C401.528 104.451 391.942 88.3792 379.525 80.0385L189.386 6L115.471 195.822C113.232 210.589 118.614 228.503 144.633 222.032C151.295 220.362 158.246 218.439 165.306 216.805C181.185 210.419 200.492 210.672 216.864 218.573C252.612 236.792 260.157 272.388 249.02 300.616C238.135 328.943 208.505 350.065 169.85 339.31C152.446 334.059 138.053 321.189 130.673 305.746C126.577 299.768 122.759 293.651 118.978 287.916C104.189 265.554 88.108 275.11 79.7711 287.503L5.85583 477.325L195.996 551.364C208.413 559.705 218 575.775 195.627 590.522C189.889 594.29 183.769 598.098 177.788 602.182C162.335 609.535 149.466 623.897 144.227 641.274C133.5 679.875 154.68 709.482 183.051 720.388L183.054 720.389L183.058 720.392Z" stroke="white" stroke-width="8" stroke-miterlimit="10"/>
</g>
<defs>
<filter id="filter0_d_61_2252" x="0.677246" y="0.821167" width="669.997" height="732.336" filterUnits="userSpaceOnUse" color-interpolation-filters="sRGB">
<feFlood flood-opacity="0" result="BackgroundImageFix"/>
<feColorMatrix in="SourceAlpha" type="matrix" values="0 0 0 0 0 0 0 0 0 0 0 0 0 0 0 0 0 0 127 0" result="hardAlpha"/>
<feOffset dx="4" dy="4"/>
<feComposite in2="hardAlpha" operator="out"/>
<feColorMatrix type="matrix" values="0 0 0 0 0.541176 0 0 0 0 0.603922 0 0 0 0 0.807843 0 0 0 1 0"/>
<feBlend mode="normal" in2="BackgroundImageFix" result="effect1_dropShadow_61_2252"/>
<feBlend mode="normal" in="SourceGraphic" in2="effect1_dropShadow_61_2252" result="shape"/>
</filter>
<linearGradient id="paint0_linear_61_2252" x1="196.5" y1="6" x2="697.111" y2="568.319" gradientUnits="userSpaceOnUse">
<stop offset="0.261879" stop-color="#E8E2FC"/>
<stop offset="0.54581" stop-color="#B5A5E0"/>
<stop offset="0.92" stop-color="#7F52FF"/>
</linearGradient>
</defs>
</svg>
