<!-- Generated by IcoMoon.io -->
<svg version="1.1" xmlns="http://www.w3.org/2000/svg" width="69" height="32" viewBox="0 0 69 32">
<path fill="none" stroke="#8a9ace" stroke-linejoin="miter" stroke-linecap="round" stroke-miterlimit="4" stroke-width="0.5818" d="M20.826 22.765c0-2.321 5.302-2.096 6.86-2.096 2.791 0 5.131 0.137 7.623 1.419 1.384 0.712 2.561 3.031 2.668 4.531 0.119 1.66 0.381 3.215 0.381 4.912"></path>
<path fill="none" stroke="#8a9ace" stroke-linejoin="miter" stroke-linecap="round" stroke-miterlimit="4" stroke-width="0.5818" d="M20.064 17.619c1.337-0.134 2.667-0.448 4.012-0.582 1.605-0.161 3.175-0.18 4.796-0.18 3.335 0 7.285 0.488 10.248 2.096 1.754 0.952 2.625 3.832 3.388 5.526 0.631 1.401 0.614 3.444 0.614 4.955"></path>
<path fill="none" stroke="#8a9ace" stroke-linejoin="miter" stroke-linecap="round" stroke-miterlimit="4" stroke-width="0.5818" d="M20.636 13.427c0.113-0.903 3.975-1.159 4.584-1.239 1.825-0.24 3.756-0.286 5.601-0.286 2.172 0 4.316-0.011 6.479 0.191 1.912 0.178 3.66 1.164 5.241 2.192 2.232 1.451 3.244 4.531 3.917 6.956 0.607 2.185 1.048 4.381 1.048 6.67"></path>
<path fill="none" stroke="#8a9ace" stroke-linejoin="miter" stroke-linecap="round" stroke-miterlimit="4" stroke-width="0.5818" d="M24.578 25.102c0.676-0.075 1.392-0.195 2.080-0.285 1.205-0.158 2.21-0.006 3.391 0.157 1.655 0.228 4.017 1.972 4.017 3.847"></path>
<path fill="none" stroke="#8a9ace" stroke-linejoin="miter" stroke-linecap="round" stroke-miterlimit="4" stroke-width="0.5818" d="M26.758 28.436c-0.507 1.225-0.609 2.183 0.841 2.536 1.234 0.3 2.43-0.266 2.365-1.638-0.043-0.903-0.968-1.144-1.667-1.254-0.433-0.068-1.009-0.107-1.41 0.1-0.534 0.274-0.713 0.802-1.154 1.154"></path>
<path fill="none" stroke="#8a9ace" stroke-linejoin="miter" stroke-linecap="round" stroke-miterlimit="4" stroke-width="0.5818" d="M63.479 20.784c0.158-0.237 0.852-1.581 1.135-1.662 0.136-0.039 0.307 1.196 0.307 1.361 0 0.417 0.284 0.253 0.601 0.394 0.15 0.067 1.224 0.274 1.174 0.387-0.179 0.409-2.089-0.109-1.595 0.781 0.137 0.246 0.285 0.746 0.3 1.021 0.033 0.595-0.109 0.251-0.481-0.12-0.24-0.24-0.466-0.399-0.774-0.487-0.317-0.091-0.319-0.594-0.741-0.594-0.546 0-0.98 0.36-1.488 0.36-0.351 0-0.65 0.194-0.24-0.24 0.422-0.447 0.361-1.022 0.361-1.622 0-1.007 1.801 1.056 1.801 0.42"></path>
<path fill="none" stroke="#8a9ace" stroke-linejoin="miter" stroke-linecap="round" stroke-miterlimit="4" stroke-width="0.5818" d="M2.006 7.846c0.399-0.399 0.701-0.838 1.070-1.25 0.058-0.065 0.069-0.418 0.236-0.299 0.122 0.087 0.312 0.536 0.375 0.681 0.145 0.332 0.067 0.868 0.472 0.868 0.564 0 1.102 0.25 1.653 0.25 0.476 0-0.060 0.327-0.243 0.368-0.425 0.095-1.057 0.094-1.438 0.285-0.22 0.11 1.181 1.831 0.875 1.848-1.072 0.060-1.728-1.125-2.695-1.125-0.433 0-0.874 0.025-1.306 0-0.238-0.014 0.317-0.457 0.445-0.493 1.039-0.297-0.053-1.184-0.417-1.535-0.166-0.16-0.836-0.705-0.146-0.403 0.589 0.258 1.115 0.399 1.743 0.556"></path>
<path fill="none" stroke="#8a9ace" stroke-linejoin="miter" stroke-linecap="round" stroke-miterlimit="4" stroke-width="0.5818" d="M38.14 1.969c0.371-0.371 0.492-0.803 0.813-1.195 0.434-0.531 0.47 0.156 0.556 0.625 0.131 0.719 1.090 0.945 1.73 0.945 0.68 0-0.393 0.125-0.597 0.125-0.406 0-1.375-0.053-1.375 0.438 0 0.365 0.139 0.709 0.222 1.063 0.095 0.406 0.335 0.963-0.25 0.5-0.427-0.338-1.040-0.696-1.223-1.243-0.104-0.312-1.412-0.132-1.681-0.132-0.359 0-1.429 0.125-1.070 0.125 0.381 0 0.794-0.112 1.153-0.222 1.137-0.35-0.146-1.262-0.403-1.903-0.196-0.49 0.356-0.010 0.625 0.125 0.394 0.197 0.809 0.375 1.25 0.375"></path>
<path fill="none" stroke="#8a9ace" stroke-linejoin="miter" stroke-linecap="round" stroke-miterlimit="4" stroke-width="0.5818" d="M64.019 4.342c0.024-0.196 1.293-1.415 1.583-1.263 0.38 0.2 0.393 0.77 0.72 0.943 0.212 0.112 0.627 0.032 0.863 0.032 1.593 0-0.232 0.795-0.399 1.151-0.262 0.557 1.141 1.304-0.352 0.751-0.623-0.231-1.019-1.077-1.694-1.039-0.254 0.014-1.284 0.469-1.263 0.432 0.142-0.253 0.333-0.528 0.511-0.751 0.205-0.256-0.713-0.569-0.863-0.719-1.023-1.023 0.73-0.112 1.183-0.112"></path>
</svg>
