<!-- Generated by IcoMoon.io -->
<svg version="1.1" xmlns="http://www.w3.org/2000/svg" width="33" height="32" viewBox="0 0 33 32">
<path fill="none" stroke="#8a9ace" stroke-linejoin="miter" stroke-linecap="round" stroke-miterlimit="4" stroke-width="0.4923" d="M17.917 11.539c-1.259-0.53-3.654-0.194-4.736 0.536-0.89 0.601-1.354 2.938-0.76 3.917 0.806 1.327 2.797 1.445 4.215 1.445 0.78 0 1.398 0.098 1.884-0.603 0.64-0.924 0.603-1.879 0.603-2.956 0-1.632-1.128-2.338-2.681-2.338"></path>
<path fill="none" stroke="#8a9ace" stroke-linejoin="miter" stroke-linecap="round" stroke-miterlimit="4" stroke-width="0.4923" d="M12.824 18.107c-2.168 0-0.285 5.905-2.145 6.732-0.948 0.421-2.215-0.030-3.15-0.030-1.003 0-1.407 0.275-1.407 1.273 0 1.259 5.229 1.005 6.099 1.005 0.555 0 0.736-0.059 1.206-0.268 0.729-0.324 0.705-1.134 0.976-1.742 0.334-0.751 0.089-1.583 0.968-1.876"></path>
<path fill="none" stroke="#8a9ace" stroke-linejoin="miter" stroke-linecap="round" stroke-miterlimit="4" stroke-width="0.4923" d="M20.062 18.241c0.844 0 1.227 1.003 1.474 1.683 0.163 0.447 0.235 0.851 0.372 1.296 0.144 0.467-0.084 1.008 0.060 1.474 0.229 0.743 0.3 1.575 0.975 2.115 0.231 0.185 0.428 0.268 0.737 0.268 0.435 0 0.772 0.268 1.206 0.268 0.481 0 1.446 0.336 1.601 0.879 0.121 0.425 0.293 0.776 0.276 1.236-0.018 0.471-1.349 0.432-1.713 0.432-1.134 0-2.109-0.291-3.18-0.529-0.634-0.141-1.101-0.122-1.675-0.41"></path>
<path fill="none" stroke="#8a9ace" stroke-linejoin="miter" stroke-linecap="round" stroke-miterlimit="4" stroke-width="0.4923" d="M15.102 28.562c-0.674-0.075-0.868-0.938-1.675-0.938-0.617 0-1.521-0.39-2.145-0.529-0.815-0.181-1.731-0.118-2.554-0.268-0.754-0.137-2.121 0.044-2.673 0.596-0.341 0.341-0.791 0.367-0.975 0.901-0.060 0.172-0.118 0.918 0.037 1.043 0.233 0.186 0.264 0.498 0.633 0.64 0.567 0.218 0.982 0.354 1.579 0.439 1.016 0.145 1.976 0.529 3.016 0.529 1.010 0 2.036 0.402 3.016 0.402 2.248 0 4.576 0.182 6.806 0.268 0.891 0.034 1.789 0 2.681 0 1.063 0 2.225 0.258 2.815-0.804 0.969-1.743-0.403-2.949-2.145-2.949-0.6 0-5.466-0.389-5.466 0.67"></path>
<path fill="none" stroke="#8a9ace" stroke-linejoin="miter" stroke-linecap="round" stroke-miterlimit="4" stroke-width="0.4923" d="M8.803 18.777c-1.966-1.117-3.989-1.773-6.032-2.681"></path>
<path fill="none" stroke="#8a9ace" stroke-linejoin="miter" stroke-linecap="round" stroke-miterlimit="4" stroke-width="0.4923" d="M0.492 12.477c0.112 0.177 1.054 1.395 1.072 0.64 0.013-0.547 0.024-0.908-0.566-0.908-0.692 0-0.562 0.848 0 1.043 0.279 0.096 0.164-0.857 0.164-1.043"></path>
<path fill="none" stroke="#8a9ace" stroke-linejoin="miter" stroke-linecap="round" stroke-miterlimit="4" stroke-width="0.4923" d="M11.349 9.662c-0.581-1.656-1.468-3.341-2.413-4.825-0.299-0.471-0.508-1.42-1.072-1.608"></path>
<path fill="none" stroke="#8a9ace" stroke-linejoin="miter" stroke-linecap="round" stroke-miterlimit="4" stroke-width="0.4923" d="M6.792 1.218c0.063 0.568 1.149 0.919 1.474 0.432 0.682-1.023-0.504-1.537-1.206-0.834"></path>
<path fill="none" stroke="#8a9ace" stroke-linejoin="miter" stroke-linecap="round" stroke-miterlimit="4" stroke-width="0.4923" d="M17.649 9.395c0.163-1.795 1.206-3.536 1.206-5.361"></path>
<path fill="none" stroke="#8a9ace" stroke-linejoin="miter" stroke-linecap="round" stroke-miterlimit="4" stroke-width="0.4923" d="M18.453 0.951c0.601 1.504 1.25-0.134 0.67-0.134"></path>
<path fill="none" stroke="#8a9ace" stroke-linejoin="miter" stroke-linecap="round" stroke-miterlimit="4" stroke-width="0.4923" d="M20.866 12.745c2.020 0 4.028-0.896 5.898-1.579 0.748-0.273 2.375-0.261 2.949-0.834"></path>
<path fill="none" stroke="#8a9ace" stroke-linejoin="miter" stroke-linecap="round" stroke-miterlimit="4" stroke-width="0.4923" d="M31.991 9.261c0 0.515-0.034 1.047 0.64 1.072 0.594 0.022 0.432-0.442 0.432-0.931 0-1.315-2.227 0.395-0.938 0.395"></path>
<path fill="none" stroke="#8a9ace" stroke-linejoin="miter" stroke-linecap="round" stroke-miterlimit="4" stroke-width="0.4923" d="M23.010 17.705c1.502 0 3.038-0.105 4.527 0.104 0.736 0.103 1.432 0.164 2.174 0.164"></path>
<path fill="none" stroke="#8a9ace" stroke-linejoin="miter" stroke-linecap="round" stroke-miterlimit="4" stroke-width="0.4923" d="M31.857 17.839c-0.438 0.93 0.949 1.007 1.057 0.521 0.304-1.366-2.266-0.736-1.057-0.253"></path>
</svg>
