<svg xmlns="http://www.w3.org/2000/svg" width="168" height="233" fill="none" viewBox="0 0 168 233"><path stroke="#8A9ACE" stroke-linecap="round" d="M1.93 51.816c-.592-4.738-2.993-15.16 2.428-18.496 4.014-2.47 10.96-1.841 15.483-1.841 4.99 0 9.486 2.54 12.972 6.026 9.094 9.094 10.545 25.679 10.545 37.828 0 16.658 3.443 33.587.92 50.299-2.466 16.342-.041 34.927 8.872 48.792 10.584 16.465 30.217 17.019 46.532 23.182 4.441 1.678 10.116 2.35 13.893 5.44 3.252 2.661 5.087 5.421 7.365 9.039 3.664 5.819 4.001 12.171 6.026 18.244"/><path stroke="#8A9ACE" stroke-linecap="round" d="M128.098 229.369c-.968-.242-.202-4.571.019-5.347.212-.74.829-1.669 1.097-2.54.183-.594.299-1.762.789-2.154.215-.172.173-1.083.173-.808v1.77c0 1.181-.347 2.213-.347 3.366 0 2.212-.909 3.832-1.365 5.886-.167.752-.534 1.37-.731 2.058-.172.602-1.521-1.683-1.712-1.885-1.75-1.852-2.896-4.457-5.194-5.809-.542-.319-1.228-1.116-1.866-1.116-.432 0 .748.438 1.097.693.645.471 1.009 1.357 1.462 2 1.424 2.024 4.065 4.534 6.232 5.617m39.465-201.387C159.065 19.907 149.734 7 136.414 3.892c-4.244-.99-8.916-1.426-13.2-2.182-10.294-1.817-23.948-.399-33.53 4.073C78.377 11.06 82.12 29.559 82.12 39.53"/><path stroke="#8A9ACE" stroke-linecap="round" d="M83.442 39.425c.113-1.013 1.331-1.33 1.953-1.953.724-.724 1.269-1.548 1.953-2.307 1.194-1.327 3.128-6.412 2.466-4.754-.76 1.897-2.097 3.34-3.334 4.931-.583.75-1.376 1.555-1.894 2.308-.39.567-1.259 2.035-1.854 2.407-.74.462-1.183 1.234-1.775-.1a8.7 8.7 0 0 0-1.776-2.662c-.928-.98-1.454-2.31-2.307-3.353-.62-.758-1.556-1.611-1.953-2.506-.282-.633-.98-1.767-1.5-2.229-.355-.316-.228.817-.197.908.196.566.82 1.18 1.164 1.677 1.984 2.866 3.345 6.185 5.859 8.698"/></svg>