<svg xmlns="http://www.w3.org/2000/svg" width="94" height="26" fill="none" viewBox="0 0 94 26"><path stroke="#8A9ACE" stroke-linecap="round" d="M1 1c.599.517 1.513.52 2.204.9a269 269 0 0 0 6.58 3.503c2.09 1.071 3.615 2.03 6.038 2.233 3 .252 6.06-.217 9.072-.217 2.92 0 5.875.255 8.705.992 1.917.499 3.32 2.006 5.064 2.853 2.847 1.382 4.91 2.018 8.241 2.046 2.234.02 6.652-.06 8.88 0 1.746.048 3.513-.02 5 .93.818.523 1.538 1.145 2.332 1.675 2.56 1.708 4.593 3.875 7.315 5.442 3.153 1.813 7.93.068 11.293.015 2.353-.037 4.832-.155 6.836 1.271C89.943 23.628 91.235 25 93 25"/></svg>