<svg xmlns="http://www.w3.org/2000/svg" width="84" height="117" fill="none" viewBox="0 0 84 117"><path stroke="#8A9ACE" stroke-linecap="round" d="M1.58 31.349C-.338 27.27.456 20.002 3.773 16.922c2.171-2.016 4.389-3.47 7.467-3.47 3.925 0 6.217 1.986 8.522 5.114 2.161 2.933 2.28 6.772 2.82 10.226.869 5.558.548 11.39.548 17.004 0 6.46.084 12.907-.284 19.357-.398 6.96.869 12.736 2.678 19.499 1.057 3.948 1.881 9.274 4.545 12.722 1.672 2.164 3.156 4.904 5.824 5.905 1.835.688 3.038.75 5.113.75 4.135 0 7.887-1.461 12.073-1.461 6.238 0 9.496 8.853 9.496 13.879"/><path stroke="#8A9ACE" stroke-linecap="round" d="M57.774 112.013c.974.716 1.9 1.246 2.817 2.014.772.647 1.343 1.474 2.052 2.183m0 0c.29-.363.345-.907.596-1.306.395-.627.677-1.29.99-1.959.299-.641.269-2.447.932-2.779m17.721-98.789c0-4.541-7.075-7.006-10.545-8.394-4.598-1.84-10.918-3.175-15.8-1.622-2.155.686-4.718.745-6.49 2.398-2.03 1.896-3.395 3.467-4.46 6.19-1.102 2.814-1.943 5.567-2.346 8.587-.103.777-.047 3.004-.67 3.315"/><path stroke="#8A9ACE" stroke-linecap="round" d="M40.35 15.503c.313 1.02 1.27 2.982 1.27 3.968 0 .719.343 2.076.951 2.38m.319-.001c1-.124 2.05-1.997 2.997-2.538.837-.479 2.382-1.54 2.715-2.54"/></svg>