<svg xmlns="http://www.w3.org/2000/svg" width="434" height="118" fill="none" viewBox="0 0 434 118"><path stroke="#8A9ACE" stroke-linecap="round" d="M1.314 1.327C4.122 3.823 8.41 3.839 11.651 5.67c10.166 5.747 20.54 11.48 30.861 16.93 9.798 5.173 16.949 9.802 28.314 10.786 14.066 1.217 28.422-1.049 42.546-1.049 13.694 0 27.548 1.233 40.823 4.794 8.987 2.411 15.566 9.693 23.745 13.782 13.355 6.678 23.028 9.751 38.65 9.888 10.477.092 31.196-.293 41.647 0 8.187.23 16.473-.093 23.446 4.494 3.835 2.523 7.212 5.53 10.936 8.09 12.004 8.253 21.537 18.725 34.306 26.292 14.786 8.761 37.186.329 52.958.074 11.035-.178 22.663-.748 32.059 6.143 6.485 4.755 12.546 11.385 20.823 11.385"/></svg>