<svg xmlns="http://www.w3.org/2000/svg" width="1136" height="35" fill="none" viewBox="0 0 1136 35"><path stroke="#8A9ACE" stroke-linecap="round" d="M15.85 8.702c-2.273.165-5.481 3.833-6.965 4.987-1.682 1.308-3.573 2.254-5.404 3.453-7.57 4.956 3.963 2.78 10.807 2.302 11.946-.833 26.687-2.077 38.673-2.387 6.08-.158 16.337-.952 21.159 2.6 1.168.86 2.794 1.616 3.84 2.472 1.95 1.596 4.068 1.21 6.641.213 11.693-4.523 25.061-8.487 34.897-14.749 2.542-1.618 7.153-4.19 8.854-6.138 1.691-1.938 5.187 2.897 5.859 3.58 6.342 6.46 12.497 12.64 19.662 18.672 2.807 2.363 3.114 3.41 7.877 3.41 7.316 0 14.135-1.884 21.42-2.473 13.518-1.092 27.393-3.425 40.755-5.2 14.067-1.869 28.828-2.428 42.709-4.604 5.156-.808 7.693-2.681 10.026.81 1.799 2.693 3.055 5.86 5.209 8.398 2.257 2.66 4.266 10.398 10.677 9.932 8.867-.645 17.429-3.872 25.911-5.5 12.534-2.403 24.887-5.609 37.11-8.61 5.392-1.324 27.378-10.926 30.599-6.18 3.244 4.778 10.121 9.863 14.714 14.237 6.015 5.729 8.451 5.685 18.945 4.177 25.597-3.679 51.294-7.985 76.368-13.001 2.866-.574 10.646-3.549 13.672-2.558 2.715.889 5.49 5.083 7.031 6.735 1.488 1.594 10.87 11.788 14.584 10.572 12.562-4.113 24.165-10.262 35.938-15.175 8.361-3.49 18.128-6.757 27.148-9.464 1.535-.46 5.76-2.355 7.227-1.875 7.289 2.386 13.765 9.183 19.401 12.873 5.324 3.486 11.616 11.29 20.443 9.805 6.683-1.126 12.306-5.19 18.164-7.418 6.884-2.617 14.982-6.231 22.591-7.758 11.823-2.372 25.068-7.367 37.761-6.906 3.426.125 8.401 4.64 10.482 6.139 4.135 2.978 8.287 5.827 12.695 8.61 6.157 3.887 10.847 6.739 19.662 5.585 17.136-2.244 30.308-11.501 46.55-15.431 8.225-1.99 16.334-3.719 24.935-4.903 6.087-.837 16.977-3.622 23.177-3.069 3.61.323 10.988 3.756 12.37 4.348 12.049 5.16 23.524 10.911 35.742 15.9 3.771 1.54 7.596 1.532 11.85.81 20.295-3.445 39.678-9.491 59.831-13.385 11.551-2.231 23.703-3.148 35.153-5.37 2.56-.496 7.93-1.634 10.42-.3 9.23 4.946 17.88 10.814 26.37 16.37 6.94 4.546 11.93 9.635 21.87 6.522 17.83-5.584 31.66-16.067 49.61-21.357 7.65-2.253 9.9 2.136 14.13 4.903"/></svg>