<svg xmlns="http://www.w3.org/2000/svg" width="206" height="70" fill="none" viewBox="0 0 206 70"><path stroke="#8A9ACE" stroke-linecap="round" d="M169 5.685c.261-2.352 4.814-7.632 5.449-2.549.457 3.65 7.547-2.57 7.601-1.146.034.876-.326 2.293.328 2.947.595.595 1.65.302 2.432.234 3.379-.294 6.744-.863 10.01-1.778 3.563-.997-3.19 6.347 1.146 6.058.478-.032 4.347-.995 4.584-.164.315 1.101-.704 2.79-1.427 3.555-3.584 3.795 6.231 6.118 5.403 6.946-1.237 1.237-10.515 1.757-8.396 4.935.712 1.068 1.848 1.864 2.666 2.853.728.881.901 2.124 1.567 2.924.924 1.108-3.86.865-4.42.865M7.4 53.275c-1.464-.727-2.893-.723-4.459-1.111-2-.497-.337.23.519.925a7.6 7.6 0 0 1 1.887 2.222c.5.895-2.84 1.1-3.525 1.482-2.14 1.194.45.925 1.555.925 1.084 0 3.276-.61 3.276.823 0 1.736-.739 2.123-1.41 3.622-.36.802 1.75-.397 1.784.452.09 2.332-.84 6.432 2.032 3.066.64-.752.827-2.006 1.887-.72.791.96 1.24 2.563 1.866 3.682.69 1.232.643-1.074.933-1.666.702-1.434 1.602-1.287 2.78-.453.325.23 2.407 1.932 2.446 1.193.065-1.227 0-2.474 0-3.703"/></svg>