<svg xmlns="http://www.w3.org/2000/svg" width="290" height="22" fill="none" viewBox="0 0 290 22"><path stroke="#8A9ACE" stroke-linecap="round" d="M4.772 5.668c-.578.1-1.393 2.323-1.77 3.022-.427.793-.907 1.366-1.372 2.093-1.922 3.004 1.006 1.684 2.745 1.395 3.034-.505 6.777-1.259 9.821-1.447 1.545-.095 4.15-.576 5.374 1.576.297.522.71.98.976 1.499.495.967 1.032.732 1.686.129 2.97-2.742 6.365-5.144 8.863-8.939.645-.98 1.816-2.54 2.248-3.72.43-1.175 1.318 1.755 1.488 2.17 1.611 3.915 3.174 7.66 4.994 11.316.713 1.432.79 2.066 2 2.066 1.858 0 3.59-1.141 5.44-1.498 3.434-.662 6.957-2.076 10.351-3.152 3.572-1.133 7.321-1.471 10.847-2.79 1.309-.49 1.954-1.625 2.546.49.457 1.633.776 3.552 1.323 5.09.573 1.613 1.083 6.302 2.711 6.02 2.252-.391 4.427-2.347 6.581-3.333 3.183-1.457 6.32-3.4 9.425-5.219 1.37-.802 6.953-6.621 7.771-3.746.824 2.896 2.57 5.979 3.737 8.63 1.528 3.471 2.146 3.445 4.811 2.531 6.501-2.23 13.027-4.84 19.395-7.88.728-.347 2.704-2.15 3.473-1.55.689.539 1.394 3.081 1.785 4.082.378.966 2.761 7.144 3.704 6.407 3.19-2.492 6.137-6.219 9.127-9.197 2.124-2.115 4.604-4.095 6.895-5.735.39-.28 1.463-1.428 1.835-1.137 1.851 1.446 3.496 5.566 4.928 7.802 1.352 2.113 2.95 6.843 5.191 5.942 1.698-.682 3.126-3.145 4.614-4.495 1.748-1.586 3.805-3.777 5.737-4.702 3.003-1.438 6.366-4.465 9.59-4.185.87.075 2.134 2.812 2.662 3.72a104 104 0 0 0 3.224 5.219c1.564 2.355 2.755 4.084 4.994 3.384 4.352-1.36 7.697-6.97 11.822-9.352 2.089-1.206 4.148-2.254 6.333-2.971 1.546-.508 4.311-2.196 5.886-1.86.917.195 2.79 2.276 3.142 2.635 3.06 3.127 5.974 6.612 9.077 9.636.958.933 1.929.929 3.009.491 5.155-2.088 10.077-5.752 15.195-8.112 2.934-1.353 6.019-1.908 8.929-3.255.648-.3 2.013-.99 2.646-.181 2.344 2.997 4.541 6.554 6.696 9.92 1.764 2.756 3.031 5.84 5.556 3.953 4.528-3.384 8.039-9.737 12.599-12.943 1.942-1.366 2.515 1.294 3.588 2.97"/></svg>