<svg xmlns="http://www.w3.org/2000/svg" width="421" height="96" fill="none" viewBox="0 0 421 96"><path stroke="#8A9ACE" stroke-linecap="round" d="M384.809 5.26c.262-2.352 4.814-7.632 5.45-2.55.456 3.65 7.546-2.569 7.601-1.145.033.876-.327 2.293.327 2.947.595.595 1.651.301 2.432.233 3.379-.293 6.744-.862 10.01-1.777 3.563-.997-3.19 6.347 1.146 6.057.478-.031 4.347-.995 4.584-.163.315 1.1-.704 2.79-1.426 3.555-3.584 3.795 6.23 6.118 5.402 6.946-1.237 1.237-10.515 1.757-8.396 4.935.712 1.068 1.848 1.864 2.666 2.853.729.88.901 2.124 1.567 2.923.924 1.109-3.86.866-4.42.866M9.289 73.939c-1.949-.974-3.85-.97-5.934-1.49-2.663-.666-.449.31.69 1.241a10.2 10.2 0 0 1 2.512 2.98c.666 1.2-3.78 1.475-4.692 1.988-2.848 1.602.6 1.242 2.07 1.242 1.443 0 4.36-.819 4.36 1.104 0 2.328-.983 2.847-1.876 4.857-.479 1.076 2.33-.532 2.373.607.12 3.129-1.117 8.628 2.704 4.112.854-1.008 1.101-2.69 2.512-.966 1.053 1.287 1.65 3.439 2.484 4.94.918 1.652.855-1.44 1.242-2.236.934-1.922 2.131-1.725 3.698-.607.433.31 3.204 2.592 3.256 1.601.087-1.646 0-3.319 0-4.968"/></svg>