<svg xmlns="http://www.w3.org/2000/svg" width="287" height="194" fill="none" viewBox="0 0 287 194"><path stroke="#8A9ACE" stroke-linecap="round" d="M139.271 187.834c0-9.92.674-19.741.674-29.678m-64.751 26.305c4.547-10.494 11.89-20.325 14.164-31.701M30.678 11.792c4.552.91 9.252 10.102 11.84 13.49 4.618 6.045 8.5 13.595 13.79 18.885M119.71 1.675c0 11.12 3.373 21.846 3.373 33.05M179.065 1c0 12.608-3.032 24.945-6.07 37.097m95.103-6.745c-7.568.336-15.236 3.416-22.558 5.246-6.982 1.746-14.571 2.354-21.284 4.871m61.379 45.866c-13.497.104-26.965.675-40.47.675m26.306 74.868c-10.246-2.009-18.749-10.252-29.003-12.816m-40.47 42.494c-2.745-6.942-3.45-14.476-6.445-21.284-2.122-4.823-3.755-9.613-5.696-14.464m-178.74 3.372c6.49-.241 12.914-3.681 18.886-5.921 4.36-1.635 9.727-2.049 13.49-4.871M1 90.033c12.09 0 25.783 2.664 37.771 0"/></svg>