<svg xmlns="http://www.w3.org/2000/svg" width="106" height="94" fill="none" viewBox="0 0 106 94"><path stroke="#8A9ACE" stroke-linecap="round" d="M32.843 15.773c-.523-2.22-.83-4.483-1.296-6.717-.485-2.33-1.22-4.76-1.415-7.108m23.312 14.638c0-3.464 1.468-6.918 2.982-10.03.62-1.274 1.018-2.644 1.612-3.93.326-.706.883-1.384 1.099-2.033m13.011 18.433c1.78-2.069 4.147-3.873 6.295-5.572.678-.535 2.685-1.578 2.922-2.289m4.88 16.535c5.307-.732 10.912-1.355 16.264-1.355m-12.74 19.246c.113-.905 13.944 1.356 15.18 1.356M88.142 63.482c3.902 2.417 7.84 4.782 12.198 6.235m-28.462 7.59c1.468 3.745 3.394 6.983 5.09 10.572.759 1.605 1.25 3.41 2.229 4.88M51.005 78.12c0 4.926.813 9.722.813 14.638M38.264 79.205c-2.161 2.794-4.342 5.561-6.505 8.343-1.017 1.306-1.727 2.814-2.711 4.126M13.867 76.223c-1.081.783-2.175 1.555-3.253 2.334-.744.538-1.15 1.421-1.897 2.003-.678.527-1.898 1.213-1.898 2.168M9.53 56.435c-2.635 0-5.219.27-7.861.27M8.446 37.73c-2.267-1.74-4.885-2.306-7.59-2.982m13.825-16.535c-3.167-4.122-5.878-8.244-8.66-12.59-.836-1.308-1.914-2.458-2.725-3.675"/></svg>