<svg xmlns="http://www.w3.org/2000/svg" width="37" height="25" fill="none" viewBox="0 0 37 25"><path stroke="#8A9ACE" stroke-linecap="round" d="M13.833 6.132c0-1.935 2.024-3.05 3.804-3.05 2.259 0 4.672 2.177 4.99 4.406.248 1.73.349 3.87-1.186 4.746-.887.507-1.88.536-2.693 1.168-.419.326-1.184.3-1.695.527-1.377.612-2 1.849-2.882 3.051M.65 2.827c0-.679-.017-1.265.759-1.542.706-.253 1.554-.42 2.288-.137 1.263.488 1.577 1.925.87 3.046-.178.284-.214.61-.447.87-.144.162-.39.397-.473.585-.216.492-1.092.813-1.43 1.293-.474.674-.967 2.268-.447 3.047m-.224 2.238c0 .07-.033 1.056.199.87.176-.14.15-.787.025-.534m11.19 6.939c.025.77.462.626.647.024.108-.348-.271-.267-.466-.124-.12.088-.328.565-.069.435m17.011-5.371c.081-.687 2.22-.312 2.6-.224 1.12.26 2.438 1.275 2.816 2.406.717 2.152-.433 4.074-2.481 4.868-1.133.44-2.259.672-3.47.672-1.007 0-2.108.127-3.108-.007-1.403-.187-3.026-.296-4.303.342m-2.35 1.007c-.382.058-1.053.9-.503.777.486-.108-.047-.903-.162-.385-.101.456.306.485.33.056.033-.594-.112.103-.112.336"/></svg>