<svg xmlns="http://www.w3.org/2000/svg" width="64" height="120" fill="none" viewBox="0 0 64 120"><path fill="#242647" d="M57.473 14.777C53.756 9.774 48.418 5.543 41.88 2.862 37.149.922 32.295 0 27.64 0c-5.753 0-11.205 1.407-15.742 4.056-4.536 2.647-8.157 6.552-10.184 11.5A23 23 0 0 0 0 24.309c0 5.784 2.095 11.569 5.809 16.571 2.934 3.951 6.893 7.405 11.643 10.01-3.048 5.859-4.825 12.553-5.595 19.051a66 66 0 0 0-.364 11.01c.156 3.148.383 6.676 2.39 9.27 1.493 1.93 3.707 2.902 6.014 3.477-.308 1.442-.116 3.097-.136 4.54-.025 1.772-.05 3.545-.065 5.316-.03 3.497.106 7.041-.101 10.531-.008.129-.03.242-.051.358-1.402-.35-2.576-1.318-3.963-1.738-1.293-.391-2.707-.325-3.77.586-1.004.859-1.307 2.238-.627 3.394.728 1.236 2.15 1.704 3.517 1.744 2.376.07 5.702-.207 6.433-2.954.418-1.568.19-3.368.192-4.976q0-2.662.003-5.324.002-3.106-.012-6.213l-.014-3.018c-.003-.65.02-1.31-.056-1.954q.473.09.941.167a48.5 48.5 0 0 0 9.968.563c-.452 1.531-.221 3.367-.244 4.95-.025 1.771-.05 3.543-.065 5.315-.03 3.496.107 7.041-.101 10.531-.008.129-.03.242-.051.358-1.403-.35-2.576-1.319-3.963-1.738-1.293-.391-2.707-.325-3.77.586-1.004.859-1.307 2.238-.627 3.393.728 1.237 2.15 1.705 3.517 1.745 2.376.069 5.702-.207 6.433-2.954.418-1.568.191-3.368.192-4.977q0-2.662.003-5.324.003-3.106-.012-6.212l-.014-3.019c-.004-.91.05-1.839-.206-2.719.189-.013.379-.022.567-.038 3.189-.257 6.537-1.132 8.342-4.01 1.731-2.76 1.811-6.195 1.756-9.351-.124-6.99-1.851-13.812-3.915-20.48a134 134 0 0 1 4.738 12.918q1.155 3.734 2.08 7.527a.9.9 0 0 0-.21.237c-1.65 2.713-3.401 5.797-2.515 9.085.736 2.733 3.532 4.691 6.333 3.646.361-.134.585-.571.526-.943a140 140 0 0 0-4.642-19.872 134 134 0 0 0-3.407-9.597 124 124 0 0 0-1.983-4.691c-.501-1.121-.956-2.598-1.768-3.62 4.447-.456 8.63-1.761 12.233-3.864 4.536-2.648 8.157-6.553 10.184-11.5a23 23 0 0 0 1.713-8.753c0-5.784-2.094-11.57-5.808-16.572M17.097 116.374c-1.182.173-3.24.515-4.135-.451-.467-.504-.308-1.076.25-1.44.746-.489 1.708-.198 2.46.119.986.415 1.884.962 2.87 1.322-.4.229-.888.369-1.445.45m12.152 1.43c-1.182.173-3.24.515-4.135-.451-.468-.505-.308-1.076.25-1.441.746-.488 1.708-.197 2.46.12.986.415 1.884.962 2.869 1.322-.398.229-.887.369-1.444.45m19.824-25.1c-1.877.188-3.241-1.804-3.373-3.56-.146-1.944.726-3.753 1.702-5.413a131 131 0 0 1 1.671 8.973M36.21 56.667c2.232 6.767 4.527 13.56 5.292 20.682.341 3.168.562 6.656-.251 9.777-.321 1.232-.867 2.465-1.805 3.351-1.112 1.05-2.618 1.517-4.093 1.769-3.336.568-6.85.49-10.205.157-2.888-.285-6.312-.595-8.665-2.477-2.398-1.918-2.66-5.322-2.845-8.16a61.6 61.6 0 0 1 .168-9.969 68.4 68.4 0 0 1 2.008-11.074c.83-3.1 1.943-6.075 3.105-9.05q1.211.599 2.484 1.123c4.73 1.94 9.585 2.862 14.24 2.862.232 0 .46-.016.691-.02-.178.28-.254.633-.124 1.029m23.375-17.378c-1.839 4.48-5.106 8.02-9.281 10.46-4.174 2.44-9.256 3.765-14.66 3.765-4.372 0-8.952-.867-13.427-2.702-6.184-2.535-11.212-6.53-14.685-11.21C4.057 34.924 2.144 29.57 2.145 24.31c0-2.697.5-5.371 1.553-7.94 1.838-4.48 5.106-8.02 9.282-10.46 4.174-2.44 9.256-3.765 14.66-3.764 4.372 0 8.951.866 13.426 2.701 6.184 2.536 11.212 6.53 14.685 11.21s5.387 10.033 5.387 15.294a20.9 20.9 0 0 1-1.553 7.939"/><path fill="#242647" d="M37.298 14.92c-.12-.478-.489-.896-.984-.999-.503-.104-.97.086-1.347.415-.565.495-.934 1.307-1.151 2.01-.06.19-.114.394-.151.6-.118.33-.224.665-.216 1.021.014.557.27 1.045.72 1.368.433.309 1.042.302 1.492.036.33-.195.582-.517.746-.859q.16-.336.296-.686c.189-.31.355-.633.481-.974.147-.396.267-.856.247-1.279a1.7 1.7 0 0 0-.115-.528zM13.99 10.53c-.121-.478-.489-.896-.984-.999-.504-.104-.97.086-1.347.415-.565.494-.935 1.307-1.152 2.01-.059.19-.113.394-.15.6-.119.33-.224.666-.216 1.021.014.557.27 1.045.721 1.368.432.309 1.041.302 1.492.036.33-.195.582-.517.746-.86q.16-.336.296-.685a5.6 5.6 0 0 0 .481-.975c.147-.395.268-.856.247-1.278a1.7 1.7 0 0 0-.115-.528zm7.202 11.484c.068-.306-.247-.596-.554-.465-.405.174-.706.493-.996.818-.285.318-.495.716-.676 1.1-.35.745-.514 1.615-.508 2.434.002.313.089.578.379.745.253.145.61.143.841-.055 1.109-.947 1.829-2.22 2.112-3.647.058-.296-.107-.622-.337-.798a.8.8 0 0 0-.261-.132"/></svg>