<svg xmlns="http://www.w3.org/2000/svg" width="103" height="70" fill="none" viewBox="0 0 103 70"><path stroke="#8A9ACE" stroke-linecap="round" d="M39.002 16.27c0-5.61 5.871-8.846 11.03-8.846 6.55 0 13.548 6.315 14.471 12.778.717 5.016 1.01 11.218-3.44 13.76-2.573 1.47-5.453 1.554-7.809 3.386-1.214.945-3.432.87-4.914 1.53-3.991 1.773-5.798 5.359-8.355 8.845M.78 6.685c0-1.966-.051-3.667 2.2-4.47 2.047-.732 4.506-1.22 6.634-.397 3.662 1.415 4.571 5.581 2.524 8.833-.517.822-.622 1.768-1.298 2.524-.417.466-1.13 1.149-1.37 1.694-.628 1.427-3.167 2.358-4.147 3.75-1.373 1.952-2.804 6.574-1.297 8.834m-.649 6.489c0 .204-.095 3.061.576 2.524.51-.408.438-2.282.073-1.55m32.448 20.118c.07 2.236 1.339 1.816 1.875.072.311-1.011-.787-.776-1.352-.36-.346.255-.95 1.638-.198 1.262m49.322-15.576c.235-1.992 6.44-.903 7.536-.649 3.248.753 7.073 3.697 8.166 6.977 2.08 6.24-1.253 11.812-7.193 14.115-3.284 1.273-6.548 1.947-10.06 1.947-2.92 0-6.111.369-9.013-.018-4.068-.543-8.773-.86-12.474.991m-6.815 2.921c-1.108.166-3.054 2.608-1.46 2.253 1.412-.313-.135-2.62-.469-1.117-.293 1.32.887 1.406.956.162.096-1.722-.325.297-.325.973"/></svg>