<svg xmlns="http://www.w3.org/2000/svg" width="21" height="42" fill="none" viewBox="0 0 21 42"><path fill="#242647" d="M18.546 5.097a12 12 0 0 0-5.031-4.11A11.5 11.5 0 0 0 8.919 0C7.063 0 5.304.485 3.84 1.399A8.04 8.04 0 0 0 .553 5.365 8.4 8.4 0 0 0 0 8.384c0 1.995.676 3.99 1.875 5.715a11.9 11.9 0 0 0 3.757 3.453c-.984 2.02-1.557 4.329-1.806 6.57a24 24 0 0 0-.117 3.797c.05 1.086.123 2.302.771 3.197.482.665 1.196 1 1.94 1.2-.099.497-.037 1.067-.043 1.565q-.013.916-.021 1.834c-.01 1.205.034 2.428-.033 3.631q-.005.066-.016.124c-.453-.12-.832-.455-1.279-.6-.417-.134-.874-.112-1.217.203a.955.955 0 0 0-.202 1.17c.235.426.694.588 1.135.601.767.025 1.84-.07 2.076-1.018.135-.541.062-1.162.062-1.717v-1.836a404 404 0 0 0-.008-3.183c0-.225.007-.452-.017-.674l.303.058c1.06.183 2.142.247 3.217.194-.146.528-.072 1.16-.079 1.706q-.013.918-.021 1.834c-.01 1.206.034 2.428-.033 3.632q-.005.064-.016.123c-.453-.12-.831-.454-1.279-.599-.417-.135-.873-.112-1.217.202a.955.955 0 0 0-.202 1.17c.235.427.694.588 1.135.602.767.024 1.84-.071 2.076-1.019.135-.54.062-1.161.062-1.716l.001-1.836q.001-1.072-.004-2.143l-.004-1.04c-.002-.315.016-.635-.067-.939q.091-.005.183-.013c1.03-.088 2.11-.39 2.692-1.383.559-.952.585-2.136.567-3.225-.04-2.41-.598-4.764-1.263-7.063q.235.593.457 1.194.592 1.609 1.072 3.261.372 1.288.67 2.596a.3.3 0 0 0-.067.082c-.533.935-1.098 2-.812 3.133.238.943 1.14 1.618 2.044 1.258.117-.047.189-.197.17-.326a51 51 0 0 0-1.498-6.853 48 48 0 0 0-1.1-3.31 45 45 0 0 0-.64-1.618c-.161-.387-.308-.896-.57-1.249 1.435-.157 2.785-.607 3.947-1.332a8.04 8.04 0 0 0 3.287-3.966 8.4 8.4 0 0 0 .553-3.02c0-1.994-.676-3.99-1.875-5.714M5.517 40.136c-.381.06-1.046.177-1.334-.156-.151-.174-.1-.37.08-.496.241-.169.552-.069.794.04.319.144.608.333.926.457a1.3 1.3 0 0 1-.466.155m3.922.493c-.382.06-1.046.178-1.335-.155-.15-.174-.099-.372.08-.497.242-.169.552-.069.795.04.318.144.608.333.926.457a1.3 1.3 0 0 1-.466.155m6.397-8.657c-.606.065-1.046-.622-1.089-1.227-.047-.671.235-1.295.55-1.867q.32 1.537.539 3.094m-4.151-12.428c.72 2.333 1.46 4.677 1.707 7.133.11 1.092.182 2.295-.08 3.372-.104.424-.28.85-.583 1.155-.359.363-.845.524-1.32.61-1.077.196-2.211.17-3.294.055-.932-.099-2.037-.206-2.796-.855-.774-.661-.859-1.835-.918-2.814a23 23 0 0 1 .054-3.438c.117-1.29.334-2.567.648-3.82.268-1.069.627-2.095 1.002-3.121q.39.208.801.388c1.527.669 3.094.987 4.596.987.075 0 .148-.006.223-.007a.43.43 0 0 0-.04.355m7.543-5.994a7.3 7.3 0 0 1-2.995 3.608c-1.347.841-2.987 1.298-4.731 1.298a10.8 10.8 0 0 1-4.333-.932 11.3 11.3 0 0 1-4.739-3.866C1.31 12.044.692 10.198.692 8.384c0-.93.162-1.853.501-2.738A7.3 7.3 0 0 1 4.19 2.038C5.535 1.197 7.176.739 8.919.74c1.411 0 2.89.299 4.333.931a11.3 11.3 0 0 1 4.739 3.866c1.121 1.614 1.738 3.46 1.738 5.275 0 .93-.162 1.853-.501 2.738"/><path fill="#242647" d="M12.036 5.146c-.039-.165-.158-.31-.317-.345-.163-.036-.314.03-.435.143-.183.171-.302.451-.372.694a2 2 0 0 0-.048.207 1 1 0 0 0-.07.352c.004.192.087.36.233.472a.425.425 0 0 0 .48.012.7.7 0 0 0 .242-.296q.051-.116.095-.237c.06-.107.115-.218.155-.336.048-.136.087-.295.08-.44a.6.6 0 0 0-.037-.183zM4.514 3.632c-.038-.165-.157-.31-.317-.345-.162-.036-.313.03-.435.143-.182.17-.301.451-.371.693a2 2 0 0 0-.049.208c-.038.113-.072.23-.07.352.005.192.087.36.233.471.14.107.336.105.482.013a.7.7 0 0 0 .24-.296q.052-.117.096-.237c.06-.107.115-.219.155-.336.048-.136.087-.295.08-.441a.6.6 0 0 0-.037-.182zm2.325 3.96c.021-.105-.08-.205-.18-.16-.13.06-.227.17-.32.282-.092.11-.16.247-.219.38a2.1 2.1 0 0 0-.164.839c.001.108.029.2.123.257.081.05.197.05.271-.019a2.24 2.24 0 0 0 .682-1.258.31.31 0 0 0-.109-.275.3.3 0 0 0-.085-.046"/></svg>