<svg xmlns="http://www.w3.org/2000/svg" width="710" height="710" fill="none" viewBox="0 0 710 710"><g filter="url(#a)"><path fill="url(#b)" d="M4.658 464.295c-3.25-30.444 13.602-63.031 53.2-71.148 18.015-3.287 36.831 1.654 50.541 12.13 6.418 3.485 12.65 7.223 18.674 10.636 23.531 13.283 33.558-2.694 35.337-17.657l-20.934-204.47 204.471-20.934c14.292-4.777 27.906-17.831 10.13-38.182-4.563-5.206-9.486-10.553-14.199-16.132-13.037-11.302-21.687-28.727-22.12-47.034-.077-40.423 28.42-63.529 58.891-66.514h.006c30.444-3.25 63.031 13.601 71.148 53.2 3.287 18.014-1.654 36.83-12.13 50.54-3.485 6.418-7.223 12.651-10.636 18.675-13.283 23.531 2.694 33.557 17.657 35.337l204.47-20.934 20.934 204.466c-1.782 14.964-11.806 30.941-35.339 17.658-6.022-3.413-12.256-7.151-18.674-10.636-13.71-10.476-32.526-15.416-50.541-12.13-39.593 8.117-56.454 40.709-53.199 71.154 2.982 30.473 26.097 58.974 66.514 58.897 18.307-.431 35.732-9.082 47.034-22.119 5.579-4.714 10.924-9.637 16.132-14.2 20.351-17.775 33.407-4.162 38.183 10.13l20.934 204.467-507.686 51.978-20.934-204.468c-4.776-14.292-17.831-27.906-38.182-10.13-5.207 4.563-10.553 9.486-16.132 14.199-11.302 13.037-28.727 21.687-47.033 22.12-40.424.077-63.53-28.42-66.514-58.891v-.003z"/><path stroke="#fff" stroke-miterlimit="10" stroke-width="8" d="M4.658 464.295c-3.25-30.444 13.602-63.031 53.2-71.148 18.015-3.287 36.831 1.654 50.541 12.13 6.418 3.485 12.65 7.223 18.674 10.636 23.531 13.283 33.558-2.694 35.337-17.657l-20.934-204.47 204.471-20.934c14.292-4.777 27.906-17.831 10.13-38.182-4.563-5.206-9.486-10.553-14.199-16.132-13.037-11.302-21.687-28.727-22.12-47.034-.077-40.423 28.42-63.529 58.891-66.514h.006c30.444-3.25 63.031 13.601 71.148 53.2 3.287 18.014-1.654 36.83-12.13 50.54-3.485 6.418-7.223 12.651-10.636 18.675-13.283 23.531 2.694 33.557 17.657 35.337l204.47-20.934 20.934 204.466c-1.782 14.964-11.806 30.941-35.339 17.658-6.022-3.413-12.256-7.151-18.674-10.636-13.71-10.476-32.526-15.416-50.541-12.13-39.593 8.117-56.454 40.709-53.199 71.154 2.982 30.473 26.097 58.974 66.514 58.897 18.307-.431 35.732-9.082 47.034-22.119 5.579-4.714 10.924-9.637 16.132-14.2 20.351-17.775 33.407-4.162 38.183 10.13l20.934 204.467-507.686 51.978-20.934-204.468c-4.776-14.292-17.831-27.906-38.182-10.13-5.207 4.563-10.553 9.486-16.132 14.199-11.302 13.037-28.727 21.687-47.033 22.12-40.424.077-63.53-28.42-66.514-58.891v-.003z"/></g><defs><linearGradient id="b" x1="177.854" x2="711.639" y1="712.325" y2="196.242" gradientUnits="userSpaceOnUse"><stop stop-color="#E8FCEF"/><stop offset="0.67" stop-color="#83E9AA"/><stop offset="1" stop-color="#1DD763"/></linearGradient><filter id="a" width="709.262" height="709.261" x="0.26709" y="0.598267" color-interpolation-filters="sRGB" filterUnits="userSpaceOnUse"><feFlood flood-opacity="0" result="BackgroundImageFix"/><feColorMatrix in="SourceAlpha" result="hardAlpha" values="0 0 0 0 0 0 0 0 0 0 0 0 0 0 0 0 0 0 127 0"/><feOffset dx="4" dy="4"/><feComposite in2="hardAlpha" operator="out"/><feColorMatrix values="0 0 0 0 0.541176 0 0 0 0 0.603922 0 0 0 0 0.807843 0 0 0 1 0"/><feBlend in2="BackgroundImageFix" result="effect1_dropShadow_61_2253"/><feBlend in="SourceGraphic" in2="effect1_dropShadow_61_2253" result="shape"/></filter></defs></svg>