<svg xmlns="http://www.w3.org/2000/svg" width="689" height="688" fill="none" viewBox="0 0 689 688"><g filter="url(#a)"><path fill="url(#b)" d="M470.403 678.814c-28.546 5.511-60.727-7.827-71.575-44.645-4.551-16.782-1.382-34.98 7.434-48.79 2.784-6.352 5.822-12.548 8.569-18.521 10.686-23.327-5.233-31.535-19.533-32.022l-191.791 36.165-36.165-191.792c-5.662-13.14-19.103-24.977-36.937-6.53-4.561 4.734-9.227 9.82-14.128 14.726-9.651 13.239-25.446 22.817-42.733 24.691-38.241 3.308-62.383-21.807-67.645-50.4v-.003l-.001-.003c-5.51-28.545 7.827-60.726 44.645-71.574 16.782-4.551 34.98-1.382 48.79 7.434 6.352 2.784 12.548 5.822 18.521 8.569 23.327 10.686 31.536-5.233 32.023-19.534l-36.165-191.79 191.787-36.164c14.301.488 30.219 8.695 19.534 32.024-2.747 5.971-5.785 12.169-8.569 18.52-8.816 13.81-11.984 32.009-7.434 48.791 10.847 36.813 43.034 50.159 71.58 44.644 28.595-5.26 53.713-29.411 50.406-67.647-1.872-17.287-11.452-33.081-24.691-42.732-4.906-4.901-9.992-9.566-14.726-14.128-18.447-17.834-6.611-31.276 6.53-36.939L589.917 5l89.795 476.204-191.789 36.164c-13.141 5.663-24.977 19.104-6.531 36.938 4.734 4.562 9.82 9.226 14.726 14.127 13.24 9.651 22.818 25.446 24.692 42.733 3.307 38.241-21.808 62.383-50.4 67.645l-.003.001z"/><path stroke="#fff" stroke-miterlimit="10" stroke-width="8" d="M470.403 678.814c-28.546 5.511-60.727-7.827-71.575-44.645-4.551-16.782-1.382-34.98 7.434-48.79 2.784-6.352 5.822-12.548 8.569-18.521 10.686-23.327-5.233-31.535-19.533-32.022l-191.791 36.165-36.165-191.792c-5.662-13.14-19.103-24.977-36.937-6.53-4.561 4.734-9.227 9.82-14.128 14.726-9.651 13.239-25.446 22.817-42.733 24.691-38.241 3.308-62.383-21.807-67.645-50.4v-.003l-.001-.003c-5.51-28.545 7.827-60.726 44.645-71.574 16.782-4.551 34.98-1.382 48.79 7.434 6.352 2.784 12.548 5.822 18.521 8.569 23.327 10.686 31.536-5.233 32.023-19.534l-36.165-191.79 191.787-36.164c14.301.488 30.219 8.695 19.534 32.024-2.747 5.971-5.785 12.169-8.569 18.52-8.816 13.81-11.984 32.009-7.434 48.791 10.847 36.813 43.034 50.159 71.58 44.644 28.595-5.26 53.713-29.411 50.406-67.647-1.872-17.287-11.452-33.081-24.691-42.732-4.906-4.901-9.992-9.566-14.726-14.128-18.447-17.834-6.611-31.276 6.53-36.939L589.917 5l89.795 476.204-191.789 36.164c-13.141 5.663-24.977 19.104-6.531 36.938 4.734 4.562 9.82 9.226 14.726 14.127 13.24 9.651 22.818 25.446 24.692 42.733 3.307 38.241-21.808 62.383-50.4 67.645l-.003.001z"/></g><defs><linearGradient id="b" x1="275.458" x2="394.05" y1="64.2958" y2="693.212" gradientUnits="userSpaceOnUse"><stop stop-color="#FFEBEE"/><stop offset="0.424514" stop-color="#FFC9D1"/><stop offset="1" stop-color="#F1647B"/></linearGradient><filter id="a" width="687.676" height="687.677" x="0.70752" y="0.328125" color-interpolation-filters="sRGB" filterUnits="userSpaceOnUse"><feFlood flood-opacity="0" result="BackgroundImageFix"/><feColorMatrix in="SourceAlpha" result="hardAlpha" values="0 0 0 0 0 0 0 0 0 0 0 0 0 0 0 0 0 0 127 0"/><feOffset dx="4" dy="4"/><feComposite in2="hardAlpha" operator="out"/><feColorMatrix values="0 0 0 0 0.541176 0 0 0 0 0.603922 0 0 0 0 0.807843 0 0 0 1 0"/><feBlend in2="BackgroundImageFix" result="effect1_dropShadow_61_2236"/><feBlend in="SourceGraphic" in2="effect1_dropShadow_61_2236" result="shape"/></filter></defs></svg>