<svg xmlns="http://www.w3.org/2000/svg" width="764" height="764" fill="none" viewBox="0 0 764 764"><g filter="url(#a)"><path fill="url(#b)" d="M691.28 681.735c22.187-22.692 29.403-60.018 2.412-92.016-12.539-14.227-31.013-22.273-48.886-22.538-7.457-1.279-14.924-2.234-22.014-3.319-27.663-4.279-25.56-23.711-17.401-37.03l148.288-152.977L374.193 6 225.907 158.975c-8.158 13.319-10.262 32.75 17.402 37.03 7.089 1.085 14.558 2.041 22.014 3.32 17.875.265 36.347 8.311 48.887 22.537 26.987 31.995 19.775 69.331-2.417 92.021-21.988 22.887-59.083 31.259-91.901 5.279-14.61-12.09-23.226-30.304-24.048-48.162-1.51-7.413-2.697-14.847-4.002-21.9-5.138-27.516-24.495-24.809-37.555-16.241L6 385.835l152.834 148.15c13.312 8.146 32.74 10.232 37.046-17.436 1.09-7.09 2.053-14.56 3.339-22.018.282-17.875 8.344-36.356 22.582-48.909 32.019-27.017 69.347-19.839 92.016 2.332 22.866 21.968 31.204 59.056 5.194 91.899-12.103 14.622-30.324 23.255-48.182 24.093-7.414 1.517-14.85 2.711-21.903 4.023-27.52 5.163-24.832 24.518-16.275 37.57l152.834 148.15 148.288-152.977c13.06-8.568 32.415-11.276 37.553 16.24 1.305 7.051 2.493 14.487 4.003 21.9.822 17.858 9.439 36.07 24.048 48.162 32.823 25.984 69.907 17.609 91.896-5.275l.003-.002z"/><path stroke="#fff" stroke-miterlimit="10" stroke-width="8" d="M691.28 681.735c22.187-22.692 29.403-60.018 2.412-92.016-12.539-14.227-31.013-22.273-48.886-22.538-7.457-1.279-14.924-2.234-22.014-3.319-27.663-4.279-25.56-23.711-17.401-37.03l148.288-152.977L374.193 6 225.907 158.975c-8.158 13.319-10.262 32.75 17.402 37.03 7.089 1.085 14.558 2.041 22.014 3.32 17.875.265 36.347 8.311 48.887 22.537 26.987 31.995 19.775 69.331-2.417 92.021-21.988 22.887-59.083 31.259-91.901 5.279-14.61-12.09-23.226-30.304-24.048-48.162-1.51-7.413-2.697-14.847-4.002-21.9-5.138-27.516-24.495-24.809-37.555-16.241L6 385.835l152.834 148.15c13.312 8.146 32.74 10.232 37.046-17.436 1.09-7.09 2.053-14.56 3.339-22.018.282-17.875 8.344-36.356 22.582-48.909 32.019-27.017 69.347-19.839 92.016 2.332 22.866 21.968 31.204 59.056 5.194 91.899-12.103 14.622-30.324 23.255-48.182 24.093-7.414 1.517-14.85 2.711-21.903 4.023-27.52 5.163-24.832 24.518-16.275 37.57l152.834 148.15 148.288-152.977c13.06-8.568 32.415-11.276 37.553 16.24 1.305 7.051 2.493 14.487 4.003 21.9.822 17.858 9.439 36.07 24.048 48.162 32.823 25.984 69.907 17.609 91.896-5.275l.003-.002z"/></g><defs><linearGradient id="b" x1="735.974" x2="32.7722" y1="359.261" y2="472.628" gradientUnits="userSpaceOnUse"><stop stop-color="#DEE9FE"/><stop offset="0.54" stop-color="#98B9F3"/><stop offset="1" stop-color="#3272E4"/></linearGradient><filter id="a" width="762.992" height="763.001" x="0.34375" y="0.343872" color-interpolation-filters="sRGB" filterUnits="userSpaceOnUse"><feFlood flood-opacity="0" result="BackgroundImageFix"/><feColorMatrix in="SourceAlpha" result="hardAlpha" values="0 0 0 0 0 0 0 0 0 0 0 0 0 0 0 0 0 0 127 0"/><feOffset dx="4" dy="4"/><feComposite in2="hardAlpha" operator="out"/><feColorMatrix values="0 0 0 0 0.541176 0 0 0 0 0.603922 0 0 0 0 0.807843 0 0 0 1 0"/><feBlend in2="BackgroundImageFix" result="effect1_dropShadow_61_2254"/><feBlend in="SourceGraphic" in2="effect1_dropShadow_61_2254" result="shape"/></filter></defs></svg>