<svg xmlns="http://www.w3.org/2000/svg" width="671" height="734" fill="none" viewBox="0 0 671 734"><g filter="url(#a)"><path fill="url(#b)" d="M183.058 720.392c28.276 11.151 63.899 3.662 82.101-32.027 7.893-16.343 8.125-35.627 1.713-51.493-1.644-7.053-3.578-13.996-5.257-20.653-6.509-25.993 11.422-31.35 26.209-29.096l190.14 74.039 183.531-471.326-190.137-74.038c-14.788-2.253-32.718 3.103-26.209 29.097 1.679 6.656 3.612 13.6 5.256 20.653 6.411 15.867 6.179 35.15-1.712 51.493-18.201 35.685-53.832 43.181-82.107 32.025-28.374-10.903-49.555-40.521-38.83-79.116 5.237-17.377 18.107-31.739 33.561-39.092 5.98-4.084 12.1-7.891 17.839-11.66 22.372-14.747 12.786-30.819.369-39.16L189.386 6l-73.915 189.822c-2.239 14.767 3.143 32.681 29.162 26.21 6.662-1.67 13.613-3.593 20.673-5.227 15.879-6.386 35.186-6.133 51.558 1.768 35.748 18.219 43.293 53.815 32.156 82.043-10.885 28.327-40.515 49.449-79.17 38.694-17.404-5.251-31.797-18.121-39.177-33.564-4.096-5.978-7.914-12.095-11.695-17.83-14.789-22.362-30.87-12.806-39.207-.413L5.856 477.325l190.14 74.039c12.417 8.341 22.004 24.411-.369 39.158-5.738 3.768-11.858 7.576-17.839 11.66-15.453 7.353-28.322 21.715-33.561 39.092-10.727 38.601 10.453 68.208 38.824 79.114l.003.001z"/><path stroke="#fff" stroke-miterlimit="10" stroke-width="8" d="M183.058 720.392c28.276 11.151 63.899 3.662 82.101-32.027 7.893-16.343 8.125-35.627 1.713-51.493-1.644-7.053-3.578-13.996-5.257-20.653-6.509-25.993 11.422-31.35 26.209-29.096l190.14 74.039 183.531-471.326-190.137-74.038c-14.788-2.253-32.718 3.103-26.209 29.097 1.679 6.656 3.612 13.6 5.256 20.653 6.411 15.867 6.179 35.15-1.712 51.493-18.201 35.685-53.832 43.181-82.107 32.025-28.374-10.903-49.555-40.521-38.83-79.116 5.237-17.377 18.107-31.739 33.561-39.092 5.98-4.084 12.1-7.891 17.839-11.66 22.372-14.747 12.786-30.819.369-39.16L189.386 6l-73.915 189.822c-2.239 14.767 3.143 32.681 29.162 26.21 6.662-1.67 13.613-3.593 20.673-5.227 15.879-6.386 35.186-6.133 51.558 1.768 35.748 18.219 43.293 53.815 32.156 82.043-10.885 28.327-40.515 49.449-79.17 38.694-17.404-5.251-31.797-18.121-39.177-33.564-4.096-5.978-7.914-12.095-11.695-17.83-14.789-22.362-30.87-12.806-39.207-.413L5.856 477.325l190.14 74.039c12.417 8.341 22.004 24.411-.369 39.158-5.738 3.768-11.858 7.576-17.839 11.66-15.453 7.353-28.322 21.715-33.561 39.092-10.727 38.601 10.453 68.208 38.824 79.114l.003.001z"/></g><defs><linearGradient id="b" x1="196.5" x2="697.111" y1="6" y2="568.319" gradientUnits="userSpaceOnUse"><stop offset="0.261879" stop-color="#E8E2FC"/><stop offset="0.54581" stop-color="#B5A5E0"/><stop offset="0.92" stop-color="#7F52FF"/></linearGradient><filter id="a" width="669.997" height="732.336" x="0.677246" y="0.821167" color-interpolation-filters="sRGB" filterUnits="userSpaceOnUse"><feFlood flood-opacity="0" result="BackgroundImageFix"/><feColorMatrix in="SourceAlpha" result="hardAlpha" values="0 0 0 0 0 0 0 0 0 0 0 0 0 0 0 0 0 0 127 0"/><feOffset dx="4" dy="4"/><feComposite in2="hardAlpha" operator="out"/><feColorMatrix values="0 0 0 0 0.541176 0 0 0 0 0.603922 0 0 0 0 0.807843 0 0 0 1 0"/><feBlend in2="BackgroundImageFix" result="effect1_dropShadow_61_2252"/><feBlend in="SourceGraphic" in2="effect1_dropShadow_61_2252" result="shape"/></filter></defs></svg>