<svg xmlns="http://www.w3.org/2000/svg" width="789" height="790" fill="none" viewBox="0 0 789 790"><g filter="url(#a)"><path fill="url(#b)" d="M484.614 780.064 6 486.856l118.64-193.661c11.579-11.961 31.042-19.309 42.717 8.072 2.979 7.019 5.926 14.465 9.202 21.812 4.968 18.358 18.107 35.26 36.057 44.396 40.046 19.298 76.614 1.909 94.16-27.019 17.802-28.771 16.683-69.248-18.699-96.159-16.292-11.841-37.32-15.87-55.93-11.957-8.033.419-16.004 1.177-23.612 1.711-29.695 2.037-31.991-18.642-26.594-34.391L300.581 6l192.758 118.087c11.888 11.554 19.14 31.028-8.232 42.842-7.018 3.015-14.46 5.998-21.805 9.312-18.34 5.055-35.259 18.294-44.452 36.318-19.423 40.214-2.224 76.787 26.57 94.249 28.636 17.72 69.032 16.431 96.033-19.139 11.884-16.376 15.992-37.465 12.165-56.099-.384-8.049-1.108-16.033-1.609-23.655-1.909-29.75 18.736-32.137 34.429-26.794l192.757 118.087z"/><path stroke="#fff" stroke-miterlimit="10" stroke-width="8" d="M484.614 780.064 6 486.856l118.64-193.661c11.579-11.961 31.042-19.309 42.717 8.072 2.979 7.019 5.926 14.465 9.202 21.812 4.968 18.358 18.107 35.26 36.057 44.396 40.046 19.298 76.614 1.909 94.16-27.019 17.802-28.771 16.683-69.248-18.699-96.159-16.292-11.841-37.32-15.87-55.93-11.957-8.033.419-16.004 1.177-23.612 1.711-29.695 2.037-31.991-18.642-26.594-34.391L300.581 6l192.758 118.087c11.888 11.554 19.14 31.028-8.232 42.842-7.018 3.015-14.46 5.998-21.805 9.312-18.34 5.055-35.259 18.294-44.452 36.318-19.423 40.214-2.224 76.787 26.57 94.249 28.636 17.72 69.032 16.431 96.033-19.139 11.884-16.376 15.992-37.465 12.165-56.099-.384-8.049-1.108-16.033-1.609-23.655-1.909-29.75 18.736-32.137 34.429-26.794l192.757 118.087z"/></g><defs><linearGradient id="b" x1="11.69" x2="760.027" y1="476.306" y2="253.354" gradientUnits="userSpaceOnUse"><stop stop-color="#FFEFFB"/><stop offset="0.638315" stop-color="#FF73DC"/><stop offset="1" stop-color="#FF12C4"/></linearGradient><filter id="a" width="788.196" height="789.064" x="0.499512" y="0.499634" color-interpolation-filters="sRGB" filterUnits="userSpaceOnUse"><feFlood flood-opacity="0" result="BackgroundImageFix"/><feColorMatrix in="SourceAlpha" result="hardAlpha" values="0 0 0 0 0 0 0 0 0 0 0 0 0 0 0 0 0 0 127 0"/><feOffset dx="4" dy="4"/><feComposite in2="hardAlpha" operator="out"/><feColorMatrix values="0 0 0 0 0.541176 0 0 0 0 0.603922 0 0 0 0 0.807843 0 0 0 1 0"/><feBlend in2="BackgroundImageFix" result="effect1_dropShadow_61_2255"/><feBlend in="SourceGraphic" in2="effect1_dropShadow_61_2255" result="shape"/></filter></defs></svg>