<svg xmlns="http://www.w3.org/2000/svg" width="22" height="26" fill="none" viewBox="0 0 22 26"><path fill="#242647" d="M5.025 7.662a.38.38 0 0 0-.364.153l-.019.03a.5.5 0 0 0-.087.123.9.9 0 0 0-.072.355q-.004.15.021.3-.001.106.004.208a.55.55 0 0 0 .103.3.4.4 0 0 0 .394.147.48.48 0 0 0 .335-.275.8.8 0 0 0 .054-.285q.018-.087.025-.17c.018-.204.01-.451-.086-.638a.44.44 0 0 0-.308-.248m5.953 1.169a.55.55 0 0 0 .104.3.4.4 0 0 0 .393.147.48.48 0 0 0 .336-.275.8.8 0 0 0 .053-.285q.018-.087.025-.17c.019-.203.01-.45-.085-.637a.44.44 0 0 0-.308-.248.38.38 0 0 0-.365.152l-.019.03a.5.5 0 0 0-.087.124.9.9 0 0 0-.072.354q-.005.151.021.301-.001.104.004.207m-1.442 1.48c.125-.286-.267-.478-.463-.26-.136.151-.24.293-.428.39a1.4 1.4 0 0 1-.604.158 2.5 2.5 0 0 1-.675-.1 2 2 0 0 1-.344-.127c-.117-.056-.22-.114-.352-.115-.05 0-.106.037-.093.094.06.273.39.445.621.572a1.8 1.8 0 0 0 .923.202 1.8 1.8 0 0 0 .775-.208c.254-.135.524-.338.64-.606"/><path fill="#242647" d="M21.899 19.896c-.127-.295-.438-.508-.767-.377-.41.163-.54.699-.632 1.074a4.4 4.4 0 0 0-.089 1.503c-.204.009-.413-.006-.596-.006l-2.578.004c-.826 0-1.656-.02-2.48.038.053-.587-.083-1.186-.208-1.755a24 24 0 0 0-.533-2.004 23 23 0 0 0-.82-2.218q-.232-.545-.502-1.074a8 8 0 0 0-.319-.583 9.6 9.6 0 0 0 3.222-1.695c1.659-1.346 2.701-3.228 2.7-5.314.001-2.086-1.041-3.967-2.7-5.314C13.937.826 11.66 0 9.15 0S4.36.826 2.702 2.175C1.042 3.522 0 5.403 0 7.489s1.042 3.968 2.7 5.314c1.051.854 2.35 1.497 3.8 1.855-.245.647-.392 1.352-.544 2.016a66 66 0 0 0-.508 2.417 69 69 0 0 0-.71 4.568 4.29 4.29 0 0 0-3.581 1.189c-.238.238-.45.605-.192.912.237.282.7.237 1.03.237.788 0 1.675-.036 2.417-.323.338-.13.652-.365.783-.708a.98.98 0 0 0 0-.736.3.3 0 0 0 .104-.187v-.003c.798.85 1.888 1.376 3.053 1.536 1.077.149 2.157-.026 3.162-.403 1.98.28 3.981.383 5.98.424.755.015 1.887.2 2.166-.719.108-.359.069-.74 0-1.102-.068-.37-.223-.766-.637-.864-.496-.119-.722.313-.83.71a3.6 3.6 0 0 0-.07 1.532q-.337 0-.674-.004c-1.775-.023-3.546-.132-5.318-.239l.09-.042c1.025-.495 2.178-1.212 2.473-2.36.976.077 1.962.045 2.94.047l1.668.005c.49.002 1.023.06 1.506-.034.819-.159 1.121-.904 1.174-1.644.023-.32.047-.684-.083-.987m-17.406 5.09c-.263.214-.64.264-.967.315q-.572.09-1.152.108a8 8 0 0 1-.596-.003c-.084-.004-.172-.002-.255-.015l-.03-.007c.048-.028.11-.13.152-.169q.083-.079.172-.151.192-.16.405-.291a3.77 3.77 0 0 1 2.323-.53q.017.043.056.086c.193.204.093.493-.108.656m14.164-1.277c.052-.198.181-.533.4-.249.12.155.124.413.144.599.035.335.072.822-.287 1.008a.8.8 0 0 1-.275.073 3.1 3.1 0 0 1 .018-1.43M.607 7.49c0-1.886.938-3.6 2.481-4.856C4.63 1.38 6.774.595 9.148.595s4.52.784 6.062 2.038c1.543 1.256 2.48 2.97 2.481 4.856s-.938 3.6-2.481 4.856c-1.542 1.254-3.687 2.038-6.062 2.038-2.374 0-4.519-.784-6.061-2.038C1.544 11.089.607 9.375.606 7.489m13.152 15.524c-.342.438-.836.759-1.32 1.03-1.035.579-2.252.957-3.452.91-1.216-.05-2.433-.521-3.242-1.433a.34.34 0 0 0-.38-.1 63 63 0 0 1 1.052-6.594c.146-.685.339-1.387.434-2.087a11.1 11.1 0 0 0 5.144-.132c.16.449.39.884.572 1.319q.37.883.669 1.792c.385 1.176.715 2.402.873 3.629.076.596.033 1.175-.35 1.666m7.656-1.69c-.07.25-.191.503-.43.639q-.045.023-.093.042a4 4 0 0 1-.007-.998c.037-.301.08-.817.325-1.036.274-.247.314.335.312.488-.003.288-.03.587-.107.865"/></svg>