<svg xmlns="http://www.w3.org/2000/svg" width="59" height="72" fill="none" viewBox="0 0 59 72"><path stroke="#8A9ACE" stroke-linecap="round" d="M46.673 40.648c-5.77 0-11.533-.157-17.307-.157h-8.602c-2.46 0-4.865-.188-7.316-.304-.134-.006-2.022-.05-2.022.026 0 .18 1.233.74 1.405.817 1.44.643 3.068.928 4.609 1.218.747.14 1.462.474 2.21.582.125.018-.744-.142-.925-.182-.762-.172-1.478-.5-2.253-.661-.52-.109-1.156-.131-1.645-.322-.553-.216-1.363-.038-1.85-.313-.227-.128-.56-.12-.815-.2-.252-.079-.492-.286-.728-.339-1.79-.404 1.076-1.792 1.808-2.078.763-.298 1.676-1.223 2.279-1.773.198-.181 1.697-1.245 1.217-.687-.848.982-1.923 1.713-2.913 2.495-.791.624-1.302 1.199-1.851 2.034M4.078 25.269c0-.302.013-.585-.296-.734-.214-.103-.483-.093-.591.133-.203.423.24.94.65.661m.267.832c0 .411.06.802.06 1.201m-1.192-1.356c-.352 0-.516.399-.71.661m-.024-1.665c-.4-.074-.843-.139-1.242-.24m1.803-1.221c.237-.09-.028-.884-.118-1.021m1.901 1.1c.282 0 .46-.212.71-.297.178-.06.357-.124.533-.183m-.795 2.09c.592.063 1.188.301 1.775.42m-3.234-2.303v-.42m-1.351.863c-.007.056-.02.04-.059.06m3.029.552h-.118m-2.77 1.193c-.02-.035-.072-.06-.112-.068-.04-.007-.058.034-.024.05m1.17.948h-.035m1.538-.49c-.005-.036-.07-.046-.085-.017M43.023 65.57c0-.851-1.032-.774-1.032.028 0 .263.153.527.438.527.452 0 .533-.138.533-.554m-.398 1.469c0 1.338.58 2.62.58 3.96m-1.298-3.781c-.272-.508-.386-.054-.21-.054m-.32-.731c-.273.146-.444.37-.685.547-.222.163-.458.316-.686.47m.827-1.604c-.143 0-.602-.09-.525.184.025.087.366.07.366-.077m.194-1.006c-.238 0-.472-.073-.709-.095-.413-.038-.829-.027-1.242-.065m2.31-.502c0-.188-.12-.273-.314-.208-.058.02-.09.202-.044.25.065.066.248-.013.305-.042m1.249-.13c0-.447-.053-.89-.053-1.338 0-.07-.017-.676.053-.535m1.282 1.853c0-.146-.158-.149-.158 0 0 .14.105.235.105.053m.552 1.201c.341.153.782.179 1.146.243.447.08.93.238 1.386.238m-2.468.559c-.014-.246-.432-.333-.422-.065.01.226.588-.042.264-.042M4.692 55.286c-.03-.387-.346-.442-.656-.442-.176 0-.31-.026-.415.14-.096.153-.284.431-.097.59.325.274.457.305.795.158.2-.087.251-.3.498-.383m-.528.944c.011.118.087.213.11.33.035.177-.003.361.028.54.062.36.048.72.048 1.088m-.571-1.567c-.096-.052-.358-.303-.484-.175-.125.127.195.112.235.112m-.441-.674c-.254.232-.57.18-.864.316-.234.108-.505.18-.754.253m1.168-1.268c-.499 0-.062.535-.062.19m.539-.944c-.244-.235-.601-.37-.926-.443-.236-.053-.476-.27-.691-.378m2.426.415c-.016-.136-.124-.032-.124.063v-.063m.56.358c.592-.12 1.03-.532 1.493-.884m-.359 1.446c.181-.046-.021-.285-.058-.155-.03.103.145.14.183.218m-.475.557c-.28.319.302.391.45.519.493.43 1.24.52 1.79.87m-2.802-.731c.04-.045.044-.072.062-.126m50.247-29.459c-.021-.554-.933-1.175-.933-.347 0 .462.289.538.677.69.148.06.505.12.505-.09m-.399 1.068c.12.493.249 1.136.249 1.643m-1.514-2.236c-.616 0-1.196.164-1.804.253m1.513-2.339c-.307 0-.727-.468-.995-.632m2.541.212c.105-.202.161-.398.311-.572.156-.181.33-.35.435-.565m.344 2.244c.044.206.75.365.933.393.37.059.747.24 1.12.24m-2.032 1.219c0-.076-.166-.466-.183-.407-.038.134.044-.071-.093-.031-.097.028-.036.28.027.312m-1.612.349c-.15-.017-.255-.21-.435-.113-.265.142.174.176.248.176m-.773-1.756c-.08.092.063.077.063 0 0-.088-.155-.077-.215-.06-.075.022.152.402.152-.066m.779-1.591c-.01-.05-.042-.544-.22-.351-.099.105.064.36.144.224.049-.082-.125-.053-.159.05-.061.187 0 .265.11.077m2.189.597c.096-.224-.311-.265-.311-.095 0 .274.091.08.186.032M21.666 4.846c0-.316.047-.489-.284-.6-.3-.102-1.122-.094-1.147.375-.037.674.366.603.926.603.421 0 .615-.154.442-.505m-.471 1.008c.062.452 0 .83 0 1.263m-1.376-1.544a4.2 4.2 0 0 1-1.368.948m1.21-2.331c-.397-.014-.792-.172-1.183-.238-.242-.041-.505-.14-.747-.14m2.896-.601v-.979c0-.259-.225-.94-.063-1.105m1.079 2.427c.356 0 .695-.047 1.045-.063.25-.011.916-.03 1.072-.19m-1.215 1.693c.631.302 1.288.35 1.93.568m-2.346.095c-.14 0-.164.007-.155.158.002.034.097.02.155.04m-1.589.144c-.025-.002-.244-.048-.23-.015.052.133.114.015.114-.063m-1.065-.852c0-.13.143.135.228-.06.062-.139-.204.05-.15-.058m.362-1.425c.015-.032.08-.158 0-.158-.062 0-.05.154-.02.154.011 0 .059-.11.059-.154m1.429-.458c-.01-.083-.117-.04-.117.04 0 .156.12.033.156-.04m1.266 1.398c-.009-.069-.117-.053-.117.02 0 .111.09.126.117.02"/></svg>