<svg xmlns="http://www.w3.org/2000/svg" width="290" height="353" fill="none" viewBox="0 0 290 353"><path stroke="#8A9ACE" stroke-linecap="round" d="M59.235 153.771c29.162 0 58.294.78 87.476.78h43.478c12.44 0 24.592.939 36.983 1.516.677.031 10.22.247 10.22-.13 0-.901-6.232-3.688-7.102-4.071-7.278-3.202-15.508-4.62-23.298-6.063-3.777-.699-7.391-2.361-11.173-2.901-.628-.09 3.761.706 4.677.909 3.85.856 7.471 2.485 11.389 3.291 2.624.541 5.843.652 8.315 1.603 2.794 1.074 6.889.19 9.353 1.559 1.146.636 2.831.601 4.114.996 1.277.393 2.489 1.424 3.681 1.689 9.052 2.011-5.437 8.926-9.137 10.349-3.855 1.483-8.474 6.094-11.519 8.835-1 .9-8.577 6.195-6.149 3.421 4.282-4.894 9.718-8.535 14.723-12.429 3.998-3.109 6.58-5.972 9.354-10.133m38.688 79.485c0 1.502-.067 2.917 1.496 3.657 1.084.513 2.442.465 2.991-.665 1.023-2.106-1.213-4.676-3.29-3.291m-1.197-4.188c0-2.048-.299-3.995-.299-5.983m5.983 6.88c1.779 0 2.61-1.984 3.59-3.29m0 8.376c2.019.367 4.263.692 6.282 1.197m-9.274 5.983c-1.195.448.143 4.402.598 5.085m-9.572-5.684c-1.423 0-2.324 1.057-3.59 1.479-.899.3-1.806.619-2.693.914m4.188-10.47c-2.992-.315-6.007-1.5-8.974-2.094m16.154 11.667v2.094m6.881-4.188c.034-.275.097-.198.299-.299m-15.257-2.992h.598m14.095-5.698c.099.175.363.302.563.338.205.037.296-.166.124-.253m-5.837-4.806h.172m-7.81 2.317c.022.181.356.231.429.086M79.857 28.496c0 4.243 5.216 3.86 5.216-.136 0-1.31-.77-2.625-2.216-2.625-2.285 0-2.693.69-2.693 2.761m2.301-7.339c0-6.67-2.933-13.05-2.933-19.729m6.398 18.929c1.379 2.527 1.952.267 1.067.267m1.6 3.732c1.38-.73 2.245-1.843 3.466-2.725 1.122-.81 2.315-1.574 3.465-2.34m-4.265 7.998c.722 0 3.041.447 2.65-.918-.122-.432-1.85-.346-1.85.385m-1.067 5.065c1.202 0 2.385.365 3.584.474 2.086.19 4.189.136 6.28.326M89.13 35.02c0 .938.606 1.363 1.585 1.037.295-.099.458-1.008.222-1.244-.33-.33-1.251.063-1.54.207m-6.399.534c0 2.226.267 4.432.267 6.665 0 .346.084 3.368-.267 2.666M76.6 35.553c0 .726.8.741.8 0 0-.701-.534-1.17-.534-.266M74.2 29.155c-1.724-.766-3.95-.893-5.791-1.214-2.262-.395-4.7-1.185-7.006-1.185m12.531-2.666c.072 1.223 2.186 1.656 2.132.325-.045-1.128-2.97.208-1.333.208m197.985 58.32c.154 1.926 1.751 2.203 3.321 2.203.888 0 1.563.132 2.097-.7.488-.759 1.438-2.146.489-2.936-1.639-1.366-2.31-1.519-4.019-.786-1.008.431-1.268 1.489-2.517 1.905m2.831-4.719c-.059-.591-.443-1.065-.559-1.643-.177-.886.015-1.802-.14-2.692-.313-1.799-.244-3.59-.244-5.418m2.831 7.865c.489.259 1.813 1.508 2.447.874.633-.633-.982-.56-1.189-.56m2.203 3.461c1.285-1.157 2.877-.895 4.369-1.573 1.183-.538 2.551-.899 3.81-1.258m-5.977 6.292c2.524 0 .314-2.666.314-.944m-2.831 4.719c1.238 1.168 3.041 1.837 4.684 2.202 1.193.265 2.409 1.344 3.495 1.887m-12.269-2.202c.085.682.629.163.629-.314v.315m-2.831-1.888c-2.996.599-5.21 2.65-7.55 4.404m1.887-7.236c-.912.228.113 1.417.297.77.147-.515-.732-.697-.926-1.084m2.517-2.831c1.414-1.591-1.529-1.95-2.272-2.587-2.496-2.14-6.27-2.594-9.053-4.334m14.156 3.775c-.2.225-.225.361-.314.629M16.012 221.049c.106 2.76 4.72 5.852 4.72 1.73 0-2.302-1.463-2.68-3.426-3.443-.749-.291-2.552-.597-2.552.454m2.202-5.348c-.604-2.453-1.259-5.655-1.259-8.179m7.551 11.325c3.115 0 6.047-.819 9.123-1.258m-7.865 11.64c1.554 0 3.675 2.331 5.033 3.146m-12.898-1.259c-.533 1.008-.816 1.984-1.573 2.849-.79.903-1.664 1.739-2.202 2.814m-1.573-11.326c-.227-1.022-3.797-1.814-4.719-1.957-1.864-.289-3.776-1.188-5.662-1.188m10.381-5.978c0 .382.842 2.322.926 2.028.191-.669-.222.355.472.157.49-.14.179-1.396-.14-1.556m8.18-1.572c.762.084 1.287 1.043 2.202.559 1.335-.707-.881-.874-1.258-.874m3.775 8.809c.402-.459-.315-.382-.315 0 0 .439.78.383 1.084.297.38-.109-.77-2.002-.77.332m-4.089 7.864c.05.251.213 2.707 1.119 1.748.494-.523-.331-1.79-.734-1.118-.247.41.634.265.804-.245.311-.935.004-1.324-.56-.385m-11.01-3.145c-.487 1.113 1.573 1.319 1.573.472 0-1.364-.465-.397-.944-.158m171.137 104.445c0 1.572-.239 2.431 1.433 2.988 1.52.507 5.673.467 5.803-1.87.186-3.356-1.852-3.006-4.684-3.006-2.13 0-3.11.771-2.237 2.517m2.517-5.034c-.306-2.253 0-4.13 0-6.292m6.921 7.865c2.09-2.091 4.235-3.568 6.921-4.719m-6.292 11.64c2.005.074 3.999.859 5.977 1.189 1.222.203 2.552.699 3.775.699m-14.786 2.831v4.876c0 1.293 1.137 4.684.315 5.506m-5.348-12.27c-1.796 0-3.511.236-5.278.315-1.262.056-4.629.155-5.418.944m6.292-8.494c-3.19-1.505-6.508-1.75-9.753-2.831m11.897-.348c.712 0 .829-.036.785-.785-.01-.172-.489-.098-.785-.196m8.05-.589c.127.014 1.234.243 1.167.076-.264-.66-.578-.073-.578.316m5.301 4.32c0 .652-.727-.672-1.156.294-.31.698 1.032-.242.763.295m-1.963 7.069c-.076.161-.407.785 0 .785.316 0 .249-.764.098-.764-.052 0-.294.542-.294.764m-7.265 2.16c.052.417.589.197.589-.196 0-.78-.606-.164-.785.196m-6.284-7.069c.043.345.589.264.589-.098 0-.554-.456-.627-.589-.098"/></svg>