<svg xmlns="http://www.w3.org/2000/svg" width="282" height="121" fill="none" viewBox="0 0 282 121"><path stroke="#8A9ACE" stroke-linecap="round" d="M41.403 10.893c.187-4.868 8.634-5.454 12.223-5.055 1.814.201 3.738.878 5.507 1.32 2.688.672 5.469.92 8.224 1.17 5.114.464 10.874.649 15.957-.151 2.298-.362 4.833-.64 6.923-1.736 1.824-.955 2.806-2.677 4.13-4.15 1.718-1.907 4.787-1.415 6.81-.358 2.975 1.556 5.693 3.586 8.62 5.225 3.008 1.684 6.289 1.358 9.695 1.358m35.31-3.056c0 1.616-.011 2.038 1.698 2.038 1.08 0 1.596-.187 1.961-1.283.105-.313.269-1.645-.113-1.754-1.353-.387-4.225-.478-4.225 1.34 0 1.466 1.682 1.033 2.377.339m28.519-.34c.377-1.004 4.288-.697 5.093-.679 3.372.075 6.861 1.27 10.185 1.867 7.622 1.372 14.898-.23 22.239-2.188 5.573-1.486 10.348-.224 15.448 2.094 4.436 2.016 10.264 1.528 14.939.943m21.05 4.753c-1.334.334.3 3.396 1.528 3.396 1.572 0 3.225-.093 3.225-2.037 0-1.757-.57-2.377-2.376-2.377-2.845 0-2.717.542-2.717 3.056m6.791 26.142c-1.182.263-1.698 4.313-1.698 5.263 0 3.323.913 6.396 1.283 9.676.675 5.987-.604 11.892-.604 17.844 0 5.51 2.037 10.634 2.037 16.108 0 1.98.226 3.188-1.697 4.15-1.082.54-1.019 2.244-1.019 3.32m-6.79 15.278c-.693 2.339-.907 5.204 1.867 5.923 1.86.482 4.408-.575 3.641-2.792-.479-1.383-2.476-1.094-3.641-1.094-1.741 0-2.546-.011-2.546 1.698m-20.032 1.358c-3.743-.802-6.817-3.481-10.808-3.716-4.352-.256-8.648.14-12.939.83-10.619 1.706-21.025 3.904-31.858 3.904-1.148 0-1.977-.583-3.018-1.018-2.881-1.206-6.049-1.233-9.13-1.34-3.487-.12-5.572 1.065-8.488 2.698-1.783.998-4.261 1.938-6.262 1.018-1.151-.528-2.043-1.191-3.055-1.697m-12.223-2.037c-1.866 2.566-.333 2.893 2.395 3.036 2.437.129 5.074.752 5.074-2.282 0-4.09-5.587-1.31-7.809-.754m-22.408 2.376c-6.764 0-13.253-1.601-20.05-1.339-4.464.171-8.755 1.753-13.185 1.999-2.337.13-3.598.087-5.545-1.264-2.217-1.537-4.953-3.533-7.658-4.074-2.78-.556-5.667.252-8.394.604-2.435.314-4.841 1.358-7.3 1.358h-6.11m-22.749-2.716c-1.151 3.598 4.753 5.535 4.753 2.886 0-3.159-4.366-2.547-6.79-2.547m-27.841-4.414c-3.227-3.945-4.5-10.707-3.546-15.617.76-3.912 1.51-7.335 1.51-11.374 0-4.2-.873-8.638-2.792-12.393C3.274 66.255 1 64.127 1 60.123c0-3.317 2.45-5.886 4.225-8.488 1.028-1.508 5.195-10.06 2.905-11.204m4.753-24.106c.874 0 4.057.926 4.754.189.463-.49.641-2.565.132-3.075-1.381-1.38-4.16-.848-5.904-.848"/><path stroke="#8A9ACE" stroke-linecap="round" d="M12.64 12.729c0 .989-.269 2.331.287 3.165"/></svg>