<svg xmlns="http://www.w3.org/2000/svg" width="290" height="350" fill="none" viewBox="0 0 290 350"><path stroke="#8A9ACE" stroke-linecap="round" d="M231.914 198.226c-29.163 0-58.295-.779-87.477-.779h-43.478c-12.44 0-24.592-.939-36.982-1.516-.677-.031-10.22-.247-10.22.13 0 .901 6.232 3.688 7.102 4.071 7.277 3.202 15.507 4.62 23.298 6.063 3.776.699 7.39 2.361 11.173 2.901.628.09-3.761-.706-4.677-.909-3.85-.856-7.472-2.485-11.39-3.292-2.623-.54-5.842-.651-8.314-1.602-2.794-1.075-6.89-.19-9.354-1.559-1.145-.636-2.83-.601-4.114-.996-1.277-.393-2.488-1.424-3.68-1.689-9.053-2.011 5.437-8.927 9.136-10.35 3.856-1.482 8.475-6.094 11.52-8.834 1-.9 8.577-6.196 6.149-3.421-4.282 4.894-9.718 8.535-14.724 12.429-3.998 3.109-6.58 5.972-9.354 10.133m-39.91-77.38c0-1.502.066-2.916-1.496-3.656-1.084-.513-2.442-.465-2.992.665-1.022 2.106 1.214 4.675 3.291 3.291m1.349 4.144c0 2.048.298 3.995.298 5.983M11.05 125.3c-1.78 0-2.611 1.985-3.59 3.291m-.122-8.294c-2.02-.367-4.264-.692-6.282-1.196m9.121-6.083c1.195-.448-.143-4.402-.598-5.086m9.603 5.481c1.423 0 2.324-1.057 3.59-1.479.899-.3 1.806-.619 2.692-.914m-4.016 10.412c2.992.315 6.007 1.5 8.974 2.094m-16.347-11.471v-2.094m-6.825 4.304c-.034.276-.097.198-.299.299m15.307 2.745h-.598m-14 5.944c-.099-.175-.363-.302-.563-.339-.205-.037-.296.167-.124.253m5.917 4.715h-.172m7.769-2.442c-.022-.18-.356-.23-.429-.085m193.403 197.008c0-4.243-5.215-3.86-5.215.136 0 1.31.77 2.625 2.216 2.625 2.285 0 2.693-.69 2.693-2.761m-2.013 7.313c0 6.67 2.933 13.05 2.933 19.728m-6.558-18.833c-1.379-2.527-1.952-.266-1.067-.266m-1.613-3.643c-1.38.731-2.245 1.844-3.466 2.725-1.122.811-2.315 1.574-3.466 2.341m4.184-7.989c-.723 0-3.042-.448-2.651.918.123.431 1.851.346 1.851-.385m.976-5.009c-1.202 0-2.385-.365-3.585-.474-2.085-.19-4.188-.136-6.28-.326m11.677-2.496c0-.938-.607-1.363-1.585-1.037-.296.099-.459 1.008-.222 1.245.329.329 1.251-.063 1.54-.208m6.317-.648c0-2.227-.267-4.432-.267-6.665 0-.346-.084-3.368.267-2.666m6.478 9.228c0-.726-.8-.741-.8 0 0 .702.533 1.17.533.267m2.79 5.977c1.724.766 3.951.893 5.792 1.214 2.261.395 4.699 1.185 7.005 1.185m-12.474 2.786c-.072-1.223-2.186-1.656-2.133-.326.045 1.129 2.971-.207 1.333-.207M19.727 271.137c-.154-1.926-1.751-2.202-3.32-2.202-.89 0-1.564-.132-2.098.699-.488.759-1.438 2.146-.49 2.936 1.64 1.366 2.31 1.519 4.02.787 1.008-.432 1.268-1.489 2.517-1.905m-2.67 4.699c.06.591.444 1.065.56 1.643.177.885-.015 1.802.14 2.691.312 1.8.244 3.591.244 5.418m-2.89-7.803c-.489-.259-1.812-1.509-2.447-.874-.632.632.983.559 1.189.559m-2.232-3.356c-1.285 1.157-2.877.895-4.369 1.573-1.183.538-2.551.899-3.81 1.258m5.909-6.312c-2.525 0-.315 2.665-.315.943m2.722-4.702c-1.238-1.168-3.04-1.836-4.684-2.202-1.193-.265-2.41-1.344-3.496-1.887m12.272 2.071c-.085-.681-.63-.163-.63.315v-.315m2.825 1.783c2.996-.6 5.21-2.65 7.55-4.405m-1.809 7.201c.912-.228-.112-1.416-.297-.769-.147.514.733.697.926 1.084m-2.401 2.773c-1.415 1.591 1.528 1.949 2.271 2.586 2.497 2.14 6.27 2.595 9.054 4.335m-14.167-3.639c.2-.226.226-.361.315-.629M274.081 128.76c-.106-2.76-4.719-5.852-4.719-1.73 0 2.302 1.463 2.68 3.426 3.443.748.291 2.551.597 2.551-.454m-2.009 5.323c.604 2.453 1.258 5.655 1.258 8.179m-7.658-11.133c-3.116 0-6.048.819-9.123 1.258m7.655-11.651c-1.555 0-3.675-2.331-5.034-3.146m12.844 1.055c.534-1.008.816-1.984 1.573-2.849.79-.903 1.665-1.739 2.202-2.814m1.74 11.18c.227 1.023 3.797 1.815 4.719 1.957 1.865.289 3.777 1.189 5.662 1.189m-10.273 6.077c0-.382-.842-2.322-.926-2.028-.191.669.222-.355-.472-.157-.489.14-.179 1.396.14 1.555m-8.148 1.738c-.762-.084-1.287-1.043-2.202-.559-1.335.707.881.874 1.258.874m-3.913-8.747c-.402.459.314.382.314 0 0-.439-.78-.383-1.083-.297-.38.109.769 2.002.769-.332m3.936-7.925c-.048-.25-.212-2.706-1.118-1.747-.494.522.331 1.79.734 1.118.246-.411-.634-.265-.804.245-.312.935-.004 1.324.559.384m11.068 2.974c.487-1.113-1.573-1.32-1.573-.472 0 1.363.464.397.943.157M105.516 19.902c0-1.572.24-2.43-1.433-2.988-1.52-.507-5.673-.467-5.803 1.87-.186 3.356 1.853 3.006 4.684 3.006 2.13 0 3.11-.771 2.237-2.517m-2.379 5.018c.305 2.253 0 4.13 0 6.292m-6.959-7.69c-2.091 2.09-4.236 3.568-6.921 4.718m6.122-11.604c-2.005-.074-4-.859-5.978-1.189-1.222-.203-2.551-.699-3.775-.699m14.636-2.989V6.252c0-1.292-1.137-4.683-.315-5.505m5.454 12.091c1.796 0 3.511-.236 5.278-.315 1.261-.056 4.629-.154 5.418-.944m-6.138 8.428c3.189 1.504 6.507 1.75 9.752 2.831m-11.858.471c-.712 0-.829.037-.785.785.01.172.489.098.785.197m-8.032.725c-.127-.014-1.234-.244-1.167-.076.264.66.578.073.578-.317m-5.382-4.24c0-.652.727.672 1.157-.294.31-.697-1.032.242-.764-.295m1.833-7.097c.076-.161.408-.785 0-.785-.315 0-.248.763-.098.763.053 0 .295-.54.295-.763m7.224-2.281c-.052-.417-.589-.197-.589.197 0 .78.606.163.785-.197m6.4 6.962c-.043-.344-.589-.264-.589.098 0 .554.456.628.589.098"/></svg>