<svg xmlns="http://www.w3.org/2000/svg" width="128" height="75" fill="none" viewBox="0 0 128 75"><path stroke="#8A9ACE" stroke-linecap="round" d="M19.086 7.084c.084-2.993 3.865-3.354 5.472-3.109.812.124 1.673.54 2.465.812 1.203.414 2.448.566 3.682.72 2.289.286 4.867.399 7.143-.093 1.028-.223 2.163-.394 3.099-1.067.816-.588 1.256-1.647 1.849-2.553.768-1.173 2.142-.87 3.048-.22 1.332.957 2.548 2.205 3.859 3.213 1.346 1.036 2.815.836 4.34.836m15.807-1.88c0 .994-.006 1.253.76 1.253.483 0 .714-.115.877-.789.047-.192.12-1.012-.05-1.079-.606-.237-1.892-.294-1.892.824 0 .902.753.636 1.064.209m12.767-.208c.168-.618 1.92-.429 2.28-.418 1.509.046 3.07.78 4.559 1.148 3.412.844 6.669-.141 9.955-1.345 2.495-.914 4.632-.138 6.915 1.287 1.986 1.24 4.595.94 6.688.58m9.422 2.924c-.597.205.134 2.088.684 2.088.704 0 1.444-.057 1.444-1.253 0-1.08-.255-1.462-1.064-1.462-1.273 0-1.216.333-1.216 1.88m3.041 16.078c-.529.162-.76 2.653-.76 3.237 0 2.044.409 3.933.574 5.95.302 3.683-.27 7.315-.27 10.975 0 3.389.912 6.54.912 9.907 0 1.218.101 1.961-.76 2.553-.485.332-.456 1.38-.456 2.041m-3.041 9.397c-.31 1.438-.405 3.2.836 3.643.833.296 1.974-.354 1.63-1.717-.214-.851-1.108-.673-1.63-.673-.779 0-1.14-.007-1.14 1.044m-8.967.835c-1.675-.493-3.052-2.14-4.838-2.285-1.948-.157-3.871.086-5.792.51-4.754 1.05-9.412 2.402-14.261 2.402-.514 0-.885-.359-1.351-.627-1.29-.741-2.708-.758-4.087-.823-1.561-.074-2.495.654-3.8 1.659-.798.614-1.907 1.192-2.803.626-.515-.325-.915-.733-1.368-1.044m-5.472-1.252c-.834 1.578-.148 1.78 1.073 1.868 1.091.078 2.272.462 2.272-1.404 0-2.516-2.502-.806-3.496-.464m-10.031 1.461c-3.028 0-5.933-.985-8.976-.824-1.998.106-3.919 1.079-5.902 1.23-1.046.08-1.61.053-2.482-.777-.992-.946-2.217-2.173-3.428-2.506-1.244-.342-2.537.155-3.758.371-1.09.193-2.167.835-3.267.835h-2.736m-10.183-1.669c-.516 2.212 2.127 3.404 2.127 1.774 0-1.942-1.954-1.566-3.04-1.566M4.952 67.432c-1.445-2.426-2.015-6.585-1.588-9.605.34-2.406.676-4.511.676-6.996 0-2.582-.39-5.312-1.25-7.621C2.018 41.134 1 39.825 1 37.363c0-2.04 1.097-3.62 1.891-5.22.46-.928 2.326-6.187 1.3-6.892M6.32 10.425c.39 0 1.816.57 2.127.116.208-.301.287-1.577.06-1.89-.619-.85-1.862-.523-2.643-.523"/><path stroke="#8A9ACE" stroke-linecap="round" d="M6.21 8.214c0 .608-.12 1.434.13 1.947"/></svg>