<svg xmlns="http://www.w3.org/2000/svg" width="965" height="7" fill="none" viewBox="0 0 965 7"><path stroke="#8A9ACE" stroke-linecap="round" d="M1.147 3.384C4.374.503 9.867 1.059 13.845 2.027c6.509 1.583 13.255 4.6 19.427.977C39.59-.704 44.532 4.36 50.962 4.36m13.188-.977c2.815 3.976.488-5.202.488.977M88.08 5.826c0-2.007.857-2.384 2.931-2.442 7.12-.198 13.802 2.876 20.865 2.876 2.925 0 4.632-2.589 7.462-2.903 1.525-.17 2.831-.461 4.395-.461 2.187 0 4.104.1 6.241.596 1.174.273 3.711.537 4.748 1.113 1.674.93 9.137.53 10.012-1.221m21.978-.488c-.604 1.38 1.069 1.28 1.465.488M257.064.942c.125 2.243.886 2.067 1.845.868.902-1.127-1.515-2.083-.38-.38m127.959.977a.98.98 0 0 0 1.954 0c0-.991-1.73-1.441-1.954-.489-.136.578 0 1.358 0 1.954m233.451-.977c0 2.377 2.388 2.7 2.388.299 0-1.066-2.876-1.372-2.876.19m223.683-1.466c.131 2.096 4.48.92 3.311-.38-1.26-1.399-4.72-.08-2.822.869m74.724 1.466c0-4.782 13.363.763 16.985-1.466 1.792-1.102 3.872-1.21 5.969-.976.89.098 2.502 1.603 3.419 2.062 1.439.72 3.297.38 4.884.38m13.675-.977c.366 1.833 2.531.488 0 .488"/></svg>