<svg xmlns="http://www.w3.org/2000/svg" width="25" height="315" fill="none" viewBox="0 0 25 315"><path stroke="#8A9ACE" stroke-linecap="round" d="M14.967 1.081c-.43 3.872-3.951 6.373-4.062 10.58-.097 3.691.034 8.785 1.58 12.185.462 1.016-.09 2.21.45 3.184.84 1.512 1.037 4.802 1.13 6.544.129 2.463.902 4.95.902 7.446 0 6.163 3.159 12.293 3.159 18.503 0 2.825 1.354 5.261 1.354 7.998 0 2.988.902 5.903.902 8.926v10.38c0 3.29-.804 6.064-1.379 9.226-.436 2.4-1.25 4.64-1.88 7.02-.357 1.349-1.043 2.242-1.68 3.41-.71 1.302-.77 2.79-1.58 4.061-1.51 2.376-2.189 5.739-3.41 8.324-1.884 3.991-2.419 8.493-3.86 12.611-2.027 5.791-4.714 12.746-4.714 18.955 0 7.497-.902 15.008-.902 22.589 0 3.515.637 7.44 1.58 10.831 1.39 5.005 1.836 10.239 3.484 15.244 6.11 18.558 13.059 37.071 16.497 56.411 1.317 7.403 1.455 14.645 1.455 22.214 0 3.022-.66 6.75-1.354 9.703-.33 1.402-.252 2.979-.803 4.287-.303.72-.965 2.44-1.002 3.159-.098 1.843-.418 3.978-1.354 5.616-.785 1.374-.356 3.138-.452 4.764-.11 1.884-2.342 7.403 0 8.574"/></svg>