<svg xmlns="http://www.w3.org/2000/svg" width="95" height="88" fill="none" viewBox="0 0 95 88"><path stroke="#8A9ACE" stroke-linecap="round" d="M80.358 3.27c.672-.757.26-2.11 1.728-1.412.229.109 1.42 1.18 1.693 1.05.386-.183.824-.663 1.14-.95.328-.299.996-1.235 1.556-.878.605.385.92 1.03 1.457 1.448.652.507.73.233 1.575.009.772-.205 2.492-1.012 2.407.253-.045.672-1.218 1.845-.38 2.027.598.13 2.123.042 2.58.498.193.193-1.026.893-1.177 1.213-.243.512.31.601.579.85.586.543 1.58.795.199.978-.487.064-2.567.073-2.606.778-.033.594 1.952 2.983 1.23 3.384-.778.433-2.042-.615-2.86-.615M7.22 76.897c-.31-.345-1.955-1.598-1.955-.725 0 .656.11 1.938-.742 2.182-.16.045-.582-.154-.805-.154-.612 0-1.248-.063-1.837.126-.785.253 1.408.431 1.628.652.596.596-1.775 1.084-2.063 1.267-.51.325-.7.398.073.398.453 0 1.096-.117 1.538.009.695.199-.543 1.727-.543 1.937 0 .504 1.37-.245 1.557-.317.22-.085.605-.08.778-.254.042-.042.183-.36.244-.144.252.882-.154 1.953-.154 2.841 0 .617-.035-.39.09-.552.195-.25.327-.736.689-.75.746-.03 1.216 1.562 1.33 2.19.234 1.286.519.676 1.221-.155.786-.927.694-1.389 1.52-.244.349.482.57 1.095.933 1.538.617.754.705-.636 1.059-1.176.493-.754 1.153-.688 1.954-.688.307 0 .49.316.733-.009.318-.424.727-.787.896-1.294"/></svg>