<svg xmlns="http://www.w3.org/2000/svg" width="109" height="39" fill="none" viewBox="0 0 109 39"><path stroke="#8A9ACE" stroke-linecap="round" d="M107.557 3.351c-3.216 0-6.395-.588-9.612-.588-1.958 0-3.906-.195-5.867-.195-.688 0-1.972.25-2.624-.011-.575-.23 1.149-.466 1.731-.675.892-.321 1.75-.422 2.656-.643.224-.054 1.75-.239.98-.239-.685 0-1.298.178-1.96.348-1.157.298-2.267.902-3.417 1.23-.219.063.9.687 1.066.773.66.34 1.303.715 1.949 1.078.456.257.967.757 1.48.87.455.102-.804-.238-1.034-.38-1.097-.681-2.44-1.394-3.57-1.96M54.838 27.511c.204 2.576.796 5.084 1.006 7.65.071.87.156 1.74.21 2.61.049.768.007.126.007-.232M7.964 27.135c-1.64 1.997-2.953 4.214-4.582 6.208-.552.675-1.095 1.362-1.658 2.026-.499.587-.083.095.165-.162"/><path stroke="#8A9ACE" stroke-linecap="round" d="M54.716 27.267c-.178.67-.523 1.298-.761 1.956-.214.594-.332 1.354-.7 1.876-.665.941.712-2.21 1.277-3.214.55-.977.697-.388 1.257.36.358.477.706.923 1.128 1.345.215.215.607.48.734.734m-49.606-3.45c-.593.36-1.277.573-1.905.882-.566.278-1.178.745-1.805.865-1.132.217 2.045-1.097 3.15-1.429 1.073-.322.77.204.655 1.131-.073.592-.132 1.154-.12 1.752.005.303.104.766.019 1.037"/></svg>