<svg xmlns="http://www.w3.org/2000/svg" width="25" height="261" fill="none" viewBox="0 0 25 261"><path stroke="#8A9ACE" stroke-linecap="round" d="M14.98 1c-.43 3.207-3.948 5.278-4.058 8.762-.098 3.057.033 7.275 1.578 10.091.462.841-.09 1.83.451 2.637.84 1.252 1.036 3.977 1.127 5.42.13 2.039.902 4.099.902 6.166 0 5.104 3.157 10.18 3.157 15.323 0 2.339 1.353 4.357 1.353 6.623 0 2.475.902 4.889.902 7.392v8.596c0 2.725-.803 5.022-1.378 7.641-.436 1.988-1.25 3.842-1.879 5.814-.357 1.117-1.042 1.856-1.679 2.823-.71 1.079-.77 2.311-1.578 3.364-1.51 1.967-2.188 4.753-3.407 6.894-1.884 3.305-2.418 7.032-3.859 10.443-2.025 4.796-4.71 10.556-4.71 15.697 0 6.209-.902 12.43-.902 18.708 0 2.91.637 6.161 1.578 8.97 1.39 4.144 1.836 8.479 3.483 12.624 6.106 15.369 13.05 30.7 16.486 46.717 1.315 6.13 1.453 12.128 1.453 18.396 0 2.503-.659 5.59-1.353 8.035-.33 1.162-.251 2.467-.802 3.551-.302.596-.964 2.021-1.002 2.616-.097 1.527-.417 3.294-1.353 4.651-.784 1.138-.355 2.598-.45 3.945-.111 1.56-2.342 6.131 0 7.101"/></svg>