<svg xmlns="http://www.w3.org/2000/svg" width="29" height="38" fill="none" viewBox="0 0 29 38"><path fill="#242647" d="M16.905 5.831c.005.11.015.22.063.322.075.16.216.272.398.312a.48.48 0 0 0 .467-.167.6.6 0 0 0 .122-.339q.007-.117.005-.235c.019-.112.03-.226.025-.34a1 1 0 0 0-.086-.4.5.5 0 0 0-.103-.14l-.022-.034a.46.46 0 0 0-.432-.173c-.17.03-.29.14-.365.28-.113.212-.124.492-.102.722q.008.095.03.192m-6.778-.987-.022-.034a.46.46 0 0 0-.433-.173.52.52 0 0 0-.365.28c-.112.212-.123.492-.101.722q.008.095.03.192c.005.11.015.22.063.322a.56.56 0 0 0 .397.312.48.48 0 0 0 .467-.167.6.6 0 0 0 .123-.339q.007-.117.004-.234.031-.17.026-.34a1 1 0 0 0-.087-.401.5.5 0 0 0-.102-.14m5.376 2.836c.015-.066-.05-.107-.11-.107-.157.002-.28.067-.417.13q-.197.09-.409.144a3 3 0 0 1-.8.112 1.7 1.7 0 0 1-.716-.177c-.223-.111-.347-.271-.508-.443-.231-.246-.697-.029-.549.295.139.303.459.533.76.686.277.142.603.224.919.235.376.013.762-.055 1.093-.228.273-.144.666-.339.737-.648"/><path fill="#242647" d="M28.288 2.43c-.663-.606-1.564-.33-1.94.399-.22.43-.266.928-.315 1.396a16 16 0 0 0-.088 1.814c.007 1.204.142 2.4.41 3.579a.31.31 0 0 0 .192.223 18.8 18.8 0 0 1-2.55 3.975 18 18 0 0 1-1.873 1.941c-.67.598-1.412 1.107-2.112 1.67q-.271-.502-.57-.991a11 11 0 0 0 2.093-1.268c1.966-1.524 3.202-3.653 3.201-6.013.001-2.36-1.235-4.488-3.2-6.012-1.967-1.526-4.668-2.46-7.644-2.46s-5.677.934-7.644 2.46c-1.966 1.524-3.201 3.653-3.2 6.012-.001 2.36 1.235 4.489 3.2 6.013.825.639 1.78 1.173 2.828 1.58a.24.24 0 0 0-.124.105c-.216.398-.307.854-.382 1.308-.637-.5-1.298-.967-1.902-1.505a18 18 0 0 1-1.873-1.941 18.8 18.8 0 0 1-2.55-3.976.31.31 0 0 0 .193-.223 16.6 16.6 0 0 0 .41-3.58q.005-.908-.088-1.813c-.05-.468-.095-.966-.317-1.396-.375-.729-1.275-1.005-1.938-.398-.715.653-.497 1.737-.38 2.567.24 1.717.748 3.404 1.494 4.987a18.6 18.6 0 0 0 4.804 6.277c.638.544 1.314 1.087 2.067 1.49l-.024.137a92 92 0 0 0-.35 2.004c-.2 1.215-.442 2.451-.495 3.682-.044 1.057.13 2.179.933 2.982.724.725 1.737 1.07 2.762 1.24q.112.017.225.032c.002.333.061.681.078.989q.044.795.043 1.59c0 .551-.002 1.102-.023 1.653-.006.146-.077.506-.032.768-.08.18-.146.365-.213.547q-.188.516-.366 1.034c-.192.557-.643 1.373-.146 1.897.397.419 1.108.379 1.61.17.275-.113.524-.288.676-.534.187-.301.174-.646.08-.973-.114-.393-.256-.781-.385-1.17-.136-.41-.251-.828-.4-1.234-.035-.096-.135-.154-.24-.166 0-.16-.01-.305-.009-.383.013-.52.017-1.04-.006-1.56a29 29 0 0 0-.115-1.593c-.03-.297-.037-.65-.098-.978 1.014.106 2.049.092 3.063.078.9-.012 1.81-.038 2.714-.109.005.325.061.663.078.963q.044.795.043 1.59c0 .551-.002 1.103-.024 1.654-.005.145-.076.506-.031.767-.08.18-.146.365-.213.548q-.188.514-.366 1.033c-.192.557-.643 1.373-.147 1.897.398.419 1.109.379 1.611.17.275-.113.524-.288.676-.533.187-.302.174-.647.08-.974-.114-.393-.256-.78-.385-1.17-.136-.41-.252-.827-.4-1.234-.035-.096-.135-.153-.24-.166 0-.16-.01-.305-.009-.383.013-.52.017-1.04-.006-1.56a29 29 0 0 0-.116-1.593c-.031-.318-.038-.7-.11-1.046q.479-.045.954-.111c1.065-.15 2.199-.502 2.796-1.405.619-.935.555-2.084.374-3.13a21.6 21.6 0 0 0-2.13-6.267c.792-.406 1.496-.974 2.16-1.541q1.021-.872 1.905-1.867a18.6 18.6 0 0 0 2.9-4.41A17.4 17.4 0 0 0 28.666 5c.118-.832.336-1.915-.378-2.568M1.885 9.92A17 17 0 0 1 .828 6.251 16 16 0 0 1 .68 5.133c-.04-.418-.102-.931.188-1.288.231-.284.612-.359.865-.063.22.257.286.62.33.937.24 1.732.166 3.487-.179 5.2m10.809 25.988c.087.307.108.615-.185.828-.208.15-.486.24-.749.24-.246 0-.491-.083-.505-.345-.018-.329.175-.698.277-1.008q.178-.54.348-1.08c.05-.163.105-.328.152-.495.22.62.481 1.23.662 1.86m6.23 0c.089.307.109.615-.184.828-.208.15-.486.24-.749.24-.246 0-.491-.083-.506-.345-.017-.329.175-.698.277-1.008q.18-.54.348-1.08c.05-.163.106-.328.153-.495.221.62.481 1.23.662 1.86M3.767 9.155c0-2.134 1.112-4.073 2.941-5.494s4.37-2.306 7.185-2.306 5.357.887 7.185 2.306c1.83 1.421 2.94 3.36 2.94 5.494s-1.11 4.073-2.94 5.494c-1.828 1.419-4.37 2.306-7.185 2.305s-5.357-.886-7.185-2.305c-1.829-1.421-2.94-3.36-2.94-5.494m17.816 16.897c-.196.976-1.015 1.502-1.998 1.712-1.178.252-2.433.286-3.636.333-1.231.048-2.478.064-3.708-.025-.928-.067-1.928-.216-2.71-.724-.9-.585-1.207-1.532-1.213-2.52-.007-1.281.272-2.587.474-3.85q.158-1.005.336-2.005c.12-.678.346-1.384.274-2.07q-.005-.022-.012-.04a13.4 13.4 0 0 0 4.503.765c1.729 0 3.363-.318 4.815-.88a21.4 21.4 0 0 1 2.573 6.201c.235.994.507 2.084.302 3.103m6.53-21.817a16 16 0 0 1-.147 1.12 17 17 0 0 1-1.057 3.667 15.6 15.6 0 0 1-.179-5.201c.044-.317.11-.68.33-.937.253-.295.634-.22.865.064.29.356.228.869.188 1.287"/></svg>