<svg xmlns="http://www.w3.org/2000/svg" width="64" height="78" fill="none" viewBox="0 0 64 78"><path fill="#242647" d="M40.642 21.311c.01.237.03.475.128.696.151.346.438.587.805.673.35.083.731-.078.945-.36a1.36 1.36 0 0 0 .247-.732q.014-.253.01-.507c.038-.243.06-.49.051-.736-.01-.286-.053-.606-.174-.866a1.1 1.1 0 0 0-.208-.301l-.045-.073c-.199-.27-.537-.437-.875-.374-.343.064-.587.304-.739.607-.227.456-.25 1.06-.205 1.558.012.133.03.276.06.415m-13.716-2.133-.044-.074c-.2-.269-.538-.437-.875-.373-.343.063-.588.303-.739.606-.228.456-.25 1.061-.205 1.558.012.134.03.277.06.416.01.237.03.475.127.696.152.346.438.587.805.674.35.082.732-.079.945-.362.156-.207.232-.474.247-.731q.014-.253.01-.507c.039-.243.06-.49.05-.736-.008-.285-.052-.606-.173-.866a1.1 1.1 0 0 0-.209-.302m7.177 8.018c.76.027 1.543-.118 2.212-.493.553-.31 1.347-.732 1.492-1.399.03-.14-.103-.23-.223-.229-.318.003-.565.144-.845.28q-.399.196-.827.312c-.527.139-1.07.255-1.62.243a3.26 3.26 0 0 1-1.448-.384c-.45-.24-.701-.586-1.027-.957-.468-.532-1.41-.062-1.111.638.28.655.928 1.15 1.536 1.483a4.3 4.3 0 0 0 1.86.506"/><path fill="#242647" d="M63.837 15.902c-.326-1.468-1.82-2.42-3.245-1.677-1.853.968-2.309 3.498-2.687 5.339a32 32 0 0 0-.53 3.703c-.108 1.26-.24 2.628-.005 3.877a32.2 32.2 0 0 1-8.738 7.5 33 33 0 0 1-4.79 2.292c-1.5.579-3.05.97-4.586 1.425a16 16 0 0 1-.435-2.247.8.8 0 0 0-.195-.451c3.22-.901 6.112-2.404 8.477-4.364 3.978-3.292 6.48-7.892 6.478-12.99.001-5.1-2.5-9.7-6.478-12.992C43.123 2.02 37.658 0 31.636 0c-6.022.001-11.488 2.02-15.467 5.317-3.979 3.292-6.48 7.892-6.478 12.991-.001 5.099 2.5 9.7 6.478 12.991a22 22 0 0 0 3.99 2.615c-.3.716-.598 1.431-.886 2.15-1.102-.76-2.26-1.44-3.36-2.206a48 48 0 0 1-3.445-2.633c-2.202-1.849-4.224-3.918-5.977-6.199l-.044-.058.003-.023c.037-2.04.004-4.076-.162-6.11-.145-1.772-.23-3.695-.86-5.376-.444-1.188-1.315-2.383-2.704-2.397-1.635-.017-2.692 1.57-2.723 3.075-.034 1.668.714 3.403 1.357 4.915a30.6 30.6 0 0 0 2.284 4.326c1.741 2.763 3.905 5.227 6.318 7.42a46 46 0 0 0 4.259 3.42c1.47 1.045 3.002 2.113 4.642 2.877-.622 1.569-1.228 3.143-1.84 4.715-.576 1.484-1.148 2.97-1.736 4.449-.54 1.354-1.113 2.702-1.501 4.11-.707 2.562-.637 5.13.785 7.43.735 1.19 1.744 2.198 2.893 3.006-.353.39-.67.811-1.045 1.183a7.1 7.1 0 0 1-1.755 1.27c-1.177.6-2.51.884-3.828.72-1.286-.159-2.476-.715-3.475-1.531-1.083-.886-1.634-1.95-2.187-3.2-.27-.61-.664-1.168-1.319-1.4-.601-.215-1.276-.075-1.695.42-.447.527-.578 1.373-.715 2.028a13 13 0 0 0-.28 2.49c-.02 1.398.05 3.017.763 4.26.582 1.017 1.765 1.694 2.87 1 1.253-.787 1.317-2.584 1.287-3.894a12 12 0 0 0-.07-.998c.07.068.137.14.21.206 1.695 1.51 4.071 2.244 6.319 1.917a8.3 8.3 0 0 0 3.523-1.41c.901-.627 1.808-1.49 2.207-2.534.51.302 1.04.567 1.581.792 2.625 1.093 5.52 1.276 8.33 1.223 1.503-.028 3.038-.069 4.56-.196.971.752 1.982 1.454 2.908 2.27a34 34 0 0 1 3.453 3.506 31.6 31.6 0 0 1 5.033 8.263c.144.346.57.51.911.363a13 13 0 0 0 4.809-3.561c.936-1.107 2.623-3.231 1.64-4.746-1.194-1.842-3.713.155-4.766 1.142a11 11 0 0 0-1.893 2.307c-.24.395-.52.838-.718 1.3a34 34 0 0 0-4.078-5.922 32 32 0 0 0-3.503-3.502 33 33 0 0 0-2.022-1.619c.49-.068.978-.146 1.459-.243 2.322-.47 4.577-1.442 6.083-3.34 1.447-1.823 1.93-4.171 1.875-6.453-.121-4.922-2.971-9.051-4.402-13.603 1.55-.183 3.08-.663 4.539-1.182a30.3 30.3 0 0 0 4.822-2.222 33.9 33.9 0 0 0 8.257-6.588 32 32 0 0 0 5.761-8.864c.606-1.403 1.273-2.993.926-4.555M2.29 17.641c-.492-1.272-1.35-3.088-.677-4.42.248-.494.73-.925 1.318-.814.525.099.884.606 1.115 1.049.33.631.479 1.321.586 2.02q.233 1.528.374 3.068a52 52 0 0 1 .228 4.729A29 29 0 0 1 2.29 17.64m1.836 49.208c-.944.678-1.387-1.494-1.466-2.014-.21-1.38-.177-2.79.11-4.157.057-.274.237-1.523.572-1.502l.11.038a.63.63 0 0 0 .072.35A10.8 10.8 0 0 1 4.692 63.6c.07.834.253 2.66-.566 3.25m41.686 6.84a9.8 9.8 0 0 1 1.333-1.832c.327-.358 3.196-2.87 3.268-1.639.036.609-.431 1.25-.749 1.726a12 12 0 0 1-1.427 1.764c-.91.922-1.979 1.68-3.131 2.268-.073-.158-.141-.318-.216-.475.426-.517.595-1.222.922-1.811M11.146 18.309c0-4.611 2.25-8.8 5.95-11.871 3.7-3.067 8.844-4.983 14.54-4.982s10.84 1.915 14.54 4.982c3.7 3.07 5.95 7.26 5.95 11.87-.001 4.611-2.25 8.801-5.95 11.872-3.7 3.066-8.844 4.983-14.54 4.982s-10.84-1.916-14.54-4.982c-3.7-3.07-5.95-7.26-5.95-11.871m30.8 32.182c.409 2.01.502 4.193-.253 6.137-.779 2.006-2.415 3.316-4.415 4.01-2.15.743-4.5.824-6.751.951-2.714.153-5.479.244-8.148-.365-2.112-.48-4.171-1.522-5.638-3.142-1.588-1.757-2.178-3.902-1.772-6.236.27-1.546.86-3.026 1.398-4.493.563-1.532 1.138-3.06 1.712-4.588 1.045-2.78 2.108-5.557 3.08-8.364 3.118 1.415 6.686 2.215 10.477 2.216 1.903 0 3.75-.203 5.513-.583a.9.9 0 0 0-.023.331c.6 5.045 3.822 9.21 4.82 14.126m19.345-29.55a30.3 30.3 0 0 1-2.614 4.473c-.008-.434-.017-.868 0-1.301a26 26 0 0 1 .285-3.05c.153-.988.353-1.97.612-2.936.204-.761.457-1.515.944-2.146.364-.47.972-.97 1.582-.598.452.276.54.9.542 1.383.008 1.448-.746 2.897-1.35 4.175"/></svg>