<svg xmlns="http://www.w3.org/2000/svg" width="239" height="134" fill="none" viewBox="0 0 239 134"><path stroke="#8A9ACE" stroke-linecap="round" d="M52.935 92.255c-9.028-2.777-17.61-2.76-27.056-2.554C16.743 89.9 9.096 94.665 1 97.364M48.728 49.25c0-1.087-.074-2.177.14-3.247.145-.725.591-1.42.687-2.093.194-1.354.543 1.547.593 1.952.205 1.633.703 1.974 2.327 2.17.676.082 5.664.322 4.903.875-.352.256-1.167.115-1.624.344-.774.387-1.321.638-2.092.858-.268.077 1.456 2.127 1.67 2.39.655.8.766 2.17 1.328 2.873.405.506-.593.362-.906.218-.89-.409-1.736-.932-2.53-1.499-1.845-1.318-3.111-2.197-5.48-1.468-.83.256-2.017.825-2.67 1.406-1.133 1.006-.409-1.18-.22-1.75.5-1.494 2.014-3.168-.202-4.153-.884-.393-1.593-.817-.078-.5 1.273.267 2.568 1.062 3.872 1.062m56.308-2.204C102.038 27.469 88.06 14.444 75.483 1m74.825 34.024c1.446 0 1.74-2.462 2.354-2.462.557 0 .415 3.594.415 4.123"/><path stroke="#8A9ACE" stroke-linecap="round" d="M153.077 36.963c.326 0 3.569.732 3.569.969 0 .524-4.496-.284-4.661.292-.136.476-.015 1.15-.015 1.646 0 .454.645 2.522-.216 1.554-.747-.841-1.422-3.077-2.692-3.077h-2.292c-.389 0-1.655.221-1.938-.062-.172-.172 1.498-.533 1.615-.63.305-.254 1.35-.363 1.369-.693.027-.453-.368-1.631-.707-1.923-.385-.33-1.88-2.909-.954-2.445 1.071.535 2.02 2.153 3.323 2.153m75.115 39.92c1.28-.72 1.055-3.129 2.527-3.129 1.571 0 1.694 3.61 2.647 3.61 1.083 0 2.31.323 3.369.601.443.117 2.797.238 1.925.722-.719.4-1.577.843-2.42.843-.613 0-1.173.24-1.791.24-1.279 0-.809 1.17-.709 2.286.295 3.284.183 2.59-1.51.896-.379-.378-1.339-2.188-1.872-2.22-1.835-.107-4.148-.145-5.776.67-.648.323.985-1.066 1.498-1.578.891-.891-.084-1.392-.776-1.925-.266-.206-2.658-2.268-1.631-1.926 1.79.597 3.376 1.258 5.241 1.631M183.12 57.377c4.26-6.568 10.067-13.332 16.804-17.417 5.479-3.323 11.181-5.254 17.245-7.212 3.754-1.213 10.341-2.54 13.198-5.397M203 108c12.867.124 22.816 4.482 30.124 15.209 2.092 3.071 2.801 7.022 4.759 9.96"/></svg>