<svg xmlns="http://www.w3.org/2000/svg" width="88" height="54" fill="none" viewBox="0 0 88 54"><path stroke="#8A9ACE" stroke-linecap="round" d="M1.552 8.012C-2.382-4.28 15.858 2.33 20.244 7.232c2.342 2.619 2.782 10.71 0 12.895-3.132 2.461-7.54 7.324-6.23 11.25m-.001 10.126c2.458 0 1.558-.245 1.558-.78M47.504 1.002c0 6.517-.779 13.054-.779 19.471 0 5.714.247 12.5-1.558 17.914M86.793 5.472c-1.84 6.251-4.433 12.303-6.245 18.459-1.614 5.481-3.293 12.06-6.553 16.745M42.83 47.733c1.17.069 3.377 2.51 4.5 1.385 1.538-1.537-2.667-1.519-3.288-1.342-.82.235-.911 3.487.693 3.03 1.089-.312-.095-3.35 1.211-.736m23.168-1.088c1.103.396 2.53 3.36 3.926 2.599 1.909-1.041-2.13-2.21-2.776-2.216-.853-.007-1.859 3.088-.19 3.101 1.132.01.854-3.239 1.369-.363"/></svg>