<svg xmlns="http://www.w3.org/2000/svg" width="81" height="141" fill="none" viewBox="0 0 81 141"><path fill="#242647" d="M68.368 10.413C61.114 4.465 51.152.823 40.175.82c-10.977.002-20.94 3.644-28.194 9.592C4.73 16.353.171 24.653.174 33.85.172 43.049 4.73 51.349 11.98 57.29a40 40 0 0 0 7.3 4.732c-1.147 2.166-1.968 4.544-2.758 6.842a99 99 0 0 0-2.319 7.817c-1.4 5.505-2.31 11.127-2.789 16.783a97 97 0 0 0 .038 16.87c.191 2.118.263 4.677 1.856 6.309 1.408 1.444 3.607 1.174 4.786-.406 1.467-1.965 1.364-4.978.81-7.235a13.1 13.1 0 0 0-4.212-6.85c-.623-.537-1.34-.2-1.65.366a96.4 96.4 0 0 1 2.793-25.241 97 97 0 0 1 2.283-7.76c.465-1.375 1.01-2.731 1.537-4.091-.774 3.001-1.331 6.06-1.823 9.115A129 129 0 0 0 16.4 88.099c-.21 3.91-.6 8.163.436 11.992.954 3.524 3.3 6.144 6.67 7.597 1.329.574 2.727.968 4.156 1.249-.173.769-.059 1.641-.045 2.404.024 1.311.124 2.623.204 3.932.155 2.545.331 5.088.498 7.631.258 3.933.539 7.875.735 11.814a17.9 17.9 0 0 0-7.54-1.074c-2.194.163-5.535 1.003-5.532 3.756.003 2.85 3.475 3.343 5.659 3.408 3.05.091 6.457-.295 9.187-1.73.478-.253.755-.69.695-1.235-.56-5.055-.923-10.145-1.326-15.214-.196-2.466-.384-4.932-.588-7.398-.107-1.303-.2-2.612-.355-3.91-.083-.689-.108-1.466-.308-2.161 1.889.285 3.81.404 5.683.495 3.839.187 7.702.065 11.53-.313-.07.66.01 1.367.022 1.998.023 1.311.123 2.623.204 3.932.156 2.545.332 5.088.499 7.631.258 3.933.538 7.875.734 11.814a17.9 17.9 0 0 0-7.54-1.074c-2.193.163-5.534 1.003-5.531 3.756.003 2.85 3.474 3.343 5.659 3.408 3.05.091 6.457-.295 9.187-1.73.478-.253.756-.69.696-1.235-.56-5.055-.923-10.145-1.325-15.214-.197-2.466-.385-4.932-.588-7.398-.107-1.303-.2-2.612-.356-3.91-.081-.676-.107-1.436-.297-2.12.224-.026.45-.042.672-.069 3.53-.438 7.467-1.28 9.546-4.443 2.168-3.3 2.067-7.674 2.137-11.462a97 97 0 0 0-.857-14.806 92 92 0 0 1 2.691 12.453c.448 3.141.74 6.313.895 9.488-3.091 3.233-5.308 8.279-5.15 12.713.064 1.765.88 3.819 2.881 4.091 2.398.325 3.869-1.884 4.22-3.937.452-2.633.34-5.471.32-8.134a90 90 0 0 0-.413-8.208 103 103 0 0 0-2.908-16.003 98 98 0 0 0-2.673-8.556c-.666-1.828-1.33-3.757-2.18-5.57-.225-.856-.466-1.71-.713-2.562 4.639-1.65 8.832-4 12.376-6.905 7.252-5.94 11.81-14.24 11.808-23.44.004-9.198-4.555-17.498-11.806-23.437m-55.064 93.543a10.45 10.45 0 0 1 3.326 4.994c.528 1.725.867 4.26-.157 5.877-1.298 2.048-2.467-.923-2.662-2.031-.4-2.263-.515-4.615-.642-6.905-.04-.724-.057-1.447-.08-2.171.059.082.127.163.214.236m10.45 34.295a19 19 0 0 1-3.353-.086c-.48-.053-1.809-.138-1.968-.747-.352-1.353 3.77-1.511 4.439-1.518 2.158-.026 4.257.436 6.229 1.273-1.759.496-3.49.952-5.347 1.078m18.565 0c-1.12.075-2.24.038-3.354-.086-.48-.053-1.809-.138-1.967-.747-.352-1.353 3.77-1.511 4.438-1.518 2.158-.026 4.257.436 6.229 1.273-1.759.496-3.49.952-5.346 1.078m20.42-33.417c.01 2.36-.044 4.735-.237 7.088-.074.894-.144 2.021-.852 2.676-.755.697-1.526.388-1.821-.507-.654-1.976.211-4.625.9-6.482.511-1.377 1.203-2.609 1.988-3.793.005.34.022.679.023 1.018m-5.353-16.132c.103 3.803.16 7.859-.63 11.6-.346 1.645-1.05 3.238-2.422 4.285-1.274.971-2.877 1.41-4.435 1.694-4.053.738-8.276.946-12.39.898-3.573-.042-7.306-.128-10.787-1.012-3.22-.817-6.049-2.553-7.262-5.74-1.3-3.414-.944-7.432-.813-11.003.168-4.616.589-9.218 1.23-13.792.58-4.136 1.46-8.213 2.215-12.318 5.44 2.279 11.58 3.567 18.085 3.568a47.7 47.7 0 0 0 13.388-1.899c2.335 7.69 3.603 15.693 3.821 23.72m9.29-33.434c-6.742 5.532-16.118 8.99-26.501 8.988-10.383.001-19.759-3.456-26.502-8.988-6.747-5.54-10.847-13.1-10.848-21.417.003-8.318 4.101-15.877 10.848-21.417 6.742-5.532 16.119-8.99 26.502-8.988 10.382-.001 19.758 3.456 26.501 8.988 6.747 5.54 10.847 13.099 10.848 21.417-.002 8.319-4.101 15.878-10.848 21.417"/><path fill="#242647" d="m47.501 45.92-.08-.132c-.363-.485-.98-.788-1.594-.674-.626.116-1.07.548-1.347 1.095-.415.822-.456 1.914-.374 2.811.022.241.054.499.109.75.019.429.055.857.232 1.256a2.1 2.1 0 0 0 1.468 1.215c.639.149 1.333-.141 1.723-.652.285-.375.423-.856.45-1.32.02-.303.022-.609.018-.914.07-.439.11-.883.093-1.327-.018-.516-.096-1.094-.317-1.563a2 2 0 0 0-.38-.544M20.98 44.17l-.079-.132c-.362-.486-.98-.788-1.595-.674-.625.115-1.07.548-1.346 1.095-.415.822-.457 1.913-.375 2.81.023.242.055.5.11.75.019.428.055.858.232 1.257a2.1 2.1 0 0 0 1.467 1.214c.64.15 1.334-.14 1.724-.652.285-.374.422-.856.45-1.32.019-.303.021-.608.017-.914.07-.438.11-.882.094-1.327-.017-.516-.096-1.093-.318-1.562a2.1 2.1 0 0 0-.38-.545m15.193 11.372a5.8 5.8 0 0 0-1.05-.589 7.2 7.2 0 0 0-2.162-.53 7.1 7.1 0 0 0-2.16.135c-.708.16-1.633.406-2.027 1.066-.18.3-.087.803.349.82.622.023 1.196-.248 1.804-.354a5.5 5.5 0 0 1 1.778-.027 5.3 5.3 0 0 1 1.639.494c.584.277 1.055.703 1.77.78.389.043.85-.322.738-.748-.115-.442-.293-.776-.679-1.047"/></svg>