<svg aria-hidden="true" style="position: absolute; width: 0; height: 0; overflow: hidden;" version="1.1" xmlns="http://www.w3.org/2000/svg" xmlns:xlink="http://www.w3.org/1999/xlink">
<defs>

<symbol id="header-logo" viewBox="0 0 35 32">
<path fill="none" stroke="#8a9ace" style="stroke: var(--color1, #8a9ace)" stroke-linejoin="miter" stroke-linecap="round" stroke-miterlimit="4" stroke-width="0.3636" d="M29.221 1.189c0.245-0.275 0.095-0.768 0.629-0.513 0.083 0.040 0.516 0.429 0.615 0.382 0.141-0.067 0.3-0.241 0.415-0.346 0.119-0.109 0.362-0.449 0.566-0.319 0.22 0.14 0.334 0.375 0.53 0.527 0.237 0.184 0.265 0.085 0.573 0.003 0.281-0.074 0.906-0.368 0.875 0.092-0.016 0.244-0.443 0.671-0.138 0.737 0.218 0.047 0.772 0.015 0.938 0.181 0.070 0.070-0.373 0.325-0.428 0.441-0.088 0.186 0.113 0.219 0.211 0.309 0.213 0.197 0.574 0.289 0.072 0.355-0.177 0.023-0.934 0.027-0.948 0.283-0.012 0.216 0.71 1.085 0.448 1.231-0.283 0.157-0.743-0.224-1.040-0.224"></path>
<path fill="none" stroke="#8a9ace" style="stroke: var(--color1, #8a9ace)" stroke-linejoin="miter" stroke-linecap="round" stroke-miterlimit="4" stroke-width="0.3636" d="M2.625 27.962c-0.113-0.125-0.711-0.581-0.711-0.263 0 0.238 0.040 0.705-0.27 0.793-0.058 0.017-0.212-0.056-0.293-0.056-0.222 0-0.454-0.023-0.668 0.046-0.285 0.092 0.512 0.157 0.592 0.237 0.217 0.217-0.646 0.394-0.75 0.461-0.186 0.118-0.255 0.145 0.026 0.145 0.165 0 0.399-0.043 0.559 0.003 0.253 0.072-0.197 0.628-0.197 0.704 0 0.183 0.498-0.089 0.566-0.115 0.080-0.031 0.22-0.029 0.283-0.092 0.015-0.015 0.067-0.131 0.089-0.053 0.092 0.321-0.056 0.71-0.056 1.033 0 0.224-0.013-0.142 0.033-0.201 0.071-0.091 0.119-0.268 0.25-0.273 0.272-0.011 0.442 0.568 0.484 0.796 0.085 0.468 0.189 0.246 0.444-0.056 0.285-0.337 0.252-0.505 0.553-0.089 0.127 0.175 0.207 0.398 0.339 0.559 0.224 0.274 0.256-0.231 0.385-0.428 0.179-0.274 0.419-0.25 0.711-0.25 0.111 0 0.178 0.115 0.267-0.003 0.116-0.154 0.264-0.286 0.326-0.471"></path>
</symbol>

<symbol id="header-menu" viewBox="0 0 32 32">
<path fill="none" stroke="#8a9ace" style="stroke: var(--color1, #8a9ace)" stroke-linejoin="miter" stroke-linecap="round" stroke-miterlimit="4" stroke-width="0.7619" d="M0.927 0.762c2.525 0 5.050 0 7.575 0 3.351 0 6.69 0.222 10.043 0.222 4.231 0 8.462 0 12.693 0"></path>
<path fill="none" stroke="#8a9ace" style="stroke: var(--color1, #8a9ace)" stroke-linejoin="miter" stroke-linecap="round" stroke-miterlimit="4" stroke-width="0.7619" d="M1.146 11.994c4.765 0 9.527 0.222 14.286 0.222 2.085 0 4.322 0.235 6.383-0.056 2.807-0.396 5.709-0.389 8.547-0.389"></path>
<path fill="none" stroke="#8a9ace" style="stroke: var(--color1, #8a9ace)" stroke-linejoin="miter" stroke-linecap="round" stroke-miterlimit="4" stroke-width="0.7619" d="M1.474 22.558c2.305 0 4.605-0.116 6.894-0.327 4.159-0.384 8.36 0.105 12.529 0.105 3.192 0 6.383 0 9.575 0"></path>
<path fill="none" stroke="#8a9ace" style="stroke: var(--color1, #8a9ace)" stroke-linejoin="miter" stroke-linecap="round" stroke-miterlimit="4" stroke-width="0.7619" d="M0.762 31.016c2.525 0 5.050 0 7.575 0 3.351 0 6.69 0.222 10.043 0.222 4.231 0 8.462 0 12.693 0"></path>
</symbol>

<symbol id="header-line" viewBox="0 0 4411 32"> 
<!-- не працює -->
<path fill="none" stroke="#8a9ace" style="stroke: var(--color1, #8a9ace)" stroke-linejoin="miter" stroke-linecap="round" stroke-miterlimit="4" stroke-width="4.5714" d="M5.243 15.469c14.751-13.17 39.861-10.626 58.049-6.202 29.752 7.237 60.594 21.027 88.81 4.465 28.876-16.949 51.477 6.202 80.871 6.202"></path>
<path fill="none" stroke="#8a9ace" style="stroke: var(--color1, #8a9ace)" stroke-linejoin="miter" stroke-linecap="round" stroke-miterlimit="4" stroke-width="4.5714" d="M293.255 15.467c12.873 18.173 2.233-23.783 2.233 4.465"></path>
<path fill="none" stroke="#8a9ace" style="stroke: var(--color1, #8a9ace)" stroke-linejoin="miter" stroke-linecap="round" stroke-miterlimit="4" stroke-width="4.5714" d="M402.655 26.633c0-9.173 3.915-10.9 13.396-11.163 32.552-0.904 63.095 13.148 95.383 13.148 13.371 0 21.175-11.835 34.112-13.272 6.971-0.775 12.942-2.109 20.091-2.109 9.998 0 18.761 0.458 28.53 2.729 5.367 1.248 16.965 2.451 21.705 5.085 7.653 4.252 41.769 2.423 45.769-5.582"></path>
<path fill="none" stroke="#8a9ace" style="stroke: var(--color1, #8a9ace)" stroke-linejoin="miter" stroke-linecap="round" stroke-miterlimit="4" stroke-width="4.5714" d="M762.112 13.237c-2.761 6.307 4.887 5.85 6.697 2.233"></path>
<path fill="none" stroke="#8a9ace" style="stroke: var(--color1, #8a9ace)" stroke-linejoin="miter" stroke-linecap="round" stroke-miterlimit="4" stroke-width="4.5714" d="M1175.15 4.305c0.571 10.256 4.050 9.451 8.434 3.969 4.123-5.152-6.926-9.521-1.737-1.736"></path>
<path fill="none" stroke="#8a9ace" style="stroke: var(--color1, #8a9ace)" stroke-linejoin="miter" stroke-linecap="round" stroke-miterlimit="4" stroke-width="4.5714" d="M1766.802 11.002c0 6.464 8.933 6.464 8.933 0 0-4.529-7.909-6.587-8.933-2.233-0.622 2.641 0 6.206 0 8.931"></path>
<path fill="none" stroke="#8a9ace" style="stroke: var(--color1, #8a9ace)" stroke-linejoin="miter" stroke-linecap="round" stroke-miterlimit="4" stroke-width="4.5714" d="M2834.007 13.235c0 10.866 10.917 12.343 10.917 1.364 0-4.873-13.147-6.271-13.147 0.868"></path>
<path fill="none" stroke="#8a9ace" style="stroke: var(--color1, #8a9ace)" stroke-linejoin="miter" stroke-linecap="round" stroke-miterlimit="4" stroke-width="4.5714" d="M3854.327 8.769c0.599 9.581 20.48 4.205 15.136-1.736-5.76-6.396-21.577-0.369-12.901 3.969"></path>
<path fill="none" stroke="#8a9ace" style="stroke: var(--color1, #8a9ace)" stroke-linejoin="miter" stroke-linecap="round" stroke-miterlimit="4" stroke-width="4.5714" d="M4198.158 17.703c0-21.859 61.088 3.49 77.646-6.698 8.192-5.041 17.701-5.53 27.287-4.465 4.069 0.452 11.438 7.33 15.63 9.427 6.578 3.289 15.072 1.737 22.327 1.737"></path>
<path fill="none" stroke="#8a9ace" style="stroke: var(--color1, #8a9ace)" stroke-linejoin="miter" stroke-linecap="round" stroke-miterlimit="4" stroke-width="4.5714" d="M4403.561 13.237c1.673 8.382 11.57 2.233 0 2.233"></path>
</symbol>

<symbol id="icon-GET-IT-ON" viewBox="0 0 164 32">
<!-- не працює -->
<path d="M26.001 17.105c0 3.348-1.028 6.030-3.054 8.030-2.329 2.371-5.362 3.564-9.079 3.564-3.552 0-6.585-1.213-9.073-3.604-2.493-2.426-3.737-5.403-3.737-8.967s1.244-6.541 3.737-8.947c2.488-2.411 5.521-3.624 9.073-3.624 1.768 0 3.455 0.356 5.064 1.018 1.604 0.667 2.91 1.569 3.856 2.682l-2.149 2.115c-1.65-1.9-3.897-2.837-6.77-2.837-2.591 0-4.837 0.882-6.745 2.662-1.887 1.784-2.833 4.095-2.833 6.932s0.946 5.168 2.833 6.952c1.907 1.759 4.154 2.662 6.745 2.662 2.75 0 5.064-0.902 6.889-2.682 1.203-1.178 1.887-2.802 2.067-4.877h-8.955v-2.897h11.947c0.144 0.627 0.185 1.233 0.185 1.819z"></path>
<path d="M44.956 7.060h-11.222v7.619h10.117v2.897h-10.117v7.619h11.222v2.952h-14.399v-24.039h14.399v2.952z"></path>
<path d="M58.332 28.147h-3.177v-21.087h-6.884v-2.952h16.949v2.952h-6.889v21.087z"></path>
<path d="M77.486 28.147v-24.039h3.172v24.039h-3.172z"></path>
<path d="M94.719 28.147h-3.151v-21.087h-6.909v-2.952h16.97v2.952h-6.909v21.087z"></path>
<path d="M133.716 25.055c-2.432 2.431-5.444 3.644-9.037 3.644-3.614 0-6.626-1.213-9.058-3.644-2.426-2.426-3.635-5.403-3.635-8.927s1.208-6.501 3.635-8.927c2.432-2.431 5.444-3.644 9.058-3.644 3.573 0 6.585 1.213 9.017 3.664 2.447 2.446 3.655 5.403 3.655 8.907 0 3.524-1.208 6.501-3.635 8.927zM117.97 23.040c1.83 1.799 4.056 2.702 6.709 2.702 2.632 0 4.879-0.902 6.688-2.702 1.825-1.799 2.751-4.11 2.751-6.912s-0.925-5.113-2.751-6.912c-1.809-1.799-4.056-2.702-6.688-2.702-2.653 0-4.879 0.902-6.709 2.702-1.825 1.799-2.751 4.11-2.751 6.912s0.925 5.113 2.751 6.912z"></path>
<path d="M141.808 28.147v-24.039h3.856l11.989 18.696h0.139l-0.139-4.621v-14.075h3.172v24.039h-3.311l-12.554-19.618h-0.139l0.139 4.641v14.977h-3.151z"></path>
</symbol>

<symbol id="icon-Google-Play" viewBox="0 0 158 32">
<!-- не працює -->
<path d="M51.643 9.264c-4.347 0-7.898 3.225-7.898 7.676 0 4.414 3.551 7.673 7.898 7.673 4.356 0 7.907-3.259 7.907-7.673 0-4.45-3.551-7.676-7.907-7.676zM51.643 21.59c-2.385 0-4.437-1.919-4.437-4.651 0-2.768 2.052-4.653 4.437-4.653s4.446 1.886 4.446 4.653c0 2.732-2.061 4.651-4.446 4.651zM34.411 9.264c-4.356 0-7.898 3.225-7.898 7.676 0 4.414 3.542 7.673 7.898 7.673 4.354 0 7.898-3.259 7.898-7.673 0-4.45-3.544-7.676-7.898-7.676zM34.411 21.59c-2.387 0-4.446-1.919-4.446-4.651 0-2.768 2.059-4.653 4.446-4.653 2.385 0 4.437 1.886 4.437 4.653 0 2.732-2.052 4.651-4.437 4.651zM13.905 11.616v3.261h7.988c-0.234 1.823-0.858 3.162-1.816 4.096-1.166 1.128-2.982 2.38-6.172 2.38-4.916 0-8.765-3.868-8.765-8.661s3.849-8.661 8.765-8.661c2.658 0 4.592 1.013 6.019 2.325l2.357-2.298c-1.996-1.859-4.652-3.286-8.377-3.286-6.741 0-12.407 5.348-12.407 11.92s5.665 11.92 12.407 11.92c3.643 0 6.38-1.164 8.532-3.347 2.205-2.149 2.892-5.172 2.892-7.612 0-0.758-0.065-1.455-0.18-2.037h-11.243zM97.755 14.145c-0.65-1.716-2.656-4.881-6.741-4.881-4.048 0-7.419 3.11-7.419 7.676 0 4.299 3.336 7.673 7.808 7.673 3.616 0 5.702-2.149 6.561-3.401l-2.684-1.744c-0.895 1.277-2.114 2.122-3.877 2.122-1.751 0-3.007-0.783-3.812-2.325l10.528-4.247-0.363-0.873zM87.021 16.7c-0.090-2.959 2.357-4.475 4.111-4.475 1.374 0 2.54 0.67 2.929 1.628l-7.040 2.847zM78.464 24.146h3.461v-22.555h-3.461v22.555zM72.796 10.973h-0.116c-0.777-0.898-2.26-1.71-4.139-1.71-3.942 0-7.546 3.374-7.546 7.7 0 4.301 3.604 7.648 7.546 7.648 1.878 0 3.361-0.819 4.139-1.744h0.116v1.101c0 2.935-1.608 4.511-4.201 4.511-2.114 0-3.426-1.489-3.967-2.74l-3.010 1.225c0.868 2.035 3.165 4.538 6.977 4.538 4.058 0 7.481-2.328 7.481-7.991v-13.781h-3.28v1.243zM68.838 21.59c-2.385 0-4.381-1.947-4.381-4.626 0-2.704 1.996-4.678 4.381-4.678 2.35 0 4.203 1.974 4.203 4.678 0 2.68-1.853 4.626-4.203 4.626zM113.958 1.59h-8.277v22.555h3.452v-8.546h4.826c3.833 0 7.592-2.704 7.592-7.006 0-4.299-3.768-7.003-7.592-7.003zM114.048 12.462h-4.916v-7.734h4.916c2.577 0 4.048 2.086 4.048 3.866 0 1.746-1.471 3.868-4.048 3.868zM135.384 9.221c-2.494 0-5.087 1.074-6.154 3.453l3.063 1.252c0.659-1.252 1.871-1.658 3.153-1.658 1.791 0 3.607 1.049 3.634 2.901v0.237c-0.625-0.352-1.962-0.873-3.607-0.873-3.299 0-6.66 1.771-6.66 5.075 0 3.022 2.702 4.969 5.739 4.969 2.323 0 3.604-1.022 4.409-2.211h0.118v1.744h3.333v-8.652c0-3.999-3.063-6.237-7.030-6.237zM134.968 21.581c-1.129 0-2.702-0.546-2.702-1.91 0-1.746 1.962-2.416 3.66-2.416 1.52 0 2.232 0.327 3.156 0.758-0.271 2.089-2.114 3.568-4.113 3.568zM154.559 9.715l-3.967 9.778h-0.118l-4.102-9.778h-3.722l6.163 13.664-3.516 7.603h3.606l9.496-21.267h-3.84zM123.447 24.146h3.461v-22.555h-3.461v22.555z"></path>
</symbol>

<symbol id="icon-hero-arrows" viewBox="0 0 89 32">
<!-- не працює -->
<path fill="none" stroke="#8a9ace" style="stroke: var(--color1, #8a9ace)" stroke-linejoin="miter" stroke-linecap="round" stroke-miterlimit="4" stroke-width="0.8205" d="M88.252 2.75c-2.639 0-5.247-0.482-7.887-0.482-1.607 0-3.205-0.161-4.814-0.161-0.564 0-1.618 0.205-2.153-0.009-0.472-0.189 0.942-0.382 1.42-0.554 0.731-0.263 1.436-0.346 2.179-0.527 0.183-0.045 1.435-0.197 0.804-0.197-0.562 0-1.065 0.146-1.608 0.286-0.95 0.244-1.861 0.74-2.805 1.009-0.179 0.051 0.738 0.564 0.875 0.634 0.541 0.279 1.069 0.586 1.599 0.884 0.374 0.211 0.793 0.621 1.215 0.715 0.373 0.083-0.66-0.196-0.849-0.313-0.901-0.559-2.002-1.144-2.93-1.608"></path>
<path fill="none" stroke="#8a9ace" style="stroke: var(--color1, #8a9ace)" stroke-linejoin="miter" stroke-linecap="round" stroke-miterlimit="4" stroke-width="0.8205" d="M44.996 22.573c0.167 2.113 0.653 4.171 0.825 6.277 0.058 0.713 0.128 1.428 0.173 2.141 0.039 0.631 0.006 0.104 0.006-0.19"></path>
<path fill="none" stroke="#8a9ace" style="stroke: var(--color1, #8a9ace)" stroke-linejoin="miter" stroke-linecap="round" stroke-miterlimit="4" stroke-width="0.8205" d="M6.535 22.265c-1.345 1.638-2.423 3.457-3.76 5.094-0.452 0.554-0.898 1.118-1.36 1.662-0.409 0.482-0.068 0.079 0.135-0.133"></path>
<path fill="none" stroke="#8a9ace" style="stroke: var(--color1, #8a9ace)" stroke-linejoin="miter" stroke-linecap="round" stroke-miterlimit="4" stroke-width="0.8205" d="M44.895 22.373c-0.146 0.551-0.429 1.066-0.624 1.605-0.176 0.487-0.272 1.111-0.574 1.539-0.545 0.773 0.584-1.812 1.048-2.637 0.451-0.802 0.571-0.318 1.031 0.295 0.293 0.391 0.579 0.757 0.925 1.104 0.176 0.176 0.498 0.393 0.602 0.602"></path>
<path fill="none" stroke="#8a9ace" style="stroke: var(--color1, #8a9ace)" stroke-linejoin="miter" stroke-linecap="round" stroke-miterlimit="4" stroke-width="0.8205" d="M6.601 22.051c-0.487 0.296-1.048 0.47-1.563 0.723-0.464 0.229-0.967 0.611-1.481 0.71-0.929 0.178 1.678-0.9 2.584-1.172 0.881-0.265 0.632 0.167 0.538 0.928-0.060 0.485-0.108 0.947-0.099 1.437 0.005 0.249 0.086 0.629 0.016 0.851"></path>
</symbol>

<symbol id="icon-hero-man" viewBox="0 0 24 32">
<path d="M14.236 4.91c0.004 0.092 0.013 0.185 0.053 0.271 0.063 0.135 0.182 0.229 0.335 0.262 0.146 0.032 0.304-0.030 0.393-0.141 0.065-0.081 0.097-0.185 0.103-0.285 0.004-0.066 0.005-0.132 0.004-0.197 0.016-0.095 0.025-0.191 0.021-0.287-0.004-0.111-0.022-0.236-0.073-0.337-0.022-0.044-0.052-0.083-0.087-0.117l-0.019-0.029c-0.083-0.105-0.224-0.17-0.364-0.146-0.143 0.025-0.244 0.118-0.307 0.236-0.095 0.178-0.104 0.413-0.085 0.607 0.005 0.052 0.012 0.108 0.025 0.162z"></path>
<path d="M8.528 4.079l-0.018-0.029c-0.083-0.105-0.224-0.17-0.364-0.146-0.143 0.025-0.244 0.118-0.307 0.236-0.095 0.178-0.104 0.413-0.085 0.607 0.005 0.052 0.012 0.108 0.025 0.162 0.004 0.092 0.013 0.185 0.053 0.271 0.063 0.135 0.182 0.229 0.335 0.262 0.146 0.032 0.304-0.030 0.393-0.141 0.065-0.081 0.097-0.185 0.103-0.285 0.004-0.066 0.005-0.132 0.004-0.197 0.016-0.095 0.025-0.191 0.022-0.287-0.004-0.111-0.022-0.236-0.073-0.337-0.022-0.044-0.052-0.083-0.087-0.118z"></path>
<path d="M13.055 6.467c0.013-0.055-0.043-0.090-0.093-0.089-0.132 0.001-0.235 0.056-0.351 0.109-0.11 0.050-0.225 0.092-0.344 0.121-0.219 0.054-0.446 0.099-0.674 0.095-0.21-0.004-0.418-0.057-0.603-0.149-0.187-0.093-0.292-0.228-0.427-0.373-0.195-0.207-0.587-0.024-0.462 0.249 0.116 0.255 0.386 0.448 0.639 0.578 0.234 0.12 0.508 0.189 0.774 0.197 0.317 0.011 0.642-0.046 0.921-0.192 0.23-0.121 0.561-0.285 0.621-0.545z"></path>
<path d="M23.821 2.047c-0.558-0.511-1.316-0.278-1.633 0.336-0.186 0.362-0.225 0.782-0.266 1.176-0.054 0.508-0.077 1.017-0.074 1.527 0.006 1.014 0.119 2.022 0.345 3.014 0.022 0.096 0.085 0.157 0.162 0.188-0.565 1.192-1.288 2.318-2.147 3.347-0.483 0.579-1.009 1.128-1.578 1.635-0.565 0.503-1.189 0.932-1.778 1.407-0.153-0.282-0.312-0.561-0.48-0.835 0.642-0.299 1.234-0.658 1.763-1.068 1.655-1.283 2.696-3.076 2.696-5.063 0-1.987-1.040-3.78-2.696-5.063-1.656-1.285-3.931-2.072-6.437-2.072s-4.78 0.787-6.437 2.072c-1.656 1.283-2.696 3.076-2.696 5.063s1.040 3.78 2.696 5.063c0.694 0.538 1.498 0.988 2.381 1.33-0.043 0.018-0.081 0.047-0.104 0.089-0.182 0.336-0.259 0.72-0.322 1.102-0.536-0.42-1.093-0.814-1.601-1.268-0.568-0.507-1.095-1.055-1.578-1.635-0.858-1.030-1.582-2.156-2.147-3.347 0.076-0.031 0.14-0.092 0.162-0.188 0.225-0.992 0.339-2 0.345-3.014 0.003-0.51-0.020-1.020-0.074-1.527-0.042-0.394-0.080-0.813-0.266-1.176-0.316-0.614-1.074-0.846-1.633-0.336-0.602 0.55-0.418 1.463-0.32 2.162 0.202 1.445 0.63 2.866 1.258 4.199 0.627 1.332 1.448 2.594 2.442 3.713 0.495 0.557 1.032 1.084 1.604 1.572 0.537 0.459 1.106 0.916 1.74 1.255-0.007 0.039-0.013 0.077-0.020 0.116-0.104 0.561-0.204 1.124-0.295 1.687-0.167 1.023-0.372 2.065-0.416 3.101-0.038 0.89 0.11 1.835 0.785 2.511 0.61 0.611 1.464 0.901 2.326 1.044 0.063 0.010 0.127 0.018 0.19 0.027 0.002 0.28 0.051 0.573 0.065 0.832 0.024 0.446 0.037 0.893 0.037 1.339-0.001 0.464-0.002 0.928-0.020 1.392-0.005 0.122-0.064 0.426-0.027 0.647-0.068 0.151-0.123 0.307-0.18 0.461-0.106 0.289-0.208 0.579-0.308 0.87-0.162 0.469-0.542 1.157-0.123 1.598 0.335 0.353 0.933 0.319 1.357 0.144 0.231-0.096 0.441-0.243 0.569-0.45 0.157-0.254 0.146-0.544 0.067-0.82-0.095-0.331-0.215-0.658-0.324-0.986-0.114-0.345-0.212-0.697-0.336-1.039-0.030-0.081-0.114-0.129-0.202-0.14-0-0.135-0.009-0.257-0.007-0.323 0.011-0.438 0.014-0.877-0.006-1.314-0.020-0.448-0.052-0.895-0.097-1.342-0.025-0.25-0.031-0.547-0.082-0.823 0.854 0.089 1.725 0.077 2.579 0.066 0.758-0.010 1.525-0.032 2.285-0.092 0.004 0.273 0.052 0.558 0.066 0.811 0.024 0.446 0.037 0.893 0.037 1.339-0.001 0.464-0.002 0.928-0.020 1.393-0.005 0.122-0.064 0.426-0.027 0.647-0.068 0.151-0.123 0.307-0.18 0.461-0.106 0.289-0.208 0.579-0.308 0.87-0.162 0.469-0.542 1.156-0.123 1.598 0.335 0.353 0.933 0.319 1.357 0.144 0.231-0.096 0.441-0.243 0.569-0.45 0.157-0.254 0.146-0.544 0.067-0.819-0.095-0.331-0.215-0.658-0.324-0.986-0.114-0.345-0.212-0.697-0.337-1.039-0.030-0.081-0.114-0.129-0.202-0.14-0-0.135-0.009-0.257-0.007-0.323 0.011-0.438 0.014-0.877-0.006-1.314-0.020-0.448-0.052-0.895-0.097-1.342-0.027-0.267-0.033-0.589-0.094-0.881 0.269-0.026 0.538-0.056 0.804-0.094 0.896-0.126 1.851-0.423 2.355-1.183 0.521-0.788 0.467-1.756 0.315-2.636-0.316-1.829-0.929-3.611-1.793-5.278 0.666-0.342 1.26-0.82 1.819-1.298 0.572-0.489 1.109-1.015 1.604-1.572 0.994-1.12 1.815-2.382 2.442-3.713 0.628-1.333 1.056-2.754 1.258-4.199 0.099-0.7 0.283-1.613-0.319-2.163zM1.588 8.353c-0.411-0.995-0.714-2.030-0.89-3.088-0.052-0.313-0.094-0.627-0.124-0.943-0.034-0.352-0.086-0.784 0.158-1.084 0.195-0.239 0.515-0.302 0.729-0.054 0.185 0.217 0.24 0.522 0.277 0.789 0.202 1.458 0.14 2.936-0.15 4.38zM10.689 30.239c0.074 0.259 0.091 0.518-0.156 0.697-0.175 0.127-0.409 0.202-0.63 0.202-0.207-0-0.414-0.070-0.426-0.29-0.015-0.277 0.147-0.588 0.233-0.849 0.1-0.303 0.199-0.605 0.293-0.91 0.043-0.137 0.089-0.276 0.129-0.416 0.185 0.522 0.405 1.036 0.557 1.567zM15.937 30.239c0.074 0.259 0.091 0.518-0.156 0.697-0.175 0.127-0.409 0.202-0.63 0.202-0.207-0-0.414-0.070-0.426-0.29-0.015-0.277 0.147-0.588 0.233-0.849 0.1-0.303 0.199-0.605 0.293-0.91 0.043-0.137 0.089-0.276 0.129-0.416 0.186 0.522 0.405 1.036 0.557 1.567zM3.172 7.709c0-1.797 0.936-3.43 2.477-4.626 1.539-1.195 3.68-1.942 6.050-1.942s4.511 0.747 6.050 1.942c1.54 1.197 2.476 2.83 2.476 4.626s-0.936 3.43-2.476 4.626c-1.539 1.195-3.68 1.942-6.050 1.942s-4.511-0.747-6.050-1.942c-1.54-1.197-2.476-2.83-2.477-4.626zM18.175 21.939c-0.165 0.822-0.855 1.265-1.683 1.441-0.992 0.212-2.049 0.241-3.062 0.28-1.037 0.040-2.087 0.054-3.123-0.021-0.781-0.057-1.623-0.183-2.282-0.61-0.758-0.493-1.017-1.29-1.022-2.122-0.006-1.079 0.229-2.178 0.398-3.242 0.090-0.564 0.183-1.126 0.283-1.688 0.101-0.571 0.291-1.165 0.231-1.742-0.001-0.013-0.006-0.023-0.010-0.034 1.157 0.413 2.44 0.644 3.792 0.644 1.455-0 2.831-0.267 4.055-0.741 0.993 1.629 1.734 3.39 2.166 5.223 0.198 0.837 0.428 1.755 0.255 2.613zM23.673 3.566c-0.030 0.315-0.072 0.63-0.124 0.943-0.176 1.059-0.479 2.093-0.89 3.088-0.29-1.443-0.352-2.921-0.15-4.38 0.037-0.267 0.092-0.572 0.277-0.789 0.213-0.249 0.534-0.186 0.729 0.054 0.244 0.3 0.192 0.732 0.159 1.084z"></path>
</symbol>

<symbol id="icon-hero4" viewBox="0 0 72 32">
<path fill="none" stroke="#8a9ace" style="stroke: var(--color1, #8a9ace)" stroke-linejoin="miter" stroke-linecap="round" stroke-miterlimit="4" stroke-width="0.5079" d="M71.111 0.508c-5.738 0-5.966 4.87-10.167 7.198-1.174 0.651-2.174 1.152-3.389 1.69-7.001 3.103-16.657-0.098-23.189 4.382-2.647 1.815-5.227 4.584-8.159 5.884-2.192 0.972-4.199 2.876-5.931 4.507-1.805 1.7-4.778 1.127-7.060 1.127-2.267 0-5.293 1.25-7.060 2.817-1.377 1.221-3.788 3.38-5.648 3.38"></path>
</symbol>

</defs>
</svg>
