<svg xmlns="http://www.w3.org/2000/svg" width="285" height="100" fill="none" viewBox="0 0 285 100"><path stroke="#8A9ACE" stroke-linecap="round" d="M21.305 43.188c.559 4.205-.471 8.255-.93 12.419-.28 2.557-.765 5.173-.87 7.743-.081 1.99-.001 4 .08 5.987.077 1.928-.194 3.82-.146 5.743.074 2.916.114 5.811-.021 8.728-.103 2.22-.497 4.529-.382 6.747.136 2.636-.387 5.336-.01 7.964M149.465 1.834c-1.218 4.063-3.822 7.332-5.951 10.94-1.307 2.215-2.825 4.4-3.977 6.7-.891 1.78-1.644 3.646-2.388 5.491-.722 1.79-1.747 3.404-2.493 5.176-1.131 2.689-2.285 5.344-3.607 7.947-1.006 1.982-2.314 3.925-3.121 5.995-.959 2.458-2.546 4.705-3.283 7.256M260.877 38.46c-2.973 3.026-6.8 4.703-10.365 6.902-2.19 1.35-4.552 2.576-6.643 4.073-1.619 1.16-3.155 2.459-4.673 3.744-1.473 1.247-3.132 2.197-4.619 3.417-2.254 1.85-4.513 3.662-6.896 5.348-1.814 1.284-3.878 2.393-5.557 3.847-1.995 1.728-4.446 2.976-6.287 4.889M19.183 98.902c4.617-1.883 8.74-4.85 13.25-6.972 5.205-2.45 10.557-4.754 15.668-7.386 1.751-.903 3.603-1.569 5.416-2.334 1.442-.609 2.74-1.528 4.172-2.15 1.752-.76 3.542-1.445 5.31-2.166m61.632-26.141c4.984.18 9.962-.829 14.944-.91 5.753-.094 11.579.006 17.32-.294 1.968-.102 3.93.051 5.896.099 1.565.038 3.126-.267 4.688-.245 1.91.027 3.822.139 5.731.208m42.42 20.429c4.325 2.483 9.199 3.911 13.645 6.163 5.133 2.6 10.24 5.404 15.459 7.816 1.788.827 3.452 1.877 5.17 2.837 1.367.763 2.889 1.221 4.261 1.969 1.677.914 3.316 1.905 4.973 2.856M21.646 42.377c.276.677.827.933 1.433 1.318 1.227.78 2.421 1.612 3.656 2.377 3.449 2.137 6.745 4.468 10.064 6.802 3.029 2.13 6.465 4.143 9.124 6.726 3.422 3.325 7.104 6.44 10.607 9.69 2.187 2.03 4.418 4.245 6.302 6.546.481.588.941 1.054 1.36 1.66.155.222-.58.372-.922.512m86.84-76.774c-.027.731.371 1.191.765 1.791.797 1.215 1.544 2.464 2.356 3.67 2.265 3.365 4.311 6.845 6.378 10.337 1.885 3.187 4.191 6.434 5.553 9.882 1.753 4.438 3.83 8.79 5.687 13.193 1.159 2.75 2.283 5.686 3.054 8.558.197.734.425 1.348.559 2.072.049.266-.682.102-1.052.088m88.316-12.595c-.364.635-.227 1.227-.158 1.941.139 1.447.217 2.9.373 4.345.435 4.034.622 8.067.822 12.119.182 3.699.708 7.646.305 11.33-.519 4.744-.711 9.563-1.122 14.324-.256 2.973-.631 6.094-1.288 8.995-.168.74-.252 1.39-.471 2.093-.081.258-.651-.228-.972-.412m-229.38-34.53c2.174 3.807 3.883 7.82 6.013 11.66M150.974 19.24c.418 4.365.326 8.726.69 13.101M254.095 54.56c-1.666 4.057-3.781 7.872-5.498 11.912M37.35 75.49c-.304.767-.087 1.156.206 1.873.273.67.42.65.94 1.013.37.258 1.5-.443 1.656-.815.212-.504.143-1.88-.487-2.145-.714-.3-1.905-.233-2.603.052m113.754-37.591c-.594.574-.555 1.018-.583 1.791-.026.723.117.766.442 1.31.23.387 1.548.213 1.843-.062.401-.372.904-1.655.438-2.156-.528-.567-1.641-.995-2.394-1.022m94.703 33.236c-.793.231-.965.642-1.351 1.313-.36.627-.254.732-.22 1.365.024.45 1.27.91 1.66.805.528-.143 1.571-1.043 1.393-1.704-.203-.747-.988-1.645-1.642-2.02"/></svg>