<svg xmlns="http://www.w3.org/2000/svg" width="99" height="140" fill="none" viewBox="0 0 99 140"><path fill="#242647" d="M7.753 22.92c-.591-.112-1.185.186-1.534.664l-.078.13a2 2 0 0 0-.365.536c-.214.462-.289 1.03-.306 1.537-.015.438.022.875.09 1.306q-.007.452.016.9c.027.456.159.93.434 1.3.375.501 1.043.787 1.658.64a2.02 2.02 0 0 0 1.41-1.194c.17-.393.206-.815.224-1.237a6 6 0 0 0 .106-.738c.079-.882.04-1.957-.36-2.766-.265-.538-.693-.964-1.295-1.077m27.219-.001c-.591-.112-1.185.186-1.534.664l-.078.13a2 2 0 0 0-.365.536c-.214.462-.289 1.03-.306 1.537-.015.438.022.875.09 1.306q-.007.452.016.9c.027.456.159.93.434 1.3.374.501 1.043.787 1.658.64a2.02 2.02 0 0 0 1.41-1.194c.17-.393.206-.815.224-1.237a6 6 0 0 0 .106-.738c.079-.882.039-1.957-.36-2.766-.265-.538-.694-.964-1.295-1.077M21.625 35.927c-.092-.792-.153-1.71-.562-2.407a1.62 1.62 0 0 0-1.253-.812c-.621-.061-1.213.297-1.56.804-.433.632-.683 1.404-.814 2.155a6 6 0 0 0 .065 2.354c.205.864.553 1.89 1.267 2.455.4.317 1.057.333 1.453-.009.156-.134.259-.3.334-.476.642-.29 1.053-.952 1.162-1.674.06-.392.025-.803.006-1.197q-.03-.597-.098-1.193"/><path fill="#242647" d="M97.78 81.453c-.776-1.8-3.009-2.597-4.82-2.232-2.26.456-3.904 2.547-5.004 4.45-.1.175-.156.353-.177.527-1.475-1.02-2.68-2.37-3.835-3.735-1.287-1.52-2.568-3.04-3.908-4.511-2.78-3.053-5.706-5.968-8.706-8.797-3.147-2.968-6.376-5.837-9.759-8.522 9.472-5.927 15.626-15.431 15.626-26.13C77.197 14.582 59.931 0 38.708 0S.22 14.582.22 32.504c0 15.4 12.753 28.326 29.807 31.659-.837 1.965-1.25 4.24-1.81 6.24q-1.1 3.908-2.188 7.82a1632 1632 0 0 1-4.056 14.42c-2.435-1.338-5.091-2.365-7.871-1.405-2.613.903-4.33 3.858-3.13 6.55 1.387 3.112 5.484 2.487 8.11 1.773 2.566-.697 6.214-3.23 4.964-6.406 1.246-4.729 2.529-9.448 3.816-14.167a2534 2534 0 0 0 2.07-7.64c.354-1.308.715-2.615 1.06-3.926.209-.8.453-1.63.62-2.467-.392 4.17-.515 8.38-.728 12.558-.233 4.593-.473 9.185-.745 13.776-.224 3.757 0 7.37 2.756 10.177 2.28 2.325 5.418 3.554 8.522 4.271.745.173 1.547.32 2.392.442-.298 4.541.017 9.127.18 13.677q.197 5.46.401 10.92a18.3 18.3 0 0 0-8.085-1.469c-2.273.103-5.898.54-6.78 3.124-.407 1.191.109 2.478 1.046 3.248 1.166.961 2.652.997 4.084.951a129 129 0 0 0 11.176-.863c.655-.079.986-.7.959-1.307-.218-4.904-.42-9.808-.633-14.712-.194-4.463-.245-8.972-.873-13.391 4.838.49 10.788.164 16.072-1.313 1.467 4.924 3.479 9.699 5.322 14.485q2.55 6.623 5.12 13.236a21.4 21.4 0 0 0-8.534-.53c-2.447.348-7.86 1.323-7.7 4.784.083 1.788 1.71 2.389 3.2 2.648 1.786.31 3.611.387 5.421.299 3.761-.183 7.456-1.262 10.757-3.086.907-.501.746-1.704.113-2.141a1.2 1.2 0 0 0-.078-.485c-2.03-5.15-4.086-10.291-6.142-15.432-1.904-4.762-3.665-9.648-5.936-14.25 7.944-2.64 13.86-8.103 11.107-17.62-.677-2.343-1.724-4.548-2.735-6.756l-3.21-7.015c-1.764-3.853-3.507-7.722-5.317-11.555 2.632 2.581 5.333 5.088 7.962 7.675 3.71 3.65 7.278 7.455 10.546 11.516 2.556 3.177 5.432 6.959 9.827 7.223 1.773.107 3.68-.333 5.07-1.5 1.408-1.189 2.42-3.264 1.632-5.087M21.304 95.936c-.8.862-1.957 1.301-3.07 1.56-1.481.345-4.792 1.185-5.35-.94-.52-1.974 1.374-3.255 3.07-3.407 2.103-.187 4.112.935 5.91 1.946a3.5 3.5 0 0 1-.56.841m16.121 38.208c-1.289.08-2.601.211-3.892.177-.727-.02-2.625-.383-1.866-1.531.51-.773 1.78-1.008 2.604-1.169a15.5 15.5 0 0 1 3.505-.297c2.351.076 4.599.679 6.699 1.725l.019.53c-2.353.221-4.71.418-7.069.565m28.591 3.211a22.2 22.2 0 0 1-6.237-.003c-.328-.047-1.69-.081-1.814-.449-.089-.262.812-.822.975-.913.544-.303 1.18-.496 1.772-.679 1.414-.44 2.89-.69 4.365-.789 2.481-.167 4.97.184 7.322.978a23.3 23.3 0 0 1-6.383 1.855M2.771 32.503c0-16.498 16.121-29.921 35.937-29.921 19.817 0 35.938 13.422 35.938 29.92 0 16.5-16.121 29.921-35.938 29.921-19.816 0-35.937-13.422-35.937-29.92m67.363 50.454c1.588 3.428 3.334 7.458 2.09 11.282-.955 2.935-3.369 5.052-5.986 6.482-6.466 3.531-14.635 4.247-21.81 3.249-3.06-.425-6.231-1.205-8.78-3.057-1.163-.847-2.2-1.889-2.826-3.21-.825-1.74-.854-3.689-.8-5.58.137-4.73.365-9.456.574-14.183.194-4.419.486-8.858.476-13.284a46 46 0 0 0 5.637.351c7.595 0 14.678-1.874 20.649-5.095 3.448 7.747 7.21 15.352 10.776 23.045m25.36.52c-.932 2.186-3.503 2.351-5.616 1.724l.025-.03c.889-1.272 1.8-3.076 3.411-3.523 1.202-.332 2.793.397 2.18 1.83"/></svg>