<svg xmlns="http://www.w3.org/2000/svg" width="32" height="32" viewBox="0 0 32 32"><path fill="#ffd3da" d="M21.879 31.573c-1.328.256-2.825-.364-3.329-2.076a2.88 2.88 0 0 1 .346-2.269c.13-.295.271-.584.399-.861.497-1.085-.243-1.467-.909-1.489L9.465 26.56l-1.682-8.921c-.263-.611-.888-1.162-1.718-.304-.212.22-.429.457-.657.685a2.88 2.88 0 0 1-1.988 1.148c-1.779.154-2.902-1.014-3.146-2.344C.018 15.496.638 14 2.351 13.495a2.88 2.88 0 0 1 2.269.346c.295.13.584.271.861.399 1.085.497 1.467-.243 1.489-.909l-1.682-8.92 8.92-1.682c.665.023 1.406.404.909 1.489-.128.278-.269.566-.399.861a2.9 2.9 0 0 0-.346 2.269c.505 1.712 2.002 2.333 3.329 2.076 1.33-.245 2.498-1.368 2.344-3.146a2.9 2.9 0 0 0-1.148-1.988c-.228-.228-.465-.445-.685-.657-.858-.829-.308-1.455.304-1.718l8.92-1.682 4.177 22.149-8.92 1.682c-.611.263-1.162.889-.304 1.718.22.212.457.429.685.657a2.88 2.88 0 0 1 1.148 1.988c.154 1.779-1.014 2.902-2.344 3.146z"/><path fill="none" stroke="#fff" stroke-miterlimit="10" stroke-width="0.3721" d="M21.879 31.573c-1.328.256-2.825-.364-3.329-2.076a2.88 2.88 0 0 1 .346-2.269c.13-.295.271-.584.399-.861.497-1.085-.243-1.467-.909-1.489L9.465 26.56l-1.682-8.921c-.263-.611-.888-1.162-1.718-.304-.212.22-.429.457-.657.685a2.88 2.88 0 0 1-1.988 1.148c-1.779.154-2.902-1.014-3.146-2.344C.018 15.496.638 14 2.351 13.495a2.88 2.88 0 0 1 2.269.346c.295.13.584.271.861.399 1.085.497 1.467-.243 1.489-.909l-1.682-8.92 8.92-1.682c.665.023 1.406.404.909 1.489-.128.278-.269.566-.399.861a2.9 2.9 0 0 0-.346 2.269c.505 1.712 2.002 2.333 3.329 2.076 1.33-.245 2.498-1.368 2.344-3.146a2.9 2.9 0 0 0-1.148-1.988c-.228-.228-.465-.445-.685-.657-.858-.829-.308-1.455.304-1.718l8.92-1.682 4.177 22.149-8.92 1.682c-.611.263-1.162.889-.304 1.718.22.212.457.429.685.657a2.88 2.88 0 0 1 1.148 1.988c.154 1.779-1.014 2.902-2.344 3.146z"/></svg>