<svg xmlns="http://www.w3.org/2000/svg" width="32" height="32" viewBox="0 0 32 32"><path fill="#b1c7ef" d="M28.954 28.554c.929-.95 1.232-2.514.101-3.854a2.83 2.83 0 0 0-2.048-.944c-.312-.054-.625-.094-.922-.139-1.159-.179-1.071-.993-.729-1.551l6.211-6.407L15.672.251 9.461 6.658c-.342.558-.43 1.372.729 1.551.297.045.61.085.922.139a2.83 2.83 0 0 1 2.048.944c1.13 1.34.828 2.904-.101 3.854-.921.959-2.475 1.309-3.849.221a2.83 2.83 0 0 1-1.007-2.017c-.063-.31-.113-.622-.168-.917-.215-1.152-1.026-1.039-1.573-.68L.251 16.16l6.401 6.205c.558.341 1.371.429 1.552-.73.046-.297.086-.61.14-.922.012-.749.35-1.523.946-2.049 1.341-1.132 2.905-.831 3.854.098.958.92 1.307 2.474.218 3.849a2.84 2.84 0 0 1-2.018 1.009c-.311.064-.622.114-.917.169-1.153.216-1.04 1.027-.682 1.574l6.401 6.205 6.211-6.407c.547-.359 1.358-.472 1.573.68.055.295.104.607.168.917a2.83 2.83 0 0 0 1.007 2.017c1.375 1.088 2.928.738 3.849-.221"/><path fill="none" stroke="#fff" stroke-miterlimit="10" stroke-width="0.3351" d="M28.954 28.554c.929-.95 1.232-2.514.101-3.854a2.83 2.83 0 0 0-2.048-.944c-.312-.054-.625-.094-.922-.139-1.159-.179-1.071-.993-.729-1.551l6.211-6.407L15.672.251 9.461 6.658c-.342.558-.43 1.372.729 1.551.297.045.61.085.922.139a2.83 2.83 0 0 1 2.048.944c1.13 1.34.828 2.904-.101 3.854-.921.959-2.475 1.309-3.849.221a2.83 2.83 0 0 1-1.007-2.017c-.063-.31-.113-.622-.168-.917-.215-1.152-1.026-1.039-1.573-.68L.251 16.16l6.401 6.205c.558.341 1.371.429 1.552-.73.046-.297.086-.61.14-.922.012-.749.35-1.523.946-2.049 1.341-1.132 2.905-.831 3.854.098.958.92 1.307 2.474.218 3.849a2.84 2.84 0 0 1-2.018 1.009c-.311.064-.622.114-.917.169-1.153.216-1.04 1.027-.682 1.574l6.401 6.205 6.211-6.407c.547-.359 1.358-.472 1.573.68.055.295.104.607.168.917a2.83 2.83 0 0 0 1.007 2.017c1.375 1.088 2.928.738 3.849-.221z"/></svg>