<svg xmlns="http://www.w3.org/2000/svg" width="32" height="32" viewBox="0 0 32 32"><path fill="#b8e2c8" d="M.21 20.926c-.146-1.372.613-2.841 2.398-3.207a2.94 2.94 0 0 1 2.278.547c.289.157.57.326.842.479 1.061.599 1.512-.121 1.593-.796l-.944-9.216 9.216-.944c.644-.215 1.258-.804.457-1.721-.206-.235-.428-.476-.64-.727a2.94 2.94 0 0 1-.997-2.12C14.41 1.399 15.694.358 17.067.223c1.372-.146 2.841.613 3.207 2.398a2.94 2.94 0 0 1-.547 2.278c-.157.289-.326.57-.479.842-.599 1.061.121 1.512.796 1.593l9.216-.944.944 9.215c-.08.674-.532 1.395-1.593.796-.271-.154-.552-.322-.842-.479a2.94 2.94 0 0 0-2.278-.547c-1.784.366-2.544 1.835-2.398 3.207.134 1.373 1.176 2.658 2.998 2.654a2.94 2.94 0 0 0 2.12-.997c.251-.212.492-.434.727-.64.917-.801 1.506-.188 1.721.457l.944 9.215-22.882 2.343-.944-9.215c-.215-.644-.804-1.258-1.721-.457-.235.206-.476.428-.727.64a2.94 2.94 0 0 1-2.12.997c-1.822.003-2.863-1.281-2.998-2.654z"/><path fill="none" stroke="#fff" stroke-miterlimit="10" stroke-width="0.3606" d="M.21 20.926c-.146-1.372.613-2.841 2.398-3.207a2.94 2.94 0 0 1 2.278.547c.289.157.57.326.842.479 1.061.599 1.512-.121 1.593-.796l-.944-9.216 9.216-.944c.644-.215 1.258-.804.457-1.721-.206-.235-.428-.476-.64-.727a2.94 2.94 0 0 1-.997-2.12C14.41 1.399 15.694.358 17.067.223c1.372-.146 2.841.613 3.207 2.398a2.94 2.94 0 0 1-.547 2.278c-.157.289-.326.57-.479.842-.599 1.061.121 1.512.796 1.593l9.216-.944.944 9.215c-.08.674-.532 1.395-1.593.796-.271-.154-.552-.322-.842-.479a2.94 2.94 0 0 0-2.278-.547c-1.784.366-2.544 1.835-2.398 3.207.134 1.373 1.176 2.658 2.998 2.654a2.94 2.94 0 0 0 2.12-.997c.251-.212.492-.434.727-.64.917-.801 1.506-.188 1.721.457l.944 9.215-22.882 2.343-.944-9.215c-.215-.644-.804-1.258-1.721-.457-.235.206-.476.428-.727.64a2.94 2.94 0 0 1-2.12.997c-1.822.003-2.863-1.281-2.998-2.654z"/></svg>