<svg xmlns="http://www.w3.org/2000/svg" width="31" height="32" viewBox="0 0 31 32"><path fill="#bdadea" d="M14.156 31.196c-1.249-.233-2.339-1.33-2.182-3.078a2.9 2.9 0 0 1 1.094-1.96c.216-.225.44-.44.649-.65.813-.82.299-1.431-.273-1.686L5.069 22.22l1.645-8.775c-.017-.653-.37-1.379-1.394-.884-.262.127-.534.268-.813.397a2.63 2.63 0 0 1-2.136.353C.764 12.825.192 11.358.442 10.052.682 8.744 1.746 7.59 3.417 7.73a2.65 2.65 0 0 1 1.861 1.117c.213.223.415.454.613.669.774.838 1.366.294 1.617-.308L9.153.433l8.375 1.602c.573.255 1.086.866.273 1.687-.209.21-.433.424-.649.65a2.9 2.9 0 0 0-1.094 1.96c-.157 1.748.933 2.845 2.182 3.078 1.247.244 2.659-.374 3.145-2.059a2.92 2.92 0 0 0-.309-2.228c-.12-.29-.251-.572-.369-.844-.46-1.063.239-1.443.865-1.469l8.375 1.602L25.863 26.2l-8.375-1.602c-.626.026-1.325.405-.865 1.469.118.272.249.555.369.844.381.629.514 1.46.309 2.228-.486 1.686-1.898 2.304-3.145 2.059z"/><path fill="none" stroke="#fff" stroke-miterlimit="10" stroke-width="0.5854" d="M14.156 31.196c-1.249-.233-2.339-1.33-2.182-3.078a2.9 2.9 0 0 1 1.094-1.96c.216-.225.44-.44.649-.65.813-.82.299-1.431-.273-1.686L5.069 22.22l1.645-8.775c-.017-.653-.37-1.379-1.394-.884-.262.127-.534.268-.813.397a2.63 2.63 0 0 1-2.136.353C.764 12.825.192 11.358.442 10.052.682 8.744 1.746 7.59 3.417 7.73a2.65 2.65 0 0 1 1.861 1.117c.213.223.415.454.613.669.774.838 1.366.294 1.617-.308L9.153.433l8.375 1.602c.573.255 1.086.866.273 1.687-.209.21-.433.424-.649.65a2.9 2.9 0 0 0-1.094 1.96c-.157 1.748.933 2.845 2.182 3.078 1.247.244 2.659-.374 3.145-2.059a2.92 2.92 0 0 0-.309-2.228c-.12-.29-.251-.572-.369-.844-.46-1.063.239-1.443.865-1.469l8.375 1.602L25.863 26.2l-8.375-1.602c-.626.026-1.325.405-.865 1.469.118.272.249.555.369.844.381.629.514 1.46.309 2.228-.486 1.686-1.898 2.304-3.145 2.059z"/></svg>