<svg xmlns="http://www.w3.org/2000/svg" width="32" height="32" viewBox="0 0 32 32"><path fill="#ffd3da" d="M20.283 31.17c-1.362.096-2.787-.708-3.084-2.485a2.9 2.9 0 0 1 .622-2.232c.166-.28.342-.552.504-.815.63-1.027-.066-1.5-.73-1.603l-9.145.603-.602-9.145c-.19-.645-.749-1.272-1.685-.513-.239.195-.486.406-.742.607a2.9 2.9 0 0 1-2.131.91C1.489 16.435.505 15.128.421 13.765c-.096-1.362.708-2.787 2.485-3.084a2.9 2.9 0 0 1 2.232.622c.28.166.552.342.815.504 1.027.63 1.5-.066 1.603-.73l-.602-9.145 9.144-.602c.664.104 1.36.576.73 1.603-.162.263-.338.535-.504.815a2.9 2.9 0 0 0-.622 2.232c.298 1.777 1.723 2.581 3.085 2.485 1.363-.084 2.67-1.068 2.732-2.869a2.9 2.9 0 0 0-.91-2.131c-.201-.256-.412-.502-.607-.742-.759-.936-.131-1.495.513-1.685l9.144-.602 1.496 22.705-9.144.603c-.645.19-1.272.749-.513 1.685.195.239.406.486.607.742a2.9 2.9 0 0 1 .91 2.131c-.062 1.801-1.369 2.785-2.731 2.869z"/><path fill="none" stroke="#fff" stroke-miterlimit="10" stroke-width="0.6531" d="M20.283 31.17c-1.362.096-2.787-.708-3.084-2.485a2.9 2.9 0 0 1 .622-2.232c.166-.28.342-.552.504-.815.63-1.027-.066-1.5-.73-1.603l-9.145.603-.602-9.145c-.19-.645-.749-1.272-1.685-.513-.239.195-.486.406-.742.607a2.9 2.9 0 0 1-2.131.91C1.489 16.435.505 15.128.421 13.765c-.096-1.362.708-2.787 2.485-3.084a2.9 2.9 0 0 1 2.232.622c.28.166.552.342.815.504 1.027.63 1.5-.066 1.603-.73l-.602-9.145 9.144-.602c.664.104 1.36.576.73 1.603-.162.263-.338.535-.504.815a2.9 2.9 0 0 0-.622 2.232c.298 1.777 1.723 2.581 3.085 2.485 1.363-.084 2.67-1.068 2.732-2.869a2.9 2.9 0 0 0-.91-2.131c-.201-.256-.412-.502-.607-.742-.759-.936-.131-1.495.513-1.685l9.144-.602 1.496 22.705-9.144.603c-.645.19-1.272.749-.513 1.685.195.239.406.486.607.742a2.9 2.9 0 0 1 .91 2.131c-.062 1.801-1.369 2.785-2.731 2.869z"/></svg>