<svg xmlns="http://www.w3.org/2000/svg" width="29" height="32" viewBox="0 0 29 32"><path fill="#b1c7ef" d="M12.79.481c-1.546.11-3.028 1.112-3.099 2.9-.012.81.393 1.587 1.031 2.096.228.25.467.49.688.724.861.913.149 1.481-.582 1.682L.456 8.664l1.693 22.492 10.372-.781c.731-.201 1.443-.769.582-1.682-.221-.233-.46-.474-.688-.724-.638-.509-1.043-1.286-1.031-2.096.071-1.788 1.553-2.79 3.099-2.9 1.545-.122 3.161.646 3.498 2.404.133.799-.151 1.628-.706 2.227-.188.281-.388.554-.572.818-.715 1.031.074 1.486.827 1.576l10.372-.781-.682-9.058c-.215-.635-.85-1.247-1.911-.475-.272.198-.551.412-.841.617-.595.569-1.492.939-2.418.945-2.043-.025-3.159-1.302-3.253-2.652-.109-1.349.804-2.779 2.819-3.109.917-.133 1.858.099 2.532.572.318.159.626.328.924.484 1.165.604 1.701-.095 1.818-.756l-.682-9.058-10.372.781c-.753-.089-1.542-.544-.827-1.575.184-.264.384-.537.572-.818.555-.599.839-1.428.706-2.227C15.95 1.131 14.334.362 12.789.484z"/><path fill="none" stroke="#fff" stroke-miterlimit="10" stroke-width="0.7529" d="M12.79.481c-1.546.11-3.028 1.112-3.099 2.9-.012.81.393 1.587 1.031 2.096.228.25.467.49.688.724.861.913.149 1.481-.582 1.682L.456 8.664l1.693 22.492 10.372-.781c.731-.201 1.443-.769.582-1.682-.221-.233-.46-.474-.688-.724-.638-.509-1.043-1.286-1.031-2.096.071-1.788 1.553-2.79 3.099-2.9 1.545-.122 3.161.646 3.498 2.404.133.799-.151 1.628-.706 2.227-.188.281-.388.554-.572.818-.715 1.031.074 1.486.827 1.576l10.372-.781-.682-9.058c-.215-.635-.85-1.247-1.911-.475-.272.198-.551.412-.841.617-.595.569-1.492.939-2.418.945-2.043-.025-3.159-1.302-3.253-2.652-.109-1.349.804-2.779 2.819-3.109.917-.133 1.858.099 2.532.572.318.159.626.328.924.484 1.165.604 1.701-.095 1.818-.756l-.682-9.058-10.372.781c-.753-.089-1.542-.544-.827-1.575.184-.264.384-.537.572-.818.555-.599.839-1.428.706-2.227C15.95 1.131 14.334.362 12.789.484z"/></svg>