<svg xmlns="http://www.w3.org/2000/svg" width="29" height="32" viewBox="0 0 29 32"><path fill="#bdadea" d="M7.981 31.407c1.233.486 2.786.16 3.579-1.396a2.82 2.82 0 0 0 .075-2.245c-.072-.308-.156-.61-.229-.9-.284-1.133.498-1.367 1.143-1.268l8.289 3.228 8.001-20.548L20.55 5.05c-.645-.098-1.426.135-1.143 1.269.073.29.157.593.229.9.28.692.269 1.532-.075 2.245-.794 1.556-2.347 1.883-3.58 1.396-1.237-.475-2.16-1.767-1.693-3.449a2.8 2.8 0 0 1 1.463-1.704c.261-.178.528-.344.778-.508.975-.643.557-1.344.016-1.707L8.256.264 5.033 8.54c-.098.644.137 1.425 1.271 1.143.29-.073.593-.157.901-.228a2.83 2.83 0 0 1 2.248.077c1.559.794 1.887 2.346 1.402 3.577-.475 1.235-1.766 2.156-3.451 1.687a2.83 2.83 0 0 1-1.708-1.463c-.179-.261-.345-.527-.51-.777-.645-.975-1.346-.558-1.709-.018L.255 20.814l8.289 3.228c.541.364.959 1.064-.016 1.707-.25.164-.517.33-.778.508a2.82 2.82 0 0 0-1.463 1.704c-.468 1.683.456 2.974 1.693 3.449z"/><path fill="none" stroke="#fff" stroke-miterlimit="10" stroke-width="0.3488" d="M7.981 31.407c1.233.486 2.786.16 3.579-1.396a2.82 2.82 0 0 0 .075-2.245c-.072-.308-.156-.61-.229-.9-.284-1.133.498-1.367 1.143-1.268l8.289 3.228 8.001-20.548L20.55 5.05c-.645-.098-1.426.135-1.143 1.269.073.29.157.593.229.9.28.692.269 1.532-.075 2.245-.794 1.556-2.347 1.883-3.58 1.396-1.237-.475-2.16-1.767-1.693-3.449a2.8 2.8 0 0 1 1.463-1.704c.261-.178.528-.344.778-.508.975-.643.557-1.344.016-1.707L8.256.264 5.033 8.54c-.098.644.137 1.425 1.271 1.143.29-.073.593-.157.901-.228a2.83 2.83 0 0 1 2.248.077c1.559.794 1.887 2.346 1.402 3.577-.475 1.235-1.766 2.156-3.451 1.687a2.83 2.83 0 0 1-1.708-1.463c-.179-.261-.345-.527-.51-.777-.645-.975-1.346-.558-1.709-.018L.255 20.814l8.289 3.228c.541.364.959 1.064-.016 1.707-.25.164-.517.33-.778.508a2.82 2.82 0 0 0-1.463 1.704c-.468 1.683.456 2.974 1.693 3.449z"/></svg>