<svg xmlns="http://www.w3.org/2000/svg" width="31" height="32" viewBox="0 0 31 32"><path fill="#b8e2c8" d="M5.75.788c1.045-.629 2.539-.511 3.565.897.452.647.621 1.461.494 2.168-.008.307-.028.612-.041.903-.047 1.136.718 1.262 1.294 1.084l7.033-4.191 4.539 7.616c.437.478 1.163.792 1.573-.236.105-.264.208-.544.323-.819a2.48 2.48 0 0 1 1.298-1.638c1.465-.67 2.831.058 3.502 1.195.681 1.132.671 2.679-.616 3.649a2.48 2.48 0 0 1-2.058.362c-.297-.03-.593-.072-.874-.106-1.099-.129-1.168.659-.956 1.271l4.539 7.616-7.033 4.191c-.576.178-1.341.051-1.294-1.085.013-.291.033-.595.041-.903a2.96 2.96 0 0 0-.494-2.168c-1.026-1.408-2.521-1.526-3.565-.897-1.051.619-1.658 1.99-.908 3.562.354.706.99 1.241 1.672 1.466.274.139.552.266.813.394 1.021.499.768 1.232.338 1.654l-7.033 4.191L.633 12.054l7.033-4.191c.43-.422.683-1.155-.338-1.654-.262-.127-.539-.254-.813-.394a2.96 2.96 0 0 1-1.672-1.466c-.75-1.573-.143-2.943.908-3.562z"/><path fill="none" stroke="#fff" stroke-miterlimit="10" stroke-width="0.795" d="M5.75.788c1.045-.629 2.539-.511 3.565.897.452.647.621 1.461.494 2.168-.008.307-.028.612-.041.903-.047 1.136.718 1.262 1.294 1.084l7.033-4.191 4.539 7.616c.437.478 1.163.792 1.573-.236.105-.264.208-.544.323-.819a2.48 2.48 0 0 1 1.298-1.638c1.465-.67 2.831.058 3.502 1.195.681 1.132.671 2.679-.616 3.649a2.48 2.48 0 0 1-2.058.362c-.297-.03-.593-.072-.874-.106-1.099-.129-1.168.659-.956 1.271l4.539 7.616-7.033 4.191c-.576.178-1.341.051-1.294-1.085.013-.291.033-.595.041-.903a2.96 2.96 0 0 0-.494-2.168c-1.026-1.408-2.521-1.526-3.565-.897-1.051.619-1.658 1.99-.908 3.562.354.706.99 1.241 1.672 1.466.274.139.552.266.813.394 1.021.499.768 1.232.338 1.654l-7.033 4.191L.633 12.054l7.033-4.191c.43-.422.683-1.155-.338-1.654-.262-.127-.539-.254-.813-.394a2.96 2.96 0 0 1-1.672-1.466c-.75-1.573-.143-2.943.908-3.562z"/></svg>