<svg xmlns="http://www.w3.org/2000/svg" width="32" height="32" viewBox="0 0 32 32"><path fill="#ffaaea" d="M19.63 31.598.243 19.721l4.806-7.845c.469-.485 1.257-.782 1.73.327.121.284.24.586.373.884a2.9 2.9 0 0 0 1.461 1.798c1.622.782 3.103.077 3.814-1.094.721-1.165.676-2.805-.757-3.895a2.9 2.9 0 0 0-2.266-.484c-.325.017-.648.048-.956.069-1.203.082-1.296-.755-1.077-1.393L12.177.244l7.808 4.783c.482.468.775 1.257-.333 1.735-.284.122-.586.243-.883.377a2.93 2.93 0 0 0-1.801 1.471c-.787 1.629-.09 3.11 1.076 3.818 1.16.718 2.796.666 3.89-.775a2.93 2.93 0 0 0 .493-2.272c-.016-.326-.045-.649-.065-.958-.077-1.205.759-1.302 1.395-1.085l7.808 4.783-11.932 19.478z"/><path fill="none" stroke="#fff" stroke-miterlimit="10" stroke-width="0.3241" d="M19.63 31.598.243 19.721l4.806-7.845c.469-.485 1.257-.782 1.73.327.121.284.24.586.373.884a2.9 2.9 0 0 0 1.461 1.798c1.622.782 3.103.077 3.814-1.094.721-1.165.676-2.805-.757-3.895a2.9 2.9 0 0 0-2.266-.484c-.325.017-.648.048-.956.069-1.203.082-1.296-.755-1.077-1.393L12.177.244l7.808 4.783c.482.468.775 1.257-.333 1.735-.284.122-.586.243-.883.377a2.93 2.93 0 0 0-1.801 1.471c-.787 1.629-.09 3.11 1.076 3.818 1.16.718 2.796.666 3.89-.775a2.93 2.93 0 0 0 .493-2.272c-.016-.326-.045-.649-.065-.958-.077-1.205.759-1.302 1.395-1.085l7.808 4.783-11.932 19.478z"/></svg>