<svg xmlns="http://www.w3.org/2000/svg" width="34" height="32" viewBox="0 0 34 32"><path fill="#ffaaea" d="M.557 29.47 2.06.509l12.559.645c.889.233 1.763.938.745 2.141-.262.308-.545.624-.814.954-.759.676-1.23 1.689-1.196 2.729.128 2.295 1.946 3.531 3.817 3.62 1.87.104 3.806-.94 4.171-3.21.142-1.031-.222-2.087-.907-2.837-.234-.355-.483-.699-.711-1.032-.889-1.301.054-1.912.962-2.053l12.559.645-.605 11.664c-.245.824-.997 1.632-2.299.677-.333-.245-.676-.51-1.032-.763-.733-.71-1.826-1.155-2.946-1.131-2.469.103-3.787 1.783-3.869 3.521-.099 1.737 1.039 3.543 3.484 3.898 1.111.139 2.245-.192 3.047-.823.381-.215.749-.444 1.106-.654 1.394-.817 2.059.064 2.217.909l-.605 11.664L.559 29.472z"/><path fill="none" stroke="#fff" stroke-miterlimit="10" stroke-width="0.8889" d="M.557 29.47 2.06.509l12.559.645c.889.233 1.763.938.745 2.141-.262.308-.545.624-.814.954-.759.676-1.23 1.689-1.196 2.729.128 2.295 1.946 3.531 3.817 3.62 1.87.104 3.806-.94 4.171-3.21.142-1.031-.222-2.087-.907-2.837-.234-.355-.483-.699-.711-1.032-.889-1.301.054-1.912.962-2.053l12.559.645-.605 11.664c-.245.824-.997 1.632-2.299.677-.333-.245-.676-.51-1.032-.763-.733-.71-1.826-1.155-2.946-1.131-2.469.103-3.787 1.783-3.869 3.521-.099 1.737 1.039 3.543 3.484 3.898 1.111.139 2.245-.192 3.047-.823.381-.215.749-.444 1.106-.654 1.394-.817 2.059.064 2.217.909l-.605 11.664L.559 29.472z"/></svg>