<svg xmlns="http://www.w3.org/2000/svg" width="305" height="360" fill="none" viewBox="0 0 305 360"><path stroke="#8A9ACE" stroke-linecap="round" d="M245.784 4.17c6.991.298 13.864 2.698 20.794 3.55 10.438 1.285 20.95 3.712 31.327 5.57 2.913.522 9.692 1.147 3.303 2.124-7.339 1.122-14.465 2.224-21.869 2.977-9.499.965-19.122 1.097-28.598 2.362-.976.13-5.494.182-6.33.983-.201.192 4.015.97 4.407 1.032 14.428 2.276 28.919 5.065 43.187 8.092 4.689.994-2.645 1.506-4.449 1.944-7.617 1.85-16.423 2.518-24.252 2.735-3.678.102-7.352.454-11.026.501-2.984.038-5.765 1.098-8.718 1.122-2.449.02-6.565.53-1.342.604 7.223.103 14.597 1.603 21.756 2.49 4.274.53 8.582.468 12.864.98.295.035 6.173.41 3.631 1.298-5.101 1.781-10.816 2.343-16.085 3.405-4.253.858-11.273 1.834-14.836 4.393m12.294 260.083c3.909 2.779 6.943 6.725 10.603 9.801 5.514 4.634 10.631 9.953 15.889 14.894 1.476 1.387 5.137 4.277 1.086 2.454-4.653-2.093-9.175-4.119-13.724-6.449-5.836-2.99-11.424-6.505-17.361-9.314-.612-.29-3.231-1.946-4.019-1.797-.189.036 1.938 2.056 2.14 2.238 7.429 6.693 14.697 13.705 21.745 20.77 2.317 2.322-2.099-.121-3.305-.542-5.092-1.779-10.415-4.68-15.003-7.477-2.156-1.314-4.404-2.483-6.536-3.827-1.732-1.092-3.738-1.52-5.447-2.608-1.417-.903-3.98-2.146-1.004-.154 4.117 2.755 7.785 6.369 11.563 9.551 2.256 1.901 4.759 3.472 7.026 5.364.157.131 3.395 2.54 1.592 2.102-3.618-.879-7.122-2.689-10.561-4.044-2.776-1.094-7.19-3.152-10.221-3.011M3.744 272.156c2.608-2.842 6.087-4.888 8.915-7.507 4.26-3.946 9.04-7.517 13.526-11.233 1.26-1.043 3.936-3.68 2.093-.639-2.118 3.494-4.168 6.89-6.468 10.279-2.952 4.348-6.308 8.453-9.122 12.898-.29.458-1.87 2.381-1.82 3.018.013.153 1.845-1.348 2.011-1.492 6.105-5.276 12.454-10.396 18.827-15.338 2.095-1.624-.285 1.651-.736 2.567-1.9 3.869-4.734 7.819-7.417 11.198-1.261 1.587-2.412 3.261-3.695 4.827-1.042 1.272-1.57 2.821-2.607 4.075-.86 1.039-2.099 2.956-.214.78 2.607-3.009 5.873-5.586 8.797-8.29 1.747-1.614 3.247-3.453 4.988-5.077.12-.112 2.368-2.457 1.85-1.07-1.037 2.784-2.82 5.393-4.23 7.992-1.137 2.098-3.204 5.405-3.359 7.816"/></svg>