<svg xmlns="http://www.w3.org/2000/svg" width="118" height="55" fill="none" viewBox="0 0 118 55"><path stroke="#8A9ACE" stroke-linecap="round" d="M35.795 39.127c0-3.989 9.114-3.603 11.792-3.603 4.796 0 8.818.236 13.101 2.439 2.379 1.223 4.402 5.21 4.586 7.788.204 2.854.655 5.526.655 8.443"/><path stroke="#8A9ACE" stroke-linecap="round" d="M34.485 30.283c2.299-.23 4.585-.77 6.897-1 2.76-.277 5.456-.31 8.243-.31 5.732 0 12.521.838 17.614 3.603 3.015 1.636 4.513 6.586 5.823 9.499 1.084 2.408 1.056 5.92 1.056 8.516"/><path stroke="#8A9ACE" stroke-linecap="round" d="M35.467 23.078c.194-1.553 6.833-1.992 7.88-2.13 3.136-.412 6.456-.49 9.625-.49 3.733 0 7.418-.02 11.137.327 3.286.305 6.29 2 9.007 3.766 3.836 2.494 5.575 7.788 6.733 11.956 1.043 3.756 1.801 7.53 1.801 11.464m-39.407-4.827c1.162-.129 2.393-.334 3.575-.49 2.071-.271 3.799-.01 5.828.27 2.844.392 6.905 3.39 6.905 6.611m-12.561-.661c-.87 2.104-1.047 3.752 1.445 4.358 2.121.516 4.177-.458 4.064-2.816-.074-1.551-1.664-1.966-2.864-2.155-.744-.116-1.735-.183-2.425.172-.917.471-1.226 1.377-1.983 1.983m64.877-14.694c.272-.407 1.465-2.717 1.95-2.856.233-.066.527 2.055.527 2.34 0 .717.489.435 1.033.677.258.115 2.103.47 2.018.665-.307.703-3.591-.188-2.741 1.342.235.423.49 1.282.516 1.755.057 1.023-.188.43-.826-.207-.412-.412-.801-.686-1.33-.837-.545-.156-.549-1.02-1.273-1.02-.938 0-1.685.619-2.558.619-.604 0-1.118.333-.413-.413.726-.768.62-1.757.62-2.787 0-1.731 3.096 1.814 3.096.722M3.448 13.485c.685-.686 1.204-1.44 1.838-2.15.1-.112.12-.718.406-.513.21.15.536.922.645 1.17.25.571.114 1.493.812 1.493.969 0 1.894.43 2.841.43.818 0-.103.562-.418.632-.731.163-1.816.162-2.471.49-.378.189 2.03 3.146 1.504 3.175-1.843.103-2.97-1.934-4.632-1.934-.744 0-1.502.044-2.245 0-.41-.024.545-.785.764-.847 1.786-.51-.09-2.036-.716-2.639-.285-.274-1.436-1.211-.25-.692 1.011.442 1.916.685 2.996.955m61.031-9.671c.638-.638.846-1.38 1.397-2.053.747-.913.809.268.955 1.074.225 1.236 1.874 1.624 2.973 1.624 1.169 0-.676.215-1.027.215-.697 0-2.364-.091-2.364.752 0 .628.24 1.22.383 1.826.164.698.575 1.655-.43.86-.734-.58-1.788-1.197-2.102-2.137-.178-.536-2.427-.227-2.889-.227-.617 0-2.455.215-1.838.215.654 0 1.365-.192 1.982-.382 1.954-.601-.252-2.17-.693-3.271-.337-.843.612-.017 1.075.215.676.338 1.39.644 2.149.644m44.909 4.725c.042-.337 2.223-2.433 2.72-2.17.653.342.676 1.323 1.237 1.62.364.193 1.078.055 1.483.055 2.738 0-.399 1.367-.686 1.978-.451.958 1.961 2.242-.605 1.292-1.07-.397-1.751-1.85-2.912-1.786-.437.024-2.207.806-2.171.742.244-.435.572-.908.879-1.292.352-.44-1.226-.978-1.483-1.236-1.759-1.76 1.255-.192 2.033-.192"/></svg>