<svg xmlns="http://www.w3.org/2000/svg" width="307" height="311" fill="none" viewBox="0 0 307 311"><path stroke="#8A9ACE" stroke-linecap="round" d="M42.729 87.15c-4.38-.298-8.85-.84-13.238-.9-1.336-.018-4.68.638-5.82-.25-2.712-2.109 1.499-8.797-1.624-10.44-3.687-1.941-8.585-.968-12.514-.575-1.89.189-2.772-.74-2.772-2.673m111.501-43.61c-.626-1.262-9.425-14.97-5.195-17.085 2.04-1.02 5.195-2.346 5.195-5.046V.826m74.633 22.481c1.641-4.575 2.313-8.882 3.497-13.488.755-2.937 2.862-2.248 5.495-2.248 1.527 0 3.566.36 5.046-.1 1.5-.465 2.694-1.336 4.296-1.599 2.582-.423 6.117-1.239 6.844-4.146M288 262.503c3.079 1.352 4.268 4.884 7.418 6.045 2.651.976 3.19 2.42 1.074 4.77-2.372 2.637-4.446 4.088-4.446 7.718 0 1.846.581 2.947 1.699 4.396.66.857 1.915 1.382 2.348 2.248m-57.339-7.203c1.246 2.748 2.36 5.106 4.396 7.294.83.89 1 1.898 1 3.047 0 2.446-1.134 4.594-1.699 6.994-.835 3.548.137 9.002 1.249 12.339m-121.392-22.48c-3.255 3.527-9.424 2.935-13.388 5.395-5.134 3.187-9.924 3.281-15.835 3.947-1.983.223-4.828-.14-6.495 1.224-1.12.917-1.03 2.586-1.598 3.821-.603 1.312-2.815 8.523-4.047 3.597m-38.665-45.41c-2.927 2.927-6.238 4.468-9.89 6.294-3.02 1.51-2.246 4.741-3.822 7.194-2.395 3.725-9.422 0-12.814 0m16.635-55.75c-4.781-.831-9.449-1.349-14.288-1.349-2.527 0-4.76.9-7.293.9-2.458 0-4.448-.055-6.295-1.799-1.007-.951-1.806-.899-3.147-.899M37.334 35.895c-3.014-2.647-5.752-4.534-8.892-6.744-1.529-1.076-3.805-2.436-3.697-4.496.126-2.377 2.257-3.605 1.699-6.394-.587-2.935-3.075-5.351-4.396-7.993m249.078 8.992c2.215-3.219 4.252-7.591 7.194-10.265 2-1.819 4.428-1.228 6.893-.924 3.611.443 12.032 3.33 14.463-.45.359-.559 1.095-.921 1.573-1.399M290 78c2.692-1.065 4.559-3.111 7.173-3.111.809 0 1.644-.19 2.38.346 1.129.821 1.447.605 1.447-1.235m-7 68.99h2.64c1.421 0 2.282 1.099 3.703.99 1.436-.111.99-1.98 2.566-1.98.93 0 1.691.33 2.64.33m-11.334 56.815c2.009.945 3.042 2.129 4.29 4.033.911 1.391.744 3.088 1.649 4.473.809 1.237 1.901 2.855 1.98 4.363.092 1.746-1.927 4.081-.33 5.279"/></svg>