<svg xmlns="http://www.w3.org/2000/svg" width="822" height="827" fill="none" viewBox="0 0 822 827"><path stroke="#8A9ACE" stroke-linecap="round" d="M6.773 310.054c8.497-9.659 19.909-16.686 29.141-25.607 13.907-13.438 29.556-25.643 44.224-38.321 4.118-3.559 12.848-12.531 6.893-2.243-6.841 11.819-13.464 23.307-20.915 34.785-9.56 14.726-20.472 28.653-29.57 43.696-.939 1.55-6.077 8.077-5.88 10.21.048.513 6.04-4.611 6.582-5.099 19.95-17.988 40.716-35.465 61.568-52.344 6.853-5.547-.867 5.548-2.314 8.644-6.105 13.066-15.295 26.452-24.014 37.912-4.097 5.384-7.825 11.053-11.996 16.367-3.388 4.316-5.06 9.536-8.432 13.791-2.796 3.529-6.806 10.016-.672 2.628 8.483-10.218 19.167-19.018 28.715-28.225 5.701-5.497 10.58-11.737 16.264-17.266.391-.381 7.717-8.355 6.072-3.678-3.301 9.385-9.082 18.223-13.62 27.007-3.663 7.091-10.346 18.281-10.746 26.375M657.506 1.636c19.668 2.605 38.463 11.225 57.817 15.41 29.153 6.307 58.219 15.914 87.05 23.853 8.094 2.229 27.081 5.724 8.785 6.93-21.016 1.386-41.423 2.768-62.528 3.075-27.076.395-54.288-1.637-81.374-.378-2.792.13-15.566-.854-18.131 1.238-.616.503 11.09 3.794 12.181 4.07 40.168 10.155 80.38 21.8 119.9 34.072 12.988 4.033-7.856 3.665-13.064 4.472-21.987 3.407-47.029 3.122-69.196 1.784-10.415-.629-20.88-.539-31.268-1.324-8.439-.638-16.565 1.71-24.912 1.04-6.921-.557-18.677-.124-3.945 1.398 20.374 2.106 40.816 8.263 60.807 12.608 11.937 2.595 24.119 3.492 36.082 6.037.824.176 17.329 2.725 9.923 4.64-14.863 3.841-31.15 4.022-46.303 5.755-12.232 1.399-32.308 2.446-43.027 8.904m40.769 628.441c8.964-5.114 19.454-7.471 28.784-11.833 14.055-6.57 29.109-11.752 43.542-17.547 4.052-1.627 13.014-6.159 5.814.095-8.271 7.183-16.29 14.173-24.935 20.94-11.091 8.68-23 16.403-33.825 25.444-1.116.932-6.716 4.545-7.121 6.215-.098.401 5.784-1.924 6.322-2.154 19.825-8.447 40.135-16.294 60.356-23.665 6.645-2.423-2.104 3.983-4.008 5.954-8.038 8.323-18.501 16.083-28.102 22.505-4.512 3.018-8.818 6.347-13.368 9.291-3.695 2.392-6.324 5.917-9.992 8.266-3.041 1.948-7.775 5.825-1.195 1.819 9.1-5.542 19.499-9.433 29.143-13.93 5.759-2.685 11.086-6.147 16.84-8.861.397-.187 8.033-4.328 5.566-1.208-4.951 6.26-11.64 11.459-17.373 16.941-4.628 4.425-12.615 11.173-15.028 17.21"/></svg>