<svg xmlns="http://www.w3.org/2000/svg" width="738" height="731" fill="none" viewBox="0 0 738 731"><path stroke="#8A9ACE" stroke-linecap="round" d="M24.312 328.862c-2.652-15.917-6.811-32.166-8.046-48.213-1.784-23.2-8.615-52.947 1.788-74.585 5.307-11.039 15.313-17.692 26.82-20.307 7.09-1.611 12.477 2.239 19.03 4.598 18.244 6.568 27.452-14.519 33.972-28.417 8.663-18.466 15.045-36.749 17.242-57.216 2.403-22.387 1.847-45.029 6.385-67.178 2.231-10.886 6.674-21.06 9.707-31.673M354.2 2.422c6.829-3.035 19.15-1.853 26.437-.638 5.855.976 11.655 3.526 16.028 7.535 8.87 8.13 16.422 18.057 26.501 24.777 15.963 10.642 37.198 12.55 55.811 13.729 25.292 1.6 50.714 3.25 75.863-.83 26.896-4.364 52.997-11.24 80.397-11.24 11.058 0 25.728-.967 34.419 7.408 14.282 13.763 28.76 31.674 50.064 31.674m17.242 173.564c-9.882 7.202-14.548 14.282-20.946 24.394-12.387 19.58-22.51 36.021-23.627 60.154-1.085 23.456 5.537 44.998 7.535 68.072.897 10.346 1.714 23.139-3.703 32.439-7.62 13.084-20.456 19.318-31.674 28.736-8.608 7.228-16.772 16.304-21.839 26.437-8.019 16.038-6.897 36.54-6.897 54.024M77.186 730.015c0-11.453.345-22.973-.064-34.42-.403-11.289-4.693-21.688-5.683-32.822-.993-11.174-3.361-22.329-5.172-33.398-2-12.214-3.61-25.172-8.685-36.59-8.922-20.076-30.208-21.317-45.275-34.292-2.723-2.344-19.152-14.263-7.535-18.135"/></svg>