<svg xmlns="http://www.w3.org/2000/svg" width="762" height="693" fill="none" viewBox="0 0 762 693"><path stroke="#8A9ACE" stroke-linecap="round" d="M586.794 583.072c.26 12.985 8.121 14.208 17.488 21.603 4.621 3.648.977 8.465-.881 12.712-1.096 2.503-.735 5.334-.735 8.009 0 4.731-1.223 7.636-2.646 11.904M44.517 178.348c-5.954 0-13.389-1.213-19.179.073-6.495 1.444-11.765 4.638-19.104 5.144-1.807.125-5.364-1.931-5.364-1.249m63.486 72.745c-8.06-4.607-13.265-23.504-22.779-7.936-2.789 4.564-17.526 0-22.19 0m82.003 249.977c-8.052.161-26.477-.32-27.85 10.654-1.27 10.163-16.906 11.115-25.056 13.153m63.487 60.841c-4.377 8.368-8.906 10.886-14.55 17.194-3.543 3.96-.023 8.615 2.352 11.903 1.933 2.677 6.07 8.274 3.968 11.904-3.026 5.227-13.376 2.649-16.9 7.936m164.005 18.517c-24.374 10.691 6.006 13.102-4.996 25.424-4.393 4.92-12.198 9.832-12.198 16.9m382.24-548.891c-.083-4.153-4.122-17.148.588-19.839 8.472-4.841 17.54 9.406 24.248-1.029 3.701-5.758 3.706-6.828 10.14-5.658 4.826.878 6.386-4.016 7.348-7.862m-13.226 105.81c11.774 0 16.638 2.281 26.379 8.45 5.583 3.536 7.014 4.351 11.977-.514 3.511-3.442 7.025-9.053 12.051-5.144 7.459 5.802 17.135 5.938 21.015-2.792m-38.356 99.197c1.985-16.541 22.517 3.968 27.114 3.968 4.631 0 9.047-2.47 13.593-2.645 4.291-.165 4.246-1.275 5.585-5.291m-27.776 117.714c9.974 2.518 19.97 4.713 29.319 9.112 3.956 1.862 5.667 3.953 6.466-.441.944-5.193 5.25-3.114 8.009-.661 4.608 4.096 11.852 6.539 18.076 6.539 3.644 0 1.616 8.85 1.616 13.227m-75.389 78.034c9.002 5.71 22.289 14.8 13.226 26.453-3.59 4.615-7.139 10.46-6.613 16.459 1.065 12.146 15.871 16.074 15.871 27.923 0 6.432-2.462 13.448-5.29 19.104M208.522 76.506c-6.659 0-18.197-6.707-22.19-12.198-1.744-2.397-1.599-7.933-2.94-10.949-1.639-3.687-3.17-7.257-3.967-11.242m107.133 6.613c-2.766-6.527-5.291-12.032-5.291-19.104 0-2.955 9.128 1.8 11.61 1.91 7.985.355 9.552-8.89 9.552-15.871m108.456 19.839c0-4.916-2.001-16.399.734-21.088 2.428-4.163 16.923.33 21.897-3.013 2.954-1.985 5.626-6.927 6.466-10.287m115.069 25.13c4.233-14.288 2.598-15.871 15.872-15.871 2.395 0 5.597.52 7.935-.148 2.662-.76 3.096-4.046 5.291-5.143"/></svg>