<svg xmlns="http://www.w3.org/2000/svg" width="218" height="209" fill="none" viewBox="0 0 218 209"><path stroke="#8A9ACE" stroke-linecap="round" d="M116.747 74.67c-8.361-3.52-24.269-1.292-31.455 3.561-5.908 3.99-8.993 19.51-5.044 26.015 5.351 8.814 18.575 9.594 27.992 9.594 5.182 0 9.289.651 12.513-4.006 4.248-6.135 4.006-12.48 4.006-19.634 0-10.842-7.491-15.53-17.804-15.53m-24.037 43.622c-14.397 0-1.893 39.221-14.243 44.709-6.298 2.799-14.713-.197-20.92-.197-6.664 0-9.348 1.825-9.348 8.457 0 8.361 34.728 6.677 40.505 6.677 3.685 0 4.888-.392 8.012-1.781 4.843-2.152 4.682-7.529 6.48-11.573 2.216-4.986.588-10.516 6.429-12.463m31.158-32.939c5.607 0 8.149 6.659 9.792 11.177 1.08 2.968 1.564 5.651 2.473 8.606.955 3.103-.558 6.693.396 9.793 1.519 4.936 1.995 10.458 6.479 14.046 1.537 1.229 2.845 1.78 4.896 1.78 2.89 0 5.126 1.78 8.012 1.78 3.193 0 9.604 2.232 10.633 5.836.806 2.821 1.948 5.155 1.83 8.21-.12 3.13-8.959 2.869-11.375 2.869-7.531 0-14.008-1.932-21.118-3.512-4.21-.935-7.313-.812-11.128-2.72"/><path stroke="#8A9ACE" stroke-linecap="round" d="M98.052 187.73c-4.474-.497-5.768-6.232-11.128-6.232-4.096 0-10.103-2.591-14.243-3.511-5.415-1.203-11.497-.787-16.964-1.781-5.008-.91-14.088.289-17.755 3.957-2.268 2.267-5.25 2.435-6.48 5.984-.395 1.143-.784 6.098.248 6.924 1.545 1.236 1.752 3.31 4.204 4.254 3.768 1.449 6.52 2.351 10.485 2.917 6.746.964 13.126 3.512 20.03 3.512 6.708 0 13.523 2.671 20.03 2.671 14.929 0 30.392 1.21 45.204 1.78 5.916.228 11.883 0 17.805 0 7.058 0 14.776 1.713 18.695-5.341 6.432-11.579-2.679-19.585-14.244-19.585-3.986 0-36.302-2.582-36.302 4.451m-61.426-64.987c-13.06-7.416-26.492-11.774-40.06-17.805M1.017 80.902c.746 1.177 7.002 9.262 7.122 4.253.086-3.63.158-6.033-3.76-6.033-4.596 0-3.735 5.63 0 6.924 1.852.64 1.089-5.696 1.089-6.924m67.658-16.915c-3.857-11-9.752-22.19-16.024-32.048-1.99-3.125-3.374-9.434-7.122-10.683M42.858 6.123c.419 3.77 7.633 6.107 9.793 2.868 4.529-6.794-3.346-10.206-8.013-5.539m70.329 56.975c1.083-11.922 8.012-23.488 8.012-35.61m-2.671-20.475c3.995 9.987 8.299-.89 4.451-.89m11.573 79.23c13.414 0 26.752-5.954 39.17-10.485 4.969-1.812 15.778-1.731 19.586-5.539m15.133-7.121c0 3.42-.223 6.956 4.254 7.121 3.944.146 2.868-2.937 2.868-6.182 0-8.736-14.792 2.621-6.231 2.621m-60.536 52.524c9.974 0 20.18-.698 30.07.693 4.885.687 9.512 1.088 14.442 1.088m14.243-.891c-2.907 6.18 6.306 6.689 7.023 3.462 2.017-9.075-15.048-4.891-7.023-1.681"/></svg>