<svg xmlns="http://www.w3.org/2000/svg" width="33" height="32" viewBox="0 0 33 32"><path fill="none" stroke="#8a9ace" stroke-linecap="round" stroke-width="0.4923" d="M17.917 11.539c-1.259-.53-3.654-.194-4.736.536-.89.601-1.354 2.938-.76 3.917.806 1.327 2.797 1.445 4.215 1.445.78 0 1.398.098 1.884-.603.64-.924.603-1.879.603-2.956 0-1.632-1.128-2.338-2.681-2.338m-3.618 6.567c-2.168 0-.285 5.905-2.145 6.732-.948.421-2.215-.03-3.15-.03-1.003 0-1.407.275-1.407 1.273 0 1.259 5.229 1.005 6.099 1.005.555 0 .736-.059 1.206-.268.729-.324.705-1.134.976-1.742.334-.751.089-1.583.968-1.876m4.691-4.96c.844 0 1.227 1.003 1.474 1.683.163.447.235.851.372 1.296.144.467-.084 1.008.06 1.474.229.743.3 1.575.975 2.115.231.185.428.268.737.268.435 0 .772.268 1.206.268.481 0 1.446.336 1.601.879.121.425.293.776.276 1.236-.018.471-1.349.432-1.713.432-1.134 0-2.109-.291-3.18-.529-.634-.141-1.101-.122-1.675-.41"/><path fill="none" stroke="#8a9ace" stroke-linecap="round" stroke-width="0.4923" d="M15.102 28.562c-.674-.075-.868-.938-1.675-.938-.617 0-1.521-.39-2.145-.529-.815-.181-1.731-.118-2.554-.268-.754-.137-2.121.044-2.673.596-.341.341-.791.367-.975.901-.06.172-.118.918.037 1.043.233.186.264.498.633.64.567.218.982.354 1.579.439 1.016.145 1.976.529 3.016.529 1.01 0 2.036.402 3.016.402 2.248 0 4.576.182 6.806.268.891.034 1.789 0 2.681 0 1.063 0 2.225.258 2.815-.804.969-1.743-.403-2.949-2.145-2.949-.6 0-5.466-.389-5.466.67m-9.249-9.785c-1.966-1.117-3.989-1.773-6.032-2.681M.492 12.477c.112.177 1.054 1.395 1.072.64.013-.547.024-.908-.566-.908-.692 0-.562.848 0 1.043.279.096.164-.857.164-1.043m10.187-2.547c-.581-1.656-1.468-3.341-2.413-4.825-.299-.471-.508-1.42-1.072-1.608M6.792 1.218c.063.568 1.149.919 1.474.432C8.948.627 7.762.113 7.06.816m10.589 8.579c.163-1.795 1.206-3.536 1.206-5.361M18.453.951c.601 1.504 1.25-.134.67-.134m1.743 11.928c2.02 0 4.028-.896 5.898-1.579.748-.273 2.375-.261 2.949-.834m2.278-1.071c0 .515-.034 1.047.64 1.072.594.022.432-.442.432-.931 0-1.315-2.227.395-.938.395m-9.115 7.908c1.502 0 3.038-.105 4.527.104.736.103 1.432.164 2.174.164m2.146-.134c-.438.93.949 1.007 1.057.521.304-1.366-2.266-.736-1.057-.253"/></svg>