<svg xmlns="http://www.w3.org/2000/svg" width="293" height="136" fill="none" viewBox="0 0 293 136"><path stroke="#8A9ACE" stroke-linecap="round" d="M88.312 97.406c0-10.058 22.977-9.085 29.73-9.085 12.093 0 22.234.595 33.033 6.148 5.997 3.085 11.097 13.136 11.562 19.637.514 7.195 1.651 13.932 1.651 21.288"/><path stroke="#8A9ACE" stroke-linecap="round" d="M85.009 75.108c5.795-.58 11.558-1.94 17.388-2.523 6.957-.696 13.758-.78 20.783-.78 14.452 0 31.57 2.113 44.412 9.084 7.6 4.126 11.377 16.606 14.681 23.949 2.733 6.073 2.661 14.926 2.661 21.472"/><path stroke="#8A9ACE" stroke-linecap="round" d="M87.486 56.94c.49-3.914 17.226-5.02 19.866-5.368 7.909-1.04 16.278-1.239 24.27-1.239 9.412 0 18.702-.046 28.078.826 8.286.771 15.862 5.046 22.711 9.497 9.671 6.286 14.056 19.636 16.975 30.143 2.631 9.47 4.542 18.987 4.542 28.904m-99.358-12.169c2.929-.325 6.033-.844 9.013-1.235 5.223-.684 9.578-.026 14.694.68 7.171.989 17.41 8.546 17.41 16.669m-31.672-1.667c-2.195 5.306-2.638 9.461 3.643 10.989 5.349 1.301 10.531-1.155 10.248-7.1-.186-3.911-4.197-4.958-7.223-5.433-1.876-.294-4.373-.462-6.112.432-2.313 1.19-3.092 3.474-5.001 5.001m163.578-37.048c.685-1.027 3.693-6.85 4.916-7.2.588-.168 1.331 5.18 1.331 5.899 0 1.807 1.231 1.097 2.602 1.706.652.29 5.305 1.186 5.09 1.677-.776 1.773-9.054-.473-6.912 3.384.593 1.066 1.235 3.231 1.302 4.424.143 2.58-.476 1.086-2.082-.52-1.041-1.04-2.022-1.73-3.355-2.111-1.375-.393-1.384-2.574-3.21-2.574-2.364 0-4.249 1.562-6.449 1.562-1.522 0-2.818.84-1.041-1.041 1.829-1.937 1.562-4.43 1.562-7.028 0-4.365 7.808 4.576 7.808 1.822M6.752 32.753c1.728-1.728 3.037-3.631 4.636-5.419.253-.283.3-1.81 1.023-1.294.53.378 1.351 2.323 1.626 2.95.63 1.44.29 3.763 2.047 3.763 2.443 0 4.776 1.083 7.164 1.083 2.063 0-.26 1.42-1.054 1.596-1.843.41-4.578.408-6.23 1.234-.954.477 5.117 7.933 3.792 8.007-4.647.258-7.49-4.876-11.68-4.876-1.875 0-3.786.11-5.658 0-1.033-.061 1.373-1.98 1.926-2.138 4.503-1.286-.228-5.133-1.806-6.652-.719-.692-3.621-3.054-.632-1.746 2.55 1.116 4.832 1.727 7.555 2.408m153.88-24.382c1.608-1.609 2.132-3.479 3.522-5.178 1.882-2.3 2.038.677 2.408 2.71.567 3.116 4.725 4.093 7.495 4.093 2.947 0-1.704.542-2.589.542-1.758 0-5.96-.23-5.96 1.896 0 1.584.603 3.075.964 4.606.413 1.759 1.451 4.172-1.084 2.167-1.851-1.463-4.508-3.017-5.298-5.388-.45-1.351-6.121-.572-7.285-.572-1.555 0-6.191.542-4.635.542 1.649 0 3.443-.485 4.997-.963 4.927-1.516-.635-5.47-1.746-8.248-.851-2.126 1.543-.041 2.709.542 1.706.853 3.505 1.625 5.418 1.625M275.49 17.57c.106-.847 5.604-6.132 6.858-5.472 1.645.865 1.704 3.338 3.118 4.087.917.486 2.719.139 3.741.139 6.901 0-1.007 3.446-1.732 4.987-1.137 2.415 4.946 5.653-1.524 3.256-2.697-.998-4.415-4.665-7.343-4.503-1.101.062-5.565 2.034-5.473 1.87a25.5 25.5 0 0 1 2.217-3.255c.887-1.11-3.091-2.468-3.741-3.117-4.436-4.436 3.165-.485 5.126-.485"/></svg>