<svg xmlns="http://www.w3.org/2000/svg" width="295" height="346" fill="none" viewBox="0 0 295 346"><path stroke="#8A9ACE" stroke-linecap="round" d="M72.607 296.605c-6.052-5.311-8.82-14.496-15.633-18.881-9.061-5.833-20.322-5.788-30.25-9.204-7.079-2.436-15.326-5.669-13.162-14.414 2.017-8.148 9.379-18.762 3.012-26.19-2.625-3.061-6.667-4.68-9.069-7.748-1.7-2.173-2.941-6.348-1.285-8.832M20.228 56.027c7.443-4.962 13.747-10.984 17.663-19.152 1.92-4.005 2.555-8.523 4.872-12.384 2.066-3.442 6.156-2.708 9.44-4.06 5.46-2.248 11.903-2.605 17.054-5.516 4.76-2.69 6.391-7 10.05-10.658m132.165 325.846c-6.12 1.072-9.568 2.977-14.752 5.955-2.823 1.622-6.111 1.896-9.001 3.181-2.736 1.216-6.911 1.779-9.88 1.827-3.151.051-3.266-.38-4.737 1.827M160.312 5.475c11.467 2.471 22.475 7.309 34.344 7.309 12.055 0 23.954-4.225 36.036-1.692 10.752 2.255 18.252 10.219 29.505 10.219m34.107 204.034c-8.481 4.883-5.106 16.813-3.384 24.328 1.687 7.36 3.128 14.585-3.349 20.065-3.223 2.728-6.773 5.021-9.035 8.696-2.227 3.62-3.628 8.161-4.568 12.283-1.957 8.583-.516 17.208-10.726 19.761-2.596.649-5.994 1.353-8.527 1.353"/></svg>