<svg aria-hidden="true" style="position: absolute; width: 0; height: 0; overflow: hidden;" version="1.1" xmlns="http://www.w3.org/2000/svg" xmlns:xlink="http://www.w3.org/1999/xlink">
<defs>
<symbol id="icon-Close-Button" viewBox="0 0 27 32">
<path d="M6.185 9.43c-0.173-0.031-0.347 0.053-0.449 0.188l-0.023 0.037c-0.043 0.044-0.080 0.095-0.107 0.152-0.062 0.131-0.084 0.292-0.089 0.436-0.004 0.124 0.006 0.248 0.026 0.37-0.001 0.085-0 0.171 0.005 0.255 0.008 0.129 0.047 0.264 0.127 0.368 0.11 0.142 0.305 0.223 0.485 0.182 0.188-0.044 0.335-0.165 0.413-0.339 0.050-0.111 0.060-0.231 0.065-0.351 0.015-0.070 0.025-0.142 0.031-0.209 0.023-0.25 0.012-0.555-0.105-0.784-0.077-0.153-0.203-0.273-0.379-0.306z"></path>
<path d="M13.512 10.869c0.008 0.129 0.046 0.264 0.127 0.368 0.109 0.142 0.305 0.223 0.485 0.182 0.188-0.044 0.335-0.165 0.413-0.339 0.050-0.111 0.060-0.231 0.065-0.351 0.015-0.070 0.025-0.142 0.031-0.209 0.023-0.25 0.011-0.555-0.105-0.784-0.078-0.153-0.203-0.273-0.379-0.305-0.173-0.031-0.347 0.053-0.449 0.188l-0.023 0.037c-0.043 0.044-0.080 0.095-0.107 0.152-0.062 0.131-0.084 0.292-0.089 0.436-0.004 0.124 0.007 0.248 0.026 0.37-0.001 0.085 0 0.17 0.005 0.255z"></path>
<path d="M11.737 12.691c0.154-0.353-0.33-0.589-0.57-0.321-0.168 0.187-0.296 0.361-0.527 0.482-0.229 0.12-0.484 0.187-0.743 0.193-0.281 0.006-0.561-0.052-0.831-0.122-0.146-0.038-0.288-0.092-0.424-0.157-0.143-0.069-0.27-0.14-0.433-0.141-0.062-0.001-0.13 0.044-0.114 0.115 0.074 0.336 0.482 0.548 0.765 0.704 0.343 0.189 0.744 0.262 1.135 0.248 0.328-0.011 0.666-0.101 0.955-0.255 0.312-0.167 0.644-0.417 0.788-0.746z"></path>
<path d="M26.952 24.487c-0.156-0.362-0.539-0.625-0.944-0.464-0.506 0.201-0.666 0.861-0.778 1.323-0.147 0.606-0.175 1.232-0.109 1.85-0.252 0.010-0.508-0.008-0.734-0.008-1.058 0.002-2.115 0.003-3.173 0.004-1.017 0.001-2.039-0.025-3.053 0.047 0.066-0.722-0.102-1.459-0.255-2.16-0.182-0.831-0.402-1.654-0.656-2.467-0.289-0.926-0.628-1.837-1.010-2.729-0.192-0.447-0.395-0.889-0.617-1.322-0.123-0.241-0.249-0.486-0.393-0.718 1.498-0.462 2.847-1.176 3.966-2.086 2.041-1.657 3.324-3.974 3.324-6.541s-1.283-4.883-3.324-6.541c-2.042-1.66-4.846-2.676-7.936-2.677s-5.894 1.017-7.936 2.677c-2.041 1.658-3.324 3.974-3.324 6.541s1.283 4.883 3.324 6.541c1.293 1.051 2.892 1.843 4.676 2.283-0.301 0.795-0.481 1.664-0.669 2.48-0.227 0.988-0.436 1.98-0.625 2.976-0.355 1.865-0.645 3.739-0.875 5.622-1.596-0.225-3.274 0.332-4.406 1.463-0.293 0.293-0.554 0.745-0.236 1.123 0.292 0.347 0.861 0.292 1.268 0.292 0.97-0 2.061-0.045 2.974-0.398 0.416-0.161 0.802-0.45 0.964-0.871 0.112-0.293 0.122-0.624-0.001-0.906 0.070-0.061 0.12-0.144 0.128-0.231l0-0.003c0.982 1.046 2.324 1.693 3.758 1.89 1.325 0.183 2.654-0.033 3.891-0.497 2.436 0.344 4.9 0.472 7.36 0.522 0.929 0.019 2.323 0.246 2.666-0.885 0.134-0.441 0.085-0.911 0.001-1.357-0.085-0.455-0.276-0.943-0.785-1.064-0.611-0.145-0.889 0.386-1.022 0.874-0.168 0.617-0.192 1.257-0.086 1.886-0.277 0-0.554-0.002-0.831-0.005-2.185-0.028-4.365-0.162-6.545-0.293 0.037-0.017 0.074-0.034 0.111-0.052 1.261-0.61 2.68-1.492 3.043-2.906 1.201 0.095 2.415 0.055 3.619 0.059 0.684 0.002 1.368 0.004 2.052 0.006 0.603 0.002 1.259 0.074 1.854-0.042 1.008-0.196 1.38-1.113 1.445-2.024 0.028-0.395 0.058-0.842-0.103-1.215zM5.529 30.751c-0.324 0.264-0.787 0.325-1.189 0.388-0.469 0.073-0.944 0.118-1.419 0.133-0.244 0.008-0.488 0.006-0.732-0.004-0.104-0.004-0.212-0.002-0.315-0.018l-0.037-0.008c0.060-0.035 0.136-0.16 0.187-0.208 0.069-0.065 0.14-0.127 0.213-0.186 0.158-0.13 0.324-0.25 0.498-0.358 0.321-0.198 0.673-0.353 1.033-0.467 0.589-0.187 1.213-0.243 1.826-0.186 0.014 0.036 0.036 0.072 0.069 0.107 0.238 0.251 0.114 0.607-0.133 0.808zM22.963 29.181c0.063-0.245 0.222-0.657 0.492-0.307 0.147 0.191 0.152 0.508 0.176 0.737 0.043 0.413 0.089 1.011-0.353 1.24-0.102 0.053-0.219 0.077-0.338 0.091-0.122-0.583-0.127-1.181 0.023-1.761zM0.746 9.217c0-2.321 1.155-4.431 3.054-5.976 1.898-1.544 4.537-2.509 7.46-2.508s5.562 0.964 7.46 2.508c1.899 1.546 3.053 3.655 3.054 5.976s-1.155 4.431-3.054 5.976c-1.898 1.544-4.537 2.509-7.46 2.508s-5.562-0.964-7.46-2.508c-1.899-1.546-3.053-3.655-3.054-5.976zM16.933 28.323c-0.421 0.54-1.029 0.934-1.625 1.267-1.274 0.713-2.772 1.179-4.25 1.12-1.496-0.060-2.994-0.64-3.989-1.763-0.135-0.152-0.315-0.175-0.467-0.122 0.185-1.738 0.424-3.472 0.725-5.194 0.171-0.978 0.361-1.952 0.568-2.923 0.18-0.844 0.417-1.707 0.535-2.568 0.904 0.191 1.852 0.294 2.829 0.294 1.223-0 2.399-0.161 3.502-0.457 0.198 0.552 0.479 1.089 0.704 1.624 0.304 0.724 0.579 1.46 0.823 2.206 0.474 1.447 0.88 2.956 1.074 4.466 0.094 0.734 0.042 1.446-0.43 2.050zM26.356 26.243c-0.086 0.309-0.235 0.62-0.529 0.786-0.037 0.021-0.076 0.036-0.115 0.052-0.052-0.408-0.061-0.817-0.009-1.228 0.046-0.371 0.1-1.005 0.401-1.276 0.337-0.304 0.387 0.413 0.384 0.601-0.004 0.354-0.037 0.722-0.132 1.064z"></path>
</symbol>
<symbol id="icon-Container-1" viewBox="0 0 94 32">
<path d="M26.952 24.487c-0.156-0.362-0.539-0.625-0.944-0.464-0.506 0.201-0.666 0.861-0.778 1.323-0.147 0.606-0.175 1.232-0.109 1.85-0.252 0.010-0.508-0.008-0.734-0.008-1.058 0.002-2.115 0.003-3.173 0.004-1.017 0.001-2.039-0.025-3.053 0.047 0.066-0.722-0.102-1.459-0.255-2.16-0.182-0.831-0.402-1.654-0.656-2.467-0.289-0.926-0.628-1.837-1.010-2.729-0.192-0.447-0.395-0.889-0.617-1.322-0.123-0.241-0.249-0.486-0.393-0.718 1.498-0.462 2.847-1.176 3.966-2.086 2.041-1.657 3.324-3.974 3.324-6.541s-1.283-4.883-3.324-6.541c-2.042-1.66-4.846-2.676-7.936-2.677s-5.894 1.017-7.936 2.677c-2.041 1.658-3.324 3.974-3.324 6.541s1.283 4.883 3.324 6.541c1.293 1.051 2.892 1.843 4.676 2.283-0.301 0.795-0.481 1.664-0.669 2.48-0.227 0.988-0.436 1.98-0.625 2.976-0.355 1.865-0.645 3.739-0.875 5.622-1.596-0.225-3.274 0.332-4.406 1.463-0.293 0.293-0.554 0.745-0.236 1.123 0.292 0.347 0.861 0.292 1.268 0.292 0.97-0 2.061-0.045 2.974-0.398 0.416-0.161 0.802-0.45 0.964-0.871 0.112-0.293 0.122-0.624-0.001-0.906 0.070-0.061 0.12-0.144 0.128-0.231l0-0.003c0.982 1.046 2.324 1.693 3.758 1.89 1.325 0.183 2.654-0.033 3.891-0.497 2.436 0.344 4.9 0.472 7.36 0.522 0.929 0.019 2.323 0.246 2.666-0.885 0.134-0.441 0.085-0.911 0.001-1.357-0.085-0.455-0.276-0.943-0.785-1.064-0.611-0.145-0.889 0.386-1.022 0.874-0.168 0.617-0.192 1.257-0.086 1.886-0.277 0-0.554-0.002-0.831-0.005-2.185-0.028-4.365-0.162-6.545-0.293 0.037-0.017 0.074-0.034 0.111-0.052 1.261-0.61 2.68-1.492 3.043-2.906 1.201 0.095 2.415 0.055 3.619 0.059 0.684 0.002 1.368 0.004 2.052 0.006 0.603 0.002 1.259 0.074 1.854-0.042 1.008-0.196 1.38-1.113 1.445-2.024 0.028-0.395 0.058-0.842-0.103-1.215zM5.529 30.751c-0.324 0.264-0.787 0.325-1.189 0.388-0.469 0.073-0.944 0.118-1.419 0.133-0.244 0.008-0.488 0.006-0.732-0.004-0.104-0.004-0.212-0.002-0.315-0.018l-0.037-0.008c0.060-0.035 0.136-0.16 0.187-0.208 0.069-0.065 0.14-0.127 0.213-0.186 0.158-0.13 0.324-0.25 0.498-0.358 0.321-0.198 0.673-0.353 1.033-0.467 0.589-0.187 1.213-0.243 1.826-0.186 0.014 0.036 0.036 0.072 0.069 0.107 0.238 0.251 0.114 0.607-0.133 0.808zM22.963 29.181c0.063-0.245 0.222-0.657 0.492-0.307 0.147 0.191 0.152 0.508 0.176 0.737 0.043 0.413 0.089 1.011-0.353 1.24-0.102 0.053-0.219 0.077-0.338 0.091-0.122-0.583-0.127-1.181 0.023-1.761zM0.746 9.217c0-2.321 1.155-4.431 3.054-5.976 1.898-1.544 4.537-2.509 7.46-2.508s5.562 0.964 7.46 2.508c1.899 1.546 3.053 3.655 3.054 5.976s-1.155 4.431-3.054 5.976c-1.898 1.544-4.537 2.509-7.46 2.508s-5.562-0.964-7.46-2.508c-1.899-1.546-3.053-3.655-3.054-5.976zM16.933 28.323c-0.421 0.54-1.029 0.934-1.625 1.267-1.274 0.713-2.772 1.179-4.25 1.12-1.496-0.060-2.994-0.64-3.989-1.763-0.135-0.152-0.315-0.175-0.467-0.122 0.185-1.738 0.424-3.472 0.725-5.194 0.171-0.978 0.361-1.952 0.568-2.923 0.18-0.844 0.417-1.707 0.535-2.568 0.904 0.191 1.852 0.294 2.829 0.294 1.223-0 2.399-0.161 3.502-0.457 0.198 0.552 0.479 1.089 0.704 1.624 0.304 0.724 0.579 1.46 0.823 2.206 0.474 1.447 0.88 2.956 1.074 4.466 0.094 0.734 0.042 1.446-0.43 2.050zM26.356 26.243c-0.086 0.309-0.235 0.62-0.529 0.786-0.037 0.021-0.076 0.036-0.115 0.052-0.052-0.408-0.061-0.817-0.009-1.228 0.046-0.371 0.1-1.005 0.401-1.276 0.337-0.304 0.387 0.413 0.384 0.601-0.004 0.354-0.037 0.722-0.132 1.064z"></path>
</symbol>
<symbol id="icon-Container-2" viewBox="0 0 23 32">
<path fill="none" stroke="#8a9ace" style="stroke: var(--color1, #8a9ace)" stroke-linejoin="miter" stroke-linecap="round" stroke-miterlimit="4" stroke-width="0.2735" d="M0.432 8.574c-0.525-1.115-0.308-3.103 0.599-3.946 0.594-0.551 1.2-0.949 2.042-0.949 1.074 0 1.7 0.543 2.331 1.398 0.591 0.802 0.624 1.852 0.771 2.797 0.237 1.52 0.15 3.115 0.15 4.651 0 1.767 0.023 3.53-0.078 5.294-0.109 1.904 0.238 3.483 0.733 5.333 0.289 1.080 0.514 2.537 1.243 3.48 0.457 0.592 0.863 1.341 1.593 1.615 0.502 0.188 0.831 0.205 1.398 0.205 1.131 0 2.157-0.4 3.302-0.4 1.706 0 2.597 2.421 2.597 3.796"></path>
<path fill="none" stroke="#8a9ace" style="stroke: var(--color1, #8a9ace)" stroke-linejoin="miter" stroke-linecap="round" stroke-miterlimit="4" stroke-width="0.2735" d="M15.801 30.636c0.266 0.196 0.52 0.341 0.77 0.551 0.211 0.177 0.367 0.403 0.561 0.597"></path>
<path fill="none" stroke="#8a9ace" style="stroke: var(--color1, #8a9ace)" stroke-linejoin="miter" stroke-linecap="round" stroke-miterlimit="4" stroke-width="0.2735" d="M17.133 31.784c0.079-0.099 0.095-0.248 0.163-0.357 0.108-0.172 0.185-0.353 0.27-0.536 0.082-0.175 0.074-0.669 0.255-0.76"></path>
<path fill="none" stroke="#8a9ace" style="stroke: var(--color1, #8a9ace)" stroke-linejoin="miter" stroke-linecap="round" stroke-miterlimit="4" stroke-width="0.2735" d="M22.668 3.112c0-1.242-1.935-1.916-2.884-2.296-1.258-0.503-2.986-0.869-4.321-0.444-0.589 0.188-1.29 0.204-1.775 0.656-0.556 0.519-0.929 0.948-1.22 1.693-0.301 0.77-0.531 1.523-0.641 2.349-0.028 0.213-0.013 0.822-0.183 0.907"></path>
<path fill="none" stroke="#8a9ace" style="stroke: var(--color1, #8a9ace)" stroke-linejoin="miter" stroke-linecap="round" stroke-miterlimit="4" stroke-width="0.2735" d="M11.036 4.24c0.086 0.279 0.347 0.815 0.347 1.085 0 0.197 0.094 0.568 0.26 0.651"></path>
<path fill="none" stroke="#8a9ace" style="stroke: var(--color1, #8a9ace)" stroke-linejoin="miter" stroke-linecap="round" stroke-miterlimit="4" stroke-width="0.2735" d="M11.73 5.976c0.274-0.034 0.561-0.546 0.82-0.694 0.229-0.131 0.652-0.421 0.743-0.694"></path>
</symbol>
<symbol id="icon-Container" viewBox="0 0 24 32">
<path d="M14.236 4.91c0.004 0.092 0.013 0.185 0.053 0.271 0.063 0.135 0.182 0.229 0.335 0.262 0.146 0.032 0.304-0.030 0.393-0.141 0.065-0.081 0.097-0.185 0.103-0.285 0.004-0.066 0.005-0.132 0.004-0.197 0.016-0.095 0.025-0.191 0.021-0.287-0.004-0.111-0.022-0.236-0.073-0.337-0.022-0.044-0.052-0.083-0.087-0.117l-0.019-0.029c-0.083-0.105-0.224-0.17-0.364-0.146-0.143 0.025-0.244 0.118-0.307 0.236-0.095 0.178-0.104 0.413-0.085 0.607 0.005 0.052 0.012 0.108 0.025 0.162z"></path>
<path d="M8.528 4.079l-0.018-0.029c-0.083-0.105-0.224-0.17-0.364-0.146-0.143 0.025-0.244 0.118-0.307 0.236-0.095 0.178-0.104 0.413-0.085 0.607 0.005 0.052 0.012 0.108 0.025 0.162 0.004 0.092 0.013 0.185 0.053 0.271 0.063 0.135 0.182 0.229 0.335 0.262 0.146 0.032 0.304-0.030 0.393-0.141 0.065-0.081 0.097-0.185 0.103-0.285 0.004-0.066 0.005-0.132 0.004-0.197 0.016-0.095 0.025-0.191 0.022-0.287-0.004-0.111-0.022-0.236-0.073-0.337-0.022-0.044-0.052-0.083-0.087-0.118z"></path>
<path d="M13.055 6.467c0.013-0.055-0.043-0.090-0.093-0.089-0.132 0.001-0.235 0.056-0.351 0.109-0.11 0.050-0.225 0.092-0.344 0.121-0.219 0.054-0.446 0.099-0.674 0.095-0.21-0.004-0.418-0.057-0.603-0.149-0.187-0.093-0.292-0.228-0.427-0.373-0.195-0.207-0.587-0.024-0.462 0.249 0.116 0.255 0.386 0.448 0.639 0.578 0.234 0.12 0.508 0.189 0.774 0.197 0.317 0.011 0.642-0.046 0.921-0.192 0.23-0.121 0.561-0.285 0.621-0.545z"></path>
<path d="M23.821 2.047c-0.558-0.511-1.316-0.278-1.633 0.336-0.186 0.362-0.225 0.782-0.266 1.176-0.054 0.508-0.077 1.017-0.074 1.527 0.006 1.014 0.119 2.022 0.345 3.014 0.022 0.096 0.085 0.157 0.162 0.188-0.565 1.192-1.288 2.318-2.147 3.347-0.483 0.579-1.009 1.128-1.578 1.635-0.565 0.503-1.189 0.932-1.778 1.407-0.153-0.282-0.312-0.561-0.48-0.835 0.642-0.299 1.234-0.658 1.763-1.068 1.655-1.283 2.696-3.076 2.696-5.063 0-1.987-1.040-3.78-2.696-5.063-1.656-1.285-3.931-2.072-6.437-2.072s-4.78 0.787-6.437 2.072c-1.656 1.283-2.696 3.076-2.696 5.063s1.040 3.78 2.696 5.063c0.694 0.538 1.498 0.988 2.381 1.33-0.043 0.018-0.081 0.047-0.104 0.089-0.182 0.336-0.259 0.72-0.322 1.102-0.536-0.42-1.093-0.814-1.601-1.268-0.568-0.507-1.095-1.055-1.578-1.635-0.858-1.030-1.582-2.156-2.147-3.347 0.076-0.031 0.14-0.092 0.162-0.188 0.225-0.992 0.339-2 0.345-3.014 0.003-0.51-0.020-1.020-0.074-1.527-0.042-0.394-0.080-0.813-0.266-1.176-0.316-0.614-1.074-0.846-1.633-0.336-0.602 0.55-0.418 1.463-0.32 2.162 0.202 1.445 0.63 2.866 1.258 4.199 0.627 1.332 1.448 2.594 2.442 3.713 0.495 0.557 1.032 1.084 1.604 1.572 0.537 0.459 1.106 0.916 1.74 1.255-0.007 0.039-0.013 0.077-0.020 0.116-0.104 0.561-0.204 1.124-0.295 1.687-0.167 1.023-0.372 2.065-0.416 3.101-0.038 0.89 0.11 1.835 0.785 2.511 0.61 0.611 1.464 0.901 2.326 1.044 0.063 0.010 0.127 0.018 0.19 0.027 0.002 0.28 0.051 0.573 0.065 0.832 0.024 0.446 0.037 0.893 0.037 1.339-0.001 0.464-0.002 0.928-0.020 1.392-0.005 0.122-0.064 0.426-0.027 0.647-0.068 0.151-0.123 0.307-0.18 0.461-0.106 0.289-0.208 0.579-0.308 0.87-0.162 0.469-0.542 1.157-0.123 1.598 0.335 0.353 0.933 0.319 1.357 0.144 0.231-0.096 0.441-0.243 0.569-0.45 0.157-0.254 0.146-0.544 0.067-0.82-0.095-0.331-0.215-0.658-0.324-0.986-0.114-0.345-0.212-0.697-0.336-1.039-0.030-0.081-0.114-0.129-0.202-0.14-0-0.135-0.009-0.257-0.007-0.323 0.011-0.438 0.014-0.877-0.006-1.314-0.020-0.448-0.052-0.895-0.097-1.342-0.025-0.25-0.031-0.547-0.082-0.823 0.854 0.089 1.725 0.077 2.579 0.066 0.758-0.010 1.525-0.032 2.285-0.092 0.004 0.273 0.052 0.558 0.066 0.811 0.024 0.446 0.037 0.893 0.037 1.339-0.001 0.464-0.002 0.928-0.020 1.393-0.005 0.122-0.064 0.426-0.027 0.647-0.068 0.151-0.123 0.307-0.18 0.461-0.106 0.289-0.208 0.579-0.308 0.87-0.162 0.469-0.542 1.156-0.123 1.598 0.335 0.353 0.933 0.319 1.357 0.144 0.231-0.096 0.441-0.243 0.569-0.45 0.157-0.254 0.146-0.544 0.067-0.819-0.095-0.331-0.215-0.658-0.324-0.986-0.114-0.345-0.212-0.697-0.337-1.039-0.030-0.081-0.114-0.129-0.202-0.14-0-0.135-0.009-0.257-0.007-0.323 0.011-0.438 0.014-0.877-0.006-1.314-0.020-0.448-0.052-0.895-0.097-1.342-0.027-0.267-0.033-0.589-0.094-0.881 0.269-0.026 0.538-0.056 0.804-0.094 0.896-0.126 1.851-0.423 2.355-1.183 0.521-0.788 0.467-1.756 0.315-2.636-0.316-1.829-0.929-3.611-1.793-5.278 0.666-0.342 1.26-0.82 1.819-1.298 0.572-0.489 1.109-1.015 1.604-1.572 0.994-1.12 1.815-2.382 2.442-3.713 0.628-1.333 1.056-2.754 1.258-4.199 0.099-0.7 0.283-1.613-0.319-2.163zM1.588 8.353c-0.411-0.995-0.714-2.030-0.89-3.088-0.052-0.313-0.094-0.627-0.124-0.943-0.034-0.352-0.086-0.784 0.158-1.084 0.195-0.239 0.515-0.302 0.729-0.054 0.185 0.217 0.24 0.522 0.277 0.789 0.202 1.458 0.14 2.936-0.15 4.38zM10.689 30.239c0.074 0.259 0.091 0.518-0.156 0.697-0.175 0.127-0.409 0.202-0.63 0.202-0.207-0-0.414-0.070-0.426-0.29-0.015-0.277 0.147-0.588 0.233-0.849 0.1-0.303 0.199-0.605 0.293-0.91 0.043-0.137 0.089-0.276 0.129-0.416 0.185 0.522 0.405 1.036 0.557 1.567zM15.937 30.239c0.074 0.259 0.091 0.518-0.156 0.697-0.175 0.127-0.409 0.202-0.63 0.202-0.207-0-0.414-0.070-0.426-0.29-0.015-0.277 0.147-0.588 0.233-0.849 0.1-0.303 0.199-0.605 0.293-0.91 0.043-0.137 0.089-0.276 0.129-0.416 0.186 0.522 0.405 1.036 0.557 1.567zM3.172 7.709c0-1.797 0.936-3.43 2.477-4.626 1.539-1.195 3.68-1.942 6.050-1.942s4.511 0.747 6.050 1.942c1.54 1.197 2.476 2.83 2.476 4.626s-0.936 3.43-2.476 4.626c-1.539 1.195-3.68 1.942-6.050 1.942s-4.511-0.747-6.050-1.942c-1.54-1.197-2.476-2.83-2.477-4.626zM18.175 21.939c-0.165 0.822-0.855 1.265-1.683 1.441-0.992 0.212-2.049 0.241-3.062 0.28-1.037 0.040-2.087 0.054-3.123-0.021-0.781-0.057-1.623-0.183-2.282-0.61-0.758-0.493-1.017-1.29-1.022-2.122-0.006-1.079 0.229-2.178 0.398-3.242 0.090-0.564 0.183-1.126 0.283-1.688 0.101-0.571 0.291-1.165 0.231-1.742-0.001-0.013-0.006-0.023-0.010-0.034 1.157 0.413 2.44 0.644 3.792 0.644 1.455-0 2.831-0.267 4.055-0.741 0.993 1.629 1.734 3.39 2.166 5.223 0.198 0.837 0.428 1.755 0.255 2.613zM23.673 3.566c-0.030 0.315-0.072 0.63-0.124 0.943-0.176 1.059-0.479 2.093-0.89 3.088-0.29-1.443-0.352-2.921-0.15-4.38 0.037-0.267 0.092-0.572 0.277-0.789 0.213-0.249 0.534-0.186 0.729 0.054 0.244 0.3 0.192 0.732 0.159 1.084z"></path>
</symbol>
<symbol id="icon-Container-11" viewBox="0 0 89 32">
<path fill="none" stroke="#8a9ace" style="stroke: var(--color1, #8a9ace)" stroke-linejoin="miter" stroke-linecap="round" stroke-miterlimit="4" stroke-width="0.8205" d="M88.252 2.75c-2.639 0-5.247-0.482-7.887-0.482-1.607 0-3.205-0.161-4.814-0.161-0.564 0-1.618 0.205-2.153-0.009-0.472-0.189 0.942-0.382 1.42-0.554 0.731-0.263 1.436-0.346 2.179-0.527 0.183-0.045 1.435-0.197 0.804-0.197-0.562 0-1.065 0.146-1.608 0.286-0.95 0.244-1.861 0.74-2.805 1.009-0.179 0.051 0.738 0.564 0.875 0.634 0.541 0.279 1.069 0.586 1.599 0.884 0.374 0.211 0.793 0.621 1.215 0.715 0.373 0.083-0.66-0.196-0.849-0.313-0.901-0.559-2.002-1.144-2.93-1.608"></path>
<path fill="none" stroke="#8a9ace" style="stroke: var(--color1, #8a9ace)" stroke-linejoin="miter" stroke-linecap="round" stroke-miterlimit="4" stroke-width="0.8205" d="M44.996 22.573c0.167 2.113 0.653 4.171 0.825 6.277 0.058 0.713 0.128 1.428 0.173 2.141 0.039 0.631 0.006 0.104 0.006-0.19"></path>
<path fill="none" stroke="#8a9ace" style="stroke: var(--color1, #8a9ace)" stroke-linejoin="miter" stroke-linecap="round" stroke-miterlimit="4" stroke-width="0.8205" d="M6.535 22.265c-1.345 1.638-2.423 3.457-3.76 5.094-0.452 0.554-0.898 1.118-1.36 1.662-0.409 0.482-0.068 0.079 0.135-0.133"></path>
<path fill="none" stroke="#8a9ace" style="stroke: var(--color1, #8a9ace)" stroke-linejoin="miter" stroke-linecap="round" stroke-miterlimit="4" stroke-width="0.8205" d="M44.895 22.373c-0.146 0.551-0.429 1.066-0.624 1.605-0.176 0.487-0.272 1.111-0.574 1.539-0.545 0.773 0.584-1.812 1.048-2.637 0.451-0.802 0.571-0.318 1.031 0.295 0.293 0.391 0.579 0.757 0.925 1.104 0.176 0.176 0.498 0.393 0.602 0.602"></path>
<path fill="none" stroke="#8a9ace" style="stroke: var(--color1, #8a9ace)" stroke-linejoin="miter" stroke-linecap="round" stroke-miterlimit="4" stroke-width="0.8205" d="M6.601 22.051c-0.487 0.296-1.048 0.47-1.563 0.723-0.464 0.229-0.967 0.611-1.481 0.71-0.929 0.178 1.678-0.9 2.584-1.172 0.881-0.265 0.632 0.167 0.538 0.928-0.060 0.485-0.108 0.947-0.099 1.437 0.005 0.249 0.086 0.629 0.016 0.851"></path>
</symbol>
<symbol id="icon-Group-17" viewBox="0 0 53 32">
<path fill="none" stroke="#8a9ace" style="stroke: var(--color1, #8a9ace)" stroke-linejoin="miter" stroke-linecap="round" stroke-miterlimit="4" stroke-width="1.8824" d="M2.195 5.85c-2.226-6.956 8.096-3.215 10.578-0.441 1.325 1.481 1.574 6.060 0 7.297-1.773 1.393-4.267 4.144-3.526 6.366"></path>
<path fill="none" stroke="#8a9ace" style="stroke: var(--color1, #8a9ace)" stroke-linejoin="miter" stroke-linecap="round" stroke-miterlimit="4" stroke-width="1.8824" d="M9.247 24.804c1.391 0 0.882-0.139 0.882-0.441"></path>
<path fill="none" stroke="#8a9ace" style="stroke: var(--color1, #8a9ace)" stroke-linejoin="miter" stroke-linecap="round" stroke-miterlimit="4" stroke-width="1.8824" d="M28.2 1.883c0 3.688-0.441 7.388-0.441 11.019 0 3.234 0.14 7.074-0.881 10.137"></path>
<path fill="none" stroke="#8a9ace" style="stroke: var(--color1, #8a9ace)" stroke-linejoin="miter" stroke-linecap="round" stroke-miterlimit="4" stroke-width="1.8824" d="M50.434 4.413c-1.041 3.538-2.509 6.962-3.534 10.446-0.913 3.102-1.864 6.825-3.708 9.476"></path>
<path fill="none" stroke="#8a9ace" style="stroke: var(--color1, #8a9ace)" stroke-linejoin="miter" stroke-linecap="round" stroke-miterlimit="4" stroke-width="1.8824" d="M25.555 28.33c0.662 0.039 1.91 1.42 2.547 0.784 0.87-0.87-1.51-0.859-1.861-0.759-0.464 0.133-0.516 1.973 0.392 1.714 0.616-0.176-0.054-1.895 0.686-0.416"></path>
<path fill="none" stroke="#8a9ace" style="stroke: var(--color1, #8a9ace)" stroke-linejoin="miter" stroke-linecap="round" stroke-miterlimit="4" stroke-width="1.8824" d="M40.429 29.035c0.624 0.224 1.432 1.902 2.222 1.471 1.080-0.589-1.206-1.251-1.571-1.254-0.483-0.004-1.052 1.748-0.108 1.755 0.641 0.005 0.484-1.833 0.775-0.206"></path>
</symbol>
<symbol id="icon-Group-18" viewBox="0 0 86 32">
<path fill="none" stroke="#8a9ace" style="stroke: var(--color1, #8a9ace)" stroke-linejoin="miter" stroke-linecap="round" stroke-miterlimit="4" stroke-width="1.1429" d="M6.41 13.837c0.168 1.265-0.142 2.484-0.28 3.737-0.085 0.77-0.231 1.557-0.262 2.33-0.024 0.599-0 1.203 0.024 1.802 0.023 0.58-0.058 1.15-0.044 1.728 0.022 0.878 0.034 1.749-0.007 2.626-0.031 0.668-0.149 1.363-0.115 2.030 0.041 0.793-0.116 1.605-0.003 2.396"></path>
<path fill="none" stroke="#8a9ace" style="stroke: var(--color1, #8a9ace)" stroke-linejoin="miter" stroke-linecap="round" stroke-miterlimit="4" stroke-width="1.1429" d="M44.973 1.394c-0.367 1.223-1.15 2.206-1.791 3.292-0.394 0.667-0.85 1.324-1.197 2.016-0.268 0.536-0.495 1.097-0.719 1.652-0.217 0.538-0.526 1.024-0.75 1.557-0.34 0.809-0.688 1.608-1.085 2.391-0.303 0.596-0.696 1.181-0.939 1.804-0.289 0.74-0.766 1.416-0.988 2.183"></path>
<path fill="none" stroke="#8a9ace" style="stroke: var(--color1, #8a9ace)" stroke-linejoin="miter" stroke-linecap="round" stroke-miterlimit="4" stroke-width="1.1429" d="M78.496 12.414c-0.895 0.911-2.046 1.415-3.119 2.077-0.659 0.406-1.37 0.775-1.999 1.226-0.487 0.349-0.949 0.74-1.406 1.126-0.443 0.375-0.942 0.661-1.39 1.028-0.678 0.557-1.358 1.102-2.075 1.609-0.546 0.386-1.167 0.72-1.672 1.158-0.6 0.52-1.338 0.895-1.892 1.471"></path>
<path fill="none" stroke="#8a9ace" style="stroke: var(--color1, #8a9ace)" stroke-linejoin="miter" stroke-linecap="round" stroke-miterlimit="4" stroke-width="1.1429" d="M5.772 30.601c1.389-0.567 2.63-1.459 3.987-2.098 1.566-0.737 3.177-1.43 4.714-2.223 0.527-0.272 1.084-0.472 1.63-0.702 0.434-0.183 0.824-0.46 1.256-0.647 0.527-0.229 1.066-0.435 1.598-0.652"></path>
<path fill="none" stroke="#8a9ace" style="stroke: var(--color1, #8a9ace)" stroke-linejoin="miter" stroke-linecap="round" stroke-miterlimit="4" stroke-width="1.1429" d="M37.5 16.414c1.5 0.054 2.998-0.249 4.497-0.274 1.731-0.028 3.484 0.002 5.211-0.088 0.592-0.031 1.182 0.015 1.774 0.030 0.471 0.011 0.94-0.080 1.41-0.074 0.575 0.008 1.15 0.042 1.724 0.063"></path>
<path fill="none" stroke="#8a9ace" style="stroke: var(--color1, #8a9ace)" stroke-linejoin="miter" stroke-linecap="round" stroke-miterlimit="4" stroke-width="1.1429" d="M64.881 22.217c1.301 0.747 2.768 1.177 4.106 1.855 1.544 0.782 3.081 1.626 4.651 2.352 0.538 0.249 1.039 0.565 1.556 0.854 0.411 0.23 0.869 0.368 1.282 0.593 0.505 0.275 0.998 0.573 1.496 0.859"></path>
<path fill="none" stroke="#8a9ace" style="stroke: var(--color1, #8a9ace)" stroke-linejoin="miter" stroke-linecap="round" stroke-miterlimit="4" stroke-width="1.1429" d="M6.513 13.593c0.083 0.204 0.249 0.281 0.431 0.397 0.369 0.235 0.728 0.485 1.1 0.715 1.038 0.643 2.029 1.345 3.028 2.047 0.911 0.641 1.945 1.246 2.745 2.024 1.030 1.001 2.138 1.938 3.192 2.916 0.658 0.611 1.33 1.277 1.896 1.97 0.145 0.177 0.283 0.317 0.41 0.499 0.046 0.067-0.174 0.112-0.278 0.154"></path>
<path fill="none" stroke="#8a9ace" style="stroke: var(--color1, #8a9ace)" stroke-linejoin="miter" stroke-linecap="round" stroke-miterlimit="4" stroke-width="1.1429" d="M45.167 1.214c-0.008 0.22 0.112 0.358 0.23 0.539 0.24 0.366 0.465 0.741 0.709 1.104 0.682 1.013 1.297 2.060 1.919 3.111 0.567 0.959 1.261 1.936 1.671 2.973 0.527 1.335 1.152 2.645 1.711 3.97 0.349 0.827 0.687 1.711 0.919 2.575 0.059 0.221 0.128 0.405 0.168 0.623 0.015 0.080-0.205 0.031-0.316 0.027"></path>
<path fill="none" stroke="#8a9ace" style="stroke: var(--color1, #8a9ace)" stroke-linejoin="miter" stroke-linecap="round" stroke-miterlimit="4" stroke-width="1.1429" d="M78.751 12.345c-0.11 0.191-0.068 0.369-0.048 0.584 0.042 0.435 0.065 0.873 0.112 1.307 0.131 1.214 0.187 2.427 0.247 3.647 0.055 1.113 0.213 2.301 0.092 3.409-0.156 1.427-0.214 2.877-0.337 4.31-0.077 0.894-0.19 1.834-0.388 2.706-0.050 0.223-0.076 0.418-0.142 0.63-0.024 0.078-0.196-0.069-0.292-0.124"></path>
<path fill="none" stroke="#8a9ace" style="stroke: var(--color1, #8a9ace)" stroke-linejoin="miter" stroke-linecap="round" stroke-miterlimit="4" stroke-width="1.1429" d="M8.977 18.425c0.654 1.146 1.168 2.353 1.809 3.508"></path>
<path fill="none" stroke="#8a9ace" style="stroke: var(--color1, #8a9ace)" stroke-linejoin="miter" stroke-linecap="round" stroke-miterlimit="4" stroke-width="1.1429" d="M45.427 6.631c0.126 1.313 0.098 2.626 0.208 3.942"></path>
<path fill="none" stroke="#8a9ace" style="stroke: var(--color1, #8a9ace)" stroke-linejoin="miter" stroke-linecap="round" stroke-miterlimit="4" stroke-width="1.1429" d="M76.455 17.259c-0.501 1.22-1.138 2.368-1.654 3.584"></path>
<path fill="none" stroke="#8a9ace" style="stroke: var(--color1, #8a9ace)" stroke-linejoin="miter" stroke-linecap="round" stroke-miterlimit="4" stroke-width="1.1429" d="M11.239 23.556c-0.092 0.231-0.026 0.348 0.062 0.563 0.082 0.201 0.127 0.196 0.283 0.305 0.111 0.078 0.451-0.133 0.498-0.245 0.064-0.152 0.043-0.566-0.147-0.646-0.215-0.090-0.573-0.070-0.783 0.016"></path>
<path fill="none" stroke="#8a9ace" style="stroke: var(--color1, #8a9ace)" stroke-linejoin="miter" stroke-linecap="round" stroke-miterlimit="4" stroke-width="1.1429" d="M45.379 12.239c-0.178 0.173-0.167 0.306-0.175 0.539-0.008 0.218 0.035 0.231 0.133 0.394 0.069 0.116 0.466 0.064 0.555-0.019 0.12-0.112 0.272-0.498 0.132-0.649-0.159-0.171-0.494-0.299-0.72-0.307"></path>
<path fill="none" stroke="#8a9ace" style="stroke: var(--color1, #8a9ace)" stroke-linejoin="miter" stroke-linecap="round" stroke-miterlimit="4" stroke-width="1.1429" d="M73.798 22.198c-0.239 0.070-0.29 0.193-0.406 0.395-0.108 0.189-0.076 0.22-0.066 0.411 0.007 0.135 0.382 0.274 0.5 0.242 0.159-0.043 0.473-0.314 0.419-0.513-0.061-0.225-0.297-0.495-0.494-0.608"></path>
</symbol>
<symbol id="icon-Group" viewBox="0 0 23 32">
<path d="M2.4 5.844c-0.131-0.025-0.263 0.041-0.341 0.147l-0.017 0.029c-0.033 0.035-0.061 0.074-0.081 0.119-0.047 0.102-0.064 0.228-0.068 0.341-0.003 0.097 0.005 0.194 0.020 0.29-0.001 0.067-0 0.133 0.004 0.2 0.006 0.101 0.035 0.206 0.096 0.288 0.083 0.111 0.232 0.175 0.368 0.142 0.143-0.034 0.254-0.129 0.313-0.265 0.038-0.087 0.046-0.181 0.050-0.274 0.012-0.055 0.019-0.111 0.023-0.164 0.018-0.196 0.009-0.434-0.080-0.613-0.059-0.119-0.154-0.214-0.287-0.239z"></path>
<path d="M8.445 5.844c-0.131-0.025-0.263 0.041-0.341 0.147l-0.017 0.029c-0.033 0.035-0.061 0.074-0.081 0.119-0.047 0.102-0.064 0.228-0.068 0.341-0.003 0.097 0.005 0.194 0.020 0.29-0.001 0.067-0 0.133 0.004 0.2 0.006 0.101 0.035 0.206 0.096 0.288 0.083 0.111 0.232 0.175 0.368 0.142 0.143-0.034 0.254-0.129 0.313-0.265 0.038-0.087 0.046-0.181 0.050-0.274 0.012-0.055 0.019-0.111 0.024-0.164 0.017-0.196 0.009-0.434-0.080-0.613-0.059-0.119-0.154-0.214-0.287-0.239z"></path>
<path d="M5.481 8.728c-0.021-0.176-0.034-0.379-0.125-0.534-0.060-0.103-0.16-0.168-0.278-0.18-0.138-0.014-0.269 0.066-0.347 0.178-0.096 0.14-0.152 0.311-0.181 0.478-0.030 0.17-0.025 0.354 0.014 0.522 0.045 0.192 0.123 0.419 0.281 0.544 0.089 0.070 0.235 0.074 0.323-0.002 0.035-0.030 0.057-0.067 0.074-0.105 0.143-0.065 0.234-0.211 0.258-0.371 0.013-0.087 0.006-0.178 0.001-0.265s-0.012-0.177-0.022-0.264z"></path>
<path d="M22.393 18.821c-0.172-0.399-0.668-0.576-1.071-0.495-0.502 0.101-0.867 0.565-1.111 0.987-0.022 0.039-0.035 0.078-0.039 0.117-0.328-0.226-0.595-0.525-0.852-0.828-0.286-0.337-0.57-0.674-0.868-1-0.617-0.677-1.267-1.323-1.933-1.95-0.699-0.658-1.416-1.294-2.167-1.889 2.104-1.314 3.47-3.421 3.47-5.793 0-3.974-3.834-7.206-8.548-7.206s-8.548 3.233-8.548 7.206c0 3.415 2.832 6.28 6.62 7.019-0.186 0.436-0.277 0.94-0.402 1.383-0.163 0.578-0.325 1.156-0.486 1.734-0.297 1.067-0.594 2.133-0.901 3.197-0.541-0.297-1.131-0.524-1.748-0.311-0.58 0.2-0.962 0.855-0.695 1.452 0.308 0.69 1.218 0.551 1.801 0.393 0.57-0.155 1.38-0.716 1.102-1.42 0.277-1.049 0.562-2.095 0.847-3.141 0.154-0.564 0.307-1.129 0.46-1.694 0.078-0.29 0.159-0.58 0.235-0.87 0.047-0.177 0.101-0.362 0.138-0.547-0.087 0.924-0.114 1.858-0.162 2.784-0.052 1.018-0.105 2.036-0.166 3.054-0.050 0.833 0 1.634 0.612 2.256 0.506 0.515 1.203 0.788 1.892 0.947 0.166 0.038 0.344 0.071 0.531 0.098-0.066 1.007 0.004 2.024 0.040 3.032 0.029 0.807 0.059 1.614 0.089 2.421-0.566-0.243-1.179-0.354-1.796-0.326-0.505 0.023-1.31 0.12-1.506 0.693-0.090 0.264 0.024 0.549 0.232 0.72 0.259 0.213 0.589 0.221 0.907 0.211 0.83-0.027 1.658-0.092 2.482-0.191 0.145-0.017 0.219-0.155 0.213-0.29-0.048-1.087-0.093-2.174-0.141-3.262-0.043-0.989-0.054-1.989-0.194-2.969 1.074 0.109 2.396 0.036 3.569-0.291 0.326 1.092 0.773 2.15 1.182 3.211 0.378 0.979 0.757 1.957 1.137 2.935-0.616-0.165-1.26-0.208-1.895-0.118-0.544 0.077-1.746 0.293-1.71 1.061 0.018 0.397 0.38 0.53 0.71 0.587 0.397 0.069 0.802 0.086 1.204 0.066 0.835-0.041 1.656-0.28 2.389-0.684 0.201-0.111 0.165-0.378 0.025-0.475 0.001-0.035-0.003-0.071-0.017-0.108-0.451-1.142-0.907-2.282-1.364-3.421-0.423-1.056-0.814-2.139-1.318-3.159 1.764-0.585 3.078-1.797 2.467-3.907-0.15-0.519-0.383-1.008-0.607-1.498-0.238-0.518-0.475-1.037-0.713-1.555-0.392-0.854-0.779-1.712-1.181-2.562 0.584 0.572 1.184 1.128 1.768 1.702 0.824 0.809 1.616 1.653 2.342 2.553 0.568 0.704 1.206 1.543 2.182 1.601 0.394 0.024 0.817-0.074 1.126-0.333 0.313-0.263 0.537-0.724 0.362-1.128zM5.409 22.032c-0.178 0.191-0.435 0.288-0.682 0.346-0.329 0.076-1.064 0.262-1.188-0.209-0.115-0.438 0.305-0.722 0.682-0.755 0.467-0.042 0.913 0.207 1.313 0.431-0.032 0.065-0.070 0.128-0.125 0.187zM8.989 30.503c-0.286 0.018-0.578 0.047-0.864 0.039-0.161-0.004-0.583-0.085-0.414-0.339 0.113-0.172 0.396-0.224 0.578-0.259 0.256-0.050 0.518-0.074 0.778-0.066 0.522 0.017 1.021 0.151 1.488 0.382 0.001 0.039 0.003 0.078 0.004 0.118-0.523 0.049-1.046 0.093-1.57 0.125zM15.339 31.215c-0.312 0.043-0.626 0.059-0.941 0.042-0.149-0.008-0.297-0.022-0.444-0.043-0.073-0.010-0.375-0.018-0.403-0.099-0.020-0.058 0.18-0.182 0.216-0.202 0.121-0.067 0.262-0.11 0.394-0.151 0.314-0.097 0.642-0.153 0.97-0.175 0.551-0.037 1.104 0.041 1.626 0.217-0.451 0.202-0.925 0.343-1.417 0.411zM1.294 7.968c0-3.658 3.58-6.634 7.981-6.634s7.981 2.976 7.981 6.634c0 3.658-3.58 6.634-7.981 6.634s-7.981-2.976-7.981-6.634zM16.253 19.155c0.353 0.76 0.741 1.654 0.464 2.501-0.212 0.651-0.748 1.12-1.329 1.437-1.436 0.783-3.25 0.942-4.844 0.72-0.68-0.094-1.384-0.267-1.95-0.678-0.258-0.188-0.489-0.419-0.628-0.712-0.183-0.386-0.19-0.818-0.178-1.237 0.030-1.049 0.081-2.096 0.127-3.144 0.043-0.98 0.108-1.964 0.106-2.945 0.409 0.051 0.827 0.078 1.252 0.078 1.687 0 3.26-0.416 4.586-1.13 0.766 1.717 1.601 3.404 2.393 5.109zM21.886 19.27c-0.207 0.484-0.778 0.521-1.247 0.382l0.006-0.006c0.197-0.282 0.4-0.682 0.758-0.781 0.267-0.074 0.62 0.088 0.484 0.406z"></path>
</symbol>
<symbol id="icon-Icon-Container" viewBox="0 0 16 32">
<path d="M14.131 3.883c-0.913-1.315-2.226-2.426-3.834-3.131-1.163-0.51-2.357-0.752-3.501-0.752-1.414 0-2.755 0.37-3.87 1.066s-2.006 1.722-2.504 3.022c-0.286 0.744-0.421 1.522-0.421 2.3 0 1.52 0.515 3.040 1.428 4.355 0.721 1.038 1.695 1.946 2.863 2.63-0.749 1.539-1.186 3.298-1.376 5.006-0.106 0.959-0.135 1.928-0.090 2.893 0.039 0.827 0.094 1.754 0.588 2.436 0.367 0.507 0.911 0.763 1.479 0.914-0.076 0.379-0.029 0.814-0.034 1.193-0.006 0.466-0.012 0.931-0.016 1.397-0.008 0.919 0.026 1.85-0.025 2.767-0.002 0.034-0.008 0.064-0.013 0.094-0.345-0.092-0.633-0.346-0.974-0.457-0.318-0.103-0.666-0.085-0.927 0.154-0.247 0.226-0.321 0.588-0.154 0.892 0.179 0.325 0.529 0.448 0.865 0.458 0.584 0.018 1.402-0.054 1.582-0.776 0.103-0.412 0.047-0.885 0.047-1.308 0-0.466 0.001-0.933 0.001-1.399 0-0.544-0-1.088-0.003-1.633-0.001-0.264-0.002-0.529-0.003-0.793-0.001-0.171 0.005-0.344-0.014-0.514 0.077 0.016 0.155 0.031 0.231 0.044 0.808 0.14 1.632 0.188 2.451 0.148-0.111 0.402-0.054 0.885-0.060 1.3-0.006 0.466-0.012 0.931-0.016 1.397-0.007 0.919 0.026 1.85-0.025 2.767-0.002 0.034-0.008 0.064-0.013 0.094-0.345-0.092-0.633-0.346-0.974-0.457-0.318-0.103-0.666-0.085-0.927 0.154-0.247 0.226-0.321 0.588-0.154 0.892 0.179 0.325 0.529 0.448 0.865 0.458 0.584 0.018 1.402-0.054 1.582-0.776 0.103-0.412 0.047-0.885 0.047-1.308 0-0.466 0.001-0.933 0.001-1.399 0-0.544-0-1.088-0.003-1.633-0.001-0.264-0.002-0.529-0.003-0.793-0.001-0.239 0.012-0.483-0.051-0.715 0.046-0.003 0.093-0.006 0.14-0.010 0.784-0.068 1.607-0.298 2.051-1.054 0.426-0.725 0.445-1.628 0.432-2.457-0.030-1.837-0.455-3.629-0.962-5.381 0.12 0.302 0.236 0.604 0.349 0.909 0.301 0.817 0.573 1.646 0.816 2.485 0.189 0.654 0.359 1.313 0.511 1.978-0.019 0.016-0.036 0.036-0.051 0.062-0.406 0.713-0.836 1.523-0.618 2.387 0.181 0.718 0.869 1.233 1.557 0.958 0.089-0.035 0.144-0.15 0.129-0.248-0.261-1.767-0.642-3.514-1.141-5.222-0.249-0.852-0.529-1.693-0.838-2.522-0.155-0.414-0.317-0.825-0.488-1.233-0.123-0.295-0.235-0.683-0.435-0.951 1.094-0.12 2.122-0.463 3.008-1.015 1.115-0.696 2.005-1.722 2.504-3.022 0.286-0.744 0.421-1.522 0.421-2.3 0-1.52-0.515-3.040-1.428-4.355zM4.204 30.58c-0.291 0.046-0.797 0.135-1.017-0.118-0.115-0.133-0.076-0.283 0.062-0.379 0.183-0.128 0.42-0.052 0.605 0.031 0.242 0.109 0.463 0.253 0.705 0.348-0.098 0.060-0.218 0.097-0.355 0.118zM7.191 30.956c-0.291 0.046-0.797 0.135-1.017-0.118-0.115-0.133-0.076-0.283 0.061-0.379 0.184-0.128 0.42-0.052 0.605 0.031 0.242 0.109 0.463 0.253 0.705 0.348-0.098 0.060-0.218 0.097-0.355 0.118zM12.066 24.36c-0.462 0.049-0.797-0.474-0.829-0.935-0.036-0.511 0.178-0.986 0.418-1.422 0.163 0.78 0.299 1.566 0.411 2.358zM8.903 14.89c0.549 1.778 1.113 3.563 1.301 5.435 0.084 0.833 0.138 1.749-0.062 2.569-0.079 0.324-0.213 0.648-0.444 0.881-0.273 0.276-0.644 0.399-1.006 0.465-0.82 0.149-1.684 0.129-2.509 0.041-0.71-0.075-1.552-0.156-2.13-0.651-0.59-0.504-0.654-1.399-0.7-2.144-0.053-0.873-0.038-1.749 0.041-2.619 0.089-0.983 0.255-1.956 0.494-2.91 0.204-0.815 0.478-1.596 0.763-2.378 0.199 0.105 0.402 0.204 0.611 0.295 1.163 0.51 2.357 0.752 3.501 0.752 0.057 0 0.113-0.004 0.17-0.006-0.044 0.074-0.063 0.166-0.031 0.27zM14.65 10.324c-0.452 1.177-1.256 2.107-2.282 2.749s-2.276 0.989-3.604 0.989c-1.075 0-2.201-0.228-3.301-0.71-1.52-0.666-2.757-1.716-3.611-2.946s-1.325-2.636-1.324-4.019c0-0.709 0.123-1.411 0.382-2.086 0.452-1.177 1.255-2.107 2.282-2.749s2.276-0.989 3.604-0.989c1.075 0 2.201 0.228 3.301 0.71 1.52 0.666 2.757 1.716 3.611 2.946s1.325 2.636 1.324 4.019c-0 0.708-0.123 1.411-0.382 2.086z"></path>
<path d="M9.17 3.921c-0.030-0.126-0.12-0.235-0.242-0.262-0.124-0.027-0.239 0.022-0.331 0.109-0.139 0.13-0.23 0.343-0.283 0.528-0.014 0.050-0.028 0.104-0.037 0.158-0.029 0.087-0.055 0.175-0.053 0.268 0.003 0.146 0.066 0.275 0.177 0.359 0.106 0.081 0.256 0.079 0.367 0.009 0.081-0.051 0.143-0.136 0.183-0.226 0.026-0.059 0.050-0.119 0.073-0.18 0.046-0.081 0.087-0.166 0.118-0.256 0.036-0.104 0.066-0.225 0.061-0.336-0.002-0.048-0.012-0.095-0.028-0.139l-0.004-0.033z"></path>
<path d="M3.44 2.767c-0.030-0.126-0.12-0.235-0.242-0.262-0.124-0.027-0.239 0.022-0.331 0.109-0.139 0.13-0.23 0.343-0.283 0.528-0.014 0.050-0.028 0.104-0.037 0.158-0.029 0.087-0.055 0.175-0.053 0.268 0.003 0.146 0.066 0.275 0.177 0.359 0.106 0.081 0.256 0.079 0.367 0.009 0.081-0.051 0.143-0.136 0.183-0.226 0.026-0.059 0.050-0.119 0.073-0.18 0.046-0.081 0.087-0.166 0.118-0.256 0.036-0.104 0.066-0.225 0.061-0.336-0.002-0.048-0.012-0.095-0.028-0.139l-0.005-0.033z"></path>
<path d="M5.21 5.785c0.017-0.081-0.061-0.157-0.136-0.122-0.099 0.046-0.174 0.13-0.245 0.215-0.070 0.084-0.122 0.188-0.166 0.289-0.086 0.196-0.126 0.424-0.125 0.639 0.001 0.082 0.022 0.152 0.093 0.196 0.062 0.038 0.15 0.037 0.207-0.014 0.273-0.249 0.45-0.583 0.519-0.958 0.014-0.078-0.026-0.163-0.083-0.21-0.021-0.017-0.042-0.027-0.064-0.035z"></path>
</symbol>
<symbol id="icon-Icon-Container-1" viewBox="0 0 47 32">
<path fill="none" stroke="#8a9ace" style="stroke: var(--color1, #8a9ace)" stroke-linejoin="miter" stroke-linecap="round" stroke-miterlimit="4" stroke-width="1.28" d="M17.706 7.85c0-2.477 2.592-3.905 4.869-3.905 2.891 0 5.981 2.788 6.388 5.641 0.316 2.214 0.446 4.952-1.519 6.075-1.136 0.649-2.407 0.686-3.447 1.495-0.536 0.417-1.515 0.384-2.17 0.675-1.762 0.783-2.56 2.366-3.688 3.905"></path>
<path fill="none" stroke="#8a9ace" style="stroke: var(--color1, #8a9ace)" stroke-linejoin="miter" stroke-linecap="round" stroke-miterlimit="4" stroke-width="1.28" d="M0.833 3.618c0-0.868-0.023-1.619 0.971-1.974 0.904-0.323 1.989-0.538 2.929-0.175 1.617 0.625 2.018 2.464 1.114 3.9-0.228 0.363-0.275 0.781-0.573 1.114-0.184 0.206-0.499 0.507-0.605 0.748-0.277 0.63-1.398 1.041-1.83 1.655-0.606 0.862-1.238 2.902-0.573 3.9"></path>
<path fill="none" stroke="#8a9ace" style="stroke: var(--color1, #8a9ace)" stroke-linejoin="miter" stroke-linecap="round" stroke-miterlimit="4" stroke-width="1.28" d="M1.979 15.651c0 0.090-0.042 1.351 0.255 1.114 0.225-0.18 0.193-1.007 0.032-0.684"></path>
<path fill="none" stroke="#8a9ace" style="stroke: var(--color1, #8a9ace)" stroke-linejoin="miter" stroke-linecap="round" stroke-miterlimit="4" stroke-width="1.28" d="M16.59 24.962c0.031 0.987 0.591 0.801 0.828 0.032 0.137-0.447-0.348-0.343-0.597-0.159-0.153 0.113-0.419 0.723-0.088 0.557"></path>
<path fill="none" stroke="#8a9ace" style="stroke: var(--color1, #8a9ace)" stroke-linejoin="miter" stroke-linecap="round" stroke-miterlimit="4" stroke-width="1.28" d="M38.507 18.516c0.103-0.879 2.843-0.399 3.327-0.286 1.434 0.332 3.122 1.632 3.605 3.080 0.918 2.755-0.553 5.215-3.175 6.231-1.45 0.562-2.891 0.86-4.441 0.86-1.29 0-2.698 0.163-3.979-0.008-1.796-0.239-3.873-0.379-5.507 0.438"></path>
<path fill="none" stroke="#8a9ace" style="stroke: var(--color1, #8a9ace)" stroke-linejoin="miter" stroke-linecap="round" stroke-miterlimit="4" stroke-width="1.28" d="M25.328 30.119c-0.489 0.073-1.348 1.151-0.645 0.995 0.623-0.138-0.060-1.157-0.207-0.493-0.13 0.583 0.391 0.621 0.422 0.072 0.042-0.76-0.143 0.131-0.143 0.43"></path>
</symbol>
<symbol id="icon-Icon-Container-2" viewBox="0 0 36 32">
<path fill="none" stroke="#8a9ace" style="stroke: var(--color1, #8a9ace)" stroke-linejoin="miter" stroke-linecap="round" stroke-miterlimit="4" stroke-width="0.3404" d="M11.18 5.37c-0.178-0.756-0.283-1.526-0.441-2.287-0.165-0.793-0.415-1.621-0.482-2.42"></path>
<path fill="none" stroke="#8a9ace" style="stroke: var(--color1, #8a9ace)" stroke-linejoin="miter" stroke-linecap="round" stroke-miterlimit="4" stroke-width="0.3404" d="M18.194 5.646c0-1.179 0.5-2.355 1.015-3.414 0.211-0.434 0.346-0.9 0.549-1.338 0.111-0.24 0.301-0.471 0.374-0.692"></path>
<path fill="none" stroke="#8a9ace" style="stroke: var(--color1, #8a9ace)" stroke-linejoin="miter" stroke-linecap="round" stroke-miterlimit="4" stroke-width="0.3404" d="M24.561 6.477c0.606-0.704 1.412-1.319 2.143-1.897 0.231-0.182 0.914-0.537 0.995-0.779"></path>
<path fill="none" stroke="#8a9ace" style="stroke: var(--color1, #8a9ace)" stroke-linejoin="miter" stroke-linecap="round" stroke-miterlimit="4" stroke-width="0.3404" d="M29.36 9.43c1.807-0.249 3.715-0.461 5.537-0.461"></path>
<path fill="none" stroke="#8a9ace" style="stroke: var(--color1, #8a9ace)" stroke-linejoin="miter" stroke-linecap="round" stroke-miterlimit="4" stroke-width="0.3404" d="M30.56 15.52c0.038-0.308 4.747 0.461 5.168 0.461"></path>
<path fill="none" stroke="#8a9ace" style="stroke: var(--color1, #8a9ace)" stroke-linejoin="miter" stroke-linecap="round" stroke-miterlimit="4" stroke-width="0.3404" d="M30.006 21.611c1.328 0.823 2.669 1.628 4.152 2.122"></path>
<path fill="none" stroke="#8a9ace" style="stroke: var(--color1, #8a9ace)" stroke-linejoin="miter" stroke-linecap="round" stroke-miterlimit="4" stroke-width="0.3404" d="M24.469 26.317c0.5 1.275 1.155 2.377 1.733 3.599 0.258 0.546 0.425 1.161 0.759 1.661"></path>
<path fill="none" stroke="#8a9ace" style="stroke: var(--color1, #8a9ace)" stroke-linejoin="miter" stroke-linecap="round" stroke-miterlimit="4" stroke-width="0.3404" d="M17.363 26.594c0 1.677 0.277 3.31 0.277 4.983"></path>
<path fill="none" stroke="#8a9ace" style="stroke: var(--color1, #8a9ace)" stroke-linejoin="miter" stroke-linecap="round" stroke-miterlimit="4" stroke-width="0.3404" d="M13.026 26.963c-0.736 0.951-1.478 1.893-2.215 2.84-0.346 0.445-0.588 0.958-0.923 1.405"></path>
<path fill="none" stroke="#8a9ace" style="stroke: var(--color1, #8a9ace)" stroke-linejoin="miter" stroke-linecap="round" stroke-miterlimit="4" stroke-width="0.3404" d="M4.721 25.948c-0.368 0.267-0.74 0.53-1.107 0.795-0.253 0.183-0.392 0.484-0.646 0.682-0.231 0.179-0.646 0.413-0.646 0.738"></path>
<path fill="none" stroke="#8a9ace" style="stroke: var(--color1, #8a9ace)" stroke-linejoin="miter" stroke-linecap="round" stroke-miterlimit="4" stroke-width="0.3404" d="M3.244 19.212c-0.897 0-1.777 0.092-2.676 0.092"></path>
<path fill="none" stroke="#8a9ace" style="stroke: var(--color1, #8a9ace)" stroke-linejoin="miter" stroke-linecap="round" stroke-miterlimit="4" stroke-width="0.3404" d="M2.875 12.844c-0.772-0.592-1.663-0.785-2.584-1.015"></path>
<path fill="none" stroke="#8a9ace" style="stroke: var(--color1, #8a9ace)" stroke-linejoin="miter" stroke-linecap="round" stroke-miterlimit="4" stroke-width="0.3404" d="M4.998 6.2c-1.078-1.403-2.001-2.806-2.948-4.286-0.285-0.445-0.652-0.837-0.928-1.251"></path>
</symbol>
<symbol id="icon-Left-Arrow-Icon" viewBox="0 0 32 32">
<path stroke-linejoin="round" stroke-linecap="round" stroke-miterlimit="4" stroke-width="2.6667" d="M27 16h-22"></path>
<path stroke-linejoin="round" stroke-linecap="round" stroke-miterlimit="4" stroke-width="2.6667" d="M14 7.375l-9 8.625 9 8.625"></path>
</symbol>
<symbol id="icon-Menu-Icon" viewBox="0 0 32 32">
<path fill="none" stroke="#8a9ace" style="stroke: var(--color1, #8a9ace)" stroke-linejoin="miter" stroke-linecap="round" stroke-miterlimit="4" stroke-width="0.7619" d="M0.927 0.762c2.525 0 5.050 0 7.575 0 3.351 0 6.69 0.222 10.043 0.222 4.231 0 8.462 0 12.693 0"></path>
<path fill="none" stroke="#8a9ace" style="stroke: var(--color1, #8a9ace)" stroke-linejoin="miter" stroke-linecap="round" stroke-miterlimit="4" stroke-width="0.7619" d="M1.146 11.994c4.765 0 9.527 0.222 14.286 0.222 2.085 0 4.322 0.235 6.383-0.056 2.807-0.396 5.709-0.389 8.547-0.389"></path>
<path fill="none" stroke="#8a9ace" style="stroke: var(--color1, #8a9ace)" stroke-linejoin="miter" stroke-linecap="round" stroke-miterlimit="4" stroke-width="0.7619" d="M1.474 22.558c2.305 0 4.605-0.116 6.894-0.327 4.159-0.384 8.36 0.105 12.529 0.105 3.192 0 6.383 0 9.575 0"></path>
<path fill="none" stroke="#8a9ace" style="stroke: var(--color1, #8a9ace)" stroke-linejoin="miter" stroke-linecap="round" stroke-miterlimit="4" stroke-width="0.7619" d="M0.762 31.016c2.525 0 5.050 0 7.575 0 3.351 0 6.69 0.222 10.043 0.222 4.231 0 8.462 0 12.693 0"></path>
</symbol>
<symbol id="icon-Puzzle-Container" viewBox="0 0 32 32">
<path fill="none" stroke="#8a9ace" style="stroke: var(--color1, #8a9ace)" stroke-linejoin="miter" stroke-linecap="round" stroke-miterlimit="4" stroke-width="0.7619" d="M0.762 31.016c2.525 0 5.050 0 7.575 0 3.351 0 6.69 0.222 10.043 0.222 4.231 0 8.462 0 12.693 0"></path>
</symbol>
<symbol id="icon-Right-Arrow-Icon" viewBox="0 0 32 32">
<path stroke-linejoin="round" stroke-linecap="round" stroke-miterlimit="4" stroke-width="2.6667" d="M5 16h22"></path>
<path stroke-linejoin="round" stroke-linecap="round" stroke-miterlimit="4" stroke-width="2.6667" d="M18 24.625l9-8.625-9-8.625"></path>
</symbol>
<symbol id="icon-Shape-Group" viewBox="0 0 55 32">
<path fill="none" stroke="#8a9ace" style="stroke: var(--color1, #8a9ace)" stroke-linejoin="miter" stroke-linecap="round" stroke-miterlimit="4" stroke-width="0.4267" d="M8.143 3.023c0.036-1.277 1.649-1.431 2.334-1.327 0.347 0.053 0.714 0.23 1.052 0.346 0.513 0.176 1.044 0.241 1.571 0.307 0.977 0.122 2.077 0.17 3.048-0.040 0.439-0.095 0.923-0.168 1.322-0.455 0.348-0.251 0.536-0.703 0.789-1.089 0.328-0.501 0.914-0.372 1.301-0.094 0.568 0.408 1.087 0.941 1.646 1.371 0.574 0.442 1.201 0.356 1.852 0.356"></path>
<path fill="none" stroke="#8a9ace" style="stroke: var(--color1, #8a9ace)" stroke-linejoin="miter" stroke-linecap="round" stroke-miterlimit="4" stroke-width="0.4267" d="M29.802 1.597c0 0.424-0.002 0.535 0.324 0.535 0.206 0 0.305-0.049 0.375-0.337 0.020-0.082 0.051-0.432-0.022-0.46-0.258-0.101-0.807-0.125-0.807 0.351 0 0.385 0.321 0.271 0.454 0.089"></path>
<path fill="none" stroke="#8a9ace" style="stroke: var(--color1, #8a9ace)" stroke-linejoin="miter" stroke-linecap="round" stroke-miterlimit="4" stroke-width="0.4267" d="M35.574 1.686c0.072-0.263 0.819-0.183 0.973-0.178 0.644 0.020 1.31 0.333 1.945 0.49 1.456 0.36 2.845-0.060 4.247-0.574 1.065-0.39 1.976-0.059 2.95 0.549 0.847 0.529 1.961 0.401 2.854 0.248"></path>
<path fill="none" stroke="#8a9ace" style="stroke: var(--color1, #8a9ace)" stroke-linejoin="miter" stroke-linecap="round" stroke-miterlimit="4" stroke-width="0.4267" d="M52.563 3.468c-0.255 0.087 0.057 0.891 0.292 0.891 0.3 0 0.616-0.024 0.616-0.535 0-0.461-0.109-0.624-0.454-0.624-0.543 0-0.519 0.142-0.519 0.802"></path>
<path fill="none" stroke="#8a9ace" style="stroke: var(--color1, #8a9ace)" stroke-linejoin="miter" stroke-linecap="round" stroke-miterlimit="4" stroke-width="0.4267" d="M53.796 10.863c-0.226 0.069-0.324 1.132-0.324 1.381 0 0.872 0.175 1.678 0.245 2.539 0.129 1.571-0.115 3.12-0.115 4.682 0 1.446 0.389 2.791 0.389 4.227 0 0.519 0.043 0.837-0.324 1.089-0.207 0.142-0.195 0.589-0.195 0.871"></path>
<path fill="none" stroke="#8a9ace" style="stroke: var(--color1, #8a9ace)" stroke-linejoin="miter" stroke-linecap="round" stroke-miterlimit="4" stroke-width="0.4267" d="M52.174 29.662c-0.132 0.614-0.173 1.365 0.357 1.554 0.355 0.127 0.842-0.151 0.695-0.733-0.091-0.363-0.473-0.287-0.695-0.287-0.332 0-0.486-0.003-0.486 0.445"></path>
<path fill="none" stroke="#8a9ace" style="stroke: var(--color1, #8a9ace)" stroke-linejoin="miter" stroke-linecap="round" stroke-miterlimit="4" stroke-width="0.4267" d="M48.218 30.998c-0.715-0.21-1.302-0.913-2.064-0.975-0.831-0.067-1.652 0.037-2.471 0.218-2.028 0.448-4.016 1.025-6.085 1.025-0.219 0-0.378-0.153-0.576-0.267-0.55-0.316-1.155-0.324-1.744-0.351-0.666-0.032-1.064 0.279-1.621 0.708-0.341 0.262-0.814 0.509-1.196 0.267-0.22-0.139-0.39-0.313-0.584-0.445"></path>
<path fill="none" stroke="#8a9ace" style="stroke: var(--color1, #8a9ace)" stroke-linejoin="miter" stroke-linecap="round" stroke-miterlimit="4" stroke-width="0.4267" d="M29.543 30.642c-0.356 0.673-0.064 0.759 0.458 0.797 0.465 0.034 0.969 0.197 0.969-0.599 0-1.073-1.067-0.344-1.491-0.198"></path>
<path fill="none" stroke="#8a9ace" style="stroke: var(--color1, #8a9ace)" stroke-linejoin="miter" stroke-linecap="round" stroke-miterlimit="4" stroke-width="0.4267" d="M25.198 31.266c-1.292 0-2.531-0.42-3.83-0.351-0.853 0.045-1.672 0.46-2.518 0.525-0.446 0.034-0.687 0.023-1.059-0.332-0.423-0.403-0.946-0.927-1.463-1.069-0.531-0.146-1.082 0.066-1.603 0.158-0.465 0.082-0.925 0.356-1.394 0.356-0.389 0-0.778 0-1.167 0"></path>
<path fill="none" stroke="#8a9ace" style="stroke: var(--color1, #8a9ace)" stroke-linejoin="miter" stroke-linecap="round" stroke-miterlimit="4" stroke-width="0.4267" d="M7.819 29.84c-0.22 0.944 0.908 1.452 0.908 0.757 0-0.829-0.834-0.668-1.297-0.668"></path>
<path fill="none" stroke="#8a9ace" style="stroke: var(--color1, #8a9ace)" stroke-linejoin="miter" stroke-linecap="round" stroke-miterlimit="4" stroke-width="0.4267" d="M2.113 28.771c-0.617-1.035-0.86-2.81-0.677-4.098 0.145-1.026 0.288-1.925 0.288-2.985 0-1.102-0.167-2.267-0.533-3.252-0.329-0.885-0.764-1.444-0.764-2.495 0-0.87 0.468-1.544 0.807-2.227 0.196-0.396 0.992-2.64 0.555-2.94"></path>
<path fill="none" stroke="#8a9ace" style="stroke: var(--color1, #8a9ace)" stroke-linejoin="miter" stroke-linecap="round" stroke-miterlimit="4" stroke-width="0.4267" d="M2.696 4.448c0.167 0 0.775 0.243 0.908 0.050 0.088-0.129 0.123-0.673 0.025-0.807-0.264-0.362-0.794-0.223-1.128-0.223"></path>
<path fill="none" stroke="#8a9ace" style="stroke: var(--color1, #8a9ace)" stroke-linejoin="miter" stroke-linecap="round" stroke-miterlimit="4" stroke-width="0.4267" d="M2.65 3.505c0 0.259-0.051 0.612 0.055 0.831"></path>
</symbol>
<symbol id="icon-Vector-1" viewBox="0 0 3 32">
<path fill="none" stroke="#8a9ace" style="stroke: var(--color1, #8a9ace)" stroke-linejoin="miter" stroke-linecap="round" stroke-miterlimit="4" stroke-width="0.1226" d="M1.837 0.123c-0.053 0.393-0.484 0.647-0.498 1.074-0.012 0.375 0.004 0.892 0.194 1.237 0.057 0.103-0.011 0.224 0.055 0.323 0.103 0.153 0.127 0.488 0.138 0.664 0.016 0.25 0.111 0.503 0.111 0.756 0 0.626 0.387 1.248 0.387 1.879 0 0.287 0.166 0.534 0.166 0.812 0 0.303 0.111 0.599 0.111 0.906 0 0.351 0 0.703 0 1.054 0 0.334-0.099 0.616-0.169 0.937-0.053 0.244-0.153 0.471-0.23 0.713-0.044 0.137-0.128 0.228-0.206 0.346-0.087 0.132-0.094 0.283-0.194 0.412-0.185 0.241-0.268 0.583-0.418 0.845-0.231 0.405-0.296 0.862-0.473 1.28-0.248 0.588-0.578 1.294-0.578 1.925 0 0.761-0.111 1.524-0.111 2.294 0 0.357 0.078 0.755 0.194 1.1 0.17 0.508 0.225 1.040 0.427 1.548 0.749 1.884 1.6 3.764 2.021 5.728 0.161 0.752 0.178 1.487 0.178 2.255 0 0.307-0.081 0.685-0.166 0.985-0.040 0.142-0.031 0.302-0.098 0.435-0.037 0.073-0.118 0.248-0.123 0.321-0.012 0.187-0.051 0.404-0.166 0.57-0.096 0.14-0.044 0.319-0.055 0.484-0.014 0.191-0.287 0.752 0 0.871"></path>
</symbol>
<symbol id="icon-Vector-3" viewBox="0 0 72 32">
<path fill="none" stroke="#8a9ace" style="stroke: var(--color1, #8a9ace)" stroke-linejoin="miter" stroke-linecap="round" stroke-miterlimit="4" stroke-width="1.1034" d="M70.621 1.103c-5.65 0-5.874 4.683-10.010 6.922-1.156 0.626-2.141 1.107-3.337 1.625-6.893 2.984-16.4-0.094-22.833 4.213-2.606 1.745-5.146 4.408-8.033 5.658-2.158 0.934-4.134 2.765-5.839 4.334-1.777 1.635-4.704 1.083-6.952 1.083-2.233 0-5.212 1.202-6.952 2.708-1.356 1.174-3.729 3.25-5.561 3.25"></path>
</symbol>
<symbol id="icon-Vector-30-1" viewBox="0 0 116 32">
<path fill="none" stroke="#8a9ace" style="stroke: var(--color1, #8a9ace)" stroke-linejoin="miter" stroke-linecap="round" stroke-miterlimit="4" stroke-width="1.2308" d="M1.231 1.231c0.737 0.636 1.862 0.64 2.713 1.107 2.668 1.464 5.391 2.924 8.099 4.312 2.571 1.318 4.448 2.497 7.431 2.748 3.692 0.31 7.459-0.267 11.166-0.267 3.594 0 7.23 0.314 10.714 1.221 2.359 0.614 4.085 2.469 6.232 3.511 3.505 1.701 6.044 2.484 10.144 2.519 2.749 0.023 8.187-0.075 10.93 0 2.149 0.058 4.323-0.024 6.153 1.145 1.007 0.643 1.893 1.409 2.87 2.061 3.151 2.103 5.652 4.77 9.003 6.698 3.88 2.232 9.759 0.084 13.898 0.019 2.896-0.045 5.948-0.191 8.414 1.565 1.702 1.212 3.293 2.9 5.465 2.9"></path>
</symbol>
<symbol id="icon-Vector-30" viewBox="0 0 422 32">
<path fill="none" stroke="#8a9ace" style="stroke: var(--color1, #8a9ace)" stroke-linejoin="miter" stroke-linecap="round" stroke-miterlimit="4" stroke-width="1.4545" d="M414.877 23.756c0.841-0.146 2.026-3.379 2.575-4.397 0.621-1.153 1.319-1.987 1.996-3.044 2.796-4.369-1.463-2.45-3.993-2.029-4.413 0.734-9.857 1.831-14.285 2.104-2.247 0.139-6.035 0.839-7.817-2.292-0.432-0.759-1.033-1.425-1.42-2.18-0.72-1.407-1.503-1.066-2.452-0.188-4.32 3.988-9.258 7.482-12.892 13.002-0.938 1.427-2.641 3.694-3.27 5.411-0.625 1.708-1.917-2.553-2.164-3.157-2.343-5.694-4.617-11.142-7.264-16.459-1.037-2.084-1.151-3.006-2.911-3.006-2.701 0-5.22 1.66-7.911 2.179-4.993 0.963-10.119 3.020-15.056 4.585-5.196 1.647-10.649 2.14-15.777 4.058-1.904 0.713-2.841 2.364-3.703-0.714-0.665-2.374-1.129-5.166-1.924-7.403-0.833-2.345-1.575-9.167-3.943-8.756-3.276 0.569-6.439 3.413-9.572 4.848-4.63 2.119-9.194 4.945-13.709 7.591-1.991 1.167-10.113 9.631-11.303 5.449-1.199-4.213-3.738-8.695-5.436-12.551-2.223-5.050-3.121-5.012-6.998-3.683-9.456 3.243-18.948 7.039-28.211 11.461-1.059 0.505-3.933 3.128-5.052 2.255-1.002-0.784-2.028-4.481-2.596-5.937-0.55-1.405-4.016-10.391-5.388-9.319-4.64 3.625-8.927 9.046-13.276 13.378-3.089 3.077-6.697 5.956-10.029 8.342-0.567 0.406-2.128 2.077-2.669 1.654-2.692-2.104-5.085-8.096-7.168-11.349-1.967-3.073-4.291-9.953-7.551-8.643-2.47 0.992-4.547 4.575-6.711 6.539-2.543 2.307-5.535 5.493-8.345 6.839-4.368 2.091-9.26 6.495-13.949 6.088-1.265-0.11-3.104-4.090-3.872-5.411-1.527-2.625-3.062-5.137-4.689-7.591-2.275-3.427-4.008-5.94-7.264-4.923-6.33 1.978-11.196 10.139-17.196 13.603-3.039 1.754-6.034 3.278-9.211 4.321-2.249 0.739-6.271 3.194-8.562 2.706-1.333-0.284-4.059-3.311-4.569-3.833-4.451-4.548-8.69-9.618-13.204-14.016-1.393-1.357-2.806-1.35-4.377-0.714-7.497 3.037-14.657 8.367-22.102 11.799-4.267 1.967-8.754 2.775-12.987 4.735-0.943 0.436-2.927 1.44-3.848 0.263-3.41-4.359-6.606-9.533-9.74-14.43-2.565-4.008-4.408-8.494-8.081-5.749-6.587 4.922-11.694 14.163-18.326 18.826-2.825 1.986-3.658-1.883-5.219-4.321"></path>
</symbol>
<symbol id="icon-Vector-31" viewBox="0 0 422 32">
<path fill="none" stroke="#8a9ace" style="stroke: var(--color1, #8a9ace)" stroke-linejoin="miter" stroke-linecap="round" stroke-miterlimit="4" stroke-width="1.4545" d="M6.941 8.244c-0.84 0.146-2.025 3.379-2.573 4.397-0.621 1.153-1.32 1.987-1.996 3.044-2.796 4.369 1.464 2.45 3.992 2.029 4.413-0.734 9.858-1.831 14.286-2.104 2.246-0.139 6.035-0.839 7.816 2.292 0.432 0.759 1.032 1.425 1.419 2.18 0.72 1.407 1.502 1.066 2.453 0.188 4.319-3.988 9.257-7.482 12.891-13.002 0.939-1.427 2.643-3.694 3.271-5.411 0.625-1.708 1.916 2.553 2.164 3.157 2.343 5.694 4.616 11.142 7.263 16.459 1.037 2.084 1.15 3.006 2.91 3.006 2.702 0 5.221-1.66 7.913-2.18 4.994-0.963 10.119-3.020 15.055-4.584 5.196-1.647 10.649-2.14 15.777-4.058 1.905-0.713 2.842-2.364 3.704 0.714 0.665 2.374 1.129 5.166 1.924 7.403 0.834 2.345 1.576 9.167 3.944 8.756 3.276-0.569 6.439-3.414 9.572-4.848 4.63-2.119 9.193-4.945 13.709-7.591 1.992-1.167 10.114-9.632 11.304-5.449 1.198 4.213 3.738 8.695 5.436 12.551 2.223 5.050 3.121 5.012 6.998 3.683 9.456-3.243 18.948-7.039 28.211-11.461 1.059-0.505 3.933-3.128 5.052-2.255 1.002 0.784 2.028 4.481 2.596 5.937 0.55 1.405 4.016 10.391 5.388 9.319 4.64-3.625 8.927-9.046 13.276-13.378 3.089-3.077 6.697-5.956 10.029-8.342 0.567-0.406 2.128-2.077 2.669-1.653 2.692 2.104 5.085 8.096 7.168 11.348 1.967 3.073 4.291 9.953 7.551 8.643 2.47-0.992 4.547-4.575 6.711-6.538 2.543-2.307 5.535-5.493 8.345-6.839 4.368-2.091 9.26-6.495 13.949-6.088 1.265 0.11 3.104 4.090 3.872 5.411 1.527 2.625 3.062 5.137 4.689 7.591 2.275 3.427 4.007 5.94 7.264 4.923 6.33-1.978 11.196-10.139 17.196-13.603 3.039-1.755 6.033-3.278 9.212-4.321 2.249-0.739 6.271-3.194 8.561-2.706 1.334 0.284 4.058 3.311 4.57 3.833 4.451 4.548 8.689 9.618 13.203 14.017 1.393 1.357 2.806 1.351 4.377 0.714 7.498-3.037 14.657-8.367 22.102-11.799 4.268-1.967 8.755-2.775 12.988-4.735 0.943-0.436 2.928-1.44 3.849-0.263 3.409 4.359 6.605 9.533 9.74 14.43 2.566 4.008 4.409 8.494 8.081 5.749 6.586-4.922 11.693-14.163 18.326-18.826 2.825-1.986 3.658 1.883 5.219 4.321"></path>
</symbol>
<symbol id="icon-burger" viewBox="0 0 32 32">
<path d="M4.893 8.001c0-0.424 0.168-0.831 0.467-1.131s0.705-0.469 1.127-0.469h19.134c0.423 0 0.829 0.169 1.127 0.469s0.467 0.707 0.467 1.131-0.168 0.831-0.467 1.131c-0.299 0.3-0.705 0.469-1.127 0.469h-19.134c-0.423 0-0.828-0.169-1.127-0.469s-0.467-0.707-0.467-1.131z"></path>
<path d="M4.893 16.001c0-0.424 0.168-0.831 0.467-1.131s0.705-0.469 1.127-0.469h19.134c0.423 0 0.829 0.169 1.127 0.469s0.467 0.707 0.467 1.131c0 0.424-0.168 0.831-0.467 1.131s-0.705 0.469-1.127 0.469h-19.134c-0.423 0-0.828-0.169-1.127-0.469s-0.467-0.707-0.467-1.131z"></path>
<path d="M4.893 24.001c0-0.424 0.168-0.831 0.467-1.131s0.705-0.469 1.127-0.469h19.134c0.423 0 0.829 0.169 1.127 0.469s0.467 0.707 0.467 1.131c0 0.424-0.168 0.831-0.467 1.131s-0.705 0.469-1.127 0.469h-19.134c-0.423 0-0.828-0.169-1.127-0.469s-0.467-0.707-0.467-1.131z"></path>
</symbol>
<symbol id="icon-close" viewBox="0 0 32 32">
<path d="M32 3.223l-3.223-3.223-12.777 12.777-12.777-12.777-3.223 3.223 12.777 12.777-12.777 12.777 3.223 3.223 12.777-12.777 12.777 12.777 3.223-3.223-12.777-12.777 12.777-12.777z"></path>
</symbol>
</defs>
</svg>
