<svg aria-hidden="true" style="position: absolute; width: 0; height: 0; overflow: hidden;" version="1.1" xmlns="http://www.w3.org/2000/svg" xmlns:xlink="http://www.w3.org/1999/xlink">
<defs>

<symbol id="header-logo" viewBox="0 0 35 32">
<path fill="none" stroke="#8a9ace" style="stroke: var(--color1, #8a9ace)" stroke-linejoin="miter" stroke-linecap="round" stroke-miterlimit="4" stroke-width="0.3636" d="M29.221 1.189c0.245-0.275 0.095-0.768 0.629-0.513 0.083 0.040 0.516 0.429 0.615 0.382 0.141-0.067 0.3-0.241 0.415-0.346 0.119-0.109 0.362-0.449 0.566-0.319 0.22 0.14 0.334 0.375 0.53 0.527 0.237 0.184 0.265 0.085 0.573 0.003 0.281-0.074 0.906-0.368 0.875 0.092-0.016 0.244-0.443 0.671-0.138 0.737 0.218 0.047 0.772 0.015 0.938 0.181 0.070 0.070-0.373 0.325-0.428 0.441-0.088 0.186 0.113 0.219 0.211 0.309 0.213 0.197 0.574 0.289 0.072 0.355-0.177 0.023-0.934 0.027-0.948 0.283-0.012 0.216 0.71 1.085 0.448 1.231-0.283 0.157-0.743-0.224-1.040-0.224"></path>
<path fill="none" stroke="#8a9ace" style="stroke: var(--color1, #8a9ace)" stroke-linejoin="miter" stroke-linecap="round" stroke-miterlimit="4" stroke-width="0.3636" d="M2.625 27.962c-0.113-0.125-0.711-0.581-0.711-0.263 0 0.238 0.040 0.705-0.27 0.793-0.058 0.017-0.212-0.056-0.293-0.056-0.222 0-0.454-0.023-0.668 0.046-0.285 0.092 0.512 0.157 0.592 0.237 0.217 0.217-0.646 0.394-0.75 0.461-0.186 0.118-0.255 0.145 0.026 0.145 0.165 0 0.399-0.043 0.559 0.003 0.253 0.072-0.197 0.628-0.197 0.704 0 0.183 0.498-0.089 0.566-0.115 0.080-0.031 0.22-0.029 0.283-0.092 0.015-0.015 0.067-0.131 0.089-0.053 0.092 0.321-0.056 0.71-0.056 1.033 0 0.224-0.013-0.142 0.033-0.201 0.071-0.091 0.119-0.268 0.25-0.273 0.272-0.011 0.442 0.568 0.484 0.796 0.085 0.468 0.189 0.246 0.444-0.056 0.285-0.337 0.252-0.505 0.553-0.089 0.127 0.175 0.207 0.398 0.339 0.559 0.224 0.274 0.256-0.231 0.385-0.428 0.179-0.274 0.419-0.25 0.711-0.25 0.111 0 0.178 0.115 0.267-0.003 0.116-0.154 0.264-0.286 0.326-0.471"></path>
</symbol>

<symbol id="header-menu" viewBox="0 0 32 32">
<path fill="none" stroke="#8a9ace" style="stroke: var(--color1, #8a9ace)" stroke-linejoin="miter" stroke-linecap="round" stroke-miterlimit="4" stroke-width="0.7619" d="M0.927 0.762c2.525 0 5.050 0 7.575 0 3.351 0 6.69 0.222 10.043 0.222 4.231 0 8.462 0 12.693 0"></path>
<path fill="none" stroke="#8a9ace" style="stroke: var(--color1, #8a9ace)" stroke-linejoin="miter" stroke-linecap="round" stroke-miterlimit="4" stroke-width="0.7619" d="M1.146 11.994c4.765 0 9.527 0.222 14.286 0.222 2.085 0 4.322 0.235 6.383-0.056 2.807-0.396 5.709-0.389 8.547-0.389"></path>
<path fill="none" stroke="#8a9ace" style="stroke: var(--color1, #8a9ace)" stroke-linejoin="miter" stroke-linecap="round" stroke-miterlimit="4" stroke-width="0.7619" d="M1.474 22.558c2.305 0 4.605-0.116 6.894-0.327 4.159-0.384 8.36 0.105 12.529 0.105 3.192 0 6.383 0 9.575 0"></path>
<path fill="none" stroke="#8a9ace" style="stroke: var(--color1, #8a9ace)" stroke-linejoin="miter" stroke-linecap="round" stroke-miterlimit="4" stroke-width="0.7619" d="M0.762 31.016c2.525 0 5.050 0 7.575 0 3.351 0 6.69 0.222 10.043 0.222 4.231 0 8.462 0 12.693 0"></path>
</symbol>

<symbol id="header-line" viewBox="0 0 4411 32">
<path fill="none" stroke="#8a9ace" style="stroke: var(--color1, #8a9ace)" stroke-linejoin="miter" stroke-linecap="round" stroke-miterlimit="4" stroke-width="4.5714" d="M5.243 15.469c14.751-13.17 39.861-10.626 58.049-6.202 29.752 7.237 60.594 21.027 88.81 4.465 28.876-16.949 51.477 6.202 80.871 6.202"></path>
<path fill="none" stroke="#8a9ace" style="stroke: var(--color1, #8a9ace)" stroke-linejoin="miter" stroke-linecap="round" stroke-miterlimit="4" stroke-width="4.5714" d="M293.255 15.467c12.873 18.173 2.233-23.783 2.233 4.465"></path>
<path fill="none" stroke="#8a9ace" style="stroke: var(--color1, #8a9ace)" stroke-linejoin="miter" stroke-linecap="round" stroke-miterlimit="4" stroke-width="4.5714" d="M402.655 26.633c0-9.173 3.915-10.9 13.396-11.163 32.552-0.904 63.095 13.148 95.383 13.148 13.371 0 21.175-11.835 34.112-13.272 6.971-0.775 12.942-2.109 20.091-2.109 9.998 0 18.761 0.458 28.53 2.729 5.367 1.248 16.965 2.451 21.705 5.085 7.653 4.252 41.769 2.423 45.769-5.582"></path>
<path fill="none" stroke="#8a9ace" style="stroke: var(--color1, #8a9ace)" stroke-linejoin="miter" stroke-linecap="round" stroke-miterlimit="4" stroke-width="4.5714" d="M762.112 13.237c-2.761 6.307 4.887 5.85 6.697 2.233"></path>
<path fill="none" stroke="#8a9ace" style="stroke: var(--color1, #8a9ace)" stroke-linejoin="miter" stroke-linecap="round" stroke-miterlimit="4" stroke-width="4.5714" d="M1175.15 4.305c0.571 10.256 4.050 9.451 8.434 3.969 4.123-5.152-6.926-9.521-1.737-1.736"></path>
<path fill="none" stroke="#8a9ace" style="stroke: var(--color1, #8a9ace)" stroke-linejoin="miter" stroke-linecap="round" stroke-miterlimit="4" stroke-width="4.5714" d="M1766.802 11.002c0 6.464 8.933 6.464 8.933 0 0-4.529-7.909-6.587-8.933-2.233-0.622 2.641 0 6.206 0 8.931"></path>
<path fill="none" stroke="#8a9ace" style="stroke: var(--color1, #8a9ace)" stroke-linejoin="miter" stroke-linecap="round" stroke-miterlimit="4" stroke-width="4.5714" d="M2834.007 13.235c0 10.866 10.917 12.343 10.917 1.364 0-4.873-13.147-6.271-13.147 0.868"></path>
<path fill="none" stroke="#8a9ace" style="stroke: var(--color1, #8a9ace)" stroke-linejoin="miter" stroke-linecap="round" stroke-miterlimit="4" stroke-width="4.5714" d="M3854.327 8.769c0.599 9.581 20.48 4.205 15.136-1.736-5.76-6.396-21.577-0.369-12.901 3.969"></path>
<path fill="none" stroke="#8a9ace" style="stroke: var(--color1, #8a9ace)" stroke-linejoin="miter" stroke-linecap="round" stroke-miterlimit="4" stroke-width="4.5714" d="M4198.158 17.703c0-21.859 61.088 3.49 77.646-6.698 8.192-5.041 17.701-5.53 27.287-4.465 4.069 0.452 11.438 7.33 15.63 9.427 6.578 3.289 15.072 1.737 22.327 1.737"></path>
<path fill="none" stroke="#8a9ace" style="stroke: var(--color1, #8a9ace)" stroke-linejoin="miter" stroke-linecap="round" stroke-miterlimit="4" stroke-width="4.5714" d="M4403.561 13.237c1.673 8.382 11.57 2.233 0 2.233"></path>
</symbol>

</defs>
</svg>
