<svg aria-hidden="true" style="position: absolute; width: 0; height: 0; overflow: hidden;" version="1.1" xmlns="http://www.w3.org/2000/svg" xmlns:xlink="http://www.w3.org/1999/xlink">
<defs>

<symbol id="header-menu" viewBox="0 0 32 32">
<path fill="none" stroke="#8a9ace" style="stroke: var(--color1, #8a9ace)" stroke-linejoin="miter" stroke-linecap="round" stroke-miterlimit="4" stroke-width="0.7619" d="M0.927 0.762c2.525 0 5.050 0 7.575 0 3.351 0 6.69 0.222 10.043 0.222 4.231 0 8.462 0 12.693 0"></path>
<path fill="none" stroke="#8a9ace" style="stroke: var(--color1, #8a9ace)" stroke-linejoin="miter" stroke-linecap="round" stroke-miterlimit="4" stroke-width="0.7619" d="M1.146 11.994c4.765 0 9.527 0.222 14.286 0.222 2.085 0 4.322 0.235 6.383-0.056 2.807-0.396 5.709-0.389 8.547-0.389"></path>
<path fill="none" stroke="#8a9ace" style="stroke: var(--color1, #8a9ace)" stroke-linejoin="miter" stroke-linecap="round" stroke-miterlimit="4" stroke-width="0.7619" d="M1.474 22.558c2.305 0 4.605-0.116 6.894-0.327 4.159-0.384 8.36 0.105 12.529 0.105 3.192 0 6.383 0 9.575 0"></path>
<path fill="none" stroke="#8a9ace" style="stroke: var(--color1, #8a9ace)" stroke-linejoin="miter" stroke-linecap="round" stroke-miterlimit="4" stroke-width="0.7619" d="M0.762 31.016c2.525 0 5.050 0 7.575 0 3.351 0 6.69 0.222 10.043 0.222 4.231 0 8.462 0 12.693 0"></path>
</symbol>

<symbol id="icon-GET-IT-ON" viewBox="0 0 164 32">
<path d="M26.001 17.105c0 3.348-1.028 6.030-3.054 8.030-2.329 2.371-5.362 3.564-9.079 3.564-3.552 0-6.585-1.213-9.073-3.604-2.493-2.426-3.737-5.403-3.737-8.967s1.244-6.541 3.737-8.947c2.488-2.411 5.521-3.624 9.073-3.624 1.768 0 3.455 0.356 5.064 1.018 1.604 0.667 2.91 1.569 3.856 2.682l-2.149 2.115c-1.65-1.9-3.897-2.837-6.77-2.837-2.591 0-4.837 0.882-6.745 2.662-1.887 1.784-2.833 4.095-2.833 6.932s0.946 5.168 2.833 6.952c1.907 1.759 4.154 2.662 6.745 2.662 2.75 0 5.064-0.902 6.889-2.682 1.203-1.178 1.887-2.802 2.067-4.877h-8.955v-2.897h11.947c0.144 0.627 0.185 1.233 0.185 1.819z"></path>
<path d="M44.956 7.060h-11.222v7.619h10.117v2.897h-10.117v7.619h11.222v2.952h-14.399v-24.039h14.399v2.952z"></path>
<path d="M58.332 28.147h-3.177v-21.087h-6.884v-2.952h16.949v2.952h-6.889v21.087z"></path>
<path d="M77.486 28.147v-24.039h3.172v24.039h-3.172z"></path>
<path d="M94.719 28.147h-3.151v-21.087h-6.909v-2.952h16.97v2.952h-6.909v21.087z"></path>
<path d="M133.716 25.055c-2.432 2.431-5.444 3.644-9.037 3.644-3.614 0-6.626-1.213-9.058-3.644-2.426-2.426-3.635-5.403-3.635-8.927s1.208-6.501 3.635-8.927c2.432-2.431 5.444-3.644 9.058-3.644 3.573 0 6.585 1.213 9.017 3.664 2.447 2.446 3.655 5.403 3.655 8.907 0 3.524-1.208 6.501-3.635 8.927zM117.97 23.040c1.83 1.799 4.056 2.702 6.709 2.702 2.632 0 4.879-0.902 6.688-2.702 1.825-1.799 2.751-4.11 2.751-6.912s-0.925-5.113-2.751-6.912c-1.809-1.799-4.056-2.702-6.688-2.702-2.653 0-4.879 0.902-6.709 2.702-1.825 1.799-2.751 4.11-2.751 6.912s0.925 5.113 2.751 6.912z"></path>
<path d="M141.808 28.147v-24.039h3.856l11.989 18.696h0.139l-0.139-4.621v-14.075h3.172v24.039h-3.311l-12.554-19.618h-0.139l0.139 4.641v14.977h-3.151z"></path>
</symbol>

<symbol id="icon-Google-Play" viewBox="0 0 158 32">
<path d="M51.643 9.264c-4.347 0-7.898 3.225-7.898 7.676 0 4.414 3.551 7.673 7.898 7.673 4.356 0 7.907-3.259 7.907-7.673 0-4.45-3.551-7.676-7.907-7.676zM51.643 21.59c-2.385 0-4.437-1.919-4.437-4.651 0-2.768 2.052-4.653 4.437-4.653s4.446 1.886 4.446 4.653c0 2.732-2.061 4.651-4.446 4.651zM34.411 9.264c-4.356 0-7.898 3.225-7.898 7.676 0 4.414 3.542 7.673 7.898 7.673 4.354 0 7.898-3.259 7.898-7.673 0-4.45-3.544-7.676-7.898-7.676zM34.411 21.59c-2.387 0-4.446-1.919-4.446-4.651 0-2.768 2.059-4.653 4.446-4.653 2.385 0 4.437 1.886 4.437 4.653 0 2.732-2.052 4.651-4.437 4.651zM13.905 11.616v3.261h7.988c-0.234 1.823-0.858 3.162-1.816 4.096-1.166 1.128-2.982 2.38-6.172 2.38-4.916 0-8.765-3.868-8.765-8.661s3.849-8.661 8.765-8.661c2.658 0 4.592 1.013 6.019 2.325l2.357-2.298c-1.996-1.859-4.652-3.286-8.377-3.286-6.741 0-12.407 5.348-12.407 11.92s5.665 11.92 12.407 11.92c3.643 0 6.38-1.164 8.532-3.347 2.205-2.149 2.892-5.172 2.892-7.612 0-0.758-0.065-1.455-0.18-2.037h-11.243zM97.755 14.145c-0.65-1.716-2.656-4.881-6.741-4.881-4.048 0-7.419 3.11-7.419 7.676 0 4.299 3.336 7.673 7.808 7.673 3.616 0 5.702-2.149 6.561-3.401l-2.684-1.744c-0.895 1.277-2.114 2.122-3.877 2.122-1.751 0-3.007-0.783-3.812-2.325l10.528-4.247-0.363-0.873zM87.021 16.7c-0.090-2.959 2.357-4.475 4.111-4.475 1.374 0 2.54 0.67 2.929 1.628l-7.040 2.847zM78.464 24.146h3.461v-22.555h-3.461v22.555zM72.796 10.973h-0.116c-0.777-0.898-2.26-1.71-4.139-1.71-3.942 0-7.546 3.374-7.546 7.7 0 4.301 3.604 7.648 7.546 7.648 1.878 0 3.361-0.819 4.139-1.744h0.116v1.101c0 2.935-1.608 4.511-4.201 4.511-2.114 0-3.426-1.489-3.967-2.74l-3.010 1.225c0.868 2.035 3.165 4.538 6.977 4.538 4.058 0 7.481-2.328 7.481-7.991v-13.781h-3.28v1.243zM68.838 21.59c-2.385 0-4.381-1.947-4.381-4.626 0-2.704 1.996-4.678 4.381-4.678 2.35 0 4.203 1.974 4.203 4.678 0 2.68-1.853 4.626-4.203 4.626zM113.958 1.59h-8.277v22.555h3.452v-8.546h4.826c3.833 0 7.592-2.704 7.592-7.006 0-4.299-3.768-7.003-7.592-7.003zM114.048 12.462h-4.916v-7.734h4.916c2.577 0 4.048 2.086 4.048 3.866 0 1.746-1.471 3.868-4.048 3.868zM135.384 9.221c-2.494 0-5.087 1.074-6.154 3.453l3.063 1.252c0.659-1.252 1.871-1.658 3.153-1.658 1.791 0 3.607 1.049 3.634 2.901v0.237c-0.625-0.352-1.962-0.873-3.607-0.873-3.299 0-6.66 1.771-6.66 5.075 0 3.022 2.702 4.969 5.739 4.969 2.323 0 3.604-1.022 4.409-2.211h0.118v1.744h3.333v-8.652c0-3.999-3.063-6.237-7.030-6.237zM134.968 21.581c-1.129 0-2.702-0.546-2.702-1.91 0-1.746 1.962-2.416 3.66-2.416 1.52 0 2.232 0.327 3.156 0.758-0.271 2.089-2.114 3.568-4.113 3.568zM154.559 9.715l-3.967 9.778h-0.118l-4.102-9.778h-3.722l6.163 13.664-3.516 7.603h3.606l9.496-21.267h-3.84zM123.447 24.146h3.461v-22.555h-3.461v22.555z"></path>
</symbol>

<symbol id="icon-close-btn" viewBox="0 0 27 32">
<path fill="none" stroke="#8a9ace" style="stroke: var(--color1, #8a9ace)" stroke-linejoin="miter" stroke-linecap="round" stroke-miterlimit="4" stroke-width="1.5238" d="M26.561 1.524c-1.886 0.999-3.303 2.671-4.946 4.018-3.622 2.971-6.807 6.511-9.702 10.183-1.85 2.346-3.659 4.747-5.272 7.264-1.26 1.966-2.913 6.237-5.117 6.972"></path>
<path fill="none" stroke="#8a9ace" style="stroke: var(--color1, #8a9ace)" stroke-linejoin="miter" stroke-linecap="round" stroke-miterlimit="4" stroke-width="1.5238" d="M2.76 1.833c0.238 1.311 1.95 2.74 2.851 3.64 1.492 1.492 3.272 2.694 4.705 4.242 2.711 2.928 5.954 6.207 8.054 9.599 1.114 1.799 2.37 3.504 3.314 5.392 0.508 1.017 2.385 5.564 3.331 5.564"></path>
</symbol>

<symbol id="icon-arrow-up-down" viewBox="0 0 53 32">
<path stroke-linejoin="round" stroke-linecap="round" stroke-miterlimit="4" stroke-width="5.3333" d="M50 4l-23.333 23.333-23.333-23.333"></path>
</symbol>

<symbol id="icon-arrow-left-right" viewBox="0 0 32 32">
<path stroke-linejoin="round" stroke-linecap="round" stroke-miterlimit="4" stroke-width="2.6667" d="M27 16h-22"></path>
<path stroke-linejoin="round" stroke-linecap="round" stroke-miterlimit="4" stroke-width="2.6667" d="M14 7.375l-9 8.625 9 8.625"></path>
</symbol>

</defs>
</svg>
