<svg width="290" height="22" viewBox="0 0 290 22" fill="none" xmlns="http://www.w3.org/2000/svg">
<path d="M4.77166 5.66775C4.19408 5.76802 3.3794 7.99103 3.00246 8.69041C2.57541 9.48278 2.09512 10.0564 1.6301 10.783C-0.292283 13.7867 2.63648 12.4674 4.37483 12.1781C7.40872 11.6732 11.1524 10.9193 14.1963 10.7314C15.7406 10.636 18.3455 10.1547 19.57 12.3073C19.8668 12.8289 20.2798 13.2867 20.5456 13.8057C21.0408 14.7729 21.5785 14.5383 22.2321 13.9349C25.2016 11.1932 28.5966 8.79071 31.0946 4.99604C31.7403 4.01524 32.9114 2.45667 33.3433 1.27584C33.7728 0.101484 34.6608 3.03122 34.8314 3.44596C36.4421 7.36088 38.0051 11.106 39.8248 14.7616C40.5379 16.194 40.6157 16.8284 41.8255 16.8284C43.6834 16.8284 45.4151 15.6868 47.2654 15.3299C50.6985 14.6677 54.2223 13.254 57.616 12.1781C61.1885 11.0455 64.9373 10.7068 68.4626 9.38795C69.772 8.8981 70.4165 7.76295 71.0089 9.87881C71.4659 11.5107 71.7848 13.4302 72.3317 14.9683C72.9049 16.5805 73.4151 21.2704 75.0433 20.9878C77.2953 20.5968 79.4699 18.641 81.6241 17.6551C84.8073 16.1982 87.9446 14.2553 91.0488 12.4365C92.4181 11.6341 98.002 5.81481 98.82 8.69041C99.6438 11.5865 101.39 14.6685 102.557 17.3192C104.085 20.7914 104.703 20.7652 107.368 19.851C113.869 17.6214 120.395 15.0117 126.763 11.9714C127.491 11.6239 129.467 9.82087 130.236 10.4213C130.925 10.96 131.63 13.5021 132.021 14.5032C132.399 15.4691 134.782 21.647 135.725 20.9103C138.915 18.4178 141.862 14.6911 144.852 11.7131C146.976 9.59785 149.456 7.61825 151.747 5.97776C152.137 5.69869 153.21 4.55009 153.582 4.84103C155.433 6.28725 157.078 10.4067 158.51 12.6431C159.862 14.7558 161.46 19.4858 163.701 18.5851C165.399 17.9031 166.827 15.4398 168.315 14.0899C170.063 12.5038 172.12 10.3133 174.052 9.38795C177.055 7.95028 180.418 4.92289 183.642 5.20272C184.512 5.27825 185.776 8.01472 186.304 8.92293C187.354 10.7277 188.409 12.4548 189.528 14.1415C191.092 16.4973 192.283 18.2255 194.522 17.5259C198.874 16.1659 202.219 10.5555 206.344 8.17372C208.433 6.96751 210.492 5.92021 212.677 5.20272C214.223 4.69492 216.988 3.00711 218.563 3.34262C219.48 3.53794 221.353 5.61901 221.705 5.97776C224.765 9.10458 227.679 12.5904 230.782 15.6141C231.74 16.5473 232.711 16.5426 233.791 16.105C238.946 14.0171 243.868 10.3526 248.986 7.99287C251.92 6.64034 255.005 6.0849 257.915 4.73769C258.563 4.43761 259.928 3.7476 260.561 4.55685C262.905 7.55373 265.102 11.1105 267.257 14.4774C269.021 17.2329 270.288 20.3168 272.813 18.4301C277.341 15.0462 280.852 8.6928 285.412 5.4869C287.354 4.1212 287.927 6.78124 289 8.4579" stroke="#8A9ACE" stroke-linecap="round"/>
</svg>
