<svg width="168" height="233" viewBox="0 0 168 233" fill="none" xmlns="http://www.w3.org/2000/svg">
<path d="M1.93069 51.8158C1.33847 47.0781 -1.0635 36.6562 4.35774 33.3201C8.37186 30.8498 15.3171 31.4788 19.8406 31.4788C24.8303 31.4788 29.3269 34.0187 32.8128 37.5046C41.9068 46.5986 43.3579 63.1835 43.3579 75.3331C43.3579 91.9906 46.801 108.92 44.2785 125.632C41.8118 141.974 44.2366 160.559 53.1498 174.424C63.7345 190.889 83.3667 191.443 99.6822 197.606C104.123 199.284 109.798 199.956 113.575 203.046C116.827 205.707 118.662 208.467 120.94 212.085C124.604 217.904 124.941 224.256 126.966 230.329" stroke="#8A9ACE" stroke-linecap="round"/>
<path d="M128.098 229.369C127.13 229.127 127.896 224.798 128.117 224.022C128.329 223.282 128.946 222.353 129.214 221.482C129.397 220.888 129.513 219.72 130.003 219.328C130.218 219.156 130.176 218.245 130.176 218.52C130.176 219.11 130.176 219.7 130.176 220.29C130.176 221.471 129.829 222.503 129.829 223.656C129.829 225.868 128.92 227.488 128.464 229.542C128.297 230.294 127.93 230.912 127.733 231.6C127.561 232.202 126.212 229.917 126.021 229.715C124.271 227.863 123.125 225.258 120.827 223.906C120.285 223.587 119.599 222.79 118.961 222.79C118.529 222.79 119.709 223.228 120.058 223.483C120.703 223.954 121.067 224.84 121.52 225.483C122.944 227.507 125.585 230.017 127.752 231.1" stroke="#8A9ACE" stroke-linecap="round"/>
<path d="M167.217 29.7125C159.065 19.9073 149.734 7.00034 136.414 3.89254C132.17 2.90223 127.498 2.46657 123.214 1.71057C112.92 -0.105943 99.2657 1.31212 89.684 5.78358C78.3774 11.06 82.1199 29.5589 82.1199 39.5313" stroke="#8A9ACE" stroke-linecap="round"/>
<path d="M83.4421 39.4253C83.5547 38.4119 84.773 38.0944 85.395 37.4725C86.1189 36.7485 86.664 35.9243 87.3478 35.1646C88.5419 33.8377 90.4764 28.7533 89.8135 30.4107C89.0546 32.3079 87.7174 33.751 86.4799 35.3421C85.8966 36.092 85.1037 36.8973 84.5862 37.65C84.1962 38.2172 83.327 39.6846 82.732 40.0565C81.9924 40.5188 81.5492 41.2909 80.9567 39.9579C80.4826 38.8911 79.9845 38.1427 79.1814 37.2949C78.2527 36.3147 77.7267 34.9844 76.8735 33.9416C76.2532 33.1835 75.3183 32.331 74.9207 31.4365C74.6393 30.8034 73.9409 29.6691 73.4216 29.2075C73.0656 28.8911 73.1928 30.0239 73.2243 30.1148C73.4203 30.681 74.0442 31.2947 74.3881 31.7915C76.3724 34.6577 77.733 37.9769 80.2466 40.4905" stroke="#8A9ACE" stroke-linecap="round"/>
</svg>
