<svg width="1136" height="35" viewBox="0 0 1136 35" fill="none" xmlns="http://www.w3.org/2000/svg">
<path d="M15.8509 8.70178C13.5767 8.86723 10.3689 12.5352 8.8847 13.6892C7.20318 14.9966 5.31204 15.9431 3.48101 17.142C-4.08836 22.0981 7.44363 19.9213 14.2884 19.4439C26.2343 18.6107 40.975 17.3669 52.9606 17.0567C59.041 16.8994 69.2977 16.1053 74.1196 19.657C75.2881 20.5177 76.9144 21.273 77.9607 22.1294C79.9106 23.7252 82.0279 23.3382 84.6014 22.3425C96.2939 17.8187 109.662 13.8547 119.498 7.59347C122.04 5.97514 126.651 3.4035 128.352 1.45513C130.043 -0.482552 133.539 4.35151 134.211 5.03583C140.553 11.4955 146.708 17.6749 153.873 23.7066C156.68 26.0702 156.987 27.1168 161.75 27.1168C169.066 27.1168 175.885 25.2333 183.17 24.6444C196.688 23.5517 210.563 21.2191 223.925 19.4439C237.992 17.5751 252.753 17.0162 266.634 14.8401C271.79 14.0319 274.327 12.1589 276.66 15.65C278.459 18.3426 279.715 21.5098 281.869 24.0476C284.126 26.7077 286.135 34.4462 292.546 33.9798C301.413 33.3347 309.975 30.1077 318.457 28.4809C330.991 26.077 343.344 22.8712 355.567 19.8701C360.959 18.5463 382.945 8.94444 386.166 13.6892C389.41 18.4678 396.287 23.553 400.88 27.9267C406.895 33.6558 409.331 33.6125 419.825 32.1042C445.422 28.4253 471.119 24.1193 496.193 19.1029C499.059 18.5295 506.839 15.5544 509.865 16.5452C512.58 17.434 515.355 21.6284 516.896 23.2803C518.384 24.874 527.766 35.0676 531.48 33.8519C544.042 29.7393 555.645 23.5904 567.418 18.6766C575.779 15.1865 585.546 11.9201 594.566 9.21331C596.101 8.75284 600.326 6.85765 601.793 7.33771C609.082 9.72396 615.558 16.521 621.194 20.2112C626.518 23.6971 632.81 31.5016 641.637 30.0155C648.32 28.8902 653.943 24.8256 659.801 22.5983C666.685 19.9813 674.783 16.3669 682.392 14.8401C694.215 12.468 707.46 7.47277 720.153 7.93449C723.579 8.05911 728.554 12.5743 730.635 14.0728C734.77 17.0507 738.922 19.9004 743.33 22.6836C749.487 26.5705 754.177 29.422 762.992 28.2677C780.128 26.0237 793.3 16.7667 809.542 12.8366C817.767 10.8464 825.876 9.11835 834.477 7.93449C840.564 7.09662 851.454 4.31173 857.654 4.86532C861.264 5.18759 868.642 8.62138 870.024 9.21331C882.073 14.3726 893.548 20.1241 905.766 25.1133C909.537 26.653 913.362 26.6452 917.616 25.9232C937.911 22.4782 957.294 16.4319 977.447 12.5382C988.998 10.3066 1001.15 9.39009 1012.6 7.1672C1015.16 6.67206 1020.53 5.53354 1023.02 6.8688C1032.25 11.8137 1040.9 17.6823 1049.39 23.2377C1056.33 27.7842 1061.32 32.8727 1071.26 29.7597C1089.09 24.1762 1102.92 13.6931 1120.87 8.40339C1128.52 6.14998 1130.77 10.539 1135 13.3055" stroke="#8A9ACE" stroke-linecap="round"/>
</svg>
