<svg width="421" height="96" viewBox="0 0 421 96" fill="none" xmlns="http://www.w3.org/2000/svg">
<path d="M384.809 5.26002C385.071 2.908 389.623 -2.37249 390.259 2.71075C390.715 6.36015 397.805 0.141221 397.86 1.56475C397.893 2.44093 397.533 3.85779 398.187 4.51161C398.782 5.10681 399.838 4.81346 400.619 4.74549C403.998 4.45171 407.363 3.88259 410.629 2.96802C414.192 1.97054 407.439 9.3145 411.775 9.02545C412.253 8.99358 416.122 8.03024 416.359 8.86173C416.674 9.96289 415.655 11.6521 414.933 12.4167C411.349 16.2116 421.163 18.5346 420.335 19.3628C419.098 20.5998 409.82 21.1196 411.939 24.2977C412.651 25.3657 413.787 26.1621 414.605 27.151C415.334 28.0317 415.506 29.2748 416.172 30.0744C417.096 31.183 412.312 30.9398 411.752 30.9398" stroke="#8A9ACE" stroke-linecap="round"/>
<path d="M9.28873 73.9386C7.34036 72.9645 5.43874 72.9692 3.35528 72.4484C0.692328 71.7826 2.90609 72.7583 4.04521 73.6903C5.08484 74.5409 5.91468 75.5154 6.55658 76.6708C7.22303 77.8704 2.77728 78.1447 1.86502 78.6578C-0.982895 80.2598 2.46483 79.8997 3.93482 79.8997C5.37769 79.8997 8.29522 79.0811 8.29522 81.0036C8.29522 83.3315 7.31172 83.8512 6.4186 85.8607C5.94014 86.9373 8.74818 85.3293 8.79198 86.4679C8.91231 89.5965 7.6751 95.0961 11.4965 90.5799C12.3495 89.5719 12.5974 87.8901 14.0079 89.614C15.0613 90.9015 15.6578 93.053 16.4917 94.5539C17.4095 96.2061 17.3474 93.1135 17.7336 92.3185C18.6676 90.3956 19.8652 90.5925 21.4316 91.7114C21.865 92.021 24.636 94.3029 24.6881 93.3121C24.7747 91.666 24.6881 89.9934 24.6881 88.3445" stroke="#8A9ACE" stroke-linecap="round"/>
</svg>
