<svg width="94" height="26" viewBox="0 0 94 26" fill="none" xmlns="http://www.w3.org/2000/svg">
<path d="M1 1C1.59875 1.51662 2.5128 1.51991 3.20417 1.89922C5.37192 3.08855 7.58397 4.27498 9.78472 5.4031C11.8739 6.47402 13.3988 7.43209 15.8222 7.63566C18.8216 7.88761 21.8828 7.4186 24.8944 7.4186C27.8145 7.4186 30.7687 7.67369 33.5993 8.41085C35.5157 8.90993 36.9185 10.4171 38.6625 11.2636C41.5103 12.6457 43.573 13.2818 46.9042 13.3101C49.1381 13.3291 53.5561 13.2495 55.7847 13.3101C57.5304 13.3576 59.2972 13.2908 60.784 14.2403C61.6019 14.7626 62.3219 15.3848 63.116 15.9147C65.6758 17.623 67.7085 19.7904 70.4313 21.3566C73.5841 23.1702 78.3607 21.4247 81.7236 21.3721C84.0767 21.3353 86.5562 21.2173 88.5597 22.6434C89.9426 23.6278 91.2351 25 93 25" stroke="#8A9ACE" stroke-linecap="round"/>
</svg>
