<svg width="206" height="70" viewBox="0 0 206 70" fill="none" xmlns="http://www.w3.org/2000/svg">
<path d="M169 5.68531C169.261 3.33329 173.814 -1.9472 174.449 3.13604C174.906 6.78545 181.996 0.566514 182.05 1.99004C182.084 2.86622 181.724 4.28308 182.378 4.9369C182.973 5.53211 184.028 5.23875 184.81 5.17078C188.189 4.877 191.554 4.30788 194.82 3.39331C198.383 2.39583 191.63 9.73979 195.966 9.45074C196.444 9.41888 200.313 8.45554 200.55 9.28703C200.865 10.3882 199.846 12.0774 199.123 12.842C195.539 16.6369 205.354 18.9599 204.526 19.7881C203.289 21.0251 194.011 21.5449 196.13 24.7229C196.842 25.791 197.978 26.5874 198.796 27.5763C199.524 28.457 199.697 29.7001 200.363 30.4997C201.287 31.6083 196.503 31.3651 195.943 31.3651" stroke="#8A9ACE" stroke-linecap="round"/>
<path d="M7.39978 53.2745C5.93575 52.5483 4.50685 52.5519 2.94131 52.1635C0.940337 51.6672 2.60379 52.3946 3.45974 53.0894C4.24093 53.7235 4.86448 54.45 5.34681 55.3114C5.84759 56.2057 2.507 56.4101 1.82151 56.7927C-0.318446 57.9869 2.27222 57.7185 3.37679 57.7185C4.46098 57.7185 6.65325 57.1083 6.65325 58.5415C6.65325 60.2769 5.91423 60.6644 5.24313 62.1625C4.88361 62.965 6.99361 61.7663 7.02651 62.6151C7.11693 64.9474 6.18728 69.0474 9.05875 65.6806C9.69968 64.9291 9.88596 63.6753 10.9458 64.9605C11.7374 65.9203 12.1856 67.5243 12.8122 68.6432C13.5019 69.8749 13.4552 67.5694 13.7453 66.9767C14.4472 65.5432 15.347 65.69 16.5241 66.5241C16.8498 66.7549 18.9319 68.4561 18.9711 67.7174C19.0362 66.4903 18.9711 65.2434 18.9711 64.0141" stroke="#8A9ACE" stroke-linecap="round"/>
</svg>
