<svg width="84" height="117" viewBox="0 0 84 117" fill="none" xmlns="http://www.w3.org/2000/svg">
<path d="M1.58051 31.3489C-0.338701 27.2705 0.455192 20.0021 3.77188 16.9223C5.94345 14.9059 8.16083 13.4526 11.2388 13.4526C15.1641 13.4526 17.4562 15.4382 19.7608 18.5658C21.9221 21.4991 22.0414 25.338 22.5812 28.7922C23.4495 34.3497 23.129 40.1827 23.129 45.7957C23.129 52.256 23.2135 58.7035 22.8449 65.1528C22.4472 72.1128 23.7139 77.8892 25.5233 84.652C26.5797 88.6005 27.4042 93.9264 30.0684 97.3741C31.7402 99.5377 33.2239 102.278 35.8917 103.279C37.7272 103.967 38.9305 104.029 41.0049 104.029C45.14 104.029 48.892 102.568 53.0778 102.568C59.316 102.568 62.5737 111.421 62.5737 116.447" stroke="#8A9ACE" stroke-linecap="round"/>
<path d="M57.7739 112.013C58.7475 112.729 59.6735 113.259 60.5907 114.027C61.3632 114.674 61.9337 115.501 62.6426 116.21" stroke="#8A9ACE" stroke-linecap="round"/>
<path d="M62.6426 116.21C62.9332 115.847 62.9882 115.303 63.2395 114.904C63.6344 114.277 63.916 113.614 64.2282 112.945C64.5275 112.304 64.4977 110.498 65.1609 110.166" stroke="#8A9ACE" stroke-linecap="round"/>
<path d="M82.8815 11.3766C82.8815 6.8359 75.807 4.3712 72.3367 2.98307C67.7388 1.14393 61.4186 -0.192442 56.537 1.36079C54.3816 2.0466 51.8188 2.10606 50.0479 3.75895C48.0165 5.65494 46.6518 7.22616 45.5866 9.94831C44.4851 12.7633 43.644 15.516 43.2414 18.5358C43.1377 19.3131 43.1938 21.5397 42.5713 21.8509" stroke="#8A9ACE" stroke-linecap="round"/>
<path d="M40.3496 15.5029C40.6633 16.5223 41.6192 18.4845 41.6192 19.4705C41.6192 20.1898 41.9625 21.5465 42.5714 21.851" stroke="#8A9ACE" stroke-linecap="round"/>
<path d="M42.8892 21.8509C43.8895 21.7259 44.9396 19.853 45.8869 19.3117C46.724 18.8333 48.269 17.7727 48.6024 16.7725" stroke="#8A9ACE" stroke-linecap="round"/>
</svg>
