<svg width="434" height="118" viewBox="0 0 434 118" fill="none" xmlns="http://www.w3.org/2000/svg">
<path d="M1.31445 1.32666C4.12241 3.82262 8.40902 3.83854 11.6513 5.67113C21.8174 11.4172 32.1912 17.1492 42.512 22.5996C52.3095 27.7735 59.4607 32.4023 70.826 33.3858C84.8921 34.6031 99.2483 32.3372 113.372 32.3372C127.066 32.3372 140.92 33.5696 154.195 37.1311C163.182 39.5423 169.761 46.8241 177.94 50.9135C191.295 57.5911 200.968 60.6642 216.59 60.8009C227.067 60.8926 247.786 60.5081 258.237 60.8009C266.424 61.0303 274.71 60.708 281.683 65.2952C285.518 67.8185 288.895 70.8248 292.619 73.3849C304.623 81.6382 314.156 92.1097 326.925 99.6765C341.711 108.438 364.111 100.006 379.883 99.7514C390.918 99.5734 402.546 99.0034 411.942 105.894C418.427 110.649 424.488 117.279 432.765 117.279" stroke="#8A9ACE" stroke-linecap="round"/>
</svg>
