<svg width="106" height="94" viewBox="0 0 106 94" fill="none" xmlns="http://www.w3.org/2000/svg">
<path d="M32.8426 15.7731C32.3202 13.5531 32.0127 11.2895 31.5475 9.05644C31.0621 6.72655 30.3275 4.29626 30.1318 1.94824" stroke="#8A9ACE" stroke-linecap="round"/>
<path d="M53.4443 16.5862C53.4443 13.1218 54.9122 9.66848 56.4262 6.55643C57.0459 5.28246 57.4439 3.91213 58.0376 2.62584C58.3635 1.91969 58.9205 1.24201 59.1369 0.592773" stroke="#8A9ACE" stroke-linecap="round"/>
<path d="M72.1484 19.0262C73.9277 16.9573 76.2954 15.1525 78.4434 13.4541C79.1206 12.9187 81.1279 11.8765 81.365 11.165" stroke="#8A9ACE" stroke-linecap="round"/>
<path d="M86.2446 27.7001C91.5519 26.9681 97.1571 26.3447 102.509 26.3447" stroke="#8A9ACE" stroke-linecap="round"/>
<path d="M89.7686 45.5914C89.8817 44.6861 103.713 46.9468 104.949 46.9468" stroke="#8A9ACE" stroke-linecap="round"/>
<path d="M88.1421 63.4824C92.0439 65.8992 95.9816 68.2642 100.34 69.7172" stroke="#8A9ACE" stroke-linecap="round"/>
<path d="M71.8779 77.3071C73.3455 81.0519 75.2715 84.29 76.9681 87.8791C77.7268 89.4839 78.218 91.2899 79.197 92.7584" stroke="#8A9ACE" stroke-linecap="round"/>
<path d="M51.0049 78.1201C51.0049 83.0455 51.8181 87.8422 51.8181 92.7582" stroke="#8A9ACE" stroke-linecap="round"/>
<path d="M38.2644 79.2046C36.1027 81.999 33.922 84.7661 31.7586 87.5477C30.7423 88.8543 30.0318 90.3621 29.0479 91.674" stroke="#8A9ACE" stroke-linecap="round"/>
<path d="M13.8673 76.2227C12.7858 77.0058 11.6921 77.7785 10.6144 78.5569C9.86972 79.0947 9.46426 79.9785 8.71686 80.5599C8.03926 81.0869 6.81934 81.773 6.81934 82.7285" stroke="#8A9ACE" stroke-linecap="round"/>
<path d="M9.53013 56.4346C6.89484 56.4346 4.31129 56.7056 1.66895 56.7056" stroke="#8A9ACE" stroke-linecap="round"/>
<path d="M8.44606 37.7299C6.17921 35.9902 3.56079 35.4243 0.855957 34.748" stroke="#8A9ACE" stroke-linecap="round"/>
<path d="M14.6811 18.2128C11.5135 14.0911 8.80316 9.96883 6.02171 5.62282C5.18454 4.31473 4.10711 3.16506 3.2959 1.94824" stroke="#8A9ACE" stroke-linecap="round"/>
</svg>
