<svg width="287" height="194" viewBox="0 0 287 194" fill="none" xmlns="http://www.w3.org/2000/svg">
<path d="M139.271 187.834C139.271 177.914 139.945 168.093 139.945 158.156" stroke="#8A9ACE" stroke-linecap="round"/>
<path d="M75.1938 184.461C79.7415 173.967 87.0831 164.136 89.3581 152.76" stroke="#8A9ACE" stroke-linecap="round"/>
<path d="M30.6775 11.792C35.2297 12.7024 39.9303 21.8936 42.5185 25.2818C47.1363 31.3269 51.0174 38.8768 56.3081 44.1675" stroke="#8A9ACE" stroke-linecap="round"/>
<path d="M119.71 1.6748C119.71 12.7959 123.083 23.5213 123.083 34.7248" stroke="#8A9ACE" stroke-linecap="round"/>
<path d="M179.065 1C179.065 13.6082 176.033 25.9451 172.995 38.097" stroke="#8A9ACE" stroke-linecap="round"/>
<path d="M268.098 31.3521C260.53 31.6884 252.862 34.7676 245.54 36.5981C238.558 38.3436 230.969 38.9521 224.256 41.4694" stroke="#8A9ACE" stroke-linecap="round"/>
<path d="M285.635 87.335C272.138 87.4388 258.67 88.0095 245.165 88.0095" stroke="#8A9ACE" stroke-linecap="round"/>
<path d="M271.471 162.878C261.225 160.869 252.722 152.626 242.468 150.062" stroke="#8A9ACE" stroke-linecap="round"/>
<path d="M201.998 192.556C199.253 185.614 198.548 178.08 195.553 171.272C193.431 166.449 191.798 161.659 189.857 156.808" stroke="#8A9ACE" stroke-linecap="round"/>
<path d="M11.1174 160.18C17.6068 159.939 24.0309 156.499 30.0032 154.259C34.3638 152.624 39.7296 152.21 43.493 149.388" stroke="#8A9ACE" stroke-linecap="round"/>
<path d="M1 90.0327C13.0897 90.0327 26.7834 92.6967 38.7714 90.0327" stroke="#8A9ACE" stroke-linecap="round"/>
</svg>
