<svg width="37" height="25" viewBox="0 0 37 25" fill="none" xmlns="http://www.w3.org/2000/svg">
<path d="M13.8325 6.13244C13.8325 4.19735 15.8573 3.08154 17.6367 3.08154C19.8956 3.08154 22.309 5.25931 22.6274 7.4884C22.8745 9.21827 22.9757 11.3572 21.4409 12.2342C20.5536 12.7413 19.5601 12.7701 18.7479 13.4019C18.329 13.7276 17.564 13.7021 17.0529 13.9292C15.6764 14.541 15.0532 15.7778 14.1715 16.9801" stroke="#8A9ACE" stroke-linecap="round"/>
<path d="M0.650425 2.82653C0.650425 2.14846 0.632597 1.56189 1.40894 1.28463C2.11502 1.03246 2.96303 0.8643 3.69692 1.14785C4.95981 1.63578 5.27351 3.07279 4.56735 4.19434C4.38899 4.47762 4.35286 4.80418 4.1197 5.06477C3.97581 5.22558 3.73002 5.46093 3.64718 5.6492C3.43067 6.14127 2.5551 6.46223 2.21719 6.9424C1.74343 7.61564 1.25 9.20958 1.76955 9.9889" stroke="#8A9ACE" stroke-linecap="round"/>
<path d="M1.54575 12.2271C1.54575 12.2973 1.51329 13.2826 1.7447 13.0975C1.92064 12.9567 1.8957 12.3105 1.76957 12.5628" stroke="#8A9ACE" stroke-linecap="round"/>
<path d="M12.9606 19.5016C12.9847 20.2728 13.4222 20.1277 13.6072 19.5265C13.7146 19.1776 13.3357 19.2586 13.1409 19.4021C13.0216 19.4901 12.8132 19.967 13.0725 19.8373" stroke="#8A9ACE" stroke-linecap="round"/>
<path d="M30.0832 14.4655C30.164 13.7787 32.3039 14.1541 32.6821 14.2417C33.8023 14.5013 35.1214 15.5166 35.4985 16.6478C36.216 18.8003 35.0663 20.7217 33.0178 21.516C31.8853 21.9551 30.7594 22.1875 29.5485 22.1875C28.5409 22.1875 27.4404 22.3147 26.4398 22.1812C25.0366 21.9941 23.4141 21.8849 22.1375 22.5232" stroke="#8A9ACE" stroke-linecap="round"/>
<path d="M19.7873 23.5303C19.4051 23.5876 18.7339 24.4296 19.2837 24.3074C19.7705 24.1993 19.2372 23.4038 19.1221 23.922C19.0208 24.3776 19.4278 24.407 19.4516 23.9779C19.4846 23.3841 19.3397 24.0806 19.3397 24.3137" stroke="#8A9ACE" stroke-linecap="round"/>
</svg>
