<svg width="64" height="120" viewBox="0 0 64 120" fill="none" xmlns="http://www.w3.org/2000/svg">
<path d="M57.4725 14.7774C53.7574 9.77422 48.418 5.54327 41.8799 2.86218C37.1488 0.92192 32.2946 0 27.6395 0C21.8869 0.000783945 16.4354 1.40717 11.8979 4.05611C7.36201 6.70349 3.74097 10.6083 1.71369 15.5558C0.551889 18.3882 0 21.3468 0 24.3085C0.000783945 30.0925 2.09547 35.878 5.80902 40.8804C8.74254 44.8314 12.7022 48.2855 17.4522 50.8905C14.4042 56.7489 12.627 63.443 11.8572 69.9412C11.4244 73.592 11.31 77.2797 11.4926 80.9509C11.6494 84.0992 11.876 87.627 13.8829 90.2202C15.3763 92.1503 17.5901 93.1232 19.8973 93.6978C19.5892 95.1403 19.7813 96.7952 19.7609 98.2384C19.7358 100.01 19.7115 101.783 19.6958 103.554C19.6652 107.051 19.8024 110.595 19.5947 114.085C19.5868 114.214 19.5641 114.327 19.5437 114.443C18.142 114.093 16.9677 113.125 15.5809 112.705C14.2882 112.314 12.8739 112.38 11.8101 113.291C10.8067 114.15 10.5041 115.529 11.1837 116.685C11.912 117.921 13.3341 118.389 14.7005 118.429C17.0767 118.499 20.4029 118.222 21.1344 115.475C21.5522 113.907 21.3248 112.107 21.3256 110.499C21.3264 108.724 21.328 106.95 21.3288 105.175C21.3303 103.104 21.3272 101.033 21.317 98.962C21.3123 97.9562 21.3076 96.9496 21.3029 95.9438C21.2998 95.2931 21.3233 94.6339 21.2472 93.9895C21.5616 94.049 21.876 94.107 22.188 94.1572C25.4751 94.6887 28.8264 94.8737 32.1558 94.7201C31.7043 96.2511 31.9348 98.0871 31.912 99.6691C31.8869 101.441 31.8626 103.213 31.847 104.985C31.8164 108.481 31.9536 112.026 31.7458 115.516C31.738 115.645 31.7153 115.758 31.6949 115.874C30.2924 115.524 29.1188 114.555 27.732 114.136C26.4393 113.745 25.0251 113.811 23.9613 114.722C22.9578 115.581 22.6552 116.96 23.3349 118.115C24.0632 119.352 25.4853 119.82 26.8517 119.86C29.2278 119.929 32.5541 119.653 33.2855 116.906C33.7033 115.338 33.476 113.538 33.4768 111.929C33.4776 110.154 33.4791 108.38 33.4799 106.605C33.4815 104.534 33.4784 102.464 33.4682 100.393C33.4635 99.3869 33.4587 98.3803 33.454 97.3745C33.4501 96.4636 33.5042 95.5354 33.2479 94.655C33.4368 94.6417 33.6265 94.6331 33.8154 94.6174C37.0037 94.3603 40.352 93.4846 42.1574 90.6067C43.8883 87.8473 43.9683 84.412 43.9127 81.2558C43.7888 74.2662 42.0617 67.4435 39.9984 60.7769C40.4845 61.9246 40.9603 63.0769 41.4166 64.2372C42.6411 67.3463 43.748 70.5017 44.7366 73.6947C45.5064 76.1829 46.1986 78.6923 46.8156 81.2206C46.7395 81.2817 46.6682 81.3562 46.6063 81.4581C44.9561 84.1705 43.2047 87.2554 44.0906 90.5432C44.8267 93.276 47.6231 95.2343 50.4241 94.1893C50.7855 94.0545 51.0089 93.6179 50.9501 93.2455C49.8863 86.5216 48.3404 79.8714 46.3084 73.3741C45.2947 70.1332 44.1588 66.9316 42.9014 63.777C42.2726 62.1997 41.611 60.6357 40.918 59.0859C40.417 57.9649 39.9616 56.4879 39.1502 55.4656C43.5975 55.0102 47.7806 53.7049 51.3829 51.6016C55.9188 48.9542 59.5398 45.0494 61.5671 40.1019C62.7289 37.2695 63.2808 34.3109 63.28 31.3491C63.2808 25.5652 61.1861 19.7797 57.4725 14.7774ZM17.097 116.374C15.9148 116.547 13.8562 116.889 12.9617 115.923C12.4945 115.419 12.6544 114.847 13.2118 114.483C13.9581 113.994 14.92 114.285 15.6718 114.602C16.658 115.017 17.5564 115.564 18.5411 115.924C18.1428 116.153 17.6536 116.293 17.097 116.374ZM29.249 117.804C28.0668 117.977 26.0081 118.319 25.1137 117.353C24.6464 116.848 24.8063 116.277 25.3637 115.912C26.11 115.424 27.0719 115.715 27.8237 116.032C28.81 116.447 29.7084 116.994 30.693 117.354C30.2955 117.583 29.8064 117.723 29.249 117.804ZM49.0733 92.7038C47.1958 92.8919 45.8317 90.8999 45.7 89.1447C45.5542 87.1997 46.426 85.3911 47.402 83.7315C48.0644 86.7003 48.6194 89.6926 49.0733 92.7038ZM36.2088 56.6666C38.4407 63.4337 40.7361 70.2273 41.5012 77.3487C41.8423 80.5174 42.0625 84.0051 41.2496 87.126C40.929 88.3576 40.3833 89.5907 39.4449 90.4774C38.3333 91.5271 36.8266 91.9943 35.352 92.246C32.0163 92.8143 28.5019 92.7351 25.1466 92.4035C22.2593 92.1182 18.835 91.8085 16.4824 89.9263C14.0843 88.0079 13.8217 84.6041 13.6367 81.7662C13.4196 78.4446 13.4838 75.1105 13.8053 71.7975C14.1682 68.0566 14.8416 64.3532 15.8129 60.7228C16.6423 57.6231 17.7556 54.648 18.9181 51.6721C19.7264 52.0712 20.5527 52.4482 21.4017 52.7963C26.1328 54.7366 30.987 55.6585 35.642 55.6585C35.8741 55.6585 36.1022 55.642 36.3335 55.6373C36.1547 55.9172 36.0787 56.2707 36.2088 56.6666ZM59.5845 39.2889C57.7453 43.7692 54.4779 47.3087 50.3026 49.7499C46.1289 52.1888 41.0465 53.5144 35.6428 53.5136C31.2708 53.5136 26.691 52.6473 22.2162 50.8121C16.0324 48.2769 11.0042 44.2811 7.53135 39.6025C4.05691 34.9232 2.14408 29.5696 2.14487 24.3085C2.14487 21.6118 2.64503 18.9377 3.69786 16.3695C5.53621 11.8893 8.80369 8.34978 12.9798 5.90858C17.1535 3.46973 22.2358 2.14408 27.6395 2.14487C32.0116 2.14487 36.5914 3.01114 41.0661 4.84635C47.2499 7.38163 52.2781 11.3766 55.751 16.056C59.2254 20.7353 61.1383 26.0889 61.1375 31.3499C61.1367 34.0459 60.6365 36.7207 59.5845 39.2889Z" fill="#242647"/>
<path d="M37.2978 14.92C37.1771 14.4418 36.8094 14.0239 36.3139 13.9212C35.8106 13.817 35.3434 14.0067 34.9671 14.3359C34.4019 14.8306 34.0327 15.6428 33.8155 16.346C33.7567 16.5357 33.7018 16.7403 33.665 16.9465C33.5466 17.2757 33.4408 17.6113 33.4494 17.9672C33.4627 18.5238 33.7183 19.0122 34.1698 19.3352C34.6018 19.644 35.2109 19.637 35.6609 19.3712C35.991 19.176 36.2434 18.8538 36.4072 18.512C36.5146 18.2886 36.6118 18.0581 36.7028 17.8261C36.8917 17.5164 37.0579 17.1926 37.1841 16.8516C37.3307 16.4565 37.4514 15.9956 37.4311 15.573C37.4224 15.3903 37.3809 15.2124 37.3158 15.0454L37.2978 14.92Z" fill="#242647"/>
<path d="M13.9896 10.5299C13.8688 10.0517 13.5012 9.6338 13.0057 9.5311C12.5024 9.42684 12.0352 9.61655 11.6589 9.9458C11.0937 10.4397 10.7236 11.2527 10.5073 11.9559C10.4485 12.1456 10.3936 12.3502 10.3568 12.5564C10.2384 12.8856 10.1333 13.2219 10.1412 13.577C10.1545 14.1337 10.4101 14.622 10.8624 14.945C11.2943 15.2539 11.9035 15.2468 12.3535 14.9811C12.6835 14.7859 12.9359 14.4637 13.0998 14.1219C13.2072 13.8985 13.3044 13.668 13.3961 13.4359C13.585 13.1263 13.7512 12.8025 13.8774 12.4615C14.024 12.0664 14.1448 11.6054 14.1244 11.1829C14.1158 11.0002 14.0742 10.8223 14.0091 10.6553L13.9896 10.5299Z" fill="#242647"/>
<path d="M21.1915 22.0141C21.2597 21.7075 20.9445 21.4175 20.638 21.5492C20.2335 21.7232 19.9317 22.0423 19.6416 22.3668C19.3571 22.6851 19.147 23.0834 18.9659 23.4675C18.6154 24.2115 18.4516 25.0816 18.4579 25.9009C18.4602 26.2144 18.5465 26.4794 18.8365 26.6464C19.0897 26.7914 19.4472 26.7891 19.6785 26.5915C20.787 25.6445 21.5066 24.3714 21.7896 22.9438C21.8477 22.6483 21.683 22.3222 21.4533 22.1458C21.3694 22.0815 21.2816 22.0423 21.1915 22.0141Z" fill="#242647"/>
</svg>
