<svg width="103" height="70" viewBox="0 0 103 70" fill="none" xmlns="http://www.w3.org/2000/svg">
<path d="M39.0024 16.2704C39.0024 10.6596 44.8733 7.42432 50.0328 7.42432C56.5824 7.42432 63.5799 13.7388 64.5032 20.202C65.2198 25.2178 65.5132 31.4197 61.0631 33.9626C58.4903 35.4328 55.6096 35.5164 53.2545 37.3482C52.04 38.2927 49.8218 38.2186 48.34 38.8771C44.3487 40.651 42.5419 44.237 39.9853 47.7232" stroke="#8A9ACE" stroke-linecap="round"/>
<path d="M0.780617 6.68518C0.780617 4.71914 0.728924 3.01837 2.97993 2.21444C5.02721 1.48327 7.48604 0.995698 9.61394 1.81784C13.2757 3.23261 14.1853 7.39922 12.1377 10.6512C11.6206 11.4725 11.5158 12.4194 10.8398 13.175C10.4226 13.6412 9.70991 14.3236 9.46972 14.8695C8.84195 16.2963 6.30322 17.2269 5.32347 18.6192C3.94979 20.5712 2.51909 25.1929 4.02551 27.4525" stroke="#8A9ACE" stroke-linecap="round"/>
<path d="M3.37659 33.9424C3.37659 34.1462 3.28249 37.003 3.95346 36.4662C4.46358 36.0581 4.39127 34.1844 4.02556 34.9159" stroke="#8A9ACE" stroke-linecap="round"/>
<path d="M36.4744 55.0342C36.5443 57.2704 37.8128 56.8495 38.3492 55.1063C38.6604 54.0948 37.5618 54.3297 36.9972 54.7457C36.6511 55.0008 36.0469 56.3836 36.7989 56.0076" stroke="#8A9ACE" stroke-linecap="round"/>
<path d="M86.1213 40.4321C86.3556 38.4405 92.5602 39.529 93.6566 39.7831C96.9047 40.5357 100.73 43.4796 101.823 46.7596C103.903 53.0008 100.57 58.5718 94.6301 60.8749C91.3464 62.1482 88.0819 62.8218 84.5709 62.8218C81.6495 62.8218 78.4585 63.1906 75.5573 62.8038C71.4885 62.2613 66.7842 61.9445 63.0825 63.7953" stroke="#8A9ACE" stroke-linecap="round"/>
<path d="M56.2683 66.7158C55.16 66.8821 53.2138 69.3235 54.8081 68.9692C56.2196 68.6555 54.6732 66.3492 54.3394 67.8515C54.0458 69.1726 55.2257 69.258 55.2948 68.0138C55.3905 66.2919 54.9703 68.3115 54.9703 68.9872" stroke="#8A9ACE" stroke-linecap="round"/>
</svg>
