<svg width="21" height="42" viewBox="0 0 21 42" fill="none" xmlns="http://www.w3.org/2000/svg">
<path d="M18.5464 5.09651C17.3476 3.371 15.6245 1.9118 13.5147 0.987128C11.9879 0.317958 10.4215 0 8.9193 0C7.06293 0.000270372 5.30371 0.485312 3.83947 1.3989C2.37573 2.31195 1.20722 3.65867 0.553011 5.36499C0.178095 6.34184 0 7.36223 0 8.38369C0.00025298 10.3785 0.676212 12.3738 1.87458 14.0991C2.82123 15.4618 4.09903 16.653 5.63183 17.5515C4.64825 19.572 4.07474 21.8807 3.82632 24.1218C3.68667 25.3809 3.64973 26.6527 3.70868 27.9189C3.75927 29.0047 3.83239 30.2214 4.48002 31.1158C4.96194 31.7814 5.67636 32.1169 6.42087 32.3151C6.32145 32.8126 6.38343 33.3834 6.37686 33.8811C6.36876 34.4922 6.36092 35.1035 6.35586 35.7145C6.34599 36.9204 6.39026 38.1427 6.32322 39.3464C6.32069 39.391 6.31336 39.43 6.30678 39.47C5.85445 39.3491 5.47549 39.0152 5.02797 38.8706C4.61081 38.7356 4.15443 38.7584 3.81113 39.0725C3.48732 39.3689 3.38967 39.8444 3.609 40.243C3.84402 40.6693 4.30293 40.8308 4.74387 40.8445C5.51065 40.8686 6.58405 40.7732 6.82008 39.8258C6.95492 39.285 6.88155 38.6643 6.8818 38.1095C6.88205 37.4973 6.88256 36.8855 6.88282 36.2734C6.88332 35.559 6.88231 34.845 6.87902 34.1307C6.8775 33.7838 6.87598 33.4366 6.87447 33.0897C6.87346 32.8653 6.88104 32.638 6.85651 32.4157C6.95795 32.4363 7.05939 32.4563 7.16008 32.4736C8.22082 32.6569 9.30231 32.7207 10.3767 32.6677C10.231 33.1957 10.3054 33.8289 10.298 34.3745C10.2899 34.9856 10.2821 35.5966 10.277 36.2079C10.2672 37.4138 10.3114 38.6361 10.2444 39.8398C10.2419 39.8845 10.2345 39.9234 10.228 39.9634C9.77538 39.8425 9.39667 39.5086 8.94915 39.364C8.53199 39.2291 8.07561 39.2518 7.73232 39.566C7.4085 39.8623 7.31086 40.3379 7.53019 40.7364C7.76521 41.163 8.22411 41.3242 8.66506 41.338C9.43184 41.362 10.5052 41.2666 10.7413 40.3192C10.8761 39.7785 10.8027 39.1577 10.803 38.6029C10.8032 37.9908 10.8037 37.3789 10.804 36.7668C10.8045 36.0525 10.8035 35.3384 10.8002 34.6241C10.7987 34.2772 10.7972 33.9301 10.7957 33.5832C10.7944 33.269 10.8118 32.9489 10.7291 32.6453C10.7901 32.6407 10.8513 32.6377 10.9123 32.6323C11.9411 32.5436 13.0216 32.2416 13.6042 31.2491C14.1628 30.2973 14.1886 29.1126 14.1707 28.024C14.1307 25.6134 13.5734 23.2604 12.9075 20.9611C13.0644 21.357 13.2179 21.7544 13.3652 22.1545C13.7603 23.2268 14.1175 24.3151 14.4365 25.4163C14.685 26.2745 14.9083 27.1399 15.1074 28.0119C15.0829 28.033 15.0599 28.0587 15.0399 28.0938C14.5074 29.0293 13.9422 30.0932 14.2281 31.2271C14.4656 32.1697 15.368 32.845 16.2719 32.4846C16.3885 32.4381 16.4606 32.2875 16.4416 32.1591C16.0984 29.8401 15.5995 27.5466 14.9438 25.3057C14.6167 24.188 14.2501 23.0838 13.8443 21.9958C13.6414 21.4519 13.4279 20.9125 13.2043 20.3779C13.0426 19.9913 12.8956 19.4819 12.6338 19.1294C14.069 18.9723 15.4189 18.5221 16.5813 17.7967C18.045 16.8836 19.2135 15.5369 19.8678 13.8306C20.2427 12.8538 20.4208 11.8334 20.4205 10.8119C20.4208 8.81709 19.7448 6.82176 18.5464 5.09651ZM5.51723 40.1359C5.13574 40.1957 4.47141 40.3135 4.18276 39.9804C4.03199 39.8063 4.0836 39.6092 4.26346 39.4835C4.5043 39.3151 4.81471 39.4154 5.05731 39.5246C5.37556 39.6679 5.66548 39.8566 5.98322 39.9807C5.85471 40.0597 5.69685 40.1078 5.51723 40.1359ZM9.43867 40.6291C9.05718 40.6888 8.39285 40.8067 8.1042 40.4736C7.95342 40.2995 8.00503 40.1024 8.1849 39.9767C8.42574 39.8082 8.73614 39.9085 8.97875 40.0177C9.297 40.161 9.58691 40.3498 9.90466 40.4739C9.77639 40.5528 9.61854 40.6009 9.43867 40.6291ZM15.836 31.9723C15.2301 32.0372 14.7899 31.3502 14.7474 30.7448C14.7004 30.074 14.9817 29.4503 15.2967 28.8779C15.5104 29.9018 15.6895 30.9338 15.836 31.9723ZM11.6846 19.5436C12.4049 21.8774 13.1456 24.2205 13.3925 26.6765C13.5025 27.7694 13.5736 28.9722 13.3113 30.0486C13.2078 30.4734 13.0317 30.8986 12.7289 31.2044C12.3702 31.5665 11.884 31.7276 11.4081 31.8144C10.3317 32.0104 9.19758 31.9831 8.11483 31.8687C7.1831 31.7703 6.07809 31.6635 5.31889 31.0144C4.54503 30.3528 4.46028 29.1788 4.40058 28.2001C4.3305 27.0545 4.35125 25.9046 4.45497 24.762C4.5721 23.4718 4.78941 22.1946 5.10285 20.9425C5.3705 19.8734 5.72973 18.8474 6.1049 17.821C6.36572 17.9586 6.63236 18.0887 6.90634 18.2087C8.43307 18.8779 9.99952 19.1959 11.5017 19.1959C11.5766 19.1959 11.6502 19.1902 11.7248 19.1886C11.6672 19.2851 11.6426 19.407 11.6846 19.5436ZM19.228 13.5502C18.6345 15.0954 17.5801 16.3161 16.2327 17.1581C14.8858 17.9992 13.2458 18.4564 11.502 18.4561C10.0911 18.4561 8.61319 18.1574 7.16919 17.5244C5.17368 16.65 3.55107 15.272 2.43037 13.6584C1.30917 12.0445 0.691897 10.1982 0.69215 8.38369C0.69215 7.45361 0.853552 6.53137 1.1933 5.64563C1.78654 4.10046 2.84096 2.87973 4.18858 2.03779C5.53544 1.19666 7.17551 0.739465 8.9193 0.739736C10.3302 0.739736 11.8081 1.0385 13.2521 1.67144C15.2476 2.54582 16.8702 3.92363 17.9909 5.53748C19.1121 7.15133 19.7294 8.99771 19.7291 10.8122C19.7289 11.742 19.5675 12.6645 19.228 13.5502Z" fill="#242647"/>
<path d="M12.036 5.14584C11.997 4.98091 11.8784 4.83681 11.7185 4.80139C11.5561 4.76543 11.4053 4.83086 11.2839 4.94441C11.1015 5.11502 10.9823 5.39512 10.9122 5.63765C10.8933 5.70308 10.8756 5.77365 10.8637 5.84476C10.8255 5.95831 10.7913 6.07403 10.7941 6.19678C10.7984 6.38875 10.8809 6.55719 11.0266 6.66858C11.166 6.77511 11.3625 6.77267 11.5078 6.68101C11.6143 6.61369 11.6957 6.50257 11.7486 6.38468C11.7833 6.30763 11.8146 6.22814 11.844 6.14811C11.9049 6.04131 11.9586 5.92965 11.9993 5.81204C12.0466 5.67577 12.0856 5.51679 12.079 5.37106C12.0762 5.30806 12.0628 5.24669 12.0418 5.1891L12.036 5.14584Z" fill="#242647"/>
<path d="M4.51447 3.63169C4.47552 3.46676 4.35687 3.32265 4.19698 3.28723C4.03457 3.25127 3.88379 3.3167 3.76236 3.43025C3.57997 3.60059 3.46056 3.88097 3.39074 4.12349C3.37176 4.18892 3.35406 4.25949 3.34217 4.3306C3.30397 4.44415 3.27006 4.56014 3.27259 4.68262C3.27689 4.87459 3.35937 5.04303 3.50533 5.15442C3.64473 5.26095 3.84129 5.25851 3.9865 5.16685C4.09301 5.09953 4.17447 4.98841 4.22734 4.87053C4.262 4.79348 4.29337 4.71399 4.32297 4.63396C4.38394 4.52716 4.43757 4.41549 4.4783 4.29788C4.5256 4.16161 4.56456 4.00263 4.55799 3.8569C4.5552 3.7939 4.5418 3.73253 4.5208 3.67494L4.51447 3.63169Z" fill="#242647"/>
<path d="M6.8385 7.59247C6.8605 7.48675 6.7588 7.38672 6.65989 7.43214C6.52935 7.49216 6.43196 7.6022 6.33835 7.71414C6.24652 7.82391 6.17872 7.96125 6.12028 8.09374C6.0072 8.35032 5.95433 8.65043 5.95635 8.93297C5.95711 9.04112 5.98494 9.1325 6.07854 9.19009C6.16026 9.24011 6.27561 9.2393 6.35024 9.17117C6.70796 8.84456 6.94019 8.40548 7.03152 7.91313C7.05024 7.8112 6.99711 7.69872 6.92299 7.63789C6.89592 7.61572 6.86759 7.6022 6.8385 7.59247Z" fill="#242647"/>
</svg>
