<svg width="290" height="22" viewBox="0 0 290 22" fill="none" xmlns="http://www.w3.org/2000/svg">
<path d="M285.228 16.3323C285.806 16.232 286.621 14.009 286.998 13.3096C287.425 12.5172 287.905 11.9436 288.37 11.217C290.292 8.2133 287.364 9.53257 285.625 9.8219C282.591 10.3268 278.848 11.0807 275.804 11.2686C274.259 11.364 271.655 11.8453 270.43 9.69272C270.133 9.17106 269.72 8.71333 269.454 8.19431C268.959 7.22713 268.421 7.46169 267.768 8.06513C264.798 10.8068 261.403 13.2093 258.905 17.004C258.26 17.9848 257.089 19.5433 256.657 20.7242C256.227 21.8985 255.339 18.9688 255.169 18.554C253.558 14.6391 251.995 10.894 250.175 7.23842C249.462 5.80596 249.384 5.17164 248.174 5.17164C246.317 5.17164 244.585 6.31315 242.735 6.67006C239.302 7.3323 235.778 8.74601 232.384 9.8219C228.812 10.9545 225.063 11.2932 221.537 12.612C220.228 13.1019 219.584 14.237 218.991 12.1212C218.534 10.4893 218.215 8.5698 217.668 7.03174C217.095 5.41955 216.585 0.729575 214.957 1.01224C212.705 1.40319 210.53 3.35897 208.376 4.34493C205.193 5.80185 202.055 7.74472 198.951 9.56355C197.582 10.3659 191.998 16.1852 191.18 13.3096C190.356 10.4135 188.61 7.33153 187.443 4.68078C185.915 1.20864 185.297 1.23483 182.632 2.14897C176.131 4.37858 169.605 6.98829 163.237 10.0286C162.509 10.3761 160.533 12.1791 159.764 11.5787C159.075 11.04 158.37 8.49791 157.979 7.49677C157.601 6.53091 155.218 0.352971 154.275 1.08975C151.085 3.58223 148.138 7.30887 145.148 10.2869C143.024 12.4022 140.544 14.3817 138.253 16.0222C137.863 16.3013 136.79 17.4499 136.418 17.159C134.567 15.7128 132.922 11.5933 131.49 9.35687C130.138 7.24416 128.54 2.51418 126.299 3.41488C124.601 4.09686 123.173 6.56024 121.685 7.91012C119.937 9.49618 117.88 11.6867 115.948 12.612C112.945 14.0497 109.582 17.0771 106.358 16.7973C105.488 16.7218 104.224 13.9853 103.696 13.0771C102.646 11.2723 101.591 9.54522 100.472 7.85845C98.9081 5.50274 97.7169 3.77454 95.4782 4.4741C91.1261 5.83411 87.7809 11.4445 83.6561 13.8263C81.5671 15.0325 79.5076 16.0798 77.3233 16.7973C75.7774 17.3051 73.0117 18.9929 71.437 18.6574C70.5203 18.4621 68.6466 16.381 68.2955 16.0222C65.2354 12.8954 62.3211 9.40962 59.218 6.38587C58.2604 5.45274 57.2889 5.45744 56.2087 5.89501C51.0545 7.98293 46.1317 11.6474 41.0135 14.0071C38.08 15.3597 34.9949 15.9151 32.0849 17.2623C31.4367 17.5624 30.0724 18.2524 29.4394 17.4431C27.0951 14.4463 24.8978 10.8895 22.7429 7.5226C20.9794 4.76715 19.7121 1.6832 17.1873 3.56989C12.6589 6.95382 9.14756 13.3072 4.58798 16.5131C2.64562 17.8788 2.07307 15.2188 0.99999 13.5421" stroke="#8A9ACE" stroke-linecap="round"/>
</svg>
