<svg width="1136" height="52" viewBox="0 0 1136 52" fill="none" xmlns="http://www.w3.org/2000/svg">
<path d="M1120 39.6327C1122.28 39.38 1125.48 33.7787 1126.97 32.0164C1128.65 30.0199 1130.54 28.5744 1132.37 26.7436C1139.94 19.1753 1128.41 22.4994 1121.56 23.2285C1109.62 24.5008 1094.88 26.4002 1082.9 26.8738C1076.82 27.1141 1066.56 28.3268 1061.74 22.903C1060.57 21.5886 1058.95 20.4352 1057.9 19.1274C1055.95 16.6904 1053.83 17.2814 1051.26 18.8019C1039.57 25.7102 1026.2 31.7637 1016.37 41.3252C1013.83 43.7965 1009.22 47.7237 1007.52 50.699C1005.83 53.658 1002.33 46.276 1001.66 45.2309C995.316 35.3665 989.162 25.9299 981.998 16.7188C979.191 13.1095 978.885 11.5112 974.122 11.5112C966.807 11.5112 959.989 14.3874 952.705 15.2867C939.189 16.9554 925.316 20.5175 911.955 23.2285C897.89 26.0822 883.131 26.9357 869.252 30.2588C864.097 31.4931 861.559 34.3534 859.227 29.022C857.428 24.9102 856.172 20.0736 854.019 16.1981C851.763 12.1358 849.754 0.318445 843.344 1.03069C834.478 2.01577 825.916 6.94375 817.435 9.42809C804.903 13.0991 792.552 17.9946 780.331 22.5775C774.939 24.5992 752.956 39.2621 749.735 32.0164C746.492 24.719 739.616 16.9535 735.024 10.2743C729.009 1.52554 726.574 1.59154 716.081 3.89492C690.488 9.51288 664.794 16.0886 639.723 23.7492C636.857 24.6248 629.079 29.168 626.053 27.655C623.338 26.2977 620.564 19.8924 619.022 17.3698C617.535 14.9361 608.154 -0.630488 604.441 1.22598C591.88 7.5063 580.279 16.8964 568.508 24.4002C560.147 29.73 550.381 34.718 541.363 38.8515C539.829 39.5547 535.603 42.4488 534.137 41.7158C526.849 38.0717 520.374 27.692 514.738 22.0567C509.415 16.7333 503.124 4.81514 494.298 7.08463C487.616 8.80303 481.994 15.01 476.136 18.4113C469.254 22.4077 461.156 27.9273 453.548 30.2588C441.727 33.8813 428.484 41.5095 415.792 40.8044C412.367 40.6141 407.392 33.719 405.312 31.4306C401.178 26.8831 397.026 22.5313 392.618 18.2812C386.463 12.3454 381.773 7.99088 372.959 9.75357C355.825 13.1804 342.655 27.3168 326.415 33.3184C318.191 36.3577 310.083 38.9965 301.484 40.8044C295.397 42.0839 284.509 46.3367 278.309 45.4913C274.7 44.9992 267.323 39.7555 265.941 38.8515C253.894 30.9729 242.42 22.1896 230.203 14.5707C226.433 12.2194 222.609 12.2313 218.356 13.3339C198.064 18.5948 178.683 27.8281 158.533 33.774C146.983 37.182 134.837 38.5816 123.381 41.9761C120.829 42.7323 115.458 44.4709 112.965 42.4318C103.736 34.8805 95.0851 25.9186 86.6014 17.4349C79.6585 10.492 74.6691 2.72129 64.7291 7.4752C46.9009 16.0017 33.0768 32.0104 15.1259 40.0883C7.4788 43.5295 5.2247 36.827 1 32.6023" stroke="#8A9ACE" stroke-linecap="round"/>
</svg>
