<svg width="22" height="26" viewBox="0 0 22 26" fill="none" xmlns="http://www.w3.org/2000/svg">
<path d="M5.02541 7.66211C4.88476 7.63651 4.74363 7.70492 4.66061 7.815L4.64211 7.84503C4.60701 7.88087 4.57712 7.92229 4.5553 7.96837C4.50454 8.07473 4.48675 8.20575 4.48272 8.32257C4.47916 8.42334 4.48794 8.52411 4.50407 8.62349C4.50312 8.69284 4.50383 8.7622 4.50786 8.83085C4.51426 8.93581 4.54582 9.04518 4.61104 9.13013C4.70023 9.24579 4.8589 9.31166 5.00501 9.27791C5.158 9.24254 5.27731 9.1441 5.3404 9.0026C5.38073 8.9123 5.38927 8.81503 5.39353 8.71775C5.40611 8.66073 5.4137 8.60254 5.41868 8.54762C5.43742 8.34445 5.42816 8.09683 5.33305 7.91042C5.27019 7.78638 5.16844 7.6884 5.02541 7.66211Z" fill="#242647"/>
<path d="M10.9783 8.8311C10.9847 8.93606 11.016 9.04544 11.0815 9.13038C11.1704 9.24605 11.3294 9.31191 11.4755 9.27816C11.6285 9.24279 11.7478 9.14435 11.8109 9.00285C11.8512 8.91256 11.8597 8.81528 11.864 8.718C11.8766 8.66098 11.8841 8.6028 11.8891 8.54787C11.9079 8.34471 11.8984 8.09709 11.8035 7.91067C11.7404 7.78663 11.6384 7.68866 11.4956 7.66259C11.355 7.637 11.2138 7.70541 11.1308 7.81549L11.1123 7.84551C11.0775 7.88135 11.0473 7.92278 11.0255 7.96886C10.9748 8.07521 10.957 8.20623 10.9529 8.32306C10.9494 8.42383 10.9582 8.5246 10.9743 8.62397C10.9736 8.69309 10.9743 8.76245 10.9783 8.8311Z" fill="#242647"/>
<path d="M9.53649 10.3112C9.66125 10.0247 9.2687 9.8327 9.07349 10.0503C8.93734 10.202 8.83273 10.3438 8.64535 10.4417C8.45963 10.5388 8.25209 10.5939 8.04146 10.5986C7.81281 10.6037 7.58582 10.5562 7.36618 10.4992C7.24735 10.4683 7.13184 10.4248 7.02154 10.3719C6.90508 10.3161 6.8019 10.2584 6.66955 10.2574C6.6195 10.257 6.56376 10.2935 6.57657 10.351C6.63705 10.624 6.96794 10.7964 7.19849 10.923C7.47742 11.0764 7.80333 11.136 8.12069 11.1248C8.38753 11.1155 8.66196 11.0431 8.8963 10.9174C9.14962 10.7818 9.41979 10.5788 9.53649 10.3112Z" fill="#242647"/>
<path d="M21.8987 19.8956C21.7723 19.6012 21.4606 19.388 21.1321 19.5186C20.7213 19.6817 20.5911 20.2179 20.4998 20.5933C20.38 21.086 20.3577 21.594 20.4111 22.0965C20.2066 22.1049 19.9981 22.09 19.815 22.0904C18.9557 22.0921 18.0963 22.093 17.2372 22.0937C16.4106 22.0944 15.5809 22.0737 14.7564 22.1319C14.81 21.5449 14.6736 20.9464 14.5493 20.3771C14.4018 19.7015 14.2223 19.0331 14.0164 18.3727C13.7816 17.6205 13.5062 16.8802 13.1955 16.155C13.0399 15.7917 12.8748 15.4331 12.6945 15.0808C12.5942 14.8848 12.4919 14.6863 12.375 14.4978C13.5923 14.1226 14.6881 13.542 15.5973 12.8033C17.2557 11.4566 18.2982 9.57475 18.2979 7.48907C18.2982 5.40339 17.2557 3.52159 15.5973 2.17481C13.9379 0.826405 11.6596 0.000465449 9.14896 0C6.63829 0.000232724 4.35982 0.826405 2.70066 2.17481C1.04222 3.52159 -0.00023703 5.40339 1.61801e-07 7.48907C-0.000474222 9.57475 1.04222 11.4566 2.70066 12.8033C3.75142 13.6572 5.05052 14.3004 6.49953 14.6584C6.25522 15.3047 6.1084 16.0103 5.95612 16.6735C5.77182 17.4762 5.60223 18.2824 5.44806 19.0911C5.1594 20.6061 4.92386 22.1288 4.73719 23.659C3.44023 23.4758 2.07709 23.929 1.15702 24.848C0.918642 25.0861 0.707069 25.4533 0.965134 25.7603C1.20209 26.0421 1.66437 25.9974 1.99526 25.9974C2.78344 25.9972 3.66959 25.9609 4.412 25.6742C4.74976 25.5436 5.06381 25.3088 5.19521 24.9664C5.28653 24.7286 5.2946 24.4591 5.1945 24.2301C5.25143 24.1808 5.29199 24.1133 5.29887 24.0428L5.2991 24.0404C6.09702 24.8901 7.18738 25.4161 8.35223 25.5764C9.42908 25.7249 10.5088 25.5496 11.514 25.1726C13.4934 25.4524 15.495 25.5562 17.4936 25.5971C18.2486 25.6125 19.3809 25.797 19.6596 24.878C19.7683 24.5194 19.7287 24.1382 19.6608 23.7758C19.5918 23.4063 19.4369 23.0099 19.0233 22.9115C18.5266 22.7933 18.3013 23.2252 18.1933 23.622C18.0572 24.1235 18.0375 24.6434 18.1238 25.154C17.899 25.154 17.6739 25.1524 17.449 25.1496C15.6739 25.127 13.9028 25.0179 12.1314 24.9113C12.1613 24.8973 12.1917 24.8838 12.2213 24.8694C13.246 24.3739 14.399 23.6569 14.6936 22.5086C15.6696 22.5861 16.6561 22.5536 17.6343 22.5563C18.19 22.558 18.7457 22.5594 19.3015 22.5615C19.7911 22.5633 20.3247 22.6217 20.8081 22.5275C21.6269 22.3681 21.9293 21.6229 21.982 20.8831C22.0045 20.5621 22.0292 20.1993 21.8987 19.8956ZM4.49265 24.9855C4.2296 25.1999 3.85294 25.2497 3.52633 25.3006C3.14492 25.3602 2.75972 25.3963 2.37358 25.4088C2.17528 25.4151 1.97675 25.4135 1.77846 25.4056C1.69426 25.4023 1.60626 25.404 1.52277 25.3909L1.49265 25.3842C1.54104 25.356 1.60294 25.2546 1.64469 25.2152C1.70043 25.1626 1.7583 25.1124 1.81736 25.0637C1.94544 24.9583 2.08041 24.8603 2.22201 24.7728C2.48245 24.6118 2.76873 24.4863 3.06119 24.3935C3.53961 24.2413 4.04649 24.1957 4.54507 24.2422C4.55669 24.2713 4.57401 24.3006 4.60081 24.3288C4.79436 24.5329 4.69355 24.8221 4.49265 24.9855ZM18.6575 23.7093C18.7087 23.5105 18.8382 23.1759 19.0574 23.4602C19.1772 23.6155 19.1812 23.8726 19.2007 24.0588C19.2358 24.3942 19.2733 24.8806 18.9139 25.0665C18.8311 25.1093 18.7363 25.1291 18.639 25.1405C18.5396 24.6665 18.5358 24.181 18.6575 23.7093ZM0.606024 7.48907C0.606261 5.60307 1.54412 3.88929 3.08705 2.63328C4.62927 1.37889 6.77372 0.595079 9.14848 0.595312C11.5232 0.595079 13.6677 1.37889 15.2099 2.63328C16.7529 3.88929 17.6907 5.60307 17.691 7.48907C17.6905 9.37507 16.7529 11.0889 15.2099 12.3449C13.6677 13.5993 11.5232 14.3831 9.14848 14.3828C6.77372 14.3831 4.62927 13.5993 3.08705 12.3449C1.54412 11.0891 0.606261 9.37507 0.606024 7.48907ZM13.7583 23.0127C13.416 23.4512 12.922 23.7716 12.4383 24.0423C11.4032 24.6215 10.1864 24.9999 8.98554 24.9522C7.76969 24.9038 6.55266 24.4319 5.74407 23.5198C5.63425 23.396 5.48838 23.3779 5.3648 23.4209C5.51542 22.0087 5.70897 20.5998 5.95423 19.2007C6.09346 18.4064 6.24739 17.6147 6.4158 16.826C6.56215 16.1406 6.75498 15.4389 6.85009 14.7394C7.58492 14.8948 8.35508 14.9779 9.14848 14.9779C10.1418 14.9777 11.0977 14.8467 11.9941 14.6067C12.1547 15.0556 12.3833 15.4913 12.5659 15.926C12.8131 16.5144 13.0363 17.1125 13.2348 17.7185C13.6198 18.894 13.95 20.12 14.1075 21.3469C14.1841 21.9429 14.1414 22.5219 13.7583 23.0127ZM21.4142 21.3227C21.3444 21.5736 21.223 21.8263 20.9844 21.9615C20.9547 21.9783 20.9229 21.9908 20.8911 22.0041C20.8485 21.6727 20.8418 21.3401 20.8836 21.0062C20.921 20.7048 20.9647 20.1893 21.209 19.9696C21.4832 19.7229 21.5233 20.3052 21.5214 20.4583C21.5178 20.746 21.4915 21.0446 21.4142 21.3227Z" fill="#242647"/>
</svg>
