<svg width="128" height="75" viewBox="0 0 128 75" fill="none" xmlns="http://www.w3.org/2000/svg">
<path d="M19.0862 7.08442C19.17 4.09071 22.9511 3.73014 24.5576 3.97539C25.3699 4.09939 26.2312 4.51542 27.0232 4.78745C28.2262 5.20069 29.4712 5.35266 30.7046 5.5067C32.9937 5.79262 35.5721 5.90605 37.8478 5.41389C38.8764 5.19145 40.0109 5.02001 40.9466 4.34662C41.763 3.75912 42.2026 2.69994 42.7958 1.79443C43.5643 0.621134 44.9383 0.923639 45.8439 1.57401C47.1759 2.53062 48.3923 3.77931 49.7026 4.78745C51.049 5.82336 52.518 5.62271 54.0426 5.62271" stroke="#8A9ACE" stroke-linecap="round"/>
<path d="M69.8491 3.74317C69.8491 4.73685 69.8442 4.99606 70.6091 4.99606C71.0927 4.99606 71.3237 4.88094 71.4872 4.2072C71.5338 4.01489 71.6075 3.19544 71.4365 3.12832C70.831 2.89061 69.5452 2.83436 69.5452 3.95198C69.5452 4.85427 70.2982 4.58789 70.6091 4.1608" stroke="#8A9ACE" stroke-linecap="round"/>
<path d="M83.3757 3.95262C83.5443 3.33519 85.2951 3.52399 85.6555 3.53499C87.1648 3.58108 88.7269 4.31545 90.215 4.68348C93.6269 5.52725 96.8838 4.54178 100.17 3.33778C102.665 2.42379 104.802 3.19971 107.085 4.62547C109.071 5.86549 111.68 5.56494 113.773 5.20552" stroke="#8A9ACE" stroke-linecap="round"/>
<path d="M123.195 8.12889C122.598 8.33394 123.329 10.217 123.879 10.217C124.583 10.217 125.323 10.1598 125.323 8.96415C125.323 7.88376 125.068 7.50244 124.259 7.50244C122.986 7.50244 123.043 7.83548 123.043 9.38178" stroke="#8A9ACE" stroke-linecap="round"/>
<path d="M126.084 25.46C125.555 25.6215 125.324 28.1126 125.324 28.6966C125.324 30.7406 125.733 32.6304 125.898 34.6478C126.2 38.3301 125.628 41.9615 125.628 45.6222C125.628 49.011 126.54 52.1627 126.54 55.5294C126.54 56.7469 126.641 57.49 125.78 58.0816C125.295 58.4144 125.324 59.4618 125.324 60.1233" stroke="#8A9ACE" stroke-linecap="round"/>
<path d="M122.283 69.52C121.973 70.9582 121.878 72.7203 123.119 73.1627C123.952 73.4593 125.093 72.8092 124.749 71.4458C124.535 70.5947 123.641 70.7729 123.119 70.7729C122.34 70.7729 121.979 70.7662 121.979 71.817" stroke="#8A9ACE" stroke-linecap="round"/>
<path d="M113.012 72.6524C111.337 72.1591 109.96 70.5114 108.174 70.367C106.226 70.2096 104.303 70.4533 102.382 70.8775C97.6283 71.9271 92.97 73.2788 88.1206 73.2788C87.6069 73.2788 87.2356 72.9204 86.7696 72.6524C85.4802 71.9108 84.0618 71.8941 82.6829 71.8287C81.1217 71.7548 80.1885 72.4834 78.8833 73.4876C78.0851 74.1018 76.9757 74.6795 76.08 74.1141C75.5649 73.7889 75.1653 73.3813 74.7122 73.07" stroke="#8A9ACE" stroke-linecap="round"/>
<path d="M69.2409 71.8179C68.4056 73.396 69.0921 73.5973 70.3133 73.6856C71.404 73.7645 72.5846 74.1479 72.5846 72.2819C72.5846 69.7663 70.0834 71.4763 69.089 71.8179" stroke="#8A9ACE" stroke-linecap="round"/>
<path d="M59.0579 73.2789C56.03 73.2789 53.1252 72.2944 50.0824 72.4552C48.0842 72.5608 46.1632 73.5336 44.1803 73.6849C43.1343 73.7648 42.5696 73.7382 41.6979 72.9076C40.7057 71.9622 39.4809 70.7346 38.2698 70.4019C37.0258 70.06 35.733 70.5567 34.5124 70.7731C33.4225 70.9663 32.3453 71.6084 31.2448 71.6084C30.3328 71.6084 29.4209 71.6084 28.509 71.6084" stroke="#8A9ACE" stroke-linecap="round"/>
<path d="M18.3257 69.9385C17.8103 72.1514 20.4535 73.3425 20.4535 71.7134C20.4535 69.7705 18.4987 70.1473 17.4138 70.1473" stroke="#8A9ACE" stroke-linecap="round"/>
<path d="M4.9516 67.4322C3.50664 65.0057 2.93675 60.847 3.3642 57.8267C3.70465 55.4211 4.03969 53.316 4.03969 50.8313C4.03969 48.2487 3.64914 45.519 2.79004 43.2096C2.01807 41.1344 1 39.8253 1 37.3628C1 35.3227 2.09707 33.7429 2.89136 32.1424C3.35162 31.2149 5.21703 25.9558 4.19168 25.2515" stroke="#8A9ACE" stroke-linecap="round"/>
<path d="M6.31948 10.4253C6.71065 10.4253 8.13553 10.9948 8.44726 10.5414C8.65454 10.2398 8.73444 8.96377 8.50637 8.65042C7.88826 7.80118 6.64455 8.12838 5.86353 8.12838" stroke="#8A9ACE" stroke-linecap="round"/>
<path d="M6.21031 8.21387C6.21031 8.82191 6.09035 9.64778 6.33911 10.1605" stroke="#8A9ACE" stroke-linecap="round"/>
</svg>
