<svg width="290" height="353" viewBox="0 0 290 353" fill="none" xmlns="http://www.w3.org/2000/svg">
<path d="M59.2349 153.771C88.3971 153.771 117.529 154.551 146.711 154.551C161.204 154.551 175.696 154.551 190.189 154.551C202.629 154.551 214.781 155.49 227.172 156.067C227.849 156.098 237.392 156.314 237.392 155.937C237.392 155.036 231.16 152.249 230.29 151.866C223.012 148.664 214.782 147.246 206.992 145.803C203.215 145.104 199.601 143.442 195.819 142.902C195.191 142.812 199.58 143.608 200.496 143.811C204.346 144.667 207.967 146.296 211.885 147.102C214.509 147.643 217.728 147.754 220.2 148.705C222.994 149.779 227.089 148.895 229.553 150.264C230.699 150.9 232.384 150.865 233.667 151.26C234.944 151.653 236.156 152.684 237.348 152.949C246.4 154.96 231.911 161.875 228.211 163.298C224.356 164.781 219.737 169.392 216.692 172.133C215.692 173.033 208.115 178.328 210.543 175.554C214.825 170.66 220.261 167.019 225.266 163.125C229.264 160.016 231.846 157.153 234.62 152.992" stroke="#8A9ACE" stroke-linecap="round"/>
<path d="M273.308 232.477C273.308 233.979 273.241 235.394 274.804 236.134C275.888 236.647 277.246 236.599 277.795 235.469C278.818 233.363 276.582 230.793 274.505 232.178" stroke="#8A9ACE" stroke-linecap="round"/>
<path d="M273.308 227.99C273.308 225.942 273.009 223.995 273.009 222.007" stroke="#8A9ACE" stroke-linecap="round"/>
<path d="M278.992 228.887C280.771 228.887 281.602 226.903 282.582 225.597" stroke="#8A9ACE" stroke-linecap="round"/>
<path d="M282.582 233.973C284.601 234.34 286.845 234.665 288.864 235.17" stroke="#8A9ACE" stroke-linecap="round"/>
<path d="M279.59 241.153C278.395 241.601 279.733 245.555 280.188 246.238" stroke="#8A9ACE" stroke-linecap="round"/>
<path d="M270.616 240.554C269.193 240.554 268.292 241.611 267.026 242.033C266.127 242.333 265.22 242.652 264.333 242.947" stroke="#8A9ACE" stroke-linecap="round"/>
<path d="M268.521 232.477C265.529 232.162 262.514 230.977 259.547 230.383" stroke="#8A9ACE" stroke-linecap="round"/>
<path d="M275.701 242.05V244.144" stroke="#8A9ACE" stroke-linecap="round"/>
<path d="M282.582 239.956C282.616 239.681 282.679 239.758 282.881 239.657" stroke="#8A9ACE" stroke-linecap="round"/>
<path d="M267.624 236.665H268.222" stroke="#8A9ACE" stroke-linecap="round"/>
<path d="M282.317 230.967C282.416 231.142 282.68 231.269 282.88 231.305C283.085 231.342 283.176 231.139 283.004 231.052" stroke="#8A9ACE" stroke-linecap="round"/>
<path d="M277.167 226.246H277.339" stroke="#8A9ACE" stroke-linecap="round"/>
<path d="M269.529 228.563C269.551 228.744 269.885 228.794 269.958 228.649" stroke="#8A9ACE" stroke-linecap="round"/>
<path d="M79.8574 28.4963C79.8574 32.7391 85.0726 32.3559 85.0726 28.36C85.0726 27.0506 84.3025 25.7354 82.857 25.7354C80.5715 25.7354 80.1642 26.4253 80.1642 28.4963" stroke="#8A9ACE" stroke-linecap="round"/>
<path d="M82.4649 21.1569C82.4649 14.4867 79.5322 8.10674 79.5322 1.42822" stroke="#8A9ACE" stroke-linecap="round"/>
<path d="M85.9307 20.3569C87.309 22.8839 87.8818 20.6235 86.9971 20.6235" stroke="#8A9ACE" stroke-linecap="round"/>
<path d="M88.5967 24.356C89.9764 23.6256 90.8415 22.5126 92.0625 21.6307C93.1847 20.8203 94.378 20.0574 95.5284 19.2905" stroke="#8A9ACE" stroke-linecap="round"/>
<path d="M91.2627 27.2889C91.9853 27.2889 94.3042 27.7365 93.9139 26.3706C93.7907 25.9394 92.0625 26.0249 92.0625 26.7557" stroke="#8A9ACE" stroke-linecap="round"/>
<path d="M90.9961 31.8213C92.1978 31.8213 93.3806 32.1862 94.5804 32.2953C96.6659 32.4848 98.7685 32.4309 100.86 32.6211" stroke="#8A9ACE" stroke-linecap="round"/>
<path d="M89.1299 35.02C89.1299 35.9583 89.7362 36.383 90.7147 36.0568C91.0105 35.9582 91.1731 35.049 90.9369 34.8127C90.6078 34.4836 89.6856 34.8755 89.3965 35.02" stroke="#8A9ACE" stroke-linecap="round"/>
<path d="M82.998 35.5537C82.998 37.7802 83.2647 39.986 83.2647 42.2188C83.2647 42.565 83.3489 45.5866 82.998 44.8848" stroke="#8A9ACE" stroke-linecap="round"/>
<path d="M76.5996 35.5534C76.5996 36.2791 77.3994 36.2944 77.3994 35.5534C77.3994 34.8519 76.8662 34.3831 76.8662 35.2868" stroke="#8A9ACE" stroke-linecap="round"/>
<path d="M74.1998 29.1553C72.4764 28.3893 70.2495 28.2622 68.4086 27.9408C66.147 27.5459 63.7087 26.7559 61.4028 26.7559" stroke="#8A9ACE" stroke-linecap="round"/>
<path d="M73.9336 24.0895C74.0055 25.3127 76.1197 25.7464 76.0664 24.4154C76.0213 23.2867 73.0956 24.6227 74.7334 24.6227" stroke="#8A9ACE" stroke-linecap="round"/>
<path d="M272.718 82.9433C272.872 84.8694 274.469 85.1455 276.039 85.1455C276.927 85.1455 277.602 85.2778 278.136 84.4464C278.624 83.6871 279.574 82.3003 278.625 81.5102C276.986 80.1441 276.315 79.9911 274.606 80.7237C273.598 81.1554 273.338 82.2125 272.089 82.6288" stroke="#8A9ACE" stroke-linecap="round"/>
<path d="M274.92 77.9095C274.861 77.3187 274.477 76.8449 274.361 76.2667C274.184 75.3813 274.376 74.4648 274.221 73.5752C273.908 71.776 273.977 69.985 273.977 68.1572" stroke="#8A9ACE" stroke-linecap="round"/>
<path d="M276.808 76.022C277.297 76.2807 278.621 77.5301 279.255 76.8958C279.888 76.2632 278.273 76.3366 278.066 76.3366" stroke="#8A9ACE" stroke-linecap="round"/>
<path d="M280.269 79.7971C281.554 78.6399 283.146 78.9023 284.638 78.2242C285.821 77.6865 287.189 77.3254 288.448 76.9658" stroke="#8A9ACE" stroke-linecap="round"/>
<path d="M282.471 83.2579C284.995 83.2579 282.785 80.5921 282.785 82.3142" stroke="#8A9ACE" stroke-linecap="round"/>
<path d="M279.954 87.0327C281.192 88.2014 282.995 88.8697 284.638 89.2349C285.831 89.5 287.047 90.5792 288.133 91.1224" stroke="#8A9ACE" stroke-linecap="round"/>
<path d="M275.864 88.9207C275.949 89.602 276.493 89.0835 276.493 88.6061C276.493 88.0245 276.493 89.5022 276.493 88.9207" stroke="#8A9ACE" stroke-linecap="round"/>
<path d="M273.662 87.0327C270.666 87.6319 268.452 89.6821 266.112 91.437" stroke="#8A9ACE" stroke-linecap="round"/>
<path d="M267.999 84.2013C267.087 84.4293 268.112 85.6175 268.296 84.9703C268.443 84.4562 267.564 84.2736 267.37 83.8867" stroke="#8A9ACE" stroke-linecap="round"/>
<path d="M269.887 81.0558C271.301 79.4649 268.358 79.1063 267.615 78.4691C265.119 76.3296 261.345 75.8747 258.562 74.1348" stroke="#8A9ACE" stroke-linecap="round"/>
<path d="M272.718 77.9097C272.518 78.1355 272.493 78.2712 272.404 78.5389" stroke="#8A9ACE" stroke-linecap="round"/>
<path d="M16.0123 221.049C16.1184 223.809 20.7311 226.901 20.7311 222.779C20.7311 220.477 19.2687 220.099 17.3056 219.336C16.5574 219.045 14.7539 218.739 14.7539 219.79" stroke="#8A9ACE" stroke-linecap="round"/>
<path d="M16.9556 214.442C16.3518 211.989 15.6973 208.787 15.6973 206.263" stroke="#8A9ACE" stroke-linecap="round"/>
<path d="M23.2476 217.588C26.3628 217.588 29.2954 216.769 32.3707 216.33" stroke="#8A9ACE" stroke-linecap="round"/>
<path d="M24.5059 227.97C26.0604 227.97 28.1812 230.301 29.5393 231.116" stroke="#8A9ACE" stroke-linecap="round"/>
<path d="M16.6413 229.857C16.1078 230.865 15.8254 231.841 15.0683 232.706C14.2785 233.609 13.4038 234.445 12.8662 235.52" stroke="#8A9ACE" stroke-linecap="round"/>
<path d="M11.2931 224.194C11.0659 223.172 7.49562 222.38 6.57426 222.237C4.70957 221.948 2.79757 221.049 0.911621 221.049" stroke="#8A9ACE" stroke-linecap="round"/>
<path d="M11.293 215.071C11.293 215.453 12.1352 217.393 12.2193 217.099C12.4103 216.43 11.9974 217.454 12.6912 217.256C13.1802 217.116 12.8699 215.86 12.5513 215.7" stroke="#8A9ACE" stroke-linecap="round"/>
<path d="M20.731 214.128C21.4929 214.212 22.0182 215.171 22.9331 214.687C24.2685 213.98 22.0518 213.813 21.6747 213.813" stroke="#8A9ACE" stroke-linecap="round"/>
<path d="M25.4498 222.622C25.8515 222.163 25.1353 222.24 25.1353 222.622C25.1353 223.061 25.9159 223.005 26.2188 222.919C26.5987 222.81 25.4498 220.917 25.4498 223.251" stroke="#8A9ACE" stroke-linecap="round"/>
<path d="M21.3604 231.115C21.4092 231.366 21.5732 233.822 22.4789 232.863C22.9727 232.34 22.148 231.073 21.7449 231.745C21.4984 232.155 22.3788 232.01 22.5488 231.5C22.8605 230.565 22.5531 230.176 21.9895 231.115" stroke="#8A9ACE" stroke-linecap="round"/>
<path d="M10.9788 227.97C10.4917 229.083 12.5518 229.289 12.5518 228.442C12.5518 227.078 12.0872 228.045 11.608 228.284" stroke="#8A9ACE" stroke-linecap="round"/>
<path d="M182.745 332.729C182.745 334.301 182.506 335.16 184.178 335.717C185.698 336.224 189.851 336.184 189.981 333.847C190.167 330.491 188.129 330.841 185.297 330.841C183.167 330.841 182.187 331.612 183.06 333.358" stroke="#8A9ACE" stroke-linecap="round"/>
<path d="M185.577 328.324C185.271 326.071 185.577 324.194 185.577 322.032" stroke="#8A9ACE" stroke-linecap="round"/>
<path d="M192.498 329.897C194.588 327.806 196.733 326.329 199.419 325.178" stroke="#8A9ACE" stroke-linecap="round"/>
<path d="M193.127 336.818C195.132 336.892 197.126 337.677 199.104 338.007C200.326 338.21 201.656 338.706 202.879 338.706" stroke="#8A9ACE" stroke-linecap="round"/>
<path d="M188.093 341.537C188.093 343.162 188.093 344.788 188.093 346.413C188.093 347.706 189.23 351.097 188.408 351.919" stroke="#8A9ACE" stroke-linecap="round"/>
<path d="M183.06 339.649C181.264 339.649 179.549 339.885 177.782 339.964C176.52 340.02 173.153 340.119 172.364 340.908" stroke="#8A9ACE" stroke-linecap="round"/>
<path d="M178.656 332.414C175.466 330.909 172.148 330.664 168.903 329.583" stroke="#8A9ACE" stroke-linecap="round"/>
<path d="M180.8 329.235C181.512 329.235 181.629 329.199 181.585 328.45C181.575 328.278 181.096 328.352 180.8 328.254" stroke="#8A9ACE" stroke-linecap="round"/>
<path d="M188.85 327.665C188.977 327.679 190.084 327.908 190.017 327.741C189.753 327.081 189.439 327.668 189.439 328.057" stroke="#8A9ACE" stroke-linecap="round"/>
<path d="M194.74 332.377C194.74 333.029 194.013 331.705 193.584 332.671C193.274 333.369 194.616 332.429 194.347 332.966" stroke="#8A9ACE" stroke-linecap="round"/>
<path d="M192.384 340.035C192.308 340.196 191.977 340.82 192.384 340.82C192.7 340.82 192.633 340.056 192.482 340.056C192.43 340.056 192.188 340.598 192.188 340.82" stroke="#8A9ACE" stroke-linecap="round"/>
<path d="M184.923 342.98C184.975 343.397 185.512 343.177 185.512 342.784C185.512 342.004 184.906 342.62 184.727 342.98" stroke="#8A9ACE" stroke-linecap="round"/>
<path d="M178.443 335.911C178.486 336.256 179.032 336.175 179.032 335.813C179.032 335.259 178.576 335.186 178.443 335.715" stroke="#8A9ACE" stroke-linecap="round"/>
</svg>
