<svg width="282" height="121" viewBox="0 0 282 121" fill="none" xmlns="http://www.w3.org/2000/svg">
<path d="M41.4028 10.8928C41.59 6.02526 50.0367 5.43901 53.6255 5.83776C55.4401 6.03939 57.3641 6.71582 59.1332 7.15811C61.8208 7.83001 64.602 8.0771 67.3571 8.32757C72.4709 8.79245 78.2308 8.97689 83.3145 8.17667C85.6122 7.815 88.1467 7.53625 90.2369 6.44135C92.0605 5.48613 93.0427 3.76398 94.3677 2.29168C96.0846 0.383992 99.154 0.875842 101.177 1.9333C104.152 3.48868 106.87 5.51896 109.797 7.15811C112.805 8.84244 116.086 8.51619 119.492 8.51619" stroke="#8A9ACE" stroke-linecap="round"/>
<path d="M154.802 5.46061C154.802 7.07626 154.791 7.49772 156.5 7.49772C157.58 7.49772 158.096 7.31054 158.461 6.21509C158.566 5.90241 158.73 4.57003 158.348 4.46092C156.995 4.07441 154.123 3.98295 154.123 5.80013C154.123 7.26718 155.805 6.83407 156.5 6.13965" stroke="#8A9ACE" stroke-linecap="round"/>
<path d="M185.019 5.80017C185.396 4.79626 189.307 5.10324 190.112 5.12113C193.484 5.19606 196.973 6.39011 200.297 6.98849C207.919 8.3604 215.195 6.7581 222.536 4.80048C228.109 3.31439 232.884 4.57598 237.984 6.89418C242.42 8.91035 248.248 8.42168 252.923 7.83728" stroke="#8A9ACE" stroke-linecap="round"/>
<path d="M273.973 12.5908C272.639 12.9242 274.273 15.986 275.501 15.986C277.073 15.986 278.726 15.893 278.726 13.9489C278.726 12.1923 278.156 11.5723 276.35 11.5723C273.505 11.5723 273.633 12.1138 273.633 14.6279" stroke="#8A9ACE" stroke-linecap="round"/>
<path d="M280.424 40.7705C279.242 41.0331 278.726 45.0834 278.726 46.033C278.726 49.3564 279.639 52.4291 280.009 55.7093C280.684 61.6965 279.405 67.6009 279.405 73.5529C279.405 79.0627 281.442 84.1872 281.442 89.6612C281.442 91.6407 281.668 92.8491 279.745 93.8108C278.663 94.3519 278.726 96.055 278.726 97.1306" stroke="#8A9ACE" stroke-linecap="round"/>
<path d="M271.936 112.409C271.243 114.748 271.029 117.613 273.803 118.332C275.663 118.814 278.211 117.757 277.444 115.54C276.965 114.157 274.968 114.446 273.803 114.446C272.062 114.446 271.257 114.435 271.257 116.144" stroke="#8A9ACE" stroke-linecap="round"/>
<path d="M251.225 117.502C247.482 116.7 244.408 114.021 240.417 113.786C236.065 113.53 231.769 113.926 227.478 114.616C216.859 116.322 206.453 118.52 195.62 118.52C194.472 118.52 193.643 117.937 192.602 117.502C189.721 116.296 186.553 116.269 183.472 116.162C179.985 116.042 177.9 117.227 174.984 118.86C173.201 119.858 170.723 120.798 168.722 119.878C167.571 119.35 166.679 118.687 165.667 118.181" stroke="#8A9ACE" stroke-linecap="round"/>
<path d="M153.444 116.144C151.578 118.71 153.111 119.037 155.839 119.18C158.276 119.309 160.913 119.932 160.913 116.898C160.913 112.808 155.326 115.588 153.104 116.144" stroke="#8A9ACE" stroke-linecap="round"/>
<path d="M130.696 118.52C123.932 118.52 117.443 116.919 110.646 117.181C106.182 117.352 101.891 118.934 97.4613 119.18C95.1245 119.31 93.863 119.267 91.9158 117.916C89.6994 116.379 86.9632 114.383 84.2578 113.842C81.4788 113.286 78.5908 114.094 75.8641 114.446C73.4293 114.76 71.0229 115.804 68.5645 115.804C66.5273 115.804 64.4902 115.804 62.4531 115.804" stroke="#8A9ACE" stroke-linecap="round"/>
<path d="M39.7051 113.088C38.5537 116.686 44.4583 118.623 44.4583 115.974C44.4583 112.815 40.0916 113.427 37.668 113.427" stroke="#8A9ACE" stroke-linecap="round"/>
<path d="M9.82748 109.013C6.59958 105.068 5.3265 98.3065 6.2814 93.3956C7.04193 89.4843 7.79037 86.0615 7.79037 82.0217C7.79037 77.8225 6.91793 73.3841 4.99877 69.6293C3.27427 66.2552 1 64.1266 1 60.1227C1 56.8058 3.45074 54.2372 5.22512 51.6348C6.25329 50.1268 10.4204 41.5759 8.12989 40.4307" stroke="#8A9ACE" stroke-linecap="round"/>
<path d="M12.8833 16.3252C13.7571 16.3252 16.9402 17.2512 17.6366 16.5138C18.0996 16.0236 18.2781 13.9488 17.7686 13.4393C16.3878 12.0585 13.6095 12.5905 11.8647 12.5905" stroke="#8A9ACE" stroke-linecap="round"/>
<path d="M12.6393 12.729C12.6393 13.7176 12.3713 15.0604 12.927 15.894" stroke="#8A9ACE" stroke-linecap="round"/>
</svg>
