<svg width="60" height="72" viewBox="0 0 60 72" fill="none" xmlns="http://www.w3.org/2000/svg">
<path d="M12.7466 31.4267C18.6204 31.4267 24.4882 31.5824 30.3659 31.5824C33.285 31.5824 36.2041 31.5824 39.1232 31.5824C41.6288 31.5824 44.0765 31.77 46.5721 31.8851C46.7085 31.8914 48.6306 31.9345 48.6306 31.8591C48.6306 31.6793 47.3754 31.1226 47.2002 31.0461C45.7343 30.4066 44.0767 30.1234 42.5075 29.8353C41.7468 29.6956 41.0188 29.3637 40.2571 29.2558C40.1306 29.2379 41.0146 29.3968 41.1991 29.4374C41.9745 29.6083 42.7041 29.9337 43.4931 30.0947C44.0216 30.2026 44.67 30.2249 45.1678 30.4148C45.7307 30.6294 46.5555 30.4527 47.0519 30.7261C47.2826 30.8532 47.622 30.8462 47.8805 30.9251C48.1377 31.0035 48.3817 31.2094 48.6219 31.2624C50.4451 31.6641 47.5267 33.0453 46.7815 33.3295C46.005 33.6256 45.0746 34.5466 44.4613 35.0939C44.2599 35.2736 42.7337 36.3313 43.2227 35.7771C44.0853 34.7997 45.1801 34.0724 46.1884 33.2949C46.9936 32.6739 47.5137 32.102 48.0724 31.271" stroke="#8A9ACE" stroke-linecap="round"/>
<path d="M55.8668 47.1463C55.8668 47.4463 55.8534 47.7287 56.1681 47.8765C56.3863 47.9791 56.66 47.9695 56.7706 47.7438C56.9766 47.3232 56.5261 46.81 56.1078 47.0865" stroke="#8A9ACE" stroke-linecap="round"/>
<path d="M55.8666 46.2491C55.8666 45.8401 55.8062 45.4513 55.8062 45.0542" stroke="#8A9ACE" stroke-linecap="round"/>
<path d="M57.0088 46.4282C57.3671 46.4282 57.5346 46.0318 57.7318 45.771" stroke="#8A9ACE" stroke-linecap="round"/>
<path d="M57.7344 47.4434C58.1412 47.5167 58.5932 47.5816 58.9997 47.6823" stroke="#8A9ACE" stroke-linecap="round"/>
<path d="M57.1281 48.8774C56.8866 48.967 57.157 49.7567 57.249 49.8931" stroke="#8A9ACE" stroke-linecap="round"/>
<path d="M55.3225 48.7578C55.0359 48.7578 54.8544 48.969 54.5994 49.0532C54.4184 49.1131 54.2356 49.1768 54.0571 49.2358" stroke="#8A9ACE" stroke-linecap="round"/>
<path d="M54.9014 47.1453C54.2987 47.0824 53.6915 46.8456 53.0938 46.7271" stroke="#8A9ACE" stroke-linecap="round"/>
<path d="M56.3491 49.0581V49.4763" stroke="#8A9ACE" stroke-linecap="round"/>
<path d="M57.7344 48.6504C57.7413 48.5856 57.754 48.6038 57.7948 48.5801" stroke="#8A9ACE" stroke-linecap="round"/>
<path d="M54.7192 47.9824H54.8401" stroke="#8A9ACE" stroke-linecap="round"/>
<path d="M57.6816 46.8438C57.7016 46.8796 57.7549 46.9055 57.7953 46.9129C57.8367 46.9205 57.8552 46.8789 57.8204 46.8613" stroke="#8A9ACE" stroke-linecap="round"/>
<path d="M56.6416 45.9023H56.6834" stroke="#8A9ACE" stroke-linecap="round"/>
<path d="M55.105 46.3652C55.1095 46.4106 55.177 46.4232 55.1917 46.3868" stroke="#8A9ACE" stroke-linecap="round"/>
<path d="M16.9014 6.40592C16.9014 7.2533 17.9518 7.17677 17.9518 6.37869C17.9518 6.11718 17.7967 5.85449 17.5055 5.85449C17.0452 5.85449 16.9632 5.9923 16.9632 6.40592" stroke="#8A9ACE" stroke-linecap="round"/>
<path d="M17.4276 4.94026C17.4276 3.60808 16.8369 2.33385 16.8369 1" stroke="#8A9ACE" stroke-linecap="round"/>
<path d="M18.1226 4.78125C18.4002 5.28594 18.5156 4.8345 18.3374 4.8345" stroke="#8A9ACE" stroke-linecap="round"/>
<path d="M18.6592 5.57858C18.9371 5.4327 19.1113 5.21041 19.3573 5.03428C19.5833 4.87242 19.8236 4.72006 20.0554 4.56689" stroke="#8A9ACE" stroke-linecap="round"/>
<path d="M19.1963 6.16625C19.3418 6.16625 19.8089 6.25564 19.7303 5.98284C19.7055 5.89671 19.3574 5.91379 19.3574 6.05975" stroke="#8A9ACE" stroke-linecap="round"/>
<path d="M19.1431 7.0708C19.3851 7.0708 19.6233 7.14368 19.865 7.16546C20.2851 7.20333 20.7086 7.19256 21.1299 7.23054" stroke="#8A9ACE" stroke-linecap="round"/>
<path d="M18.77 7.70811C18.77 7.89551 18.8922 7.98032 19.0892 7.91518C19.1488 7.89549 19.1816 7.71389 19.134 7.6667C19.0677 7.60098 18.882 7.67924 18.8237 7.70811" stroke="#8A9ACE" stroke-linecap="round"/>
<path d="M17.5327 7.81494C17.5327 8.25963 17.5889 8.70017 17.5889 9.14611C17.5889 9.21524 17.6067 9.81873 17.5327 9.67858" stroke="#8A9ACE" stroke-linecap="round"/>
<path d="M16.2471 7.81495C16.2471 7.9599 16.4087 7.96294 16.4087 7.81495C16.4087 7.67486 16.3009 7.58122 16.3009 7.76171" stroke="#8A9ACE" stroke-linecap="round"/>
<path d="M15.7631 6.53733C15.416 6.38434 14.9674 6.35895 14.5966 6.29476C14.1411 6.21589 13.65 6.05811 13.1855 6.05811" stroke="#8A9ACE" stroke-linecap="round"/>
<path d="M15.709 5.52686C15.7235 5.77116 16.1493 5.85776 16.1386 5.59193C16.1295 5.36652 15.5402 5.63335 15.8701 5.63335" stroke="#8A9ACE" stroke-linecap="round"/>
<path d="M55.7449 17.2799C55.7759 17.6646 56.0976 17.7197 56.4137 17.7197C56.5927 17.7197 56.7285 17.7462 56.8362 17.5801C56.9345 17.4285 57.1257 17.1515 56.9347 16.9937C56.6045 16.7209 56.4694 16.6903 56.1251 16.8366C55.9222 16.9228 55.8697 17.134 55.6182 17.2171" stroke="#8A9ACE" stroke-linecap="round"/>
<path d="M56.19 16.2744C56.1781 16.1564 56.1004 16.0618 56.077 15.9463C56.0412 15.7695 56.08 15.5864 56.0488 15.4087C55.9855 15.0494 55.9993 14.6917 55.9993 14.3267" stroke="#8A9ACE" stroke-linecap="round"/>
<path d="M56.5708 15.8975C56.6692 15.9491 56.9359 16.1987 57.0636 16.072C57.1911 15.9456 56.8658 15.9603 56.8243 15.9603" stroke="#8A9ACE" stroke-linecap="round"/>
<path d="M57.2661 16.6509C57.5251 16.4198 57.8457 16.4722 58.1462 16.3368C58.3844 16.2294 58.6601 16.1573 58.9136 16.0854" stroke="#8A9ACE" stroke-linecap="round"/>
<path d="M57.7104 17.3433C58.2205 17.3433 57.774 16.8108 57.774 17.1548" stroke="#8A9ACE" stroke-linecap="round"/>
<path d="M57.2007 18.0981C57.4499 18.3316 57.8131 18.465 58.1441 18.538C58.3845 18.5909 58.6294 18.8065 58.8482 18.9149" stroke="#8A9ACE" stroke-linecap="round"/>
<path d="M56.3794 18.4747C56.3966 18.6108 56.5065 18.5072 56.5065 18.4119C56.5065 18.2957 56.5065 18.5909 56.5065 18.4747" stroke="#8A9ACE" stroke-linecap="round"/>
<path d="M55.9363 18.0981C55.3328 18.2178 54.8868 18.6273 54.4155 18.9778" stroke="#8A9ACE" stroke-linecap="round"/>
<path d="M54.7956 17.5311C54.6113 17.5766 54.8183 17.8139 54.8556 17.6847C54.8853 17.582 54.7075 17.5455 54.6685 17.4683" stroke="#8A9ACE" stroke-linecap="round"/>
<path d="M55.1771 16.9028C55.4619 16.5851 54.8692 16.5134 54.7195 16.3862C54.2167 15.9589 53.4567 15.868 52.896 15.5205" stroke="#8A9ACE" stroke-linecap="round"/>
<path d="M55.7452 16.2739C55.7046 16.319 55.6997 16.3461 55.6816 16.3996" stroke="#8A9ACE" stroke-linecap="round"/>
<path d="M4.04252 44.8643C4.0639 45.4157 4.99299 46.0332 4.99299 45.2099C4.99299 44.7501 4.69842 44.6747 4.30302 44.5223C4.15231 44.4642 3.78906 44.403 3.78906 44.613" stroke="#8A9ACE" stroke-linecap="round"/>
<path d="M4.23325 43.5433C4.11124 43.0533 3.979 42.4139 3.979 41.9097" stroke="#8A9ACE" stroke-linecap="round"/>
<path d="M5.49805 44.1727C6.12551 44.1727 6.7162 44.0091 7.33562 43.9214" stroke="#8A9ACE" stroke-linecap="round"/>
<path d="M5.75098 46.2456C6.06409 46.2456 6.49125 46.7112 6.76481 46.8739" stroke="#8A9ACE" stroke-linecap="round"/>
<path d="M4.16858 46.6216C4.06111 46.8229 4.00424 47.0177 3.85175 47.1906C3.69267 47.3708 3.51648 47.5378 3.4082 47.7525" stroke="#8A9ACE" stroke-linecap="round"/>
<path d="M3.09103 45.4901C3.04526 45.2859 2.32614 45.1277 2.14056 45.0992C1.76498 45.0415 1.37986 44.8618 1 44.8618" stroke="#8A9ACE" stroke-linecap="round"/>
<path d="M3.08984 43.6689C3.08984 43.7451 3.25949 44.1326 3.27642 44.0739C3.3149 43.9403 3.23174 44.1449 3.37146 44.1053C3.46996 44.0774 3.40748 43.8264 3.3433 43.7946" stroke="#8A9ACE" stroke-linecap="round"/>
<path d="M4.9917 43.4813C5.14516 43.4982 5.25097 43.6897 5.43525 43.593C5.70423 43.4518 5.25773 43.4185 5.18179 43.4185" stroke="#8A9ACE" stroke-linecap="round"/>
<path d="M5.94393 45.1767C6.02508 45.085 5.88037 45.1005 5.88037 45.1767C5.88037 45.2645 6.0381 45.2533 6.09931 45.236C6.17606 45.2144 5.94393 44.8362 5.94393 45.3024" stroke="#8A9ACE" stroke-linecap="round"/>
<path d="M5.12012 46.8739C5.12995 46.9239 5.16299 47.4145 5.34541 47.223C5.44487 47.1186 5.27876 46.8654 5.19756 46.9996C5.14793 47.0816 5.32525 47.0526 5.35949 46.9507C5.42228 46.7639 5.36036 46.6863 5.24685 46.8739" stroke="#8A9ACE" stroke-linecap="round"/>
<path d="M3.02819 46.2445C2.93009 46.4669 3.34502 46.5081 3.34502 46.3388C3.34502 46.0665 3.25144 46.2595 3.15492 46.3074" stroke="#8A9ACE" stroke-linecap="round"/>
<path d="M37.6254 67.1667C37.6254 67.4808 37.5772 67.6522 37.9141 67.7636C38.2202 67.8647 39.0567 67.8568 39.0828 67.3901C39.1204 66.7197 38.7098 66.7897 38.1394 66.7897C37.7104 66.7897 37.513 66.9437 37.6888 67.2923" stroke="#8A9ACE" stroke-linecap="round"/>
<path d="M38.203 66.2879C38.1264 65.8379 38.203 65.4631 38.203 65.0312" stroke="#8A9ACE" stroke-linecap="round"/>
<path d="M39.5854 66.6021C40.0066 66.1845 40.4386 65.8895 40.9795 65.6597" stroke="#8A9ACE" stroke-linecap="round"/>
<path d="M39.7163 67.9839C40.1201 67.9987 40.5219 68.1554 40.9202 68.2212C41.1664 68.2619 41.4341 68.3609 41.6806 68.3609" stroke="#8A9ACE" stroke-linecap="round"/>
<path d="M38.7021 68.9263C38.7021 69.2509 38.7021 69.5755 38.7021 69.9001C38.7021 70.1582 38.9318 70.8355 38.7657 70.9997" stroke="#8A9ACE" stroke-linecap="round"/>
<path d="M37.6895 68.5493C37.3278 68.5493 36.9824 68.5965 36.6264 68.6121C36.3724 68.6233 35.6941 68.643 35.5352 68.8006" stroke="#8A9ACE" stroke-linecap="round"/>
<path d="M36.7997 67.1055C36.1574 66.8051 35.4891 66.7561 34.8354 66.54" stroke="#8A9ACE" stroke-linecap="round"/>
<path d="M37.2344 66.471C37.3782 66.471 37.402 66.4636 37.3931 66.3141C37.391 66.2798 37.2942 66.2946 37.2344 66.2749" stroke="#8A9ACE" stroke-linecap="round"/>
<path d="M38.853 66.1571C38.8788 66.1599 39.1024 66.2057 39.0889 66.1723C39.0355 66.0404 38.972 66.1577 38.972 66.2355" stroke="#8A9ACE" stroke-linecap="round"/>
<path d="M40.0409 67.097C40.0409 67.2272 39.894 66.9628 39.8073 67.1558C39.7447 67.295 40.0158 67.1074 39.9616 67.2146" stroke="#8A9ACE" stroke-linecap="round"/>
<path d="M39.5671 68.6284C39.5518 68.6606 39.4848 68.7853 39.5671 68.7853C39.6308 68.7853 39.6173 68.6328 39.5869 68.6328C39.5763 68.6328 39.5274 68.7409 39.5274 68.7853" stroke="#8A9ACE" stroke-linecap="round"/>
<path d="M38.0641 69.215C38.0746 69.2983 38.1831 69.2544 38.1831 69.1758C38.1831 69.0201 38.0607 69.1431 38.0244 69.215" stroke="#8A9ACE" stroke-linecap="round"/>
<path d="M36.7563 67.8044C36.765 67.8732 36.8754 67.8571 36.8754 67.7848C36.8754 67.6741 36.7831 67.6595 36.7563 67.7652" stroke="#8A9ACE" stroke-linecap="round"/>
</svg>
