<svg width="59" height="72" viewBox="0 0 59 72" fill="none" xmlns="http://www.w3.org/2000/svg">
<path d="M46.6729 40.6479C40.9033 40.6479 35.1396 40.4914 29.3662 40.4914C26.4989 40.4914 23.6316 40.4914 20.7643 40.4914C18.3031 40.4914 15.8989 40.3028 13.4475 40.1871C13.3136 40.1807 11.4256 40.1374 11.4256 40.2131C11.4256 40.3939 12.6585 40.9535 12.8307 41.0304C14.2705 41.6733 15.8987 41.958 17.44 42.2476C18.1872 42.388 18.9023 42.7217 19.6505 42.8301C19.7748 42.8482 18.9064 42.6884 18.7252 42.6476C17.9635 42.4758 17.247 42.1487 16.4719 41.9868C15.9528 41.8783 15.3159 41.856 14.8269 41.6651C14.2741 41.4493 13.4639 41.627 12.9763 41.3521C12.7497 41.2243 12.4163 41.2314 12.1624 41.1521C11.9097 41.0732 11.6701 40.8663 11.4341 40.813C9.64325 40.4092 12.5099 39.0208 13.2419 38.7351C14.0046 38.4374 14.9185 37.5116 15.5209 36.9615C15.7187 36.7808 17.2178 35.7175 16.7375 36.2746C15.8903 37.2572 14.8148 37.9882 13.8245 38.7699C13.0336 39.3941 12.5227 39.969 11.9739 40.8044" stroke="#8A9ACE" stroke-linecap="round"/>
<path d="M4.07804 25.269C4.07804 24.9674 4.09121 24.6835 3.78227 24.5349C3.56796 24.4319 3.29928 24.4415 3.19071 24.6684C2.98845 25.0912 3.43071 25.6071 3.84142 25.3291" stroke="#8A9ACE" stroke-linecap="round"/>
<path d="M4.10832 26.1611C4.10832 26.5723 4.16748 26.9631 4.16748 27.3623" stroke="#8A9ACE" stroke-linecap="round"/>
<path d="M2.97607 26.0063C2.6243 26.0063 2.45989 26.4048 2.26621 26.667" stroke="#8A9ACE" stroke-linecap="round"/>
<path d="M2.24219 25.002C1.8428 24.9282 1.39902 24.863 0.999922 24.7617" stroke="#8A9ACE" stroke-linecap="round"/>
<path d="M2.80319 23.541C3.03956 23.451 2.77494 22.6571 2.68488 22.52" stroke="#8A9ACE" stroke-linecap="round"/>
<path d="M4.58635 23.6201C4.86769 23.6201 5.04589 23.4079 5.29621 23.3231C5.4739 23.263 5.65341 23.1989 5.82861 23.1396" stroke="#8A9ACE" stroke-linecap="round"/>
<path d="M5.03442 25.23C5.6261 25.2932 6.22226 25.5312 6.80908 25.6504" stroke="#8A9ACE" stroke-linecap="round"/>
<path d="M3.5752 23.3472V22.9267" stroke="#8A9ACE" stroke-linecap="round"/>
<path d="M2.22412 23.7904C2.21731 23.8459 2.20492 23.8303 2.16497 23.8506" stroke="#8A9ACE" stroke-linecap="round"/>
<path d="M5.19385 24.4019H5.07554" stroke="#8A9ACE" stroke-linecap="round"/>
<path d="M2.30566 25.5952C2.28616 25.5599 2.23399 25.5344 2.1944 25.5271C2.15393 25.5196 2.13582 25.5606 2.16989 25.5779" stroke="#8A9ACE" stroke-linecap="round"/>
<path d="M3.33984 26.5249H3.30472" stroke="#8A9ACE" stroke-linecap="round"/>
<path d="M4.84277 26.0352C4.8383 25.9988 4.77226 25.9887 4.75791 26.0179" stroke="#8A9ACE" stroke-linecap="round"/>
<path d="M43.0225 65.5707C43.0225 64.7189 41.9912 64.7958 41.9912 65.5981C41.9912 65.8609 42.1435 66.125 42.4293 66.125C42.8813 66.125 42.9618 65.9865 42.9618 65.5707" stroke="#8A9ACE" stroke-linecap="round"/>
<path d="M42.5636 67.0391C42.5636 68.3782 43.1436 69.6592 43.1436 71" stroke="#8A9ACE" stroke-linecap="round"/>
<path d="M41.8462 67.2188C41.5736 66.7114 41.4604 67.1652 41.6353 67.1652" stroke="#8A9ACE" stroke-linecap="round"/>
<path d="M41.3159 66.4337C41.0431 66.5803 40.872 66.8038 40.6306 66.9808C40.4087 67.1436 40.1727 67.2967 39.9452 67.4507" stroke="#8A9ACE" stroke-linecap="round"/>
<path d="M40.7715 65.8472C40.6286 65.8472 40.1701 65.7573 40.2472 66.0315C40.2716 66.1181 40.6133 66.1009 40.6133 65.9542" stroke="#8A9ACE" stroke-linecap="round"/>
<path d="M40.8071 64.9482C40.5694 64.9482 40.3354 64.875 40.098 64.8531C39.6854 64.815 39.2694 64.8258 38.8555 64.7877" stroke="#8A9ACE" stroke-linecap="round"/>
<path d="M41.1655 64.2862C41.1655 64.0978 41.0456 64.0125 40.8521 64.078C40.7936 64.0978 40.7615 64.2804 40.8082 64.3278C40.8733 64.3939 41.0556 64.3152 41.1128 64.2862" stroke="#8A9ACE" stroke-linecap="round"/>
<path d="M42.3623 64.1562C42.3623 63.7092 42.3087 63.2664 42.3087 62.8181C42.3087 62.7486 42.2917 62.1419 42.3623 62.2828" stroke="#8A9ACE" stroke-linecap="round"/>
<path d="M43.644 64.1359C43.644 63.9902 43.4859 63.9871 43.4859 64.1359C43.4859 64.2767 43.5913 64.3709 43.5913 64.1894" stroke="#8A9ACE" stroke-linecap="round"/>
<path d="M44.143 65.3894C44.484 65.5431 44.9245 65.5687 45.2888 65.6332C45.7362 65.7125 46.2186 65.8711 46.6748 65.8711" stroke="#8A9ACE" stroke-linecap="round"/>
<path d="M44.207 66.43C44.1928 66.1845 43.7748 66.0974 43.7853 66.3646C43.7942 66.5912 44.3727 66.323 44.0489 66.323" stroke="#8A9ACE" stroke-linecap="round"/>
<path d="M4.69248 55.2861C4.66201 54.8994 4.34623 54.844 4.03583 54.844C3.86013 54.844 3.7268 54.8175 3.62111 54.9844C3.5246 55.1368 3.33685 55.4152 3.52434 55.5739C3.84851 55.8481 3.98119 55.8789 4.31923 55.7318C4.5184 55.6451 4.56996 55.4329 4.81689 55.3493" stroke="#8A9ACE" stroke-linecap="round"/>
<path d="M4.28869 56.2925C4.30038 56.4111 4.37642 56.5063 4.39929 56.6224C4.4343 56.8001 4.39634 56.9841 4.42693 57.1627C4.48881 57.5239 4.47532 57.8835 4.47532 58.2505" stroke="#8A9ACE" stroke-linecap="round"/>
<path d="M3.9043 56.6841C3.80765 56.6321 3.54588 56.3813 3.42045 56.5086C3.29535 56.6357 3.61472 56.6209 3.65546 56.6209" stroke="#8A9ACE" stroke-linecap="round"/>
<path d="M3.21387 55.9472C2.95961 56.1795 2.64488 56.1268 2.34986 56.263C2.11595 56.3709 1.84531 56.4434 1.59645 56.5156" stroke="#8A9ACE" stroke-linecap="round"/>
<path d="M2.76416 55.2479C2.26497 55.2479 2.70195 55.7831 2.70195 55.4374" stroke="#8A9ACE" stroke-linecap="round"/>
<path d="M3.24121 54.4937C2.99652 54.259 2.63997 54.1249 2.315 54.0515C2.07903 53.9983 1.83861 53.7816 1.6238 53.6726" stroke="#8A9ACE" stroke-linecap="round"/>
<path d="M4.05078 54.0883C4.03394 53.9515 3.92636 54.0556 3.92636 54.1514C3.92636 54.2682 3.92636 53.9715 3.92636 54.0883" stroke="#8A9ACE" stroke-linecap="round"/>
<path d="M4.48552 54.4463C5.07795 54.326 5.51583 53.9144 5.97852 53.562" stroke="#8A9ACE" stroke-linecap="round"/>
<path d="M5.6207 55.0076C5.80105 54.9619 5.59851 54.7233 5.56195 54.8532C5.5329 54.9565 5.70686 54.9931 5.74512 55.0708" stroke="#8A9ACE" stroke-linecap="round"/>
<path d="M5.26961 55.6276C4.98984 55.947 5.57205 56.019 5.71913 56.1469C6.21296 56.5764 6.95948 56.6678 7.51025 57.0171" stroke="#8A9ACE" stroke-linecap="round"/>
<path d="M4.70781 56.2861C4.74751 56.2408 4.75238 56.2135 4.77002 56.1598" stroke="#8A9ACE" stroke-linecap="round"/>
<path d="M55.0168 26.701C54.9958 26.1468 54.0837 25.526 54.0837 26.3536C54.0837 26.8158 54.3729 26.8916 54.761 27.0448C54.909 27.1032 55.2656 27.1647 55.2656 26.9536" stroke="#8A9ACE" stroke-linecap="round"/>
<path d="M54.8669 28.0224C54.9863 28.5149 55.1157 29.1577 55.1157 29.6646" stroke="#8A9ACE" stroke-linecap="round"/>
<path d="M53.6021 27.429C52.986 27.429 52.4061 27.5934 51.798 27.6816" stroke="#8A9ACE" stroke-linecap="round"/>
<path d="M53.311 25.3428C53.0036 25.3428 52.5843 24.8748 52.3157 24.7112" stroke="#8A9ACE" stroke-linecap="round"/>
<path d="M54.857 24.9229C54.9625 24.7205 55.0184 24.5246 55.1681 24.3509C55.3242 24.1697 55.4972 24.0018 55.6035 23.786" stroke="#8A9ACE" stroke-linecap="round"/>
<path d="M55.9466 26.0305C55.9915 26.2358 56.6979 26.3948 56.8802 26.4235C57.2491 26.4815 57.6274 26.6621 58.0005 26.6621" stroke="#8A9ACE" stroke-linecap="round"/>
<path d="M55.9683 27.8823C55.9683 27.8057 55.8017 27.4162 55.7851 27.4753C55.7473 27.6095 55.829 27.4039 55.6918 27.4437C55.5951 27.4718 55.6564 27.724 55.7194 27.756" stroke="#8A9ACE" stroke-linecap="round"/>
<path d="M54.1069 28.1048C53.9563 28.0878 53.8524 27.8953 53.6715 27.9925C53.4074 28.1345 53.8458 28.168 53.9203 28.168" stroke="#8A9ACE" stroke-linecap="round"/>
<path d="M53.1473 26.4121C53.0678 26.5043 53.2095 26.4887 53.2095 26.4121C53.2095 26.3239 53.0551 26.3351 52.9952 26.3524C52.9201 26.3742 53.1473 26.7544 53.1473 26.2858" stroke="#8A9ACE" stroke-linecap="round"/>
<path d="M53.9263 24.6949C53.9166 24.6446 53.8842 24.1514 53.7051 24.344C53.6074 24.4489 53.7705 24.7034 53.8502 24.5685C53.899 24.4861 53.7249 24.5153 53.6913 24.6177C53.6296 24.8054 53.6904 24.8834 53.8019 24.6949" stroke="#8A9ACE" stroke-linecap="round"/>
<path d="M55.9897 25.2918C56.086 25.0683 55.6786 25.0269 55.6786 25.1971C55.6786 25.4708 55.7705 25.2768 55.8652 25.2287" stroke="#8A9ACE" stroke-linecap="round"/>
<path d="M21.6656 4.8455C21.6656 4.52975 21.713 4.35742 21.3822 4.24548C21.0817 4.14378 20.2605 4.15175 20.2348 4.62093C20.198 5.2948 20.6011 5.22446 21.161 5.22446C21.5822 5.22446 21.776 5.06963 21.6034 4.71918" stroke="#8A9ACE" stroke-linecap="round"/>
<path d="M21.1323 5.72703C21.1938 6.17938 21.1323 6.55612 21.1323 6.99023" stroke="#8A9ACE" stroke-linecap="round"/>
<path d="M19.7563 5.44615C19.3429 5.86595 18.9187 6.16252 18.3878 6.39355" stroke="#8A9ACE" stroke-linecap="round"/>
<path d="M19.5977 4.06348C19.201 4.04857 18.8064 3.89105 18.4151 3.82487C18.1733 3.78397 17.9103 3.68451 17.6682 3.68451" stroke="#8A9ACE" stroke-linecap="round"/>
<path d="M20.5635 3.08447C20.5635 2.75814 20.5635 2.43182 20.5635 2.10549C20.5635 1.84604 20.3387 1.16522 20.5013 1.00018" stroke="#8A9ACE" stroke-linecap="round"/>
<path d="M21.5806 3.42725C21.936 3.42725 22.2753 3.37985 22.6249 3.36409C22.8744 3.35283 23.5406 3.33305 23.6968 3.1746" stroke="#8A9ACE" stroke-linecap="round"/>
<path d="M22.4822 4.86662C23.1132 5.16865 23.7696 5.21789 24.4116 5.43506" stroke="#8A9ACE" stroke-linecap="round"/>
<path d="M22.0664 5.52994C21.9256 5.52994 21.9024 5.53733 21.9111 5.68763C21.9131 5.72209 22.0079 5.70725 22.0664 5.72705" stroke="#8A9ACE" stroke-linecap="round"/>
<path d="M20.4771 5.87246C20.4518 5.86961 20.233 5.82355 20.2462 5.85713C20.2985 5.98973 20.3606 5.8718 20.3606 5.79362" stroke="#8A9ACE" stroke-linecap="round"/>
<path d="M19.2958 4.94203C19.2958 4.81107 19.4395 5.07686 19.5244 4.8829C19.5857 4.74296 19.3204 4.93152 19.3735 4.82377" stroke="#8A9ACE" stroke-linecap="round"/>
<path d="M19.736 3.39893C19.751 3.36655 19.8166 3.24124 19.736 3.24124C19.6737 3.24124 19.6869 3.39455 19.7166 3.39455C19.727 3.39455 19.7748 3.28589 19.7748 3.24124" stroke="#8A9ACE" stroke-linecap="round"/>
<path d="M21.2038 2.78344C21.1935 2.6997 21.0874 2.74383 21.0874 2.82286C21.0874 2.97936 21.2071 2.85565 21.2427 2.78344" stroke="#8A9ACE" stroke-linecap="round"/>
<path d="M22.5088 4.1813C22.5003 4.11219 22.3923 4.12835 22.3923 4.20101C22.3923 4.3123 22.4826 4.32701 22.5088 4.22072" stroke="#8A9ACE" stroke-linecap="round"/>
</svg>
