<svg width="290" height="350" viewBox="0 0 290 350" fill="none" xmlns="http://www.w3.org/2000/svg">
<path d="M231.914 198.226C202.751 198.226 173.619 197.447 144.437 197.447C129.945 197.447 115.452 197.447 100.959 197.447C88.5193 197.447 76.3671 196.508 63.9767 195.931C63.2996 195.9 53.7568 195.684 53.7568 196.061C53.7568 196.962 59.9887 199.749 60.8588 200.132C68.1365 203.334 76.3662 204.752 84.1569 206.195C87.9335 206.894 91.5477 208.556 95.3296 209.096C95.9578 209.186 91.5687 208.39 90.6526 208.187C86.8029 207.331 83.181 205.702 79.2634 204.895C76.6398 204.355 73.4206 204.244 70.9489 203.293C68.1546 202.218 64.0593 203.103 61.595 201.734C60.4495 201.098 58.7647 201.133 57.481 200.738C56.204 200.345 54.9928 199.314 53.8001 199.049C44.7481 197.038 59.2376 190.122 62.9374 188.699C66.7925 187.217 71.4118 182.605 74.4566 179.865C75.4566 178.965 83.0337 173.669 80.6059 176.444C76.3237 181.338 70.8878 184.979 65.8822 188.873C61.8844 191.982 59.3022 194.845 56.5283 199.006" stroke="#8A9ACE" stroke-linecap="round"/>
<path d="M16.6178 121.626C16.6178 120.124 16.6843 118.71 15.122 117.97C14.0383 117.457 12.6795 117.505 12.1305 118.635C11.1076 120.741 13.3441 123.31 15.4211 121.926" stroke="#8A9ACE" stroke-linecap="round"/>
<path d="M16.7692 126.07C16.7692 128.118 17.0684 130.065 17.0684 132.053" stroke="#8A9ACE" stroke-linecap="round"/>
<path d="M11.0493 125.3C9.27037 125.3 8.43893 127.285 7.45948 128.591" stroke="#8A9ACE" stroke-linecap="round"/>
<path d="M7.33789 120.297C5.31817 119.93 3.07395 119.605 1.05568 119.101" stroke="#8A9ACE" stroke-linecap="round"/>
<path d="M10.177 113.018C11.3723 112.57 10.0341 108.616 9.5787 107.932" stroke="#8A9ACE" stroke-linecap="round"/>
<path d="M19.1821 113.413C20.6049 113.413 21.5061 112.356 22.772 111.934C23.6706 111.634 24.5783 111.315 25.4644 111.02" stroke="#8A9ACE" stroke-linecap="round"/>
<path d="M21.4478 121.432C24.4399 121.747 27.4548 122.932 30.4224 123.526" stroke="#8A9ACE" stroke-linecap="round"/>
<path d="M14.0752 112.055V109.961" stroke="#8A9ACE" stroke-linecap="round"/>
<path d="M7.25049 114.265C7.21603 114.541 7.15339 114.463 6.95134 114.564" stroke="#8A9ACE" stroke-linecap="round"/>
<path d="M22.2583 117.309H21.66" stroke="#8A9ACE" stroke-linecap="round"/>
<path d="M7.65967 123.253C7.56104 123.078 7.29721 122.951 7.09702 122.914C6.89236 122.877 6.80075 123.081 6.97304 123.167" stroke="#8A9ACE" stroke-linecap="round"/>
<path d="M12.8896 127.882H12.718" stroke="#8A9ACE" stroke-linecap="round"/>
<path d="M20.4873 125.44C20.4647 125.26 20.1307 125.21 20.0582 125.355" stroke="#8A9ACE" stroke-linecap="round"/>
<path d="M213.461 322.363C213.461 318.12 208.246 318.503 208.246 322.499C208.246 323.809 209.016 325.124 210.462 325.124C212.747 325.124 213.155 324.434 213.155 322.363" stroke="#8A9ACE" stroke-linecap="round"/>
<path d="M211.142 329.676C211.142 336.346 214.075 342.726 214.075 349.404" stroke="#8A9ACE" stroke-linecap="round"/>
<path d="M207.517 330.571C206.138 328.044 205.565 330.305 206.45 330.305" stroke="#8A9ACE" stroke-linecap="round"/>
<path d="M204.837 326.662C203.457 327.393 202.592 328.506 201.371 329.387C200.249 330.198 199.056 330.961 197.905 331.728" stroke="#8A9ACE" stroke-linecap="round"/>
<path d="M202.089 323.739C201.366 323.739 199.047 323.291 199.438 324.657C199.561 325.088 201.289 325.003 201.289 324.272" stroke="#8A9ACE" stroke-linecap="round"/>
<path d="M202.265 319.263C201.063 319.263 199.88 318.898 198.68 318.789C196.595 318.599 194.492 318.653 192.4 318.463" stroke="#8A9ACE" stroke-linecap="round"/>
<path d="M204.077 315.967C204.077 315.029 203.47 314.604 202.492 314.93C202.196 315.029 202.033 315.938 202.27 316.175C202.599 316.504 203.521 316.112 203.81 315.967" stroke="#8A9ACE" stroke-linecap="round"/>
<path d="M210.127 315.319C210.127 313.092 209.86 310.887 209.86 308.654C209.86 308.308 209.776 305.286 210.127 305.988" stroke="#8A9ACE" stroke-linecap="round"/>
<path d="M216.605 315.216C216.605 314.49 215.805 314.475 215.805 315.216C215.805 315.918 216.338 316.386 216.338 315.483" stroke="#8A9ACE" stroke-linecap="round"/>
<path d="M219.128 321.46C220.852 322.226 223.079 322.353 224.92 322.674C227.181 323.069 229.619 323.859 231.925 323.859" stroke="#8A9ACE" stroke-linecap="round"/>
<path d="M219.451 326.645C219.379 325.422 217.265 324.989 217.318 326.319C217.363 327.448 220.289 326.112 218.651 326.112" stroke="#8A9ACE" stroke-linecap="round"/>
<path d="M19.7268 271.137C19.5727 269.211 17.9758 268.935 16.4061 268.935C15.5175 268.935 14.8433 268.803 14.3088 269.634C13.8207 270.393 12.8713 271.78 13.8195 272.57C15.4588 273.936 16.1297 274.089 17.8392 273.357C18.8465 272.925 19.1072 271.868 20.356 271.452" stroke="#8A9ACE" stroke-linecap="round"/>
<path d="M17.6862 276.151C17.7453 276.742 18.1298 277.216 18.2454 277.794C18.4225 278.679 18.2305 279.596 18.3853 280.485C18.6982 282.285 18.6299 284.076 18.6299 285.903" stroke="#8A9ACE" stroke-linecap="round"/>
<path d="M15.7402 278.1C15.2515 277.841 13.9277 276.591 13.2934 277.226C12.6607 277.858 14.2758 277.785 14.4819 277.785" stroke="#8A9ACE" stroke-linecap="round"/>
<path d="M12.2505 274.429C10.9647 275.586 9.37307 275.324 7.88117 276.002C6.69826 276.54 5.32964 276.901 4.07112 277.26" stroke="#8A9ACE" stroke-linecap="round"/>
<path d="M9.97949 270.948C7.45507 270.948 9.6649 273.613 9.6649 271.891" stroke="#8A9ACE" stroke-linecap="round"/>
<path d="M12.3867 267.189C11.1493 266.021 9.3462 265.353 7.70281 264.987C6.50952 264.722 5.29368 263.643 4.20735 263.1" stroke="#8A9ACE" stroke-linecap="round"/>
<path d="M16.479 265.171C16.3938 264.49 15.8498 265.008 15.8498 265.486C15.8498 266.067 15.8498 264.59 15.8498 265.171" stroke="#8A9ACE" stroke-linecap="round"/>
<path d="M18.6739 266.954C21.6699 266.354 23.8843 264.304 26.2241 262.549" stroke="#8A9ACE" stroke-linecap="round"/>
<path d="M24.4148 269.75C25.3268 269.522 24.3026 268.334 24.1176 268.981C23.9708 269.495 24.8505 269.678 25.0439 270.065" stroke="#8A9ACE" stroke-linecap="round"/>
<path d="M22.6425 272.838C21.2284 274.429 24.1712 274.787 24.9145 275.424C27.4106 277.564 31.1839 278.019 33.9678 279.759" stroke="#8A9ACE" stroke-linecap="round"/>
<path d="M19.8011 276.12C20.0019 275.894 20.0265 275.759 20.1157 275.491" stroke="#8A9ACE" stroke-linecap="round"/>
<path d="M274.081 128.76C273.975 126 269.362 122.908 269.362 127.03C269.362 129.332 270.825 129.71 272.788 130.473C273.536 130.764 275.339 131.07 275.339 130.019" stroke="#8A9ACE" stroke-linecap="round"/>
<path d="M273.33 135.342C273.934 137.795 274.588 140.997 274.588 143.521" stroke="#8A9ACE" stroke-linecap="round"/>
<path d="M266.93 132.388C263.814 132.388 260.882 133.207 257.807 133.646" stroke="#8A9ACE" stroke-linecap="round"/>
<path d="M265.462 121.995C263.907 121.995 261.787 119.664 260.428 118.849" stroke="#8A9ACE" stroke-linecap="round"/>
<path d="M273.272 119.904C273.806 118.896 274.088 117.92 274.845 117.055C275.635 116.152 276.51 115.316 277.047 114.241" stroke="#8A9ACE" stroke-linecap="round"/>
<path d="M278.787 125.421C279.014 126.444 282.584 127.236 283.506 127.378C285.371 127.667 287.283 128.567 289.168 128.567" stroke="#8A9ACE" stroke-linecap="round"/>
<path d="M278.895 134.644C278.895 134.262 278.053 132.322 277.969 132.616C277.778 133.285 278.191 132.261 277.497 132.459C277.008 132.599 277.318 133.855 277.637 134.014" stroke="#8A9ACE" stroke-linecap="round"/>
<path d="M269.489 135.752C268.727 135.668 268.202 134.709 267.287 135.193C265.952 135.9 268.168 136.067 268.545 136.067" stroke="#8A9ACE" stroke-linecap="round"/>
<path d="M264.632 127.32C264.23 127.779 264.946 127.702 264.946 127.32C264.946 126.881 264.166 126.937 263.863 127.023C263.483 127.132 264.632 129.025 264.632 126.691" stroke="#8A9ACE" stroke-linecap="round"/>
<path d="M268.568 118.766C268.52 118.516 268.356 116.06 267.45 117.019C266.956 117.541 267.781 118.809 268.184 118.137C268.43 117.726 267.55 117.872 267.38 118.382C267.068 119.317 267.376 119.706 267.939 118.766" stroke="#8A9ACE" stroke-linecap="round"/>
<path d="M279.007 121.74C279.494 120.627 277.434 120.42 277.434 121.268C277.434 122.631 277.898 121.665 278.377 121.425" stroke="#8A9ACE" stroke-linecap="round"/>
<path d="M105.516 19.9023C105.516 18.3296 105.756 17.4712 104.083 16.9137C102.563 16.4072 98.4102 16.4468 98.2804 18.7838C98.0939 22.1402 100.133 21.7898 102.964 21.7898C105.094 21.7898 106.074 21.0186 105.201 19.2731" stroke="#8A9ACE" stroke-linecap="round"/>
<path d="M102.822 24.2912C103.127 26.5443 102.822 28.4208 102.822 30.583" stroke="#8A9ACE" stroke-linecap="round"/>
<path d="M95.8628 22.8925C93.7719 24.9834 91.6269 26.4606 88.9418 27.6113" stroke="#8A9ACE" stroke-linecap="round"/>
<path d="M95.0635 16.0068C93.0588 15.9326 91.064 15.148 89.0862 14.8184C87.8639 14.6147 86.5348 14.1193 85.3112 14.1193" stroke="#8A9ACE" stroke-linecap="round"/>
<path d="M99.9468 11.1294C99.9468 9.50401 99.9468 7.87862 99.9468 6.25323C99.9468 4.961 98.8101 1.56993 99.6322 0.747891" stroke="#8A9ACE" stroke-linecap="round"/>
<path d="M105.086 12.8379C106.882 12.8379 108.597 12.6018 110.364 12.5233C111.625 12.4672 114.993 12.3687 115.782 11.5795" stroke="#8A9ACE" stroke-linecap="round"/>
<path d="M109.644 20.0071C112.833 21.5114 116.151 21.7567 119.396 22.8384" stroke="#8A9ACE" stroke-linecap="round"/>
<path d="M107.538 23.3088C106.826 23.3088 106.709 23.3456 106.753 24.0942C106.763 24.2658 107.242 24.1919 107.538 24.2905" stroke="#8A9ACE" stroke-linecap="round"/>
<path d="M99.5063 25.016C99.3787 25.0018 98.2723 24.7724 98.3392 24.9396C98.6033 25.6001 98.9173 25.0127 98.9173 24.6233" stroke="#8A9ACE" stroke-linecap="round"/>
<path d="M93.5353 20.3833C93.5353 19.731 94.2622 21.0549 94.6915 20.0888C95.0013 19.3917 93.6596 20.3309 93.928 19.7942" stroke="#8A9ACE" stroke-linecap="round"/>
<path d="M95.7613 12.6973C95.8372 12.536 96.1688 11.9119 95.7613 11.9119C95.4459 11.9119 95.5128 12.6754 95.6631 12.6754C95.7155 12.6754 95.9576 12.1342 95.9576 11.9119" stroke="#8A9ACE" stroke-linecap="round"/>
<path d="M103.182 9.63133C103.13 9.21421 102.593 9.43405 102.593 9.82768C102.593 10.6072 103.199 9.991 103.378 9.63133" stroke="#8A9ACE" stroke-linecap="round"/>
<path d="M109.778 16.5927C109.735 16.2485 109.189 16.329 109.189 16.6909C109.189 17.2452 109.645 17.3185 109.778 16.7891" stroke="#8A9ACE" stroke-linecap="round"/>
</svg>
