<svg width="25" height="315" viewBox="0 0 25 315" fill="none" xmlns="http://www.w3.org/2000/svg">
<path d="M14.9667 1.08105C14.5365 4.95317 11.0158 7.45397 10.9051 11.6613C10.808 15.3523 10.939 20.4458 12.4846 23.8462C12.9465 24.8624 12.3951 26.0569 12.9359 27.0303C13.7756 28.5418 13.9725 31.8324 14.0642 33.5741C14.1938 36.0369 14.9667 38.5245 14.9667 41.0204C14.9667 47.1834 18.1258 53.3134 18.1258 59.5234C18.1258 62.3476 19.4797 64.7842 19.4797 67.5213C19.4797 70.509 20.3822 73.4236 20.3822 76.4468C20.3822 79.9067 20.3822 83.3666 20.3822 86.8265C20.3822 90.1164 19.5782 92.8912 19.0033 96.0529C18.5669 98.4534 17.753 100.693 17.1229 103.073C16.7658 104.422 16.0802 105.315 15.4431 106.483C14.7331 107.785 14.6725 109.273 13.8636 110.544C12.3522 112.92 11.6744 116.283 10.4538 118.868C8.56911 122.859 8.0343 127.361 6.59276 131.479C4.56595 137.27 1.87927 144.225 1.87927 150.434C1.87927 157.931 0.976685 165.442 0.976685 173.023C0.976685 176.538 1.61413 180.463 2.55621 183.854C3.94632 188.859 4.39332 194.093 6.04118 199.098C12.1518 217.656 19.1 236.169 22.5384 255.509C23.8545 262.912 23.9926 270.154 23.9926 277.723C23.9926 280.745 23.3335 284.473 22.6387 287.426C22.3087 288.828 22.3873 290.405 21.8364 291.713C21.5333 292.433 20.8714 294.153 20.8335 294.872C20.7365 296.715 20.4157 298.85 19.4797 300.488C18.6947 301.862 19.124 303.626 19.0284 305.252C18.9175 307.136 16.6855 312.655 19.0284 313.826" stroke="#8A9ACE" stroke-linecap="round"/>
</svg>
