<svg width="95" height="88" viewBox="0 0 95 88" fill="none" xmlns="http://www.w3.org/2000/svg">
<path d="M80.3579 3.26981C81.0305 2.51312 80.6186 1.15914 82.0864 1.85809C82.3147 1.96683 83.5052 3.03735 83.7786 2.90783C84.1654 2.72462 84.6027 2.24501 84.9189 1.95763C85.2473 1.65907 85.9151 0.723309 86.4754 1.07983C87.0802 1.46474 87.395 2.10983 87.9323 2.52775C88.5841 3.0347 88.6618 2.76052 89.507 2.5368C90.2795 2.3323 91.9985 1.52499 91.9141 2.79019C91.8694 3.46174 90.6957 4.63503 91.534 4.81727C92.1324 4.94735 93.6574 4.85923 94.1131 5.315C94.3066 5.50848 93.0882 6.20782 92.9367 6.52763C92.6941 7.03971 93.2468 7.12916 93.5159 7.37828C94.1024 7.92134 95.0953 8.17294 93.715 8.35563C93.2276 8.42014 91.1479 8.42873 91.1087 9.13389C91.0757 9.72807 93.0614 12.1173 92.3394 12.5184C91.5608 12.951 90.2969 11.903 89.4798 11.903" stroke="#8A9ACE" stroke-linecap="round"/>
<path d="M7.21973 76.8965C6.90942 76.5517 5.26504 75.299 5.26504 76.1725C5.26504 76.8278 5.37479 78.1101 4.52298 78.3535C4.36336 78.3991 3.94055 78.1996 3.71757 78.1996C3.10593 78.1996 2.46991 78.1369 1.88053 78.3263C1.09599 78.5785 3.28854 78.757 3.50944 78.9779C4.10536 79.5738 1.7338 80.0618 1.44615 80.2448C0.935471 80.5698 0.745629 80.643 1.51855 80.643C1.97176 80.643 2.61549 80.5259 3.05696 80.652C3.75194 80.8506 2.51399 82.3788 2.51399 82.5886C2.51399 83.0928 3.88451 82.3438 4.07051 82.2719C4.29074 82.1868 4.67581 82.1915 4.84876 82.0185C4.89115 81.9761 5.0316 81.6585 5.0931 81.8737C5.34511 82.7558 4.93926 83.8272 4.93926 84.7153C4.93926 85.3319 4.90446 84.3243 5.02975 84.1632C5.22414 83.9133 5.35624 83.4266 5.71751 83.4121C6.46418 83.3823 6.93385 84.9754 7.04779 85.6021C7.28176 86.889 7.56651 86.2791 8.26947 85.4483C9.05453 84.5205 8.96302 84.0592 9.78979 85.2039C10.1378 85.6859 10.3592 86.2991 10.7219 86.7424C11.3388 87.4963 11.4267 86.1062 11.7807 85.5659C12.2743 84.8125 12.9337 84.8782 13.7354 84.8782C14.0419 84.8782 14.2251 85.1935 14.4684 84.8691C14.7864 84.4451 15.1952 84.0823 15.3643 83.575" stroke="#8A9ACE" stroke-linecap="round"/>
</svg>
