<svg width="965" height="7" viewBox="0 0 965 7" fill="none" xmlns="http://www.w3.org/2000/svg">
<path d="M1.14697 3.38375C4.37371 0.502737 9.86658 1.05934 13.8452 2.02711C20.3535 3.61022 27.1001 6.62672 33.2723 3.00389C39.589 -0.703762 44.5328 4.36053 50.9629 4.36053" stroke="#8A9ACE" stroke-linecap="round"/>
<path d="M64.1495 3.38346C66.9654 7.35877 64.6379 -1.81901 64.6379 4.36024" stroke="#8A9ACE" stroke-linecap="round"/>
<path d="M88.0807 5.82586C88.0807 3.8193 88.9371 3.44151 91.011 3.3839C98.1317 3.1861 104.813 6.25998 111.876 6.25998C114.801 6.25998 116.508 3.67115 119.338 3.35677C120.863 3.18728 122.169 2.89551 123.733 2.89551C125.92 2.89551 127.837 2.9956 129.974 3.49243C131.148 3.76541 133.685 4.02863 134.722 4.60488C136.396 5.53491 143.859 5.13492 144.734 3.3839" stroke="#8A9ACE" stroke-linecap="round"/>
<path d="M166.712 2.89551C166.108 4.2752 167.781 4.17525 168.177 3.3839" stroke="#8A9ACE" stroke-linecap="round"/>
<path d="M257.064 0.941784C257.189 3.18527 257.95 3.00911 258.909 1.81004C259.811 0.683092 257.394 -0.272612 258.529 1.43018" stroke="#8A9ACE" stroke-linecap="round"/>
<path d="M386.488 2.40661C386.488 3.82062 388.442 3.82062 388.442 2.40661C388.442 1.41591 386.712 0.965617 386.488 1.91822C386.352 2.49603 386.488 3.27571 386.488 3.87179" stroke="#8A9ACE" stroke-linecap="round"/>
<path d="M619.939 2.89515C619.939 5.27203 622.327 5.59513 622.327 3.19361C622.327 2.12763 619.451 1.82189 619.451 3.38354" stroke="#8A9ACE" stroke-linecap="round"/>
<path d="M843.134 1.91831C843.265 4.01416 847.614 2.83811 846.445 1.53845C845.185 0.139289 841.725 1.45779 843.623 2.40671" stroke="#8A9ACE" stroke-linecap="round"/>
<path d="M918.347 3.87251C918.347 -0.909086 931.71 4.63605 935.332 2.40733C937.124 1.30458 939.204 1.19759 941.301 1.43055C942.191 1.52948 943.803 3.03399 944.72 3.49265C946.159 4.21219 948.017 3.87251 949.604 3.87251" stroke="#8A9ACE" stroke-linecap="round"/>
<path d="M963.279 2.89551C963.645 4.72912 965.81 3.3839 963.279 3.3839" stroke="#8A9ACE" stroke-linecap="round"/>
</svg>
