<svg width="25" height="261" viewBox="0 0 25 261" fill="none" xmlns="http://www.w3.org/2000/svg">
<path d="M14.9804 1C14.5505 4.20669 11.0322 6.27773 10.9216 9.76206C10.8245 12.8187 10.9554 17.0369 12.5 19.853C12.9616 20.6945 12.4105 21.6837 12.951 22.4899C13.7901 23.7416 13.9868 26.4667 14.0784 27.9091C14.208 29.9487 14.9804 32.0087 14.9804 34.0758C14.9804 39.1796 18.1373 44.2562 18.1373 49.399C18.1373 51.7379 19.4902 53.7557 19.4902 56.0224C19.4902 58.4967 20.3922 60.9105 20.3922 63.4141C20.3922 66.2795 20.3922 69.1448 20.3922 72.0101C20.3922 74.7346 19.5886 77.0325 19.0142 79.651C18.578 81.6389 17.7647 83.4933 17.1351 85.4646C16.7782 86.5819 16.0931 87.3212 15.4564 88.2884C14.7469 89.3665 14.6864 90.5994 13.878 91.6521C12.3676 93.619 11.6903 96.4049 10.4706 98.5455C8.58718 101.851 8.05274 105.578 6.6122 108.989C4.58679 113.785 1.90196 119.545 1.90196 124.686C1.90196 130.895 1 137.116 1 143.394C1 146.304 1.637 149.555 2.57843 152.364C3.96759 156.508 4.41427 160.843 6.061 164.988C12.1674 180.357 19.1108 195.688 22.5468 211.705C23.862 217.835 24 223.833 24 230.101C24 232.604 23.3413 235.691 22.6471 238.136C22.3173 239.298 22.3958 240.603 21.8453 241.687C21.5425 242.283 20.8809 243.708 20.8431 244.303C20.7462 245.83 20.4256 247.597 19.4902 248.954C18.7058 250.092 19.1348 251.552 19.0392 252.899C18.9285 254.459 16.698 259.03 19.0392 260" stroke="#8A9ACE" stroke-linecap="round"/>
</svg>
