<svg width="421" height="148" viewBox="0 0 421 148" fill="none" xmlns="http://www.w3.org/2000/svg">
<path d="M419.846 10.1259C407.222 10.1259 394.741 7.81855 382.116 7.81855C374.428 7.81855 366.785 7.04943 359.086 7.04943C356.386 7.04943 351.345 8.0295 348.788 7.0067C346.531 6.10396 353.295 5.18084 355.582 4.35752C359.081 3.09776 362.451 2.70165 366.008 1.83652C366.885 1.62311 372.874 0.896484 369.853 0.896484C367.163 0.896484 364.757 1.5965 362.162 2.26381C357.617 3.43255 353.261 5.80182 348.745 7.09216C347.887 7.33725 352.278 9.78904 352.933 10.1259C355.523 11.4582 358.048 12.9311 360.581 14.3561C362.372 15.3632 364.376 17.3262 366.392 17.7744C368.177 18.171 363.234 16.838 362.333 16.2788C358.024 13.6045 352.756 10.8066 348.318 8.58767" stroke="#8A9ACE" stroke-linecap="round"/>
<path d="M212.91 104.96C213.711 115.07 216.033 124.914 216.857 134.989C217.136 138.399 217.471 141.82 217.684 145.23C217.873 148.247 217.711 145.726 217.711 144.323" stroke="#8A9ACE" stroke-linecap="round"/>
<path d="M28.9171 103.484C22.4809 111.323 17.3253 120.024 10.9305 127.853C8.76609 130.503 6.6342 133.199 4.42245 135.803C2.46565 138.107 4.09766 136.179 5.07063 135.168" stroke="#8A9ACE" stroke-linecap="round"/>
<path d="M212.43 104C211.733 106.635 210.376 109.097 209.443 111.681C208.603 114.009 208.141 116.995 206.696 119.041C204.087 122.738 209.492 110.371 211.71 106.427C213.868 102.591 214.444 104.907 216.644 107.84C218.048 109.712 219.413 111.463 221.071 113.121C221.914 113.964 223.452 115.003 223.951 116.001" stroke="#8A9ACE" stroke-linecap="round"/>
<path d="M29.2372 102.46C26.9074 103.874 24.2221 104.707 21.758 105.921C19.5375 107.015 17.1341 108.845 14.6737 109.318C10.23 110.17 22.7018 105.011 27.0352 103.709C31.2503 102.443 30.0587 104.51 29.6086 108.149C29.3214 110.471 29.0905 112.679 29.1347 115.024C29.1572 116.216 29.5444 118.031 29.2115 119.096" stroke="#8A9ACE" stroke-linecap="round"/>
</svg>
