<svg width="109" height="39" viewBox="0 0 109 39" fill="none" xmlns="http://www.w3.org/2000/svg">
<path d="M107.557 3.35128C104.341 3.35128 101.162 2.76346 97.9452 2.76346C95.9866 2.76346 94.0394 2.56752 92.0779 2.56752C91.3902 2.56752 90.1059 2.8172 89.4545 2.55663C88.8795 2.32665 90.6026 2.09148 91.1853 1.88173C92.0767 1.5608 92.9352 1.45988 93.8413 1.23948C94.0648 1.18512 95.5906 1 94.821 1C94.1356 1 93.5228 1.17834 92.8616 1.34834C91.7037 1.64609 90.5941 2.24968 89.4436 2.57841C89.225 2.64084 90.3435 3.26546 90.5104 3.35128C91.1703 3.6907 91.8135 4.06593 92.4589 4.42895C92.915 4.68553 93.4256 5.18563 93.9393 5.29979C94.394 5.40083 93.1347 5.06126 92.9052 4.9188C91.8075 4.2375 90.4653 3.52468 89.3347 2.9594" stroke="#8A9ACE" stroke-linecap="round"/>
<path d="M54.8384 27.5112C55.0424 30.087 55.6339 32.5947 55.8439 35.1615C55.915 36.0302 56.0002 36.9017 56.0545 37.7704C56.1026 38.539 56.0613 37.8968 56.0613 37.5394" stroke="#8A9ACE" stroke-linecap="round"/>
<path d="M7.96411 27.1353C6.32442 29.1321 5.01099 31.3488 3.38186 33.3433C2.83045 34.0184 2.28733 34.7053 1.72387 35.3687C1.22536 35.9556 1.64113 35.4644 1.889 35.207" stroke="#8A9ACE" stroke-linecap="round"/>
<path d="M54.7158 27.2666C54.5381 27.9378 54.1925 28.5652 53.9548 29.2233C53.7407 29.8165 53.6231 30.5771 53.255 31.0985C52.5903 32.0403 53.9672 28.8896 54.5323 27.8849C55.0821 26.9076 55.2287 27.4975 55.7893 28.245C56.1469 28.7218 56.4947 29.1678 56.9171 29.5902C57.1319 29.805 57.5237 30.0697 57.6509 30.324" stroke="#8A9ACE" stroke-linecap="round"/>
<path d="M8.04546 26.8741C7.45191 27.2343 6.7678 27.4465 6.14007 27.7557C5.57436 28.0344 4.96208 28.5007 4.33527 28.621C3.2032 28.8383 6.38049 27.5239 7.48446 27.1922C8.5583 26.8696 8.25473 27.3962 8.14007 28.3234C8.06692 28.915 8.00807 29.4775 8.01934 30.0747C8.02507 30.3784 8.12371 30.8409 8.03891 31.1123" stroke="#8A9ACE" stroke-linecap="round"/>
</svg>
