<svg width="29" height="38" viewBox="0 0 29 38" fill="none" xmlns="http://www.w3.org/2000/svg">
<path d="M16.9049 5.83107C16.9102 5.94076 16.92 6.05097 16.968 6.15321C17.0429 6.31326 17.1845 6.42475 17.3658 6.46482C17.5391 6.5031 17.7273 6.4286 17.8329 6.29759C17.9103 6.20151 17.9476 6.07794 17.9553 5.959C17.9602 5.88116 17.9608 5.80281 17.9597 5.72446C17.9789 5.61194 17.9893 5.49814 17.9852 5.38408C17.9805 5.25179 17.9591 5.10356 17.899 4.98334C17.873 4.93119 17.8376 4.88443 17.7962 4.84384L17.7742 4.80993C17.6757 4.68534 17.5087 4.60776 17.3419 4.63704C17.1724 4.66658 17.0517 4.77757 16.9768 4.91783C16.8644 5.12874 16.8531 5.40875 16.8753 5.63892C16.8811 5.70083 16.8901 5.76685 16.9049 5.83107Z" fill="#242647"/>
<path d="M10.1265 4.84384L10.1048 4.80993C10.0066 4.68534 9.83926 4.60776 9.67248 4.63704C9.50296 4.66658 9.38227 4.77757 9.30738 4.91783C9.19491 5.12874 9.18367 5.40875 9.20589 5.63892C9.21192 5.70109 9.2207 5.76711 9.23551 5.83133C9.24072 5.94102 9.2506 6.05123 9.29861 6.15347C9.37349 6.31351 9.51503 6.425 9.69635 6.46507C9.86971 6.50335 10.0579 6.42885 10.1632 6.29784C10.2406 6.20176 10.2779 6.0782 10.2856 5.95926C10.2905 5.88142 10.2913 5.80307 10.2899 5.72472C10.3091 5.6122 10.3196 5.4984 10.3155 5.38434C10.3105 5.25204 10.2894 5.10381 10.2293 4.98359C10.2035 4.93118 10.1679 4.88443 10.1265 4.84384Z" fill="#242647"/>
<path d="M15.5032 7.67919C15.5183 7.6142 15.4524 7.57285 15.3929 7.57336C15.236 7.57464 15.1139 7.63989 14.9757 7.70309C14.8449 7.76295 14.708 7.81201 14.567 7.84695C14.3067 7.91143 14.0378 7.96511 13.7666 7.95946C13.5169 7.95433 13.2706 7.89164 13.0506 7.78195C12.8284 7.67097 12.7042 7.51067 12.5431 7.33907C12.3119 7.09271 11.8464 7.31005 11.9943 7.63424C12.1325 7.93737 12.4529 8.16677 12.7533 8.32039C13.0311 8.46245 13.3565 8.5444 13.6727 8.55493C14.0488 8.56752 14.4353 8.50022 14.7659 8.32682C15.0393 8.18321 15.4316 7.98798 15.5032 7.67919Z" fill="#242647"/>
<path d="M28.2877 2.4305C27.6247 1.82398 26.7244 2.09988 26.3489 2.82893C26.1275 3.25923 26.082 3.75708 26.0326 4.22513C25.969 4.8278 25.9415 5.43304 25.9451 6.03853C25.9522 7.24309 26.0869 8.43968 26.3544 9.61804C26.3804 9.73236 26.4559 9.80454 26.5467 9.84128C25.8763 11.2565 25.0166 12.5939 23.9973 13.8164C23.4237 14.5044 22.7991 15.1556 22.1237 15.7575C21.4533 16.355 20.7119 16.8644 20.0121 17.4278C19.8303 17.093 19.6413 16.7617 19.4421 16.4357C20.2044 16.0804 20.9075 15.6545 21.5354 15.1676C23.5013 13.644 24.7371 11.5149 24.7365 9.15538C24.7371 6.79584 23.5013 4.66673 21.5354 3.14312C19.5686 1.61744 16.8678 0.683131 13.8918 0.682617C10.9158 0.682874 8.21501 1.61744 6.24823 3.14312C4.28227 4.66673 3.04652 6.79584 3.04707 9.15538C3.04652 11.5149 4.28255 13.644 6.24823 15.1676C7.07252 15.807 8.02739 16.3409 9.07579 16.7475C9.02449 16.7686 8.97924 16.803 8.95208 16.8528C8.73593 17.2513 8.64458 17.7073 8.56997 18.1609C7.93303 17.6618 7.2725 17.1937 6.66847 16.6556C5.9934 16.0537 5.36853 15.4024 4.79496 14.7145C3.77563 13.4919 2.91595 12.1546 2.24555 10.7394C2.33634 10.7026 2.41178 10.6304 2.43783 10.5161C2.70528 9.33777 2.84024 8.14118 2.8471 6.93662C2.85067 6.33113 2.82324 5.72589 2.7596 5.12322C2.71022 4.65517 2.66496 4.15732 2.44332 3.72702C2.06779 2.99797 1.16779 2.72207 0.504518 3.32859C-0.209777 3.98186 0.00830255 5.06568 0.124609 5.89647C0.364627 7.61275 0.873192 9.29975 1.61903 10.8832C2.36378 12.4644 3.33866 13.9633 4.519 15.2928C5.10657 15.9548 5.74405 16.5795 6.42324 17.1596C7.061 17.7042 7.73662 18.2475 8.4896 18.6498C8.48164 18.6958 8.47423 18.7418 8.46573 18.7872C8.34202 19.4539 8.22406 20.1215 8.11516 20.7905C7.91684 22.0058 7.67353 23.2425 7.62141 24.4727C7.5767 25.5301 7.75171 26.6517 8.55351 27.4547C9.27796 28.1804 10.2915 28.5252 11.3155 28.695C11.3904 28.7073 11.4661 28.7166 11.5413 28.7274C11.5435 29.06 11.6024 29.4081 11.6189 29.7156C11.6477 30.2453 11.663 30.7756 11.6625 31.3058C11.6617 31.8571 11.6603 32.4083 11.6386 32.9594C11.6329 33.1048 11.5621 33.4655 11.6071 33.7272C11.5267 33.9063 11.4606 34.0918 11.3937 34.2744C11.2683 34.6179 11.1471 34.9621 11.028 35.3076C10.8357 35.8651 10.3848 36.681 10.8816 37.2048C11.279 37.6237 11.9897 37.5837 12.4926 37.3753C12.7669 37.2618 13.0162 37.0866 13.1682 36.8413C13.3547 36.5399 13.3421 36.1952 13.2477 35.8681C13.1344 35.4746 12.9921 35.0869 12.8631 34.6978C12.7274 34.2878 12.6116 33.8703 12.4635 33.4642C12.4284 33.3676 12.3282 33.3105 12.2232 33.2982C12.2229 33.1382 12.2122 32.993 12.2144 32.9152C12.227 32.3955 12.2311 31.8743 12.2078 31.3548C12.184 30.8231 12.1461 30.2916 12.0926 29.7616C12.0627 29.4649 12.0556 29.1119 11.9955 28.7841C13.0094 28.8895 14.0435 28.8758 15.0576 28.862C15.9576 28.8499 16.868 28.8237 17.7716 28.7533C17.7765 29.078 17.8333 29.4163 17.8498 29.7159C17.8786 30.2456 17.8939 30.7758 17.8934 31.306C17.8926 31.8573 17.8912 32.4086 17.8695 32.9596C17.8638 33.105 17.793 33.4657 17.838 33.7275C17.7576 33.9065 17.6915 34.092 17.6246 34.2747C17.4992 34.6181 17.378 34.9624 17.2589 35.3079C17.0666 35.8653 16.6157 36.6812 17.1124 37.205C17.5099 37.624 18.2206 37.5839 18.7234 37.3756C18.9977 37.262 19.2471 37.0868 19.3991 36.8415C19.5856 36.5402 19.573 36.1954 19.4786 35.8684C19.3653 35.4749 19.223 35.0872 19.094 34.698C18.9582 34.288 18.8425 33.8706 18.6944 33.4644C18.6593 33.3678 18.5591 33.3108 18.4541 33.2985C18.4538 33.1384 18.4434 32.9933 18.4453 32.9155C18.4579 32.3958 18.462 31.8745 18.4387 31.3551C18.4148 30.8233 18.377 30.2918 18.3235 29.7619C18.2917 29.4443 18.2845 29.0629 18.2121 28.7161C18.532 28.6855 18.8504 28.6495 19.167 28.6048C20.2316 28.4551 21.3656 28.1029 21.963 27.2002C22.5818 26.2648 22.5177 25.1155 22.3374 24.0705C21.9627 21.8987 21.2344 19.7819 20.2077 17.8031C20.9988 17.3967 21.7035 16.8295 22.3679 16.262C23.0471 15.6819 23.6845 15.0572 24.2721 14.3952C25.4522 13.0658 26.4271 11.5668 27.1718 9.98565C27.9177 8.40243 28.4262 6.71518 28.6662 4.99889C28.7839 4.16734 29.002 3.08377 28.2877 2.4305ZM1.88538 9.91937C1.39711 8.73768 1.03723 7.50897 0.82793 6.25226C0.766211 5.8808 0.716833 5.50754 0.680899 5.13299C0.64085 4.71503 0.579132 4.20201 0.869075 3.84545C1.10004 3.56133 1.48105 3.48632 1.73424 3.78174C1.9545 4.03889 2.0198 4.40111 2.06368 4.71863C2.30398 6.45058 2.22991 8.20566 1.88538 9.91937ZM12.6936 35.9085C12.7814 36.2155 12.8017 36.5235 12.5087 36.7357C12.3011 36.886 12.0229 36.9759 11.7602 36.9756C11.5144 36.9753 11.2686 36.8926 11.2546 36.6314C11.2371 36.3023 11.4296 35.9329 11.5317 35.6228C11.6499 35.2632 11.7678 34.9038 11.8795 34.5423C11.93 34.3797 11.9854 34.2145 12.0325 34.0478C12.2525 34.6677 12.5131 35.2778 12.6936 35.9085ZM18.9248 35.9085C19.0126 36.2155 19.0329 36.5235 18.7396 36.7357C18.5322 36.886 18.2538 36.9759 17.991 36.9756C17.7453 36.9753 17.4995 36.8926 17.4855 36.6314C17.4679 36.3023 17.6605 35.9329 17.7623 35.6228C17.8808 35.2632 17.9984 34.9038 18.1101 34.5423C18.1606 34.3797 18.216 34.2145 18.2632 34.0478C18.484 34.6677 18.7443 35.2778 18.9248 35.9085ZM3.76631 9.15487C3.76686 7.02087 4.87807 5.08212 6.70715 3.66101C8.53513 2.24194 11.0771 1.3549 13.8921 1.35541C16.707 1.35515 19.2487 2.24194 21.077 3.66101C22.9061 5.08212 24.0176 7.02113 24.0178 9.15487C24.0173 11.2886 22.9061 13.2276 21.077 14.6487C19.249 16.0678 16.707 16.9548 13.8921 16.9543C11.0771 16.9546 8.5354 16.0678 6.70715 14.6487C4.87834 13.2276 3.76686 11.2886 3.76631 9.15487ZM21.5823 26.0524C21.3859 27.028 20.5673 27.5541 19.5839 27.764C18.4055 28.0155 17.1511 28.0502 15.948 28.097C14.7166 28.145 13.4696 28.1614 12.2399 28.0723C11.3119 28.005 10.3121 27.8555 9.53059 27.3476C8.63086 26.7627 8.32254 25.8163 8.31733 24.8275C8.31047 23.5466 8.58944 22.2406 8.79051 20.9777C8.89694 20.3085 9.00831 19.6401 9.12681 18.9727C9.24723 18.2948 9.47271 17.5888 9.40084 16.9037C9.3992 16.888 9.39316 16.8762 9.38877 16.8629C10.7622 17.3533 12.2865 17.6274 13.8923 17.6276C15.6205 17.6274 17.2545 17.3104 18.7073 16.7473C19.886 18.6817 20.7662 20.7735 21.2797 22.9494C21.5145 23.9435 21.7874 25.0335 21.5823 26.0524ZM28.1121 4.23515C28.0762 4.60944 28.0271 4.98297 27.9651 5.35443C27.7558 6.6114 27.3962 7.83985 26.9077 9.0218C26.5631 7.30834 26.4893 5.553 26.7291 3.82104C26.773 3.50378 26.8383 3.14132 27.0585 2.88417C27.3117 2.58875 27.6927 2.66376 27.9237 2.94788C28.2139 3.30418 28.1522 3.81693 28.1121 4.23515Z" fill="#242647"/>
</svg>
