<svg width="64" height="78" viewBox="0 0 64 78" fill="none" xmlns="http://www.w3.org/2000/svg">
<path d="M40.6421 21.3111C40.6527 21.5482 40.6726 21.7863 40.7698 22.0072C40.9213 22.353 41.2077 22.5939 41.5746 22.6805C41.9255 22.7632 42.3062 22.6023 42.52 22.3192C42.6765 22.1116 42.752 21.8446 42.7675 21.5876C42.7775 21.4194 42.7786 21.2501 42.7764 21.0808C42.8153 20.8377 42.8363 20.5918 42.828 20.3453C42.8186 20.0594 42.7753 19.7392 42.6537 19.4794C42.601 19.3667 42.5294 19.2657 42.4456 19.178L42.4012 19.1047C42.2024 18.8355 41.8638 18.6679 41.5264 18.7311C41.1833 18.795 40.9391 19.0348 40.7875 19.3378C40.56 19.7936 40.5372 20.3986 40.5822 20.8959C40.5944 21.0292 40.6121 21.1718 40.6421 21.3111Z" fill="#242647"/>
<path d="M26.9255 19.1775L26.8816 19.1042C26.6824 18.835 26.3443 18.6674 26.0068 18.7306C25.6638 18.7945 25.4195 19.0343 25.268 19.3373C25.0404 19.7931 25.0177 20.3981 25.0626 20.8955C25.0748 21.0292 25.0926 21.1724 25.1226 21.3112C25.1331 21.5482 25.1531 21.7864 25.2502 22.0073C25.4018 22.3531 25.6882 22.594 26.0551 22.6806C26.4059 22.7633 26.7867 22.6023 26.9999 22.3192C27.1564 22.1116 27.2319 21.8447 27.2474 21.5877C27.2574 21.4195 27.2591 21.2502 27.2569 21.0809C27.2957 20.8377 27.3168 20.5918 27.3079 20.3454C27.2985 20.0595 27.2552 19.7392 27.1336 19.4794C27.0815 19.3668 27.0099 19.2657 26.9255 19.1775Z" fill="#242647"/>
<path d="M34.1016 27.1949C34.8626 27.2221 35.6447 27.0767 36.3136 26.702C36.867 26.3923 37.6607 25.9704 37.8056 25.3032C37.8361 25.1628 37.7029 25.0734 37.5825 25.0745C37.265 25.0773 37.018 25.2183 36.7382 25.3548C36.4734 25.4841 36.1964 25.5902 35.9111 25.6657C35.3843 25.805 34.8404 25.921 34.2914 25.9088C33.7863 25.8971 33.2878 25.7622 32.8426 25.5252C32.393 25.2854 32.1416 24.9391 31.8157 24.5683C31.3478 24.0359 30.4058 24.5055 30.705 25.206C30.9848 25.861 31.6331 26.3567 32.2409 26.6887C32.8038 26.9956 33.4621 27.1721 34.1016 27.1949Z" fill="#242647"/>
<path d="M63.8367 15.902C63.5109 14.4344 62.0177 13.4813 60.5922 14.2251C58.7388 15.1926 58.2831 17.7227 57.9051 19.5639C57.6542 20.7851 57.4799 22.0251 57.3744 23.2674C57.2667 24.5263 57.1357 25.8946 57.3705 27.1441C54.9382 30.1426 51.9579 32.7038 48.6324 34.6432C47.1021 35.5358 45.4946 36.2979 43.8421 36.9357C42.3411 37.5147 40.7925 37.9066 39.256 38.3612C39.0628 37.6262 38.9107 36.8791 38.8208 36.1137C38.7986 35.9227 38.7264 35.7751 38.626 35.6629C41.8455 34.7615 44.738 33.2589 47.1032 31.2994C51.0815 28.0072 53.5821 23.4067 53.581 18.3083C53.5821 13.2098 51.0815 8.60932 47.1032 5.31658C43.1233 2.01995 37.6579 0.00111016 31.6358 0C25.6137 0.00111016 20.1484 2.01995 16.1685 5.31658C12.1902 8.60877 9.68955 13.2093 9.69066 18.3083C9.68955 23.4067 12.1902 28.0072 16.1685 31.2994C17.3708 32.2952 18.7107 33.1723 20.159 33.9144C19.8598 34.6299 19.5611 35.3454 19.2725 36.0648C18.1712 35.3032 17.0133 34.6238 15.9137 33.8583C14.7269 33.0324 13.5757 32.1548 12.4683 31.225C10.2663 29.3761 8.24411 27.3073 6.49061 25.0264L6.44731 24.9682L6.45009 24.9448C6.48672 22.9055 6.45397 20.8689 6.288 18.835C6.14313 17.0632 6.05764 15.1399 5.42874 13.4591C4.98412 12.2706 4.11264 11.0756 2.72438 11.0617C1.08911 11.045 0.0322292 12.6326 0.00114458 14.1368C-0.0332705 15.8054 0.71498 17.5395 1.35832 19.0521C1.99722 20.5547 2.77156 21.9968 3.64193 23.3779C5.38322 26.1411 7.54693 28.6045 9.96043 30.7982C11.3082 32.0232 12.7347 33.1617 14.219 34.2175C15.6883 35.2627 17.2209 36.3307 18.8606 37.095C18.2395 38.6637 17.6333 40.2379 17.0216 41.8099C16.4449 43.2936 15.8732 44.7796 15.2848 46.2589C14.7458 47.6133 14.1724 48.9605 13.7838 50.3682C13.0767 52.931 13.1472 55.4982 14.5693 57.7996C15.3036 58.9886 16.3128 59.9966 17.4624 60.8054C17.1093 61.1956 16.7929 61.6163 16.4166 61.9877C15.9042 62.4934 15.3036 62.9324 14.6625 63.2583C13.4846 63.8578 12.1519 64.142 10.8341 63.9788C9.548 63.8195 8.35791 63.2633 7.35876 62.4467C6.27579 61.5614 5.7246 60.4967 5.17174 59.2478C4.90141 58.6367 4.50841 58.0788 3.85342 57.8462C3.25171 57.6325 2.57673 57.7724 2.15764 58.267C1.71135 58.7937 1.58035 59.6397 1.44269 60.2952C1.27117 61.1134 1.17514 61.9494 1.16293 62.7853C1.14239 64.183 1.21344 65.8017 1.92561 67.0456C2.50789 68.0625 3.69078 68.7386 4.79594 68.0447C6.04876 67.2582 6.1126 65.4614 6.08318 64.1508C6.07596 63.8167 6.04876 63.4836 6.01268 63.1528C6.08373 63.2205 6.14979 63.2932 6.22306 63.3587C7.91828 64.8686 10.294 65.6029 12.5416 65.276C13.8066 65.0923 15.0172 64.5943 16.0652 63.8655C16.9661 63.2388 17.8731 62.3768 18.2722 61.3316C18.7829 61.6336 19.3125 61.8989 19.8531 62.1242C22.4781 63.2172 25.3739 63.3998 28.1832 63.3471C29.6858 63.3188 31.2212 63.2783 32.7427 63.1506C33.7141 63.9027 34.7249 64.6049 35.6507 65.4203C36.8841 66.5061 38.0426 67.6734 39.1045 68.9273C41.211 71.4158 42.8801 74.1845 44.1368 77.1903C44.2812 77.5355 44.7063 77.6998 45.0483 77.5527C46.9095 76.7501 48.5475 75.5406 49.857 73.9919C50.7928 72.8851 52.4797 70.7608 51.4978 69.2459C50.3027 67.4036 47.7843 69.4008 46.7307 70.3877C46.0014 71.071 45.3569 71.8398 44.8379 72.6952C44.5981 73.0899 44.3189 73.5328 44.1196 73.9952C42.9745 71.8831 41.6007 69.8854 40.042 68.0731C38.9651 66.8213 37.7972 65.6407 36.5389 64.571C35.8944 64.0232 35.2222 63.4625 34.5173 62.9524C35.0068 62.8836 35.4948 62.8059 35.976 62.7087C38.2985 62.2386 40.5532 61.2666 42.0592 59.3688C43.5063 57.5459 43.9897 55.1979 43.9337 52.916C43.8127 47.9941 40.9629 43.8648 39.5324 39.3131C41.0811 39.1305 42.6115 38.6498 44.0708 38.1308C45.741 37.5369 47.3519 36.7859 48.8928 35.9094C51.9729 34.1575 54.7583 31.9356 57.1502 29.3211C59.5376 26.7117 61.5076 23.7048 62.9114 20.457C63.517 19.0537 64.1836 17.464 63.8367 15.902ZM2.28975 17.6405C1.7985 16.3688 0.940898 14.5526 1.61255 13.2204C1.86122 12.7275 2.34304 12.2962 2.93087 12.4072C3.45598 12.506 3.81511 13.0134 4.04603 13.4558C4.37519 14.0874 4.52451 14.7774 4.63164 15.4751C4.78762 16.4937 4.91084 17.5184 5.00576 18.5442C5.15175 20.1151 5.23335 21.6943 5.2339 23.2729C4.05436 21.5078 3.05632 19.6261 2.28975 17.6405ZM4.12596 66.8491C3.18232 67.5274 2.73936 65.3554 2.65999 64.8353C2.44961 63.4553 2.48347 62.0454 2.76934 60.6783C2.82707 60.4035 3.00747 59.1551 3.34218 59.1756L3.45209 59.214C3.44154 59.3222 3.45986 59.4399 3.5237 59.5648C4.16981 60.832 4.57169 62.1809 4.69159 63.6002C4.76153 64.4345 4.94471 66.2601 4.12596 66.8491ZM45.8121 73.6899C46.179 73.0305 46.6358 72.4138 47.1448 71.857C47.4723 71.499 50.341 68.9867 50.4131 70.2184C50.4487 70.8268 49.9818 71.4679 49.6643 71.9442C49.2447 72.5731 48.7679 73.1698 48.2367 73.7083C47.3269 74.6302 46.2584 75.3874 45.106 75.9758C45.0333 75.8176 44.965 75.6577 44.8901 75.5006C45.3158 74.9838 45.4846 74.2789 45.8121 73.6899ZM11.1455 18.3077C11.1466 13.6967 13.3953 9.50745 17.0966 6.43674C20.7956 3.37046 25.9396 1.45376 31.6358 1.45487C37.3321 1.45432 42.4755 3.37046 46.1751 6.43674C49.8764 9.50745 52.1256 13.6972 52.1261 18.3077C52.125 22.9182 49.8764 27.108 46.1751 30.1787C42.476 33.245 37.3321 35.1617 31.6358 35.1606C25.9396 35.1611 20.7962 33.245 17.0966 30.1787C13.3958 27.1085 11.1466 22.9188 11.1455 18.3077ZM41.9465 50.4897C42.355 52.5008 42.4477 54.6828 41.6928 56.6267C40.914 58.6333 39.2782 59.9433 37.2782 60.6361C35.1284 61.3804 32.7782 61.4609 30.5268 61.588C27.813 61.7412 25.0481 61.8317 22.3787 61.2233C20.2672 60.7421 18.2078 59.7013 16.7413 58.0805C15.1527 56.3236 14.5626 54.1788 14.9689 51.8447C15.2381 50.2988 15.8288 48.8195 16.3672 47.3524C16.9295 45.8198 17.5051 44.2922 18.0791 42.7641C19.1237 39.9831 20.1867 37.2072 21.1592 34.3996C24.2766 35.8145 27.8452 36.6154 31.6358 36.616C33.5392 36.6154 35.386 36.4128 37.1489 36.0326C37.1228 36.1325 37.1117 36.2419 37.1261 36.364C37.7251 41.4086 40.9479 45.5745 41.9465 50.4897ZM61.2911 20.9399C60.5523 22.5025 59.6719 23.9973 58.6766 25.4128C58.6689 24.9787 58.6605 24.5446 58.6766 24.1117C58.7149 23.0903 58.8054 22.0728 58.962 21.0626C59.1146 20.0745 59.3155 19.0915 59.5742 18.1257C59.7779 17.3646 60.0305 16.6114 60.5184 15.9803C60.882 15.5101 61.4904 15.01 62.1004 15.3824C62.5517 15.6578 62.6394 16.2828 62.6422 16.7651C62.6499 18.2134 61.8956 19.6621 61.2911 20.9399Z" fill="#242647"/>
</svg>
