<svg width="239" height="134" viewBox="0 0 239 134" fill="none" xmlns="http://www.w3.org/2000/svg">
<path d="M52.9346 92.2554C43.9068 89.4776 35.3244 89.4959 25.8794 89.7012C16.7427 89.8998 9.09614 94.665 1 97.3637" stroke="#8A9ACE" stroke-linecap="round"/>
<path d="M48.7275 49.2505C48.7275 48.1626 48.654 47.073 48.868 46.0026C49.0129 45.2784 49.4591 44.5821 49.5551 43.9102C49.7486 42.556 50.0979 45.4573 50.1485 45.8621C50.3526 47.4948 50.8511 47.8364 52.4751 48.0326C53.1507 48.1141 58.1388 48.3539 57.3783 48.907C57.0262 49.163 56.2106 49.0224 55.7543 49.2505C54.9799 49.6377 54.4329 49.8891 53.6619 50.1094C53.3939 50.1859 55.1178 52.2359 55.3327 52.4985C55.9874 53.2987 56.0984 54.6696 56.66 55.3717C57.0652 55.8782 56.0665 55.7337 55.7543 55.5903C54.8646 55.1815 54.0175 54.6576 53.2247 54.0912C51.3793 52.7731 50.1125 51.8945 47.7437 52.6234C46.9133 52.8789 45.7274 53.4475 45.0736 54.0288C43.9414 55.0351 44.665 52.8497 44.8549 52.2799C45.3531 50.7854 46.8681 49.1112 44.6519 48.1263C43.7676 47.7332 43.0587 47.3094 44.5739 47.6266C45.8471 47.8931 47.1416 48.6884 48.4464 48.6884" stroke="#8A9ACE" stroke-linecap="round"/>
<path d="M104.754 46.4835C102.038 27.4689 88.0603 14.4448 75.4829 1" stroke="#8A9ACE" stroke-linecap="round"/>
<path d="M150.308 35.0239C151.754 35.0239 152.048 32.5625 152.662 32.5625C153.219 32.5625 153.077 36.1564 153.077 36.6853" stroke="#8A9ACE" stroke-linecap="round"/>
<path d="M153.077 36.9625C153.403 36.9625 156.646 37.6954 156.646 37.9317C156.646 38.4558 152.15 37.6483 151.985 38.2239C151.849 38.7002 151.97 39.3745 151.97 39.87C151.97 40.324 152.615 42.3923 151.754 41.4237C151.007 40.583 150.332 38.347 149.062 38.347C148.298 38.347 147.534 38.347 146.77 38.347C146.381 38.347 145.115 38.5684 144.832 38.2855C144.66 38.1132 146.33 37.7523 146.447 37.6547C146.752 37.401 147.797 37.2924 147.816 36.9625C147.843 36.5089 147.448 35.3308 147.109 35.0395C146.724 34.7098 145.229 32.1304 146.155 32.5936C147.226 33.1293 148.175 34.7473 149.478 34.7473" stroke="#8A9ACE" stroke-linecap="round"/>
<path d="M224.593 74.6665C225.873 73.9466 225.648 71.5381 227.12 71.5381C228.691 71.5381 228.814 75.1478 229.767 75.1478C230.85 75.1478 232.077 75.4708 233.136 75.7494C233.579 75.8658 235.933 75.9868 235.061 76.4713C234.342 76.8708 233.484 77.3136 232.641 77.3136C232.028 77.3136 231.468 77.5542 230.85 77.5542C229.571 77.5542 230.041 78.7247 230.141 79.8403C230.436 83.1239 230.324 82.4295 228.631 80.736C228.252 80.3577 227.292 78.5482 226.759 78.5168C224.924 78.4088 222.611 78.3715 220.983 79.1852C220.335 79.5095 221.968 78.1203 222.481 77.6077C223.372 76.7168 222.397 76.2165 221.705 75.6825C221.439 75.477 219.047 73.4149 220.074 73.7574C221.864 74.354 223.45 75.0155 225.315 75.3884" stroke="#8A9ACE" stroke-linecap="round"/>
<path d="M183.12 57.3769C187.38 50.8089 193.187 44.0449 199.924 39.9597C205.403 36.6373 211.105 34.7065 217.169 32.7475C220.923 31.5347 227.51 30.2075 230.367 27.3506" stroke="#8A9ACE" stroke-linecap="round"/>
<path d="M203 108C215.867 108.124 225.816 112.482 233.124 123.209C235.216 126.28 235.925 130.231 237.883 133.169" stroke="#8A9ACE" stroke-linecap="round"/>
</svg>
