<svg width="81" height="141" viewBox="0 0 81 141" fill="none" xmlns="http://www.w3.org/2000/svg">
<path d="M68.368 10.4127C61.1135 4.4651 51.1515 0.822804 40.1746 0.820801C29.1977 0.822804 19.2356 4.4651 11.9811 10.4127C4.72965 16.3524 0.171561 24.6524 0.173585 33.8508C0.171561 43.0492 4.73066 51.3492 11.9811 57.2899C14.1797 59.0925 16.6313 60.6798 19.2802 62.0217C18.1338 64.1879 17.3133 66.5663 16.5231 68.8637C15.6377 71.4344 14.8738 74.0472 14.204 76.681C12.8047 82.186 11.8941 87.8082 11.4155 93.4644C10.941 99.0756 10.9461 104.725 11.453 110.334C11.6442 112.452 11.7161 115.011 13.3086 116.643C14.717 118.087 16.9156 117.817 18.0954 116.237C19.5624 114.272 19.4593 111.259 18.9048 109.002C18.2471 106.321 16.7922 103.962 14.6927 102.152C14.0695 101.615 13.3531 101.952 13.0435 102.518C12.8644 94.0212 13.7862 85.5439 15.836 77.2769C16.4846 74.6591 17.2546 72.0733 18.1186 69.5176C18.5841 68.1416 19.1294 66.7857 19.6556 65.4257C18.8815 68.427 18.325 71.4865 17.8333 74.5409C17.1109 79.0295 16.6414 83.56 16.3986 88.0986C16.1891 92.0093 15.7986 96.2625 16.8347 100.091C17.7888 103.615 20.1341 106.235 23.5044 107.688C24.8339 108.262 26.2322 108.656 27.6608 108.937C27.4878 109.706 27.6021 110.578 27.6163 111.341C27.6396 112.652 27.7397 113.964 27.8197 115.273C27.9755 117.818 28.1515 120.361 28.3185 122.904C28.5765 126.837 28.8567 130.779 29.053 134.718C26.6521 133.828 24.0841 133.452 21.5122 133.644C19.3186 133.807 15.9777 134.647 15.9807 137.4C15.9838 140.25 19.4562 140.743 21.6397 140.808C24.6892 140.899 28.0969 140.513 30.8267 139.078C31.3053 138.825 31.5825 138.388 31.5218 137.843C30.9623 132.788 30.599 127.698 30.1964 122.629C30.0001 120.163 29.8119 117.697 29.6085 115.231C29.5012 113.928 29.4082 112.619 29.2534 111.321C29.1704 110.632 29.1451 109.855 28.9448 109.16C30.8338 109.445 32.7552 109.564 34.628 109.655C38.4667 109.842 42.3297 109.72 46.1573 109.342C46.0875 110.002 46.1684 110.709 46.1796 111.34C46.2028 112.651 46.303 113.963 46.3839 115.272C46.5398 117.817 46.7158 120.36 46.8828 122.903C47.1408 126.836 47.421 130.778 47.6173 134.717C45.2163 133.827 42.6484 133.451 40.0775 133.643C37.8839 133.806 34.543 134.646 34.546 137.399C34.549 140.249 38.0205 140.742 40.205 140.807C43.2545 140.898 46.6622 140.512 49.392 139.077C49.8705 138.824 50.1478 138.387 50.0881 137.842C49.5286 132.787 49.1653 127.697 48.7626 122.628C48.5663 120.162 48.3782 117.696 48.1748 115.23C48.0675 113.927 47.9745 112.618 47.8186 111.32C47.7377 110.644 47.7124 109.884 47.5222 109.2C47.7458 109.174 47.9714 109.158 48.194 109.131C51.7231 108.693 55.661 107.851 57.7402 104.688C59.9085 101.388 59.8073 97.0136 59.8771 93.2261C59.9682 88.2549 59.6808 83.3127 59.0201 78.4196C60.1958 82.5075 61.1115 86.6636 61.7115 90.8727C62.1587 94.0142 62.4511 97.1859 62.6059 100.361C59.5149 103.594 57.2981 108.64 57.4569 113.074C57.5197 114.839 58.3352 116.893 60.3375 117.165C62.7354 117.49 64.2056 115.281 64.5577 113.228C65.0089 110.595 64.8966 107.757 64.8764 105.094C64.8551 102.353 64.7347 99.6144 64.4636 96.8864C63.9273 91.4896 62.9378 86.1298 61.5557 80.8831C60.7948 77.9929 59.9055 75.1368 58.8825 72.3267C58.2168 70.4991 57.5531 68.5703 56.7032 66.7576C56.4785 65.9014 56.2367 65.0471 55.9898 64.1949C60.6289 62.5455 64.8217 60.1951 68.366 57.2899C75.6175 51.3502 80.1756 43.0502 80.1736 33.8508C80.1776 24.6524 75.6195 16.3524 68.368 10.4127ZM13.3035 103.956C14.8819 105.267 16.0323 106.995 16.6303 108.95C17.1584 110.675 17.4974 113.21 16.4725 114.827C15.1754 116.875 14.0057 113.904 13.8105 112.796C13.4118 110.533 13.2955 108.181 13.169 105.891C13.1285 105.167 13.1123 104.444 13.089 103.72C13.1477 103.802 13.2155 103.883 13.3035 103.956ZM23.7543 138.251C22.6353 138.326 21.5152 138.289 20.4012 138.165C19.9217 138.112 18.5922 138.027 18.4333 137.418C18.0812 136.065 22.2032 135.907 22.872 135.9C25.0302 135.874 27.1286 136.336 29.1006 137.173C27.3421 137.669 25.6109 138.125 23.7543 138.251ZM42.3186 138.251C41.1995 138.326 40.0795 138.289 38.9655 138.165C38.4859 138.112 37.1564 138.027 36.9976 137.418C36.6455 136.065 40.7675 135.907 41.4363 135.9C43.5944 135.874 45.6929 136.336 47.6648 137.173C45.9064 137.669 44.1752 138.125 42.3186 138.251ZM62.7395 104.834C62.7486 107.194 62.695 109.569 62.5017 111.922C62.4278 112.816 62.358 113.943 61.6498 114.598C60.895 115.295 60.124 114.986 59.8286 114.091C59.1749 112.115 60.04 109.466 60.7291 107.609C61.24 106.232 61.9321 105 62.7172 103.816C62.7223 104.156 62.7385 104.495 62.7395 104.834ZM57.3861 88.7025C57.4893 92.505 57.546 96.5609 56.7568 100.302C56.4097 101.947 55.7065 103.54 54.3335 104.587C53.0597 105.558 51.457 105.997 49.8989 106.281C45.8457 107.019 41.6235 107.227 37.5096 107.179C33.9359 107.137 30.2034 107.051 26.7219 106.167C23.5023 105.35 20.6734 103.614 19.4603 100.427C18.1601 97.0126 18.5163 92.9947 18.6468 89.4236C18.8148 84.8078 19.2357 80.2062 19.8771 75.6325C20.4569 71.4955 21.3361 67.4186 22.0919 63.3136C27.5313 65.5929 33.6728 66.8808 40.1766 66.8818C44.8693 66.8808 49.3748 66.2098 53.5646 64.983C55.8998 72.6732 57.1676 80.6758 57.3861 88.7025ZM66.6763 55.2679C59.9338 60.8 50.5576 64.258 40.1746 64.256C29.7916 64.257 20.4164 60.8 13.6728 55.2679C6.92623 49.7279 2.82649 42.1689 2.82548 33.8508C2.82751 25.5327 6.92623 17.9737 13.6728 12.4337C20.4154 6.90164 29.7916 3.44361 40.1746 3.44562C50.5566 3.44462 59.9328 6.90164 66.6763 12.4337C73.4229 17.9737 77.5227 25.5327 77.5237 33.8508C77.5217 42.1699 73.4229 49.7289 66.6763 55.2679Z" fill="#242647"/>
<path d="M47.5011 45.9206L47.4211 45.7884C47.0579 45.3027 46.4417 45.0003 45.8266 45.1144C45.2013 45.2296 44.7561 45.6622 44.4799 46.209C44.065 47.0312 44.0235 48.1228 44.1055 49.0201C44.1277 49.2615 44.1601 49.5188 44.2148 49.7702C44.234 50.1988 44.2704 50.6274 44.4475 51.026C44.7237 51.6499 45.2458 52.0846 45.9146 52.2408C46.554 52.39 47.2481 52.0996 47.6376 51.5888C47.923 51.2143 48.0606 50.7326 48.0889 50.2689C48.1071 49.9655 48.1101 49.66 48.1061 49.3546C48.1769 48.916 48.2154 48.4723 48.1992 48.0277C48.181 47.5119 48.1031 46.9341 47.8815 46.4654C47.7844 46.2611 47.6538 46.0788 47.5011 45.9206Z" fill="#242647"/>
<path d="M20.9809 44.1701L20.901 44.0379C20.5388 43.5522 19.9216 43.2498 19.3064 43.3639C18.6811 43.4791 18.2359 43.9117 17.9597 44.4585C17.5449 45.2807 17.5034 46.3723 17.5853 47.2696C17.6076 47.511 17.64 47.7683 17.6946 48.0197C17.7138 48.4473 17.7503 48.877 17.9273 49.2755C18.2036 49.8994 18.7256 50.3341 19.3944 50.4903C20.0339 50.6395 20.728 50.3491 21.1175 49.8384C21.4028 49.4638 21.5404 48.9821 21.5688 48.5184C21.587 48.215 21.589 47.9095 21.5849 47.6041C21.6558 47.1655 21.6942 46.7218 21.6791 46.2772C21.6619 45.7614 21.5829 45.1836 21.3613 44.7149C21.2642 44.5116 21.1337 44.3294 20.9809 44.1701Z" fill="#242647"/>
<path d="M36.1741 55.542C35.8503 55.3147 35.4901 55.1074 35.1249 54.9531C34.445 54.6657 33.6983 54.4855 32.9617 54.4234C32.2453 54.3623 31.5047 54.3993 30.8025 54.5576C30.0943 54.7178 29.1685 54.9641 28.7749 55.6241C28.5958 55.9235 28.6879 56.4273 29.124 56.4433C29.7462 56.4673 30.3199 56.1959 30.928 56.0898C31.5391 55.9836 32.0925 55.9776 32.7057 56.0627C33.3006 56.1459 33.7782 56.2891 34.3448 56.5575C34.9286 56.8339 35.4001 57.2595 36.1144 57.3376C36.5039 57.3797 36.9653 57.0151 36.853 56.5885C36.7376 56.1469 36.5596 55.8134 36.1741 55.542Z" fill="#242647"/>
</svg>
