<svg width="88" height="54" viewBox="0 0 88 54" fill="none" xmlns="http://www.w3.org/2000/svg">
<path d="M1.55165 8.01164C-2.38178 -4.28032 15.8582 2.33086 20.2442 7.23279C22.5864 9.85054 23.0262 17.9413 20.2442 20.1272C17.1117 22.5884 12.7045 27.4507 14.0133 31.3773" stroke="#8A9ACE" stroke-linecap="round"/>
<path d="M14.0134 41.5025C16.4713 41.5025 15.5711 41.2576 15.5711 40.7236" stroke="#8A9ACE" stroke-linecap="round"/>
<path d="M47.504 1.00195C47.504 7.51892 46.7252 14.0561 46.7252 20.4733C46.7252 26.1872 46.9721 32.9733 45.1675 38.387" stroke="#8A9ACE" stroke-linecap="round"/>
<path d="M86.793 5.4718C84.9528 11.7235 82.3597 17.7748 80.5476 23.9309C78.9341 29.4122 77.2548 35.9918 73.9949 40.6757" stroke="#8A9ACE" stroke-linecap="round"/>
<path d="M42.8308 47.7331C44.0003 47.8019 46.2065 50.2421 47.3309 49.1177C48.868 47.5806 44.6629 47.5991 44.0424 47.7764C43.2218 48.0108 43.131 51.2634 44.7347 50.8052C45.8239 50.494 44.6398 47.4569 45.9462 50.0696" stroke="#8A9ACE" stroke-linecap="round"/>
<path d="M69.1142 48.9815C70.2167 49.3778 71.644 52.3417 73.0401 51.5805C74.9487 50.54 70.9096 49.3703 70.2642 49.3651C69.4109 49.3583 68.4053 52.453 70.0731 52.4663C71.2058 52.4753 70.9276 49.2274 71.443 52.1027" stroke="#8A9ACE" stroke-linecap="round"/>
</svg>
