<svg width="99" height="140" viewBox="0 0 99 140" fill="none" xmlns="http://www.w3.org/2000/svg">
<path d="M7.75341 22.9206C7.16168 22.8085 6.56797 23.1064 6.21873 23.5842L6.14089 23.7145C5.99421 23.8711 5.86749 24.0499 5.77569 24.2499C5.56215 24.7115 5.48731 25.2802 5.47035 25.7872C5.45538 26.2246 5.49229 26.662 5.56015 27.0933C5.55616 27.3943 5.55917 27.6953 5.57613 27.9933C5.60308 28.4488 5.73479 28.9235 6.01019 29.2922C6.38538 29.7942 7.05292 30.0801 7.66759 29.9336C8.3112 29.7801 8.81312 29.3528 9.07854 28.7387C9.24818 28.3458 9.2841 27.9236 9.30206 27.5023C9.35495 27.2549 9.38689 27.0024 9.40785 26.764C9.48668 25.8822 9.44777 24.8074 9.04764 23.9983C8.78321 23.46 8.3551 23.0337 7.75341 22.9206Z" fill="#242647"/>
<path d="M34.9724 22.9206C34.3807 22.8085 33.787 23.1064 33.4377 23.5842L33.3599 23.7145C33.2132 23.8711 33.0865 24.0499 32.9947 24.2499C32.7811 24.7115 32.7063 25.2802 32.6893 25.7872C32.6744 26.2246 32.7113 26.662 32.7791 27.0933C32.7752 27.3943 32.7781 27.6953 32.7951 27.9933C32.822 28.4488 32.9538 28.9235 33.2292 29.2922C33.6033 29.7942 34.2719 30.0801 34.8866 29.9336C35.5302 29.7801 36.0321 29.3528 36.2975 28.7387C36.4672 28.3458 36.5031 27.9236 36.5211 27.5023C36.5739 27.2549 36.6059 27.0024 36.6268 26.764C36.7056 25.8822 36.6657 24.8074 36.2666 23.9983C36.0022 23.46 35.5731 23.0337 34.9724 22.9206Z" fill="#242647"/>
<path d="M21.6254 35.9267C21.5326 35.1348 21.4717 34.2166 21.0626 33.5197C20.7912 33.057 20.3422 32.7611 19.8103 32.7085C19.1887 32.6469 18.597 33.0055 18.2497 33.5116C17.8166 34.1439 17.5672 34.9156 17.4365 35.6671C17.3028 36.4338 17.3227 37.263 17.5013 38.0206C17.7059 38.8852 18.0541 39.9115 18.7676 40.4761C19.1677 40.7933 19.8253 40.8085 20.2215 40.467C20.3771 40.3327 20.4799 40.1671 20.5547 39.9913C21.1973 39.7004 21.6075 39.0388 21.7172 38.3166C21.7771 37.9246 21.7421 37.5135 21.7232 37.1196C21.7032 36.7216 21.6713 36.3237 21.6254 35.9267Z" fill="#242647"/>
<path d="M97.7808 81.4526C97.0044 79.6536 94.7713 78.8556 92.9592 79.2213C90.6991 79.6768 89.0556 81.7677 87.956 83.6717C87.8552 83.8465 87.8003 84.0243 87.7794 84.198C86.3036 83.1778 85.0992 81.8283 83.9437 80.4627C82.6574 78.9435 81.3762 77.4233 80.0361 75.9516C77.2561 72.8991 74.3304 69.984 71.3299 67.1548C68.1827 64.1871 64.9537 61.3185 61.571 58.6326C71.0435 52.7065 77.1973 43.2015 77.1973 32.5037C77.1973 14.5806 59.9315 0 38.7084 0C17.4853 0 0.219604 14.5816 0.219604 32.5037C0.219604 47.9045 12.9731 60.8296 30.0272 64.1629C29.19 66.1275 28.7779 68.4032 28.2161 70.4022C27.4837 73.0082 26.7533 75.6153 26.0288 78.2233C24.6927 83.0354 23.3526 87.8444 21.9726 92.6433C19.5378 91.305 16.8816 90.2777 14.1016 91.2383C11.4892 92.1413 9.77196 95.0958 10.9724 97.7887C12.3594 100.9 16.4565 100.275 19.0819 99.5614C21.6483 98.8645 25.2964 96.3302 24.0461 93.1555C25.2924 88.4262 26.5746 83.7071 27.8619 78.988C28.5564 76.4425 29.2459 73.8951 29.9324 71.3476C30.2856 70.0396 30.6469 68.7325 30.9911 67.4224C31.2007 66.6224 31.4451 65.7911 31.6118 64.9548C31.2196 69.1244 31.0969 73.3345 30.8843 77.5132C30.6508 82.1061 30.4114 86.698 30.139 91.2888C29.9154 95.0463 30.1399 98.6584 32.895 101.466C35.1751 103.791 38.3133 105.02 41.4166 105.737C42.162 105.91 42.9642 106.057 43.8094 106.179C43.511 110.72 43.8264 115.306 43.989 119.856C44.1187 123.497 44.2554 127.136 44.3901 130.776C41.8436 129.679 39.0796 129.18 36.3046 129.307C34.0315 129.41 30.4074 129.847 29.5253 132.431C29.1181 133.622 29.634 134.909 30.571 135.679C31.7375 136.64 33.2233 136.676 34.6552 136.63C38.3911 136.507 42.12 136.213 45.831 135.767C46.4856 135.688 46.8169 135.067 46.7899 134.46C46.5724 129.556 46.3708 124.652 46.1573 119.748C45.9627 115.285 45.9118 110.776 45.2842 106.357C50.1217 106.847 56.0719 106.521 61.3555 105.044C62.8233 109.968 64.8349 114.743 66.678 119.529C68.3783 123.944 70.0846 128.356 71.7989 132.765C69.0239 132.023 66.1232 131.827 63.2644 132.235C60.8166 132.583 55.4033 133.558 55.564 137.019C55.6468 138.807 57.2743 139.408 58.7631 139.667C60.5502 139.977 62.3753 140.054 64.1854 139.966C67.9462 139.783 71.6413 138.704 74.9421 136.88C75.8492 136.379 75.6875 135.176 75.0549 134.739C75.0579 134.58 75.0419 134.418 74.977 134.254C72.9464 129.104 70.8909 123.963 68.8353 118.822C66.9314 114.06 65.1702 109.174 62.8991 104.572C70.843 101.932 76.7582 96.4686 74.0061 86.9515C73.3286 84.6091 72.2819 82.4041 71.271 80.196C70.2003 77.8577 69.1307 75.5193 68.061 73.181C66.2968 69.3275 64.5536 65.4588 62.7445 61.6255C65.3758 64.2073 68.077 66.7144 70.7063 69.3012C74.4163 72.9507 77.9836 76.7557 81.2525 80.8172C83.808 83.994 86.6837 87.7757 91.0792 88.0404C92.8524 88.1474 94.7593 87.707 96.1493 86.5394C97.5572 85.3515 98.5681 83.2758 97.7808 81.4526ZM21.303 95.9362C20.5028 96.7978 19.3463 97.2372 18.2327 97.4968C16.7519 97.8413 13.441 98.6806 12.8822 96.5554C12.3634 94.5817 14.2573 93.3009 15.9536 93.1494C18.0561 92.9615 20.0647 94.0837 21.8638 95.0948C21.7191 95.3867 21.5495 95.6706 21.303 95.9362ZM37.4242 134.144C36.135 134.224 34.8228 134.355 33.5316 134.321C32.8052 134.301 30.9073 133.938 31.6656 132.79C32.1765 132.017 33.4468 131.782 34.27 131.621C35.4225 131.394 36.601 131.285 37.7754 131.324C40.1264 131.4 42.3735 132.003 44.474 133.049C44.48 133.226 44.4869 133.402 44.4929 133.579C42.14 133.8 39.7821 133.997 37.4242 134.144ZM66.0154 137.355C64.6104 137.549 63.1945 137.62 61.7785 137.544C61.109 137.508 60.4415 137.445 59.7779 137.352C59.4496 137.305 58.0875 137.271 57.9638 136.903C57.875 136.641 58.7761 136.081 58.9387 135.99C59.4825 135.687 60.1192 135.494 60.7109 135.311C62.1248 134.871 63.6016 134.621 65.0764 134.522C67.5571 134.355 70.0457 134.706 72.3976 135.5C70.365 136.413 68.2316 137.049 66.0154 137.355ZM2.7711 32.5026C2.7711 16.0049 18.8922 2.58179 38.7084 2.58179C58.5246 2.58179 74.6458 16.0039 74.6458 32.5026C74.6458 49.0014 58.5246 62.4235 38.7084 62.4235C18.8922 62.4235 2.7711 49.0014 2.7711 32.5026ZM70.1335 82.9566C71.7221 86.3848 73.4683 90.4151 72.224 94.2393C71.2691 97.1736 68.8553 99.2907 66.2379 100.721C59.7719 104.252 51.6035 104.968 44.428 103.97C41.3677 103.545 38.1965 102.765 35.648 100.913C34.4846 100.066 33.4478 99.0241 32.8221 97.7029C31.9969 95.9635 31.968 94.014 32.0219 92.1231C32.1586 87.3939 32.3871 82.6667 32.5956 77.9405C32.7902 73.5213 33.0816 69.082 33.0716 64.6558C34.9126 64.8851 36.7936 65.0073 38.7094 65.0073C46.304 65.0073 53.3867 63.1326 59.3578 59.9124C62.8063 67.6588 66.5682 75.2638 70.1335 82.9566ZM95.4947 83.4778C94.5617 85.6626 91.9913 85.8283 89.8778 85.201L89.9028 85.1717C90.7919 83.899 91.7029 82.095 93.3144 81.6485C94.5158 81.3162 96.1074 82.0445 95.4947 83.4778Z" fill="#242647"/>
</svg>
