<svg width="285" height="100" viewBox="0 0 285 100" fill="none" xmlns="http://www.w3.org/2000/svg">
<path d="M21.305 43.188C21.8639 47.3934 20.8336 51.4432 20.3759 55.6066C20.0948 58.1639 19.6096 60.7803 19.5048 63.3498C19.4237 65.3394 19.5038 67.3493 19.5841 69.3372C19.662 71.2653 19.3908 73.1578 19.4394 75.0802C19.513 77.9964 19.5526 80.8915 19.4176 83.8078C19.3148 86.0277 18.9211 88.3367 19.0358 90.5554C19.1722 93.1909 18.6492 95.8908 19.026 98.5195" stroke="#8A9ACE" stroke-linecap="round"/>
<path d="M149.465 1.83401C148.247 5.89746 145.643 9.16592 143.514 12.7732C142.207 14.9889 140.689 17.1748 139.537 19.4741C138.646 21.2545 137.893 23.1197 137.149 24.965C136.427 26.7547 135.402 28.3685 134.656 30.1409C133.525 32.8297 132.371 35.4852 131.049 38.0883C130.043 40.0697 128.735 42.0129 127.928 44.0827C126.969 46.5412 125.382 48.7876 124.645 51.3388" stroke="#8A9ACE" stroke-linecap="round"/>
<path d="M260.877 38.4598C257.904 41.4861 254.077 43.1633 250.512 45.3619C248.322 46.7124 245.96 47.9384 243.869 49.4354C242.25 50.5946 240.714 51.8935 239.196 53.179C237.723 54.4258 236.064 55.3755 234.577 56.5956C232.323 58.4466 230.064 60.2577 227.681 61.9441C225.867 63.2279 223.803 64.3369 222.124 65.7915C220.129 67.5193 217.678 68.7668 215.837 70.68" stroke="#8A9ACE" stroke-linecap="round"/>
<path d="M19.1826 98.9023C23.8004 97.0186 27.9236 94.0524 32.4326 91.9302C37.6381 89.4801 42.9901 87.1765 48.1007 84.5437C49.8524 83.6413 51.7041 82.975 53.5167 82.21C54.959 81.6013 56.2562 80.6822 57.6894 80.0601C59.4414 79.2996 61.2308 78.6155 62.9996 77.8939" stroke="#8A9ACE" stroke-linecap="round"/>
<path d="M124.631 51.753C129.615 51.9338 134.593 50.9244 139.575 50.8431C145.328 50.7491 151.154 50.8488 156.895 50.5493C158.863 50.4467 160.825 50.6004 162.791 50.648C164.356 50.6859 165.917 50.3812 167.479 50.4031C169.389 50.4299 171.301 50.5418 173.21 50.611" stroke="#8A9ACE" stroke-linecap="round"/>
<path d="M215.63 71.0392C219.955 73.5231 224.829 74.9514 229.275 77.2029C234.408 79.8021 239.515 82.6069 244.734 85.0189C246.522 85.8457 248.186 86.8964 249.904 87.8557C251.271 88.6189 252.793 89.077 254.165 89.8249C255.842 90.7391 257.481 91.7297 259.138 92.6812" stroke="#8A9ACE" stroke-linecap="round"/>
<path d="M21.646 42.377C21.9222 43.054 22.4733 43.31 23.0793 43.6952C24.3056 44.4749 25.5003 45.3068 26.7353 46.0719C30.184 48.2086 33.4797 50.5405 36.7986 52.8745C39.8276 55.0046 43.264 57.0166 45.9227 59.6001C49.3448 62.9255 53.027 66.0395 56.5296 69.2903C58.7166 71.32 60.9483 73.5348 62.8317 75.8363C63.313 76.4244 63.7731 76.89 64.1924 77.4951C64.3466 77.7176 63.6126 77.8684 63.2699 78.0082" stroke="#8A9ACE" stroke-linecap="round"/>
<path d="M150.11 1.23438C150.083 1.96515 150.481 2.42503 150.875 3.02525C151.672 4.24006 152.419 5.48949 153.231 6.69461C155.496 10.0599 157.542 13.5404 159.609 17.0323C161.494 20.2191 163.8 23.4658 165.162 26.9137C166.915 31.3518 168.992 35.7041 170.849 40.1073C172.008 42.8565 173.132 45.7928 173.903 48.665C174.1 49.399 174.328 50.0125 174.462 50.7365C174.511 51.0027 173.78 50.8385 173.41 50.8251" stroke="#8A9ACE" stroke-linecap="round"/>
<path d="M261.726 38.2305C261.362 38.8646 261.499 39.4566 261.568 40.1713C261.707 41.6179 261.785 43.0716 261.941 44.516C262.376 48.5495 262.563 52.5825 262.763 56.635C262.945 60.3335 263.471 64.2807 263.068 67.9659C262.549 72.7093 262.357 77.5279 261.946 82.289C261.69 85.2616 261.315 88.3834 260.658 91.2837C260.49 92.0249 260.406 92.674 260.187 93.3767C260.106 93.6351 259.536 93.149 259.215 92.9646" stroke="#8A9ACE" stroke-linecap="round"/>
<path d="M29.8345 58.4346C32.0091 62.2422 33.7176 66.2558 35.8483 70.0942" stroke="#8A9ACE" stroke-linecap="round"/>
<path d="M150.974 19.2402C151.392 23.6052 151.3 27.9663 151.664 32.3413" stroke="#8A9ACE" stroke-linecap="round"/>
<path d="M254.095 54.5605C252.429 58.6166 250.314 62.4316 248.597 66.4719" stroke="#8A9ACE" stroke-linecap="round"/>
<path d="M37.3507 75.4902C37.0456 76.2575 37.2633 76.6462 37.5556 77.3628C37.8288 78.0325 37.9768 78.0134 38.4969 78.3762C38.8662 78.6338 39.9954 77.9333 40.1518 77.5614C40.3637 77.0574 40.2954 75.681 39.6646 75.4157C38.9506 75.1154 37.7599 75.1835 37.0622 75.4681" stroke="#8A9ACE" stroke-linecap="round"/>
<path d="M150.816 37.8766C150.222 38.4507 150.261 38.8946 150.233 39.668C150.207 40.3908 150.35 40.4342 150.675 40.9787C150.905 41.3653 152.223 41.1908 152.518 40.9161C152.919 40.5438 153.422 39.2609 152.956 38.7598C152.428 38.1926 151.315 37.7653 150.562 37.7379" stroke="#8A9ACE" stroke-linecap="round"/>
<path d="M245.265 70.9742C244.472 71.2053 244.3 71.616 243.914 72.2871C243.554 72.9143 243.66 73.0193 243.694 73.6525C243.718 74.1021 244.964 74.562 245.354 74.4567C245.882 74.314 246.925 73.4139 246.747 72.7534C246.544 72.0056 245.759 71.1084 245.105 70.7331" stroke="#8A9ACE" stroke-linecap="round"/>
</svg>
